<?xml version="1.0" encoding="utf-8"?>
<!-- Generator: Adobe Illustrator 25.2.0, SVG Export Plug-In . SVG Version: 6.00 Build 0)  -->
<svg version="1.1" id="Layer_1" xmlns="http://www.w3.org/2000/svg" xmlns:xlink="http://www.w3.org/1999/xlink" x="0px" y="0px"
	 viewBox="0 0 300 300" style="enable-background:new 0 0 300 300;" xml:space="preserve">
<style type="text/css">
	.st0{fill:#EDAD91;}
	.st1{fill:#B9BDA5;}
</style>
<g>
	<g>
		<path d="M282.75,123.39c-0.75-0.53-1.62-0.94-2.5-1.21c-0.94-0.29-1.95-0.35-2.92-0.55c-4.44-0.92-8.92-1.58-13.45-1.8
			c-0.19-0.01-0.39-0.06-0.8-0.13c0.57-0.53,0.97-0.89,1.36-1.26c2.76-2.63,5.06-5.57,6.2-9.28c0.7-2.28,0.74-4.47-1.22-6.29
			c0.28-0.4,0.54-0.75,0.79-1.11c1.11-1.58,1.67-3.34,1.72-5.28c0.08-3.24-0.58-6.36-1.35-9.48c-0.62-2.53-3.37-4.63-6.24-4.46
			c-0.47,0.03-0.94,0-1.44,0c-0.19-1.53-0.27-2.88,0.19-4.24c0.41-1.2,0.72-2.44,1.06-3.66c2.59-9.39,7.25-17.65,13.77-24.86
			c0.36-0.39,0.71-0.84,0.35-1.3c-0.22-0.27-0.78-0.46-1.14-0.4c-1.08,0.19-2.15,0.47-3.2,0.82c-5.26,1.74-10.67,2.84-16.16,3.49
			c-5.16,0.61-10.33,1.07-15.48,1.72c-5.36,0.67-10.54,1.97-15.13,4.98c-3.84,2.52-7.77,4.96-9.83,9.36
			c-0.31,0.66-0.88,0.71-1.47,0.89c-1.74,0.52-3.53,0.94-5.16,1.7c-4.83,2.26-8.24,6.05-10.9,10.58c-0.28,0.48-0.58,0.96-0.92,1.5
			c-1.03-1.78-2.05-3.36-2.9-5.03c-1-1.96-1.94-3.97-2.73-6.02c-0.89-2.32-1.57-4.71-2.37-7.06c-0.38-1.11-1.13-1.34-2.01-0.57
			c-0.75,0.65-1.46,1.37-2.04,2.17c-2.16,3.01-4.32,6.02-6.34,9.12c-2.36,3.62-4.41,7.41-5.85,11.5c-0.48,1.35-0.88,2.73-1.33,4.09
			c-1.7,5.1-2.72,10.26-1.45,15.63c0.07,0.31,0.06,0.63,0.09,0.96c-0.42,0.28-0.78,0.54-1.16,0.76c-0.13,0.08-0.31,0.08-0.46,0.11
			c-0.56-2.09-0.84-2.76-1.88-3.61c-0.94-0.77-1.9-1.56-2.98-2.08c-2.29-1.1-4.64-2.07-7-2.99c-1.29-0.5-2.68-0.66-4.07-0.33
			c-1,0.24-2.01,0.44-3.2,0.69c0.15-0.54,0.22-1.02,0.4-1.45c0.64-1.53,1.31-3.04,1.97-4.56c1.57-3.6,2.35-7.38,2.24-11.3
			c-0.15-5.6-1.1-11.11-2.31-16.57c-0.18-0.79-0.33-1.77-1.39-1.82c-1.04-0.05-1.34,0.86-1.58,1.65c-0.89,2.9-1.92,5.78-2.58,8.74
			c-1.61,7.29-1.55,14.6,0.14,21.88c0.14,0.6,0.22,1.22,0.36,1.98c-0.35-0.18-0.48-0.2-0.53-0.28c-2.26-3.1-4.24-6.32-4.33-10.34
			c0-0.22-0.02-0.44-0.06-0.66c-0.95-5.46-2.65-10.63-6-15.12c-2.48-3.32-5.07-6.56-7.58-9.86c-1.54-2.02-3.05-4.06-4.51-6.15
			c-1.9-2.72-3.72-5.49-5.58-8.24c-0.12-0.18-0.23-0.43-0.41-0.51c-0.43-0.19-0.9-0.42-1.34-0.39c-0.59,0.04-0.73,0.6-0.72,1.13
			c0,0.44-0.03,0.89,0.04,1.33c0.48,3.28,0.81,6.6,1.52,9.83c1.46,6.59,4.26,12.64,7.77,18.4c2.93,4.81,6.41,8.99,11.43,11.74
			c1.2,0.66,2.27,1.57,3.77,1.5c1.47,3.97,3.14,7.75,6.5,10.5c-6.47,3.85-11.63,8.87-16.65,14.38c-0.97-0.53-2.04-1.12-3.31-1.81
			c2.06-1.81,3.97-3.48,5.87-5.16c0.33-0.29,0.72-0.56,0.92-0.93c0.16-0.29,0.19-0.8,0.04-1.07c-0.15-0.25-0.62-0.41-0.95-0.42
			c-0.42,0-0.84,0.24-1.28,0.29c-3.75,0.44-7.14,1.85-10.37,3.72c-1.77,1.02-3.51,2.1-5.26,3.15c-0.29,0.17-0.63,0.28-0.9,0.4
			c0.89-2.46,1.84-4.8,2.59-7.2c1.52-4.86,1.66-9.75,0.34-14.72c-1.2-4.51-3.47-8.47-5.84-12.4c-1.4-2.32-3.28-4.18-5.63-5.51
			c-1.73-0.98-3.51-1.86-5.26-2.81c-0.63-0.34-1.46-0.62-1.76-1.17c-0.73-1.3-1.83-1.28-3.01-1.22c-0.77,0.04-1.57,0.02-2.3,0.23
			c-3.66,1.05-7.31,2.09-10.93,3.28c-1.45,0.48-2.83,1.24-4.17,2c-3.87,2.2-7.32,4.96-10.46,8.11c-0.56,0.56-1.14,0.9-1.97,1.05
			c-1.07,0.18-2.08,0.69-3.11,1.07c-0.42,0.16-0.84,0.33-1.35,0.54c0-1.02,0.04-1.79-0.01-2.56c-0.52-8.14-4.27-14.38-11.1-18.79
			c-3.36-2.16-7.02-3.74-10.7-5.25c-3.12-1.28-5.93-2.96-8-5.7c-0.17-0.22-0.35-0.45-0.57-0.59c-0.63-0.4-1.39-0.07-1.52,0.67
			c-0.07,0.37-0.05,0.78,0.01,1.16c0.44,2.73,0.76,5.48,1.38,8.17c0.54,2.34,0.76,4.69,0.74,7.07c-0.01,0.87-0.17,1.76-0.39,2.61
			c-1.19,4.57-1.56,9.12-0.14,13.74c1.83,5.95,4.73,11.17,9.68,15.12c3.02,2.41,6.35,4.18,10.07,5.36c0.38,1.7,1.07,3.28,2.27,4.54
			c0.71,0.75,0.7,1.4,0.17,2.23c-1.78-0.6-3.52-1.31-5.32-1.78c-3.41-0.89-6.79-1.92-10.4-1.88c-3.79,0.04-7.49,0.52-11.11,1.59
			c-1.87,0.55-3.76,0.89-5.72,0.79c-0.88-0.05-1.78-0.07-2.65,0.02c-0.95,0.09-1.26,0.89-0.7,1.68c0.13,0.18,0.29,0.33,0.46,0.48
			c3.41,3,6.86,5.94,10.72,8.35c1.92,1.2,3.81,2.45,5.72,3.67c4.65,2.97,9.54,5.3,15.14,5.89c4.37,0.46,8.61,0.05,12.76-1.3
			c1.54-0.5,2.94-1.3,3.98-2.6c0.2-0.26,0.31-0.59,0.44-0.85c2.72,1.5,5.14,2.72,7.43,4.14c2.06,1.28,3.97,2.79,5.94,4.2
			c0.3,0.21,0.57,0.46,0.99,0.8c-2.19,0.43-4.22,0.68-5.92,1.98c-0.29,0.22-0.85,0.1-1.29,0.1c-1.77,0.02-3.54-0.02-5.31,0.04
			c-1.51,0.06-2.94,0.47-4.18,1.4c-1.05,0.79-1.32,1.96-1.44,2.91c-1.81,0.58-3.47,1-5.04,1.65c-2.56,1.07-4.85,2.48-5.28,5.43
			c-1.29,0.61-2.55,1-3.56,1.73c-1.88,1.35-3.68,2.83-5.38,4.4c-2.51,2.3-4.3,5.04-4.74,8.52c-0.03,0.26-0.14,0.51-0.2,0.74
			c-3.51,0.84-6.65,2.3-9.47,4.41c-3.74,2.79-7.02,6.07-10.03,9.63c-2.85,3.38-5.43,7-8.73,9.99c-1.11,1-2.19,2.03-3.22,3.11
			c-1.32,1.38-1.23,2.31,0.42,3.32c1.17,0.72,2.44,1.29,3.71,1.83c2.38,1.02,4.86,1.86,7.18,3c6.98,3.42,14.27,5.92,21.88,7.5
			c4.16,0.87,8.32,1.28,12.46,0.03c2.68-0.81,5.41-1.56,7.76-3.34c3.45,3.34,7.62,4.85,12.39,5.13c-0.12,0.33-0.16,0.54-0.26,0.72
			c-0.99,1.72-1.91,3.5-3.02,5.14c-1.86,2.74-3.79,5.44-5.8,8.07c-1.04,1.35-2.38,2.47-3.5,3.77c-1.07,1.25-0.62,2.3,1,2.53
			c0.22,0.03,0.44,0.02,0.66,0.05c4.93,0.61,9.87,1.18,14.79,1.86c4.72,0.66,9.37,0.55,13.92-0.99c6.76-2.28,13.12-5.18,18.14-10.56
			c5.05-5.42,8.29-11.66,9.56-18.94c0.09-0.54,0.24-1.06,0.41-1.77c2.44,0.51,4.74,1.21,7.2,1.19c2.49-0.02,4.77-0.92,7.31-1.47
			c-0.89,1.29-1.67,2.35-2.38,3.46c-1.5,2.32-2.91,4.7-4.45,7c-1.84,2.75-3.77,5.45-5.67,8.16c-0.29,0.42-0.65,0.81-0.22,1.32
			c0.39,0.45,0.86,0.41,1.35,0.17c0.55-0.26,1.09-0.54,1.67-0.74c4.1-1.44,7.59-3.76,10.62-6.87c1.57-1.61,3.34-3.03,4.64-4.19
			c-0.48,1.45-1.24,3.45-1.79,5.51c-0.51,1.89-1.31,3.6-2.28,5.3c-2.97,5.22-4.37,10.85-4.04,16.86c0.14,2.54,0.29,5.08,0.56,7.61
			c0.47,4.34,1.03,8.67,1.6,13c0.1,0.75,0.35,1.53,0.73,2.18c0.53,0.91,1.41,0.82,1.92-0.12c0.13-0.24,0.21-0.51,0.31-0.77
			c0.71-1.86,1.4-3.72,2.12-5.58c2.23-5.76,3.81-11.66,3.91-17.89c0.05-2.91,0.19-5.82,0.3-8.91c0.68,0.79,1.34,1.57,2.01,2.33
			c1.17,1.32,2.35,2.63,3.52,3.95c2.49,2.8,5.01,5.59,7.46,8.43c0.53,0.61,0.8,1.44,1.19,2.17c0.18,0.34,0.29,0.73,0.52,1.03
			c0.56,0.72,1.55,0.54,1.79-0.34c0.13-0.47,0.08-0.99,0.09-1.48c0.04-3.52-0.64-6.94-1.49-10.32c-1.9-7.6-6.16-13.75-11.99-18.88
			c-1.43-1.26-2.99-2.28-5.02-2.5c1.76-4.63,3.69-9.09,6.43-13.14c0.41-0.61,1.08-1.05,1.56-1.5c2.38,1.06,4.54,2.09,6.47,3.66
			c1,0.82,2.49,1.14,3.81,1.43c2.41,0.53,4.86,0.87,7.24,1.29c0.15,0.84,0.3,1.43,0.36,2.03c0.55,5.24,2.4,10.11,4.42,14.89
			c1.89,4.49,4.71,8.52,7.53,12.48c5.93,8.34,13.78,14.44,22.83,19.07c1.61,0.83,3.27,1.56,4.89,2.38
			c3.49,1.78,6.99,3.56,10.45,5.39c2.17,1.14,2.8,0.93,3.28-1.49c0.88-4.39,1.47-8.81,1.61-13.31c0.19-5.82-0.65-11.47-2.12-17.05
			c-1.53-5.81-3.95-11.26-6.94-16.46c-3.73-6.49-8.71-11.82-15.02-15.88c-2.38-1.54-4.78-3.04-7.57-3.86
			c5.39-0.2,10.53-1.81,16.04-2.36c0,0.78-0.01,1.49,0,2.19c0.08,5.76,2.93,9.98,7.52,13.09c4.5,3.04,9.76,4.35,14.81,6.11
			c0.34,0.12,0.97-0.01,1.18-0.26c0.22-0.26,0.23-0.87,0.08-1.21c-0.28-0.65-0.72-1.24-1.14-1.82c-2.71-3.79-5.02-7.78-6.55-12.23
			c-1.04-3.03-2.51-5.89-4.66-8.54c2.62-1.25,3.61-3.89,5.16-6.1c0.38,0.25,0.66,0.43,0.92,0.62c3.92,2.88,7.87,5.74,11.76,8.66
			c1.99,1.49,3.9,3.09,5.81,4.69c0.35,0.29,0.68,0.77,0.73,1.2c0.12,0.98,0.12,1.98,0.07,2.96c-0.14,2.86-0.71,5.71-0.08,8.59
			c0.68,3.12,1.61,6.14,3.95,8.44c2.25,2.2,4.57,4.35,7.02,6.33c3.26,2.64,6.68,5.1,10.03,7.63c0.26,0.2,0.54,0.41,0.84,0.51
			c0.64,0.22,1.27-0.17,1.33-0.84c0.03-0.37-0.06-0.77-0.15-1.14c-0.4-1.67-0.84-3.32-1.23-4.99c-0.49-2.06-0.96-4.13-1.47-6.37
			c0.49,0.2,0.74,0.3,0.99,0.41c0.25,0.11,0.5,0.23,0.76,0.33c4.32,1.85,8.77,2.18,13.29,0.96c2.5-0.68,2.79-1.65,1.16-3.58
			c-2.5-2.96-5-5.92-7.59-8.79c-3.22-3.57-6.98-6.41-11.46-8.29c-3.63-1.53-7.43-2.03-11.31-2.28c-2.21-0.14-4.19-0.75-5.77-2.48
			c-0.96-1.05-2.14-1.92-3.28-2.79c-2.56-1.94-5.15-3.82-7.73-5.74c-0.32-0.24-0.59-0.53-1.12-1.01c1.84,0.61,3.32,1.19,4.85,1.58
			c1.6,0.41,3.23,0.75,4.87,0.92c6.51,0.68,12.42-0.5,17.16-5.49c1.67-1.76,3.58-3.29,5.38-4.94c0.32-0.3,0.68-0.59,0.92-0.95
			c0.48-0.73,0.25-1.47-0.59-1.68c-0.73-0.18-1.52-0.16-2.29-0.17c-1.66,0-3.33,0.21-4.96,0.02c-4.63-0.54-9.27-0.71-13.91-0.48
			c-4.03,0.21-7.88,1.04-11.08,3.79c-0.7,0.6-1.6,0.99-2.45,1.37c-1.34,0.61-2.74,0.49-4.13,0.32c0.41-1.53,0.91-2.89,1.12-4.29
			c0.27-1.85-0.62-2.87-2.49-2.92c-1.93-0.05-3.87,0.1-5.8,0.17c-0.97,0.04-1.95,0.1-2.92,0.15c0.4-0.64,0.93-1.01,1.39-1.45
			c3.03-2.91,6.07-5.81,9.05-8.77c0.99-0.99,0.53-2.02-1-2.3c-3.7-0.66-7.41-1.3-11.2-0.87c-0.52,0.06-1.06,0.01-1.76,0.01
			c1.29-2.59,2.49-4.99,3.78-7.58c1.01,0.46,2.11,0.84,3.07,1.43c3.86,2.38,7.72,4.74,11.96,6.4c2.7,1.06,5.51,1.63,8.42,1.42
			c4.67-0.35,8.78-2.07,12.27-5.23c4.28-3.88,9.02-7.12,14.06-9.94c0.58-0.32,1.15-0.67,1.71-1.02c1.22-0.78,2.07-1.84,2.28-3.31
			c0.28-1.93,1.29-3.36,2.84-4.49c2.99-2.19,5.95-4.41,8.92-6.63c0.57-0.43,1.17-0.86,1.65-1.38
			C283.49,124.57,283.49,123.91,282.75,123.39z M141.55,89.56c-0.66-0.31-1.15-0.51-1.61-0.76c-4.82-2.66-8.44-6.46-11.29-11.17
			c-3.73-6.15-6.69-12.58-8.13-19.65c-0.38-1.88-0.61-3.78-0.91-5.68c0.15-0.04,0.29-0.07,0.44-0.11c1.17,1.73,2.31,3.49,3.53,5.19
			c1.63,2.29,3.3,4.56,5,6.81c2.59,3.44,5.28,6.82,7.81,10.31c2.92,4.02,4.29,8.69,5.16,13.51
			C141.62,88.43,141.55,88.87,141.55,89.56z M250.07,195.35c1.73,0.18,3.5,0.2,5.19,0.57c5.12,1.11,9.76,3.32,13.44,7.08
			c3.36,3.43,6.45,7.12,9.65,10.71c0.18,0.2,0.29,0.45,0.49,0.77c-1.08,0.77-2.34,0.77-3.48,0.88c-4.27,0.44-8.2-0.7-11.84-2.9
			c-0.4-0.24-0.66-0.84-0.84-1.32c-1.06-2.79-2.08-5.59-3.89-8.02c-2.11-2.83-4.61-5.21-7.81-6.78c-0.34-0.17-0.66-0.38-0.99-0.57
			L250.07,195.35z M245.54,195.59c5.62,2.38,10.53,5.46,13.34,11.08c2.07,4.14,3.21,8.57,4.23,13.05c0.38,1.66,0.8,3.31,1.31,5.38
			c-5.65-4.17-11.2-7.82-15.73-12.73c-2.15-2.33-3.01-5.23-3.51-8.27C244.71,201.28,245.36,198.5,245.54,195.59z M235.11,174.23
			c1.99-1.34,4.3-1.74,6.6-1.94c4.46-0.39,8.92-0.44,13.38,0.17c1.69,0.23,3.42,0.12,5.13,0.16c0.53,0.01,1.07,0,1.61,0
			c0.03,0.1,0.06,0.2,0.09,0.31c-2.13,2-4.24,4.03-6.41,5.99c-2.35,2.12-5.23,2.99-8.31,3.32c-5.3,0.58-10.32-0.34-15.06-2.77
			c-1.08-0.55-2.17-1.07-3.61-1.77C231.25,177.05,233.14,175.56,235.11,174.23z M263.37,121.54c4.4,0.26,8.78,0.77,13.09,1.76
			c0.56,0.13,1.14,0.22,1.72,0.65c-1.2,0.17-2.41,0.36-3.61,0.52c-2.35,0.32-4.69,0.64-7.05,0.94c-0.43,0.05-0.89,0.09-1.3-0.01
			c-2.3-0.56-4.59-1.16-6.88-1.75c-0.26-0.07-0.51-0.16-0.84-0.26C259.73,121.55,261.6,121.43,263.37,121.54z M201.74,125.48
			c1.04-1.9,4.07-4.66,7.1-6.45c1.01,0.76,2.21,1.47,3.16,2.43c1.98,2,3.85,4.11,6.23,5.67c0.19,0.12,0.37,0.25,0.63,0.43
			c-0.41,0.44-0.68,0.78-1,1.06c-2.03,1.77-3.48,3.97-4.72,6.33c-0.69,1.32-1.42,2.62-2.14,3.92c-0.55,0.99-1.29,1.77-2.66,2.36
			C209.03,134.62,206.55,129.52,201.74,125.48z M179.49,133.56c-0.12-0.07-0.17-0.24-0.17-0.23c1.84,0.14,3.74,0.31,5.65,0.42
			c1.44,0.08,2.65-0.46,3.78-1.39c1.61-1.33,3.32-2.53,4.97-3.78c0.84,0.62,1.58,1.03,2.12,1.62c0.32,0.35,0.57,1.03,0.46,1.46
			c-1.07,4.1-1.88,8.33-4.52,11.82c-1.24,1.63-1.87,3.49-2.35,5.43c-1.04,4.15-2.71,8.06-4.66,11.84c-0.64,1.24-1.62,2.43-2.72,3.27
			c-2.63,2.01-5.34,3.95-8.18,5.63c-2.26,1.34-4.76,2.26-7.05,3.32c-1.51-2.3-2.86-4.35-4.16-6.33c7.62-4.82,13.14-11.54,17.1-19.61
			c1.36-2.77,1.79-5.79,1.96-8.84C181.84,136.26,181.33,134.59,179.49,133.56z M188.59,156.76c0.98-2.64,1.9-5.3,2.73-7.98
			c0.51-1.65,1.12-3.21,2.17-4.61c0.69-0.92,1.34-1.93,1.72-3.01c1-2.8,1.85-5.66,2.73-8.51c0.14-0.46,0.14-0.98,0.15-1.48
			c0.01-1.12-0.32-2.06-1.43-2.58c-0.28-0.13-0.51-0.39-0.61-0.46c0.66-1.01,1.28-1.95,2.02-3.08c0.76,0.51,1.66,1.02,2.44,1.67
			c5.32,4.48,7.08,10.07,5.71,16.92c-1.06,5.3-3.35,9.79-7.28,13.43c-1,0.93-2.17,1.69-3.35,2.39c-1.33,0.79-2.74,1.44-4.13,2.1
			c-0.99,0.48-2,0.86-3.16,0.43c-0.53-0.2-1.17-0.12-1.86-0.18C187.17,160.09,187.97,158.46,188.59,156.76z M197.53,120.34
			c-0.94-1.96-1.9-3.97-2.97-6.21c0.81-0.99,1.73-2.08,2.6-3.21c0.87-1.12,1.68-2.29,2.6-3.55c1.32,2.05,2.58,4.01,3.75,5.83
			C201.49,115.61,199.52,117.97,197.53,120.34z M204.92,114.77c0.83,0.98,1.61,1.9,2.36,2.79c-2.45,2.21-4.82,4.35-7.27,6.55
			c-0.53-0.23-1.18-0.52-1.94-0.85C199.99,120.16,201.85,117.08,204.92,114.77z M215.67,122.68c-1.62-1.57-3.22-3.17-4.84-4.76
			c3.69-1.83,7.4-3.8,11.21-5.53c3.19-1.44,6.57-2.24,10.12-2.22c4.04,0.03,8.07,0,12.11,0c0.39,0,0.79-0.03,1.15,0.08
			c0.82,0.25,1.42,0.64,1.54,1.67c0.41,3.49-0.12,6.67-2.39,9.52c-2.62,3.29-5.97,5.53-9.68,7.35c-3.56,1.74-7.07,1.45-10.55-0.09
			C221.08,127.24,218.23,125.15,215.67,122.68z M259.97,96.41c0.41,1.29-0.17,2.23-0.78,3.35c-0.83,1.52-1.83,2.83-2.95,4.1
			c-0.4,0.45-0.68,1.01-1.02,1.51c-0.54,0.8-1.26,1.32-2.18,1.69c-1.68,0.68-3.3,1.51-5.18,2.39c-2.05-1.81-4.86-0.72-7.41-1.2
			c0-0.18-0.04-0.32,0.01-0.37c2.5-2.51,2.75-5.7,2.6-8.94c-0.1-2.2-0.49-4.39-1.43-6.44c-0.21-0.46-0.18-1.06-0.14-1.59
			c0.06-0.88,0.16-1.77,0.36-2.62c0.24-1.06,1.06-1.53,1.98-0.97c1.52,0.92,3.08,0.75,4.66,0.45c1.38-0.26,2.61-0.19,3.68,0.86
			c0.68,0.66,1.6,0.72,2.5,0.65c0.98-0.08,1.68,0.25,2.23,1.09c0.44,0.68,1.02,1.26,1.54,1.89c1.14,0.83,1.91,1.81,1.46,3.35
			C259.84,95.84,259.89,96.16,259.97,96.41z M256.65,86.58c-1.01,1.06-2.37,1.5-3.43,0.54c-1.78-1.61-3.78-1.28-5.79-0.99
			c-0.91,0.13-1.7,0.11-2.55-0.3c-2.41-1.15-4.26-0.22-4.81,2.37c-0.09,0.42-0.16,0.85-0.26,1.41c-0.89-0.61-1.71-1.16-2.63-1.79
			c0.17-1.23,0.33-2.48,0.51-3.73c0.06-0.44,0.16-0.87,0.27-1.3c0.7-2.78,0.5-5.38-1.67-7.75c0.71-0.5,1.28-1,1.94-1.36
			c2.72-1.47,5.67-2.11,8.73-2.35c0.82-0.07,1.66,0.03,2.49-0.03c2.94-0.22,5.26,0.99,7.22,3.04c0.88,0.92,1.73,1.87,2.54,2.84
			c1.46,1.74,1.96,3.79,1.84,6.23c-0.49,0.27-1.15,0.56-1.71,0.97C258.39,85.08,257.44,85.76,256.65,86.58z M236.42,81.19
			c-0.34,1.84-0.67,3.69-1.05,5.78c-1.39-0.47-2.67-0.96-3.99-1.32c-3.12-0.84-6.16-0.19-9.13,0.75c-3.01,0.96-5.85,2.31-8.5,4.05
			c-1.54,1.01-2.97,2.12-4.09,3.6c-0.19,0.25-0.43,0.46-0.85,0.91c-0.04-0.67-0.13-1.08-0.07-1.48c0.51-3.74,1.22-7.43,2.93-10.84
			c2.37-4.71,6.18-7.73,11.24-9.11c2.99-0.82,5.99-0.77,8.94,0.41c2.02,0.81,3.36,2.27,4.31,4.15
			C236.65,79.09,236.62,80.14,236.42,81.19z M212.85,93.36c4.21-3.36,9.02-5.55,14.43-6.18c1.18-0.14,2.47-0.11,3.61,0.21
			c1.84,0.53,3.64,1.29,5.39,2.09c2.1,0.96,3.54,2.54,4.17,4.85c0.75,2.75,1.06,5.51,0.7,8.36c-0.28,2.26-1.74,3.76-3.17,5.29
			c-0.18,0.2-0.61,0.21-0.92,0.23c-2.1,0.11-4.2,0.28-6.3,0.28c-3.8,0-7.27,1.25-10.63,2.81c-2.05,0.95-4,2.11-6.01,3.15
			c-0.52,0.27-1.08,0.49-1.43,0.65c-0.97-2.42-1.98-4.68-2.78-7.02c-0.57-1.66-1.03-3.39-1.24-5.12
			C208.18,98.99,209.85,95.76,212.85,93.36z M239.12,131.82c2.62-0.13,5.07-1.03,7.43-2.14c2.89-1.35,5.91-2.43,8.64-4.16
			c0.79-0.5,2.12-0.38,3.14-0.2c2.27,0.4,4.52,0.99,6.76,1.55c0.71,0.18,1.1,0.74,1.09,1.49c-0.01,0.49-0.04,1.01-0.19,1.47
			c-1.01,3.26-2.59,6.25-4.9,8.75c-2.83,3.05-6.41,3.64-10.35,2.66c-2.34-0.58-4.46-1.63-6.42-2.98c-2.32-1.61-4.74-3.02-7.31-4.21
			c-1.27-0.59-2.41-1.48-3.91-2.43C235.41,131.72,237.27,131.91,239.12,131.82z M268.85,108.67c-1.01,3.46-3.09,6.27-5.78,8.53
			c-3.51,2.94-6.96,6.02-11.11,8.06c-3.81,1.87-7.62,3.78-11.81,4.66c-0.92,0.19-1.9,0.13-2.86,0.19c-0.04-0.14-0.08-0.27-0.12-0.41
			c1.01-0.62,2.02-1.25,3.03-1.86c2.99-1.83,5.28-4.34,7.13-7.27c1.52-2.41,1.7-5.12,1.49-7.84c-0.1-1.26,0.33-2,1.41-2.47
			c2.28-0.98,4.52-2.06,6.85-2.91c3.26-1.18,6.49-2.51,9.99-2.85c1.58-0.15,2.01,0.15,2.09,1.75
			C269.19,107.05,269.07,107.9,268.85,108.67z M268.71,87.16c0.9,3.26,1.62,6.54,1.4,9.96c-0.2,3-2.03,5.09-4.95,5.82
			c-1.98,0.5-3.92,1.13-5.87,1.7c-0.46,0.14-0.91,0.3-1.36,0.45c-0.05-0.11-0.1-0.21-0.15-0.32c0.3-0.31,0.62-0.6,0.88-0.94
			c0.5-0.64,0.98-1.29,1.42-1.97c0.39-0.59,0.67-1.27,1.1-1.82c0.66-0.84,0.88-1.73,0.75-2.79c-0.11-0.87-0.19-1.76-0.13-2.64
			c0.07-1.15-0.35-2-1.14-2.8c-1.05-1.05-2.01-2.18-3.01-3.28c0.73-1.95,2.4-2.51,3.9-3.27c0.34-0.17,0.78-0.18,1.06-0.41
			C264.39,83.36,268.07,84.84,268.71,87.16z M273.17,52.72c-2.71,3.63-5.43,7.28-7.12,11.51c-1.66,4.14-3.11,8.36-4.7,12.67
			c-2.7-3-5.09-6.5-9.59-7.32c3.75-2.75,7.51-5.28,11-8.13c3.5-2.86,6.73-6.04,10.08-9.08C272.94,52.49,273.05,52.61,273.17,52.72z
			 M221.38,65.63c4.12-3.66,8.6-6.78,13.98-8.3c3.77-1.06,7.66-1.6,11.56-2.03c7.07-0.79,14.19-1.22,21.15-2.88
			c0.79-0.19,1.57-0.39,2.36-0.58c0.06,0.09,0.12,0.19,0.19,0.28c-3.59,3.1-7.11,6.28-10.78,9.27c-2.43,1.99-5.06,3.74-7.63,5.55
			c-1.21,0.85-2.49,1.63-3.79,2.35c-0.46,0.25-1.06,0.29-1.6,0.33c-4.27,0.28-8.26,1.39-11.69,4.07c-3.65-2.41-7.6-2.88-11.78-2.02
			c-0.65-0.62-1.22-1.32-1.93-1.79c-0.67-0.44-1.49-0.64-2.43-1.02C219.8,67.72,220.42,66.48,221.38,65.63z M207.55,75.12
			c2.26-1.97,4.93-3.39,7.94-3.92c1.29-0.22,2.63-0.22,3.95-0.24c0.77-0.01,1.34,0.42,1.67,1.14c-1.07,0.52-2.13,0.99-3.15,1.53
			c-5.55,3-8.46,7.89-9.92,13.83c-0.83,3.4-1.38,6.82-0.85,10.34c0.1,0.68-0.09,1.43-0.23,2.13c-0.55,2.76,0.07,5.39,0.91,7.97
			c0.48,1.46,1.15,2.87,1.83,4.26c0.58,1.17,0.79,2.39,0.82,3.76c-0.49,0.23-0.98,0.46-1.63,0.77c-1.66-2.04-3.37-3.97-4.89-6.05
			c-3.34-4.57-5.21-9.73-5.63-15.36C197.75,86.92,201.45,80.42,207.55,75.12z M188.72,74.37c0.26-2.02,0.66-4.02,0.99-6.04
			c0.14,0,0.28,0.01,0.43,0.01c0.31,0.93,0.69,1.84,0.93,2.79c0.72,2.93,1.94,5.63,3.5,8.2c0.74,1.23,1.39,2.52,2,3.81
			c0.72,1.54,0.93,3.21,0.54,4.85c-1.26,5.3-0.52,10.44,1.18,15.49c0.38,1.11,0.25,1.97-0.25,2.96c-1.22,2.4-3.05,4.31-4.77,6.33
			c-1.15-0.97-2.22-1.94-3.36-2.8c-1.1-0.83-2.25-1.59-3.44-2.28c-0.68-0.39-1.2-0.82-1.18-1.63c0.05-2.08,0.15-4.17,0.24-6.25
			c0.01-0.27,0.16-0.54,0.15-0.81c-0.12-2.9,0.6-5.7,1.01-8.54C187.46,85.12,188.03,79.74,188.72,74.37z M178.52,82.75
			c2.28-4.49,5.08-8.66,7.92-12.81c0.3-0.44,0.69-0.82,1.04-1.23c-1.28,12.52-3.31,24.87-4.2,37.44c-1.47-0.07-3-0.27-4.5-0.17
			c-1.52,0.1-3.02,0.51-4.74,0.82c-0.08-0.45-0.22-0.96-0.25-1.47C173.35,97.38,174.91,89.85,178.52,82.75z M171.34,110.44
			c2.48-1.68,5.17-2.62,8.2-2.69c3.02-0.07,5.59,1.07,8.01,2.68c0.6,0.4,1.11,0.91,1.7,1.32c3.35,2.3,5.25,5.6,6.47,9.36
			c0.25,0.77,0.34,1.62,0.35,2.44c0.01,1.47-0.43,2.6-2.06,3.16c-2.16,0.74-4.05,2.07-5.66,3.67c-1.9,1.87-4.1,1.96-6.45,1.47
			c-1.07-0.22-2.09-0.67-3.13-1.03c-0.72-0.25-1.44-0.54-2.16-0.81c-0.82-1.65-1.46-3.45-2.52-4.96c-1.06-1.51-2.54-2.72-3.88-4.11
			c0.27-0.49,0.77-1.1,0.94-1.79c0.16-0.67,0.08-1.44-0.05-2.13c-0.23-1.24-0.58-2.47-0.88-3.7
			C169.82,111.64,169.93,111.4,171.34,110.44z M173.95,128.58c0.37,1.15,0.97,2.22,1.49,3.32c0.6,1.28,1.47,2.36,2.76,2.99
			c1.42,0.68,1.82,1.86,1.73,3.28c-0.2,3.34-0.9,6.53-2.47,9.55c-3.12,5.98-7.42,10.97-12.54,15.28c-1.07,0.9-2.44,1.44-3.59,2.1
			c-1.97-1.88-3.6-3.52-5.33-5.06c-0.69-0.61-1.53-1.11-2.39-1.44c-2.05-0.79-3.6-0.22-4.89,1.61c-0.52,0.74-1.1,1.45-1.73,2.27
			c-0.99-1.14-1.4-2.27-1.68-3.45c-1-4.25-2.11-8.47-3.68-12.55c-0.88-2.3-0.99-4.67-0.27-7c0.94-3.08,2.25-5.99,4.29-8.54
			c2.08-2.59,4.65-4.5,7.94-5.04c3.76-0.62,7.26-1.93,10.66-3.5c2.03-0.93,3.75-0.57,5.4,0.65
			C171.6,124.48,173.18,126.2,173.95,128.58z M151.65,69.27c0.13,0,0.26,0,0.39,0c0.38,2.16,0.83,4.31,1.12,6.48
			c0.29,2.13,0.46,4.29,0.61,6.44c0.29,4.22-0.54,8.25-2.3,12.09c-0.4,0.88-0.78,1.77-1.32,2.61
			C147.89,87.5,148.39,78.3,151.65,69.27z M133.33,117.75c1.08-2.33,3.04-3.91,4.86-5.59c0.73-0.67,1.5-1.31,2.21-2
			c3.49-3.36,7.26-6.29,11.85-8.03c2.29-0.87,4.51-0.92,6.76,0.08c1.77,0.78,3.57,1.49,5.31,2.31c0.79,0.37,1.51,0.92,2.23,1.43
			c1.81,1.27,2.09,3.02,1.78,5.1c-0.16,1.04,0.15,2.17,0.34,3.24c0.2,1.14,0.58,2.25,0.77,3.39c0.23,1.42-0.44,2.3-1.89,2.25
			c-1.68-0.06-3.14,0.48-4.61,1.12c-3.2,1.38-6.46,2.51-9.91,3.15c-3.87,0.72-6.85,2.97-9.15,6.12c-0.78,1.07-1.5,2.17-2.29,3.31
			c-1.49-0.15-2.44-0.94-3.27-1.95c-2.38-2.88-4.27-6.04-5.48-9.59C132.34,120.56,132.69,119.13,133.33,117.75z M131.01,109.77
			c-1.53,1.33-3.05,2.67-4.58,3.99c-0.2,0.17-0.48,0.35-0.73,0.35c-1.51,0.03-3.01,0.02-4.89,0.02
			C124.18,112.05,127.22,110.15,131.01,109.77z M121.71,116.1c2.85-0.56,5.59-0.43,8.1,1.27c0.36,0.24,0.79,0.38,1.2,0.57
			c0.03,0.09,0.12,0.2,0.1,0.29c-0.66,2.5,0.05,4.78,1.05,7.05c1.31,2.97,3.11,5.61,5.27,7.98c0.86,0.94,2.09,1.54,3.36,2.44
			c-0.19,0.51-0.44,1.18-0.69,1.84c-1.24,3.34-1.25,6.65,0,10.03c1.04,2.83,1.87,5.74,2.79,8.62c-0.1,0.05-0.21,0.1-0.31,0.16
			c-0.28-0.3-0.57-0.58-0.82-0.9c-1.99-2.44-4.57-3.75-7.68-4.09c-0.82-0.09-1.65-0.18-2.45-0.35c-0.41-0.09-0.8-0.31-1.16-0.54
			c-1.91-1.2-3.34-2.85-4.47-4.79c-0.78-1.33-1.69-2.59-2.54-3.88c-1.86-2.85-2.76-5.98-2.81-9.39c-0.07-4.8-0.24-9.61-0.37-14.41
			C120.23,116.53,120.3,116.38,121.71,116.1z M127.18,150.34c-1.7,0.11-3.39,0.23-5.08,0.33c-1.69,0.1-2.89,0.92-3.78,2.33
			c-1.85,2.93-2.15,6.1-1.45,9.41c0.15,0.69,0.31,1.37,0.51,2.24c-1.96-0.39-3.58-1.06-4.97-2.28c-0.91-0.8-1.77-1.68-2.74-2.41
			c-3.46-2.63-5.31-6.21-5.91-10.39c-0.37-2.55-0.36-5.17-0.39-7.76c-0.02-1.65,0.16-3.31,0.36-4.95c0.16-1.29,0.36-1.55,1.25-2.6
			c0.55,0.41,1.15,0.79,1.66,1.27c2.28,2.15,4.93,3.27,8.1,3.16c1.64-0.06,3.29-0.01,5.06-0.01
			C121.64,142.82,124.43,146.57,127.18,150.34z M101.61,146.95c0.05,2.97,0.88,5.79,2.08,8.47c0.57,1.28,1.42,2.53,2.4,3.53
			c1.65,1.68,3.35,3.33,5.21,4.79c1.02,0.8,2.07,1.6,3.24,2.18c1.18,0.59,2.68,0.55,3.74,1.33c0.72,0.53,1.3,1.34,1.3,2.27
			c-0.03-0.15-4.22,0.4-4.58,0.39c-2.02-0.05-4.03-0.09-6.06-0.09c-1.19-2.77-2.45-5.4-3.46-8.13c-2.39-6.5-6.69-11.49-12.09-15.65
			c-1.26-0.97-2.57-1.88-4.11-3c4.51-1.21,8.71-2.5,12.37-5.46c0,0.6,0,1.01,0,1.42C101.63,141.66,101.57,144.31,101.61,146.95z
			 M118.95,134.07c0.1,0.82,0.16,1.64,0.26,2.62c-0.55,0.08-1.08,0.25-1.61,0.22c-1.79-0.09-3.61-0.05-5.37-0.43
			c-1.9-0.41-3.25-1.45-4.76-2.59c-0.22-0.16-2.08-1.36-2-1.58c0.41-1.11,0.77-2.2,1.23-3.26c0.16-0.38,0.47-0.76,0.82-0.97
			c0.61-0.38,1.23-0.74,1.85-1.09c0.39-0.22,1.43-1.06,1.87-0.91c0.1,0.04,0.2,0.07,0.3,0.1c0.56,0.2,1.08,0.5,1.53,0.88
			c0.3,0.25,0.85,0.64,1.05,0.88c1.54,1.72,3.09,3.44,4.61,5.18C118.92,133.35,118.91,133.75,118.95,134.07z M82.88,102.69
			c0.76-0.54,1.62-0.93,2.45-1.37c1.38-0.74,2.63-1.62,3.64-2.83c0.25-0.3,0.73-0.61,1.07-0.58c2.06,0.22,3.44-0.98,4.8-2.2
			c0.82-0.73,1.56-1.56,2.34-2.34c0.1-0.1,0.26-0.14,0.53-0.26c0,0.63,0.02,1.16,0,1.69c-0.15,4.16,0.13,8.29,1.16,12.34
			c1.51,5.95,4.97,10.66,9.39,14.75c0.53,0.49,1.13,0.92,1.09,1.95c-6.2,1.49-11.79,0.74-16.43-3.93c-1.72-1.72-3.38-3.5-5.07-5.25
			c-2.07-2.13-4.5-3.72-7.25-4.84c-2.48-1.01-2.72-1.18-3.78-2.42c0.16-0.18,0.29-0.42,0.49-0.57
			C79.15,105.44,80.99,104.03,82.88,102.69z M79.82,99.3c0.24-0.84,0.38-1.7,0.59-2.55c0.14-0.58,0.25-1.19,0.49-1.73
			c0.43-0.96,0.98-1.85,1.41-2.81c0.38-0.83,0.89-1.5,1.69-1.96c0.38-0.22,0.75-0.5,1.01-0.84c2.09-2.73,5.16-4.03,8.07-5.56
			c0.84-0.44,1.62-0.51,2.53-0.21c0.66,0.22,1.4,0.21,2.11,0.33c0.42,0.08,0.83,0.22,1.47,0.38c-0.32,1.75-0.59,3.32-0.91,4.89
			c-0.06,0.31-0.21,0.65-0.43,0.88c-1.9,1.99-3.6,4.2-6.03,5.59c-0.48,0.27-1.15,0.44-1.68,0.35c-1.02-0.17-1.76,0.19-2.31,0.94
			c-1.15,1.58-2.77,2.53-4.47,3.33c-0.77,0.36-1.69,0.51-2.54,0.53C79.83,100.88,79.54,100.27,79.82,99.3z M114.38,125.39
			c1.25-0.47,2.66-0.99,4.22-1.57v5.96C117.17,128.3,115.78,126.85,114.38,125.39z M118.59,115.45c0,1.66-0.09,3.15,0.03,4.62
			c0.09,1.04-0.2,1.75-1.12,2.14c-1.21,0.51-2.45,0.99-3.71,1.36c-0.49,0.14-1.11,0.03-1.62-0.11c-1.01-0.28-1.27-0.91-0.85-1.89
			c0.72-1.68,2.01-2.91,3.46-3.94C115.93,116.8,117.24,116.21,118.59,115.45z M101.79,73.38c3.64,1.68,7.18,3.23,9.41,6.49
			c3.19,4.67,5.92,9.58,6.95,15.26c0.61,3.38,0.45,6.69-0.38,10.01c-0.99,3.99-2.33,7.83-4.65,11.26c-0.15,0.23-0.27,0.48-0.46,0.69
			c-1.02,1.15-2.05,2.28-3.16,3.52c-5.78-5.11-9.11-11.46-9.83-19.23c-0.45-4.9-0.04-9.69,0.88-14.5
			C101.39,82.51,102.11,78.1,101.79,73.38z M70.73,84.88c3.2-3.24,6.67-6.15,10.65-8.38c1.68-0.94,3.43-1.81,5.25-2.44
			c2.81-0.97,5.7-1.71,8.56-2.54c0.26-0.08,0.53-0.14,0.8-0.19c2.53-0.49,3.54,0.57,3.99,3.01c0.48,2.6-0.11,5.26-0.53,8.1
			c-1.29-0.2-2.5-0.29-3.64-0.61c-1.14-0.31-2.19-0.28-3.21,0.25c-2.05,1.07-4.09,2.16-6.11,3.29c-0.47,0.26-0.8,0.75-1.21,1.12
			c-1.01,0.93-2.02,1.87-3.04,2.8c-0.16,0.15-0.39,0.25-0.5,0.43c-1.33,2.33-3.01,4.52-3.21,7.34c-0.03,0.38-0.06,0.78-0.19,1.13
			c-0.72,2.01-0.31,3.3,1.51,4.5c-0.89,1.24-1.99,1.52-3.38,1.52c-3.19,0-6.13-0.6-8.68-2.65c-0.64-0.51-1.12-1.05-1.26-1.85
			C65.58,94.1,66.62,89.05,70.73,84.88z M37.13,58.75c4.6,2.24,9.23,4.43,13.8,6.75c2.49,1.26,4.47,3.18,6.24,5.36
			c2.67,3.29,4.11,7.05,4.58,11.19c0.19,1.63,0.03,3.31,0.03,4.84c-1.75,2.11-3.46,4.18-5.23,6.32c-0.16-0.24-0.38-0.54-0.54-0.86
			c-4.01-7.76-8.21-15.4-12.93-22.75c-2.21-3.43-4.15-7.03-6.21-10.55C36.96,58.94,37.05,58.85,37.13,58.75z M52.65,104.65
			c-0.32-0.1-0.83-0.23-1.31-0.43c-9.58-4.01-14.96-11.4-16.92-21.39c-0.59-3.01-0.25-6.1,0.6-9.04c0.99-3.47,0.74-6.88,0.1-10.33
			c-0.27-1.46-0.58-2.91-0.87-4.36c0.16-0.06,0.32-0.13,0.48-0.19c6.91,12.18,14.83,23.78,20.7,36.23
			C54.47,98.39,53.58,101.45,52.65,104.65z M54.79,104.92c0.39-5.17,2.48-9.68,5.64-13.73c1.59-2.03,3.51-3.65,5.87-4.73
			c0.19-0.09,0.4-0.14,0.88-0.31c-0.28,0.57-0.43,0.93-0.62,1.27c-2.15,3.9-2.57,8.08-1.83,12.37c0.47,2.71,2.06,4.59,4.93,5.14
			c1.83,0.35,3.64,0.78,5.47,1.18c-0.28,1.6-0.28,1.6,0.74,3.28c-0.91,0.6-1.92,0.86-2.97,0.74c-0.54-0.06-1.3-0.34-1.52-0.75
			c-0.94-1.75-2.47-1.77-4.02-1.42c-3.37,0.76-6.71,1.67-10.26,2.56C55.57,109.08,54.62,107.19,54.79,104.92z M32.31,112.34
			c3.58-0.74,7.22-1.21,10.84-0.48c3.12,0.63,6.18,1.59,9.26,2.41c0.32,0.08,0.61,0.26,0.92,0.36c1.77,0.54,3.3,1.29,4.13,3.16
			c0.42,0.96,1.34,1.7,2.26,2.83c-1.08-0.26-1.83-0.36-2.54-0.61c-3.88-1.38-7.94-1.81-12-2.16c-4.84-0.42-9.62-1.18-14.34-2.34
			c-1.43-0.35-2.81-0.92-4.23-1.71C28.52,113.3,30.4,112.73,32.31,112.34z M65.51,128.49c-1.52,0.61-3.09,1.19-4.68,1.56
			c-7.51,1.75-14.53,0.14-20.97-3.75c-4.95-2.99-9.98-5.94-14.42-9.71c-0.46-0.39-0.91-0.78-1.36-1.17c0.06-0.1,0.13-0.2,0.19-0.29
			c0.92,0.33,1.85,0.64,2.77,0.99c4.47,1.69,9.16,2.42,13.86,3.04c4.16,0.54,8.33,0.99,12.46,1.67c2.05,0.34,4.04,1.11,6.05,1.68
			c0.42,0.12,0.86,0.36,1.27,0.34c1.66-0.1,2.73,0.92,3.88,1.85c0.86,0.69,1.78,1.29,2.72,1.96
			C67.03,127.61,66.31,128.17,65.51,128.49z M79.74,131.04c-0.95-0.2-1.88-0.65-2.75-1.12c-2.91-1.58-5.83-3.15-8.67-4.85
			c-3.3-1.96-6.13-4.53-8.67-7.39c-0.72-0.81-1.3-1.79-1.8-2.76c-0.69-1.37-0.31-2.36,1.06-2.96c0.75-0.33,1.56-0.56,2.36-0.76
			c2.09-0.5,4.19-0.92,6.28-1.43c1.42-0.35,1.53-0.38,2.34,0.77c0.63,0.9,1.51,1.24,2.54,1.32c1.88,0.15,3.6-0.37,5.23-1.31
			c2.9,1.12,5.6,2.28,7.76,4.33c1.89,1.78,3.63,3.71,5.48,5.53c1.02,1,2.05,2.04,3.22,2.84c3.28,2.22,6.84,3.56,10.91,2.94
			c0.48-0.07,0.99-0.01,1.56-0.01c-0.3,0.91-1.09,1.23-1.8,1.52c-3.47,1.42-6.96,2.79-10.45,4.14c-2.2,0.85-4.46,1.15-6.81,0.66
			C84.95,131.96,82.32,131.59,79.74,131.04z M97.39,132.79c-1.49,1.18-3.24,1.95-5.1,2.49c-0.61,0.18-0.94-0.01-1.11-0.64
			C93.26,134.02,95.32,133.4,97.39,132.79z M82.25,133.47c2.02,0.32,4.05,0.6,6.05,1c0.45,0.09,0.81,0.62,1.4,1.11
			C86.36,137.09,84.33,135.22,82.25,133.47z M82.08,138.69c2.89-0.43,5.79-0.78,8.67-1.26c4.06-0.67,7.61-2.53,10.91-4.91
			c0.65-0.47,1.29-0.94,1.93-1.41c0.09,0.07,0.18,0.14,0.26,0.21c-0.39,0.76-0.72,1.56-1.2,2.26c-1.32,1.94-2.99,3.49-5.11,4.6
			c-3.26,1.71-6.73,2.72-10.3,3.47c-0.31,0.06-0.68,0.06-0.97-0.06c-1.98-0.79-3.94-1.63-6.07-2.51
			C80.92,138.93,81.49,138.77,82.08,138.69z M68.8,141.01c2.24-0.71,4.57-0.75,6.89-0.51c10.65,1.1,18.29,7.12,24.64,15.2
			c0.58,0.73,1.08,1.55,1.47,2.4c1.54,3.36,3.04,6.75,4.53,10.14c0.22,0.49,0.3,1.04,0.49,1.7c-1.12,0.44-2.03,0.8-2.94,1.16
			c-0.11-0.04-0.25-0.06-0.3-0.13c-1.79-2.49-4.17-4.23-6.86-5.61c-2.85-1.46-5.67-2.98-8.52-4.45c-0.64-0.33-1.28-0.71-1.97-0.85
			c-2.07-0.42-3.7-1.62-5.37-2.79c-1.9-1.33-3.85-2.6-5.77-3.9c-2.73-1.85-5.13-4.03-6.79-6.93c-0.38-0.67-0.75-1.36-1.02-2.08
			C66.59,142.59,67,141.58,68.8,141.01z M100.62,177.58c-0.27,0-0.5,0.06-0.67-0.01c-1.56-0.62-3.06-0.35-4.47,0.42
			c-2.08,1.14-4.1,2.36-6.4,3.69c-0.68-0.48-1.58-1.08-2.45-1.73c-2.22-1.65-4.38-3.37-6.64-4.95c-2.42-1.69-5.14-2.48-8.11-2.4
			c-2.28,0.06-4.06-2.13-3.46-4.28c1.46-5.2,6.27-8.33,11.03-7.92c3.03,0.26,5.87,1,8.54,2.37c3.24,1.67,6.45,3.4,9.63,5.17
			c2.11,1.17,3.51,2.62,4.52,4.45C100.76,173.88,100.44,175.63,100.62,177.58z M60.79,179.24c3.43-0.2,6.49-1.22,9.03-3.6
			c1.22-1.14,2.55-1.52,4.25-1.13c1.92,0.44,3.72,1.05,5.3,2.22c2.74,2.03,5.47,4.09,8.2,6.14l-0.06,0.44
			c-1.74,0.67-3.43,1.51-5.23,1.96c-1.36,0.34-2.84,0.23-4.27,0.25c-3.21,0.03-6.4,0.31-9.51,1.09c-1.83,0.46-3.63,1.07-4.88,2.61
			c-0.53,0.66-1.09,0.74-1.72,0.32c-1.83-1.23-3.75-2.35-5.38-3.8c-0.83-0.74-1.23-2.07-1.59-3.2c-0.45-1.43,0.02-2.26,1.47-2.62
			C57.82,179.57,59.31,179.33,60.79,179.24z M60.45,172.78c1.37-2.27,3.32-3.12,5.57-2.81c1.08,1.39,2.04,2.62,3.03,3.89
			c-2.42,2.69-5.67,3.57-9.33,3.6C58.53,175.69,59.59,174.2,60.45,172.78z M57.05,149.06c0.31-0.5,0.79-0.93,1.26-1.3
			c1.86-1.47,4.6-2.44,7.39-2.59c1.99,4.83,5.61,8.04,9.93,10.62c1.27,0.76,2.45,1.68,3.67,2.53c-0.12,0.15-0.18,0.29-0.24,0.29
			c-2.04-0.12-3.88,0.53-5.78,1.19c-2.49,0.86-5.1,1.4-7.79,0.95c-2.31-0.39-3.27-1.49-3.32-3.78c0-0.17,0-0.33,0-0.5
			c-0.02-2.61-0.5-3.24-3.04-4c-0.32-0.09-0.65-0.16-0.95-0.27C56.65,151.62,56.19,150.42,57.05,149.06z M55.61,156.26
			c0.06-0.93,0.25-1.85,0.4-2.91c1.18,0.37,2.16,0.71,3.16,0.99c0.81,0.23,1.2,0.72,1.14,1.56c-0.03,0.39-0.02,0.77,0,1.16
			c0.13,3.17,2.08,5.25,5.26,5.52c1.15,0.1,2.31,0.02,3.85,0.02c-0.43,0.51-0.62,0.92-0.92,1.05c-0.5,0.21-1.07,0.29-1.61,0.31
			c-1.49,0.06-2.98,0.09-4.47,0.06C58.39,163.94,55.33,160.45,55.61,156.26z M56.27,163.13c1.87,2.26,4.4,2.73,7.13,2.69
			c1.29-0.02,2.57,0,3.95,0c-0.26,0.76-0.48,1.38-0.66,1.91c-1.82,0.4-3.56,0.79-5.42,1.2c-0.53-1.28-1.74-2.03-3.16-2.62
			c-1.72-0.72-2.79-2.03-2.93-4.33C55.7,162.51,56,162.8,56.27,163.13z M57.58,168.01c1.55,0.68,1.55,0.68,2.31,2.45
			c-0.53,0.77-1.08,1.57-1.7,2.45c-0.68-1.23-1.28-2.38-1.94-3.49c-1.19-2-2.76-3.61-5.01-4.35c-0.78-0.26-1-0.72-1.13-1.41
			c-0.31-1.64-0.07-3.06,1.43-4.07c0.73-0.49,1.42-1.02,2.45-1.77c0,0.93,0.13,1.5-0.02,1.97C52.77,163.5,54.04,166.45,57.58,168.01
			z M42.79,165.4c0.27-1.87,0.76-3.66,1.96-5.2c2.13-2.71,4.62-5.03,7.52-6.9c0.37-0.24,0.77-0.43,1.17-0.61
			c0.19-0.09,0.42-0.13,0.74-0.22c0.27,2.2-0.66,3.63-2.33,4.69c-0.37,0.24-0.73,0.5-1.08,0.76c-1.77,1.35-2.96,2.96-2.48,5.36
			c0.06,0.31,0.01,0.65,0.01,1.1c-1.93,0.3-3.85,0.64-5.39,2.56C42.85,166.18,42.74,165.78,42.79,165.4z M50.87,166.85
			c1.15,0.46,2.13,1.14,2.9,2.14c2.01,2.58,3.27,5.47,3.95,8.72c-0.94,0.25-1.65,0.37-2.31,0.64c-2.02,0.82-2.83,2.42-2.32,4.53
			c0.52,2.17,1.55,4.03,3.4,5.33c1.58,1.11,3.2,2.15,4.86,3.25c-2.62,1.52-2.44,4-2.04,6.54c0.08,0.53,0.23,1.04,0.38,1.71
			c-1.52-0.29-2.63-1.02-3.72-1.73c-5.39-3.52-9.01-8.42-11-14.51c-0.74-2.26-1.42-4.54-1.95-6.85c-0.32-1.38-0.39-2.85-0.39-4.28
			C42.64,167.71,46.57,165.12,50.87,166.85z M13.91,190.86c3.22-2.91,5.76-6.41,8.52-9.73c2.94-3.55,6.19-6.78,9.85-9.59
			c2.17-1.66,4.58-2.87,7.17-3.72c0.51-0.17,1.05-0.24,1.84-0.41c0.02,0.74,0.18,1.34,0.03,1.84c-0.75,2.52-0.64,5.05-0.08,7.55
			c0.62,2.74,1.46,5.44,2.2,8.17c-3.82,0.85-7.66,1.64-11.46,2.57c-1.55,0.38-3.07,0.93-4.52,1.59c-4,1.82-8.24,2.84-12.47,3.86
			c-0.98,0.23-2.02,0.17-3.04,0.25c-0.04-0.11-0.07-0.22-0.11-0.33C12.53,192.22,13.19,191.5,13.91,190.86z M59.3,205.08
			c-2.83,1.11-5.71,2.22-8.78,2.27c-2.3,0.04-4.64-0.24-6.9-0.67c-7.69-1.46-15.03-3.98-22.06-7.44c-2.42-1.19-5-2.06-7.5-3.1
			c-0.68-0.28-1.34-0.64-2.29-1.1c6.26-0.52,11.76-2.35,17.16-4.6c4.15-1.73,8.57-2.49,12.99-3.23c0.76-0.13,1.52-0.23,2.38-0.36
			c0.48,0.95,0.87,1.75,1.28,2.52c2.49,4.67,6.18,8.18,10.68,10.87c0.89,0.53,1.89,1.01,2.89,1.19c1.33,0.23,2.05,0.91,2.49,2.33
			C60.9,204.19,60.14,204.75,59.3,205.08z M70.32,207.5c-5.17-1.63-8.27-5.11-9.33-10.4c-0.36-1.79-0.17-3.42,1.76-4.37
			c0.52-0.25,0.98-0.75,1.3-1.25c1.23-1.93,3.12-2.72,5.21-3.22c3.57-0.85,7.21-1.07,10.86-1.03c2,0.02,3.78-0.53,5.6-1.21
			c2.55-0.95,4.49-2.79,6.69-4.23c1.34-0.87,2.75-1.65,4.19-2.33c1.67-0.8,3.66-0.72,4.22,2.04c0.61,2.98,1,5.99,0.97,9.04
			c0.04,1.95,0,3.87-0.95,5.66c-0.6,1.12-1.38,1.98-2.61,2.39c-2,0.67-3.69,1.81-5.41,3.07c-2.92,2.14-5.89,4.37-9.45,5.39
			C79.08,208.28,74.73,208.89,70.32,207.5z M65.73,227.41c0.54-0.66,0.86-1.1,1.22-1.49c2.73-2.93,4.96-6.21,6.97-9.66
			c0.89-1.53,1.76-3.06,2.69-4.57c0.68-1.1,1.46-1.88,2.98-2.01c4.12-0.33,7.74-2.09,11.12-4.38c0.91-0.62,1.86-1.19,2.78-1.8
			c0.37-0.24,0.81-0.44,1.05-0.77c0.87-1.2,2.12-1.82,3.44-2.17c3.14-0.82,4.63-3.07,5.33-5.95c0.23-0.94,0.63-1.49,1.47-1.77
			c1.1-0.36,2.21-0.67,3.34-1.01c1.11,1.14,2.11,2.17,3.19,3.27c-1.64,1.16-3.37,2.31-5.02,3.57c-2.28,1.74-4.56,3.5-6.74,5.37
			c-5.09,4.34-10.05,8.84-15.2,13.1c-2.37,1.96-5,3.66-7.65,5.23c-3.22,1.91-6.49,3.8-10.12,4.89
			C66.43,227.3,66.27,227.31,65.73,227.41z M103.27,184.96c1.16,1.86,2.23,3.57,3.4,5.42c-0.93,0.28-1.86,0.55-2.86,0.85
			C103.63,189.15,103.45,187.16,103.27,184.96z M118.5,204.15c-2.07,7.12-5.74,13.25-11.47,18.06c-3.92,3.29-8.56,5.18-13.28,6.97
			c-4.14,1.56-8.38,1.93-12.72,1.52c-2.52-0.24-5.03-0.7-7.54-1.04c-1.85-0.25-3.71-0.46-5.92-0.73c0.65-0.3,1.02-0.48,1.39-0.64
			c6.1-2.67,11.91-5.84,17.02-10.16c6.21-5.24,12.31-10.61,18.52-15.86c2.7-2.28,5.62-4.27,8.6-6.04c2.11,1.1,4.12,2.14,6.28,3.27
			C119.09,201.05,118.93,202.64,118.5,204.15z M141.58,241.88c-0.97,4.54-2.51,8.91-4.54,13.41c-0.16-0.64-0.3-1.02-0.34-1.41
			c-0.55-4.83-1.17-9.66-1.61-14.5c-0.54-5.79-0.27-11.5,2.26-16.89c0.72-1.53,1.55-3.01,2.52-4.88c0.56,1.01,0.97,1.64,1.27,2.31
			c1.27,2.84,1.58,5.87,1.55,8.92C142.63,233.21,142.5,237.59,141.58,241.88z M145.4,212.65c1.82,1.69,3.79,3.27,5.33,5.2
			c3.73,4.65,6.76,9.7,7.61,15.78c0.23,1.63,0.62,3.24,0.7,4.99c-0.25-0.22-0.52-0.43-0.73-0.68c-1.59-1.84-3.14-3.71-4.75-5.54
			c-0.58-0.66-1.29-1.21-1.89-1.86c-1.27-1.37-2.52-2.77-3.76-4.17c-0.63-0.7-1.25-1.4-1.85-2.13c-1.63-1.99-2.79-4.24-3.69-6.63
			c-0.75-1.99-0.65-4,0.03-6.14C143.66,211.52,144.62,211.93,145.4,212.65z M141.85,203.96c-2.45,2.77-5.04,5.42-7.64,8.06
			c-2.09,2.13-5.02,3.94-7.43,4.69c0.61-1.02,1.07-1.86,1.59-2.66c2.24-3.48,4.51-6.95,6.74-10.44c0.94-1.47,2.08-2.71,3.55-3.65
			c1.58-1.01,3.09-2.13,4.71-3.05c1.22-0.69,2.58-1.14,3.87-1.69C145.86,198.43,144.13,201.39,141.85,203.96z M147.1,193.24
			c-1.11,0.48-2.21,1-3.35,1.43c-2.99,1.13-6.05,2.1-8.98,3.35c-5.39,2.3-10.56,1.52-15.7-0.74c-0.66-0.29-1.3-0.61-1.94-0.94
			c-5.7-2.93-9.97-7.23-12.45-13.2c-0.68-1.63-1.44-3.23-1.99-4.91c-0.88-2.7-0.09-4.52,2.49-5.68c1.13-0.51,2.42-0.7,3.65-0.94
			c0.59-0.12,1.21-0.01,1.82-0.03c2.98-0.11,5.96-0.19,8.93-0.37c0.85-0.05,1.41,0.1,1.96,0.83c3.66,4.95,8.14,8.99,13.57,11.96
			c1.99,1.09,3.92,2.27,5.89,3.39c2.38,1.35,4.61,3.1,7.66,2.71C148.78,191.64,148.41,192.68,147.1,193.24z M146.92,188.23
			c-0.48-0.05-1.02-0.09-1.42-0.32c-5.14-3.01-10.58-5.58-15.25-9.33c-4.17-3.35-7.67-7.32-10.06-12.18
			c-1.16-2.36-1.9-4.82-1.87-7.48c0.02-1.89,0.71-3.55,1.64-5.14c0.57-0.97,1.49-1.3,2.5-1.39c0.93-0.08,1.88-0.02,2.82-0.02
			c0.01-0.1,0.02-0.2,0.02-0.29c3.34,0.43,6.69,0.77,10.01,1.31c1.65,0.27,3.19,1.06,4.27,2.38c1.18,1.45,2.23,3.01,3.27,4.56
			c0.58,0.87,0.95,1.88,1.53,2.75c1.06,1.62,2.22,1.82,3.74,0.59c0.72-0.58,1.31-1.34,1.85-2.1c1.28-1.8,2.32-2.04,4.15-0.75
			c0.9,0.63,1.81,1.31,2.53,2.13c2.37,2.69,4.66,5.46,6.97,8.2c0.79,0.94,1,2.03,0.95,3.25c-0.1,2.93-1.07,5.45-3.02,7.69
			c-2.26,2.6-5,4.25-8.3,5.16C151.17,187.84,149.11,188.46,146.92,188.23z M150.6,190.4c-0.02-0.2,0.3-0.55,0.54-0.64
			c0.88-0.32,1.78-0.6,2.69-0.82c3.84-0.95,6.95-3,9.43-6.08c1.57-1.94,2.71-4.04,2.9-6.56c0.07-0.95,0.46-1.54,1.39-1.78
			c0.26-0.07,0.5-0.25,0.76-0.33c5.57-1.81,10.15-5.3,14.83-8.64c1.09-0.78,2.33-1.47,3.61-1.79c0.86-0.22,1.94,0.17,2.86,0.47
			c1.1,0.35,2.14,0.88,3.2,1.36c2.4,1.11,4.66,0.63,6.77-0.69c1.07-0.67,1.95-1.63,2.98-2.37c1.66-1.19,3.32-2.38,5.08-3.41
			c1.31-0.77,1.95-0.49,2.61,0.91c0.78,1.64,1.02,3.41,0.6,5.18c-0.32,1.34-0.82,2.64-1.3,3.93c-0.49,1.34-1.39,2.41-2.59,3.15
			c-1.45,0.9-2.96,1.72-4.48,2.5c-2.89,1.5-5.8,2.96-8.72,4.41c-0.99,0.49-1.99,0.99-3.03,1.31c-2.31,0.71-4.36,1.85-6.24,3.35
			c-0.69,0.55-1.42,1.06-2.08,1.65c-2.55,2.28-5.55,3.47-8.88,4.16c-4.98,1.05-9.96,1.98-15.09,2.05c-2.25-0.19-4.51-0.39-6.76-0.58
			c-0.16-0.01-0.36-0.02-0.48-0.11C150.96,190.86,150.62,190.63,150.6,190.4z M218.17,255.27c-0.51-0.22-0.92-0.38-1.31-0.57
			c-2.61-1.33-5.21-2.67-7.82-3.99c-1.97-0.99-3.98-1.91-5.93-2.93c-8.57-4.47-15.9-10.44-21.49-18.37
			c-2.19-3.11-4.32-6.32-6.04-9.71c-2.72-5.33-4.63-10.99-5.38-16.98c-0.03-0.26,0-0.53,0-0.93c4.85,0.3,9.63,0.65,14.43,0.15
			c4.82,4.87,9.43,9.93,13.53,15.45c2.14,2.89,4.33,5.75,6.47,8.63c3.67,4.94,6.63,10.29,9.53,15.72c2.13,4.01,2.79,8.35,4.1,12.55
			c0.05,0.15,0.05,0.33,0.04,0.49C218.29,254.88,218.24,254.98,218.17,255.27z M199.61,195.73c2.35,1.61,4.46,3.45,6.44,5.46
			c5.54,5.64,9.09,12.47,11.87,19.76c2.42,6.36,3.72,12.95,3.85,19.76c0.09,4.55-0.49,9.04-1.29,13.51
			c-0.01,0.08-0.15,0.14-0.34,0.31c-0.64-2.49-1.31-4.9-1.86-7.34c-0.45-2.02-1.27-3.87-2.17-5.71
			c-4.01-8.19-9.17-15.62-14.72-22.82c-4.22-5.48-8.45-10.95-13.41-15.81c-0.38-0.37-0.69-0.8-1.15-1.35
			c1.83-0.73,3.44-1.42,5.08-2.02c1.92-0.7,3.87-1.32,5.8-1.98C198.95,197.09,198.95,197.09,199.61,195.73z M192.55,193.03
			c1.37,0.77,2.6,1.78,4.11,2.83c-3.4,1.28-6.39,2.59-9.49,3.53c-2.94,0.89-6.01,1.31-9.13,1.01c-0.77-0.07-1.54-0.18-2.31-0.17
			c-4.22,0.06-8.33-0.74-12.45-1.48c-0.59-0.11-1.2-0.19-1.8-0.25c-1.35-0.14-2.62-0.53-3.65-1.41c-1.4-1.19-2.92-2.15-4.63-2.84
			c-0.63-0.25-1.2-0.65-1.79-0.99c0.04-0.11,0.08-0.22,0.12-0.33c1.06,0.1,2.13,0.12,3.17,0.3c3.32,0.56,6.64,0.17,9.91-0.21
			c3.98-0.46,7.92-1.4,11.85-2.23c1.55-0.33,3.09-0.8,4.54-1.44c1.63-0.73,3.2-0.49,4.65,0.15
			C188.01,190.54,190.3,191.76,192.55,193.03z M221.25,191.62c0.61,1.29,1.07,2.66,1.57,4c1.11,2.96,2.57,5.74,4.41,8.31
			c0.41,0.58,0.78,1.2,1.16,1.8c-0.06,0.13-0.11,0.26-0.17,0.39c-2.42-0.89-4.85-1.72-7.24-2.68c-1.27-0.51-2.49-1.19-3.68-1.89
			c-4.87-2.88-7.68-7.01-7.65-12.82c0-0.55,0-1.09,0-1.64c2.4-0.52,4.69-1.08,7.01-1.5c0.98-0.18,1.65,0.6,2.09,1.36
			C219.64,188.47,220.49,190.03,221.25,191.62z M216.5,170.59c1.99-0.07,3.97-0.21,5.96-0.31c0.44-0.02,0.89-0.03,1.33,0.01
			c0.99,0.1,1.35,0.48,1.05,1.43c-1.12,3.6-2.48,7.11-4.93,10.06c-0.99,1.19-2.46,1.72-3.9,2.08c-2.19,0.55-4.42,0.94-6.65,1.32
			c-4.41,0.76-8.82,1.48-13.23,2.17c-1.08,0.17-2.2,0.1-3.3,0.23c-1.19,0.14-2.4,0.31-3.55,0.62c-0.71,0.19-1.31,0.31-2.04,0.01
			c-1.16-0.48-2.39-0.78-3.74-1.2c2.45-2.13,4.88-4,7.96-4.85c0.85-0.23,1.66-0.61,2.45-1.01c3.71-1.85,7.4-3.73,11.1-5.59
			c2.09-1.06,4.07-2.26,5.43-4.24c0.39-0.57,0.94-0.71,1.58-0.71C213.51,170.62,215.01,170.65,216.5,170.59z M223.74,158.19
			c-3.68,3.55-6.57,7.81-11.7,9.91c0.28-1.39,0.67-2.53,0.71-3.69c0.05-1.25-0.08-2.54-0.39-3.75c-0.29-1.12-0.93-2.15-1.47-3.35
			C215.2,157.33,219.38,156.88,223.74,158.19z M214.11,146.37c-0.96,3.2-2.54,6.11-4.36,8.89c-0.65,0.99-1.54,1.59-2.62,2.16
			c-1.99,1.05-3.82,2.4-5.68,3.68c-0.72,0.5-1.32,1.17-2.01,1.72c-2.2,1.76-4.53,2.08-7.3,0.47c1.37-0.72,2.46-1.37,3.61-1.88
			c1.95-0.87,3.58-2.14,5.07-3.65c3.42-3.47,5.85-7.46,6.79-12.28c0.2-1.04,0.64-1.82,1.51-2.44c1.17-0.83,2.25-1.78,3.41-2.63
			c0.69-0.5,1.46-0.91,2.33-1.44C215.26,141.69,214.8,144.05,214.11,146.37z M215.76,137.18c-0.44-0.2-1.05-0.04-1.57-0.04
			c1.05-3.15,3.38-6.22,6.41-8.38c2.23,1.38,4.66,2.41,7.31,2.81c0.76,0.12,1.54,0.09,2.3,0.22c0.42,0.07,0.8,0.32,1.45,0.58
			c-2.86,0.82-5.46,1.33-7.87,2.31c-2.38,0.97-4.57,2.41-6.86,3.65C216.57,137.96,216.24,137.4,215.76,137.18z M278.01,126.75
			c-2.26,1.69-4.52,3.36-6.78,5.05c-1.89,1.41-3.22,3.15-3.53,5.58c-0.13,0.98-0.72,1.72-1.58,2.22c-0.38,0.22-0.75,0.47-1.13,0.69
			c-5.49,3.03-10.58,6.62-15.28,10.78c-3.85,3.41-8.42,4.73-13.5,4.28c-1.81-0.16-3.54-0.69-5.26-1.38
			c-4.08-1.64-7.74-3.99-11.49-6.22c-1.03-0.61-2.17-1.03-3.27-1.54c0.22-1.58,0.37-3.17,0.69-4.72c0.11-0.53,0.52-1.13,0.97-1.44
			c3.68-2.5,7.53-4.63,12.03-5.28c0.76-0.11,1.55-0.19,2.27-0.44c0.88-0.31,1.57-0.19,2.31,0.35c0.71,0.51,1.54,0.86,2.31,1.29
			c2.01,1.14,4.08,2.21,6.02,3.47c2.67,1.73,5.4,3.23,8.58,3.78c4.96,0.85,9.15-0.5,12.1-4.67c1.46-2.06,2.62-4.35,3.72-6.63
			c0.91-1.88,0.92-2.79,0.82-4.79c3.54-0.78,7.18-0.82,10.89-1.16C278.59,126.22,278.32,126.51,278.01,126.75z"/>
	</g>
	<path class="st0" d="M158.44,191.73c5.13-0.07,10.11-1,15.09-2.05c3.33-0.7,6.33-1.89,8.88-4.16c0.66-0.59,1.39-1.09,2.08-1.65
		c1.88-1.5,3.93-2.64,6.24-3.35c1.05-0.32,2.05-0.82,3.03-1.31c2.92-1.45,5.83-2.91,8.72-4.41c1.52-0.79,3.02-1.6,4.48-2.5
		c1.2-0.74,2.1-1.81,2.59-3.15c0.48-1.29,0.97-2.59,1.3-3.93c0.43-1.77,0.19-3.53-0.6-5.18c-0.67-1.4-1.3-1.68-2.61-0.91
		c-1.76,1.03-3.42,2.22-5.08,3.41c-1.03,0.74-1.91,1.7-2.98,2.37c-2.11,1.32-4.37,1.79-6.77,0.69c-1.05-0.49-2.1-1.01-3.2-1.36
		c-0.92-0.3-2-0.69-2.86-0.47c-1.28,0.33-2.52,1.02-3.61,1.79c-4.68,3.34-9.26,6.83-14.83,8.64c-0.26,0.08-0.49,0.27-0.76,0.33
		c-0.93,0.24-1.32,0.84-1.4,1.78c-0.19,2.52-1.34,4.61-2.9,6.56c-2.48,3.08-5.59,5.13-9.43,6.08c-0.91,0.22-1.81,0.5-2.69,0.82
		c-0.24,0.09-0.56,0.44-0.54,0.64c0.02,0.23,0.36,0.45,0.6,0.63c0.12,0.09,0.32,0.09,0.48,0.11
		C153.93,191.34,156.18,191.53,158.44,191.73z"/>
	<g>
		<path class="st0" d="M125.69,114.11c0.25-0.01,0.53-0.18,0.73-0.35c1.54-1.32,3.06-2.66,4.58-3.99
			c-3.79,0.39-6.83,2.28-10.21,4.36C122.68,114.13,124.19,114.15,125.69,114.11z"/>
		<path class="st0" d="M138.33,131.68c0.83,1.01,1.79,1.8,3.27,1.95c0.78-1.13,1.51-2.24,2.29-3.31c2.3-3.15,5.28-5.41,9.15-6.12
			c3.45-0.64,6.71-1.77,9.91-3.15c1.47-0.64,2.93-1.18,4.61-1.12c1.45,0.06,2.12-0.83,1.89-2.25c-0.19-1.14-0.56-2.25-0.77-3.39
			c-0.19-1.07-0.5-2.2-0.34-3.24c0.31-2.08,0.02-3.83-1.78-5.1c-0.72-0.51-1.44-1.05-2.23-1.43c-1.75-0.82-3.55-1.53-5.31-2.31
			c-2.25-0.99-4.47-0.95-6.76-0.08c-4.59,1.74-8.36,4.68-11.85,8.03c-0.72,0.69-1.48,1.32-2.21,2c-1.83,1.69-3.78,3.26-4.86,5.59
			c-0.64,1.38-0.99,2.81-0.48,4.33C134.06,125.64,135.96,128.8,138.33,131.68z"/>
		<path class="st0" d="M114.73,138.69c-3.17,0.12-5.82-1-8.1-3.16c-0.5-0.48-1.11-0.85-1.66-1.27c-0.89,1.05-1.09,1.31-1.25,2.6
			c-0.2,1.64-0.37,3.3-0.36,4.95c0.03,2.59,0.02,5.21,0.39,7.76c0.6,4.18,2.45,7.76,5.91,10.39c0.96,0.73,1.82,1.61,2.74,2.41
			c1.39,1.22,3.01,1.89,4.97,2.28c-0.2-0.87-0.36-1.55-0.51-2.24c-0.7-3.32-0.4-6.48,1.45-9.41c0.89-1.41,2.09-2.23,3.78-2.33
			c1.69-0.1,3.38-0.22,5.08-0.33c-2.74-3.77-5.54-7.52-7.38-11.66C118.02,138.68,116.38,138.63,114.73,138.69z"/>
		<path class="st0" d="M204,110.65c1.52,2.08,3.23,4.01,4.89,6.05c0.66-0.31,1.14-0.54,1.63-0.77c-0.04-1.37-0.25-2.58-0.82-3.76
			c-0.68-1.39-1.36-2.79-1.83-4.26c-0.84-2.58-1.46-5.21-0.91-7.97c0.14-0.7,0.33-1.44,0.23-2.13c-0.52-3.52,0.02-6.94,0.85-10.34
			c1.45-5.94,4.37-10.84,9.92-13.83c1.01-0.55,2.07-1.01,3.15-1.53c-0.33-0.72-0.89-1.15-1.67-1.14c-1.32,0.02-2.66,0.01-3.95,0.24
			c-3.01,0.52-5.68,1.95-7.94,3.92c-6.1,5.3-9.8,11.8-9.18,20.16C198.78,100.92,200.66,106.08,204,110.65z"/>
		<path class="st0" d="M164.25,122.4c-3.41,1.57-6.91,2.88-10.66,3.5c-3.29,0.55-5.85,2.45-7.94,5.04
			c-2.05,2.55-3.35,5.46-4.29,8.54c-0.72,2.33-0.61,4.7,0.27,7c1.57,4.08,2.68,8.3,3.68,12.55c0.28,1.18,0.69,2.3,1.68,3.45
			c0.63-0.82,1.21-1.53,1.73-2.27c1.29-1.83,2.83-2.4,4.89-1.61c0.86,0.33,1.7,0.83,2.39,1.44c1.73,1.54,3.37,3.18,5.33,5.06
			c1.15-0.66,2.52-1.2,3.59-2.1c5.12-4.31,9.42-9.3,12.54-15.28c1.58-3.01,2.27-6.21,2.47-9.55c0.09-1.42-0.31-2.6-1.73-3.28
			c-1.3-0.62-2.16-1.7-2.76-2.99c-0.52-1.1-1.12-2.18-1.49-3.32c-0.78-2.38-2.36-4.1-4.3-5.53
			C168,121.83,166.28,121.46,164.25,122.4z"/>
		<path class="st0" d="M171.11,117.01c0.13,0.7,0.22,1.46,0.05,2.13c-0.17,0.69-0.67,1.3-0.94,1.79c1.33,1.38,2.81,2.6,3.88,4.11
			c1.06,1.51,1.71,3.31,2.52,4.96c0.72,0.27,1.43,0.56,2.15,0.81c1.04,0.36,2.06,0.81,3.13,1.03c2.35,0.49,4.55,0.4,6.45-1.47
			c1.61-1.59,3.51-2.92,5.66-3.67c1.63-0.56,2.07-1.69,2.06-3.16c-0.01-0.81-0.1-1.66-0.35-2.44c-1.21-3.76-3.12-7.06-6.47-9.36
			c-0.59-0.41-1.11-0.92-1.7-1.32c-2.43-1.61-4.99-2.75-8.01-2.68c-3.03,0.07-5.72,1.01-8.2,2.69c-1.4,0.95-1.52,1.19-1.11,2.87
			C170.53,114.54,170.87,115.77,171.11,117.01z"/>
		<path class="st0" d="M120.63,132.4c0.05,3.41,0.95,6.53,2.81,9.39c0.84,1.29,1.76,2.55,2.54,3.88c1.13,1.95,2.56,3.59,4.47,4.79
			c0.36,0.23,0.75,0.45,1.16,0.54c0.81,0.17,1.63,0.27,2.45,0.35c3.11,0.34,5.69,1.65,7.68,4.09c0.26,0.31,0.55,0.6,0.82,0.9
			c0.1-0.05,0.21-0.1,0.31-0.16c-0.92-2.88-1.74-5.79-2.79-8.62c-1.24-3.38-1.24-6.69,0-10.03c0.25-0.66,0.5-1.33,0.69-1.84
			c-1.27-0.9-2.5-1.5-3.36-2.44c-2.16-2.37-3.96-5.02-5.27-7.98c-1-2.27-1.71-4.54-1.05-7.05c0.02-0.09-0.06-0.2-0.1-0.29
			c-0.41-0.19-0.84-0.33-1.2-0.57c-2.5-1.7-5.25-1.84-8.1-1.27c-1.42,0.28-1.49,0.43-1.45,1.89
			C120.39,122.79,120.56,127.6,120.63,132.4z"/>
		<path class="st0" d="M111.32,121.56c-0.42,0.99-0.17,1.61,0.85,1.89c0.52,0.14,1.13,0.26,1.62,0.11c1.26-0.37,2.5-0.85,3.71-1.36
			c0.91-0.39,1.2-1.1,1.12-2.14c-0.12-1.47-0.03-2.96-0.03-4.62c-1.35,0.76-2.65,1.35-3.8,2.17
			C113.34,118.64,112.05,119.88,111.32,121.56z"/>
		<path class="st0" d="M66.54,99.71c0.14,0.81,0.62,1.34,1.26,1.85c2.55,2.06,5.49,2.65,8.68,2.65c1.39,0,2.49-0.28,3.38-1.52
			c-1.82-1.2-2.23-2.49-1.51-4.5c0.13-0.35,0.16-0.75,0.19-1.13c0.21-2.83,1.88-5.01,3.21-7.34c0.1-0.18,0.33-0.28,0.5-0.43
			c1.01-0.93,2.03-1.86,3.04-2.8c0.4-0.37,0.74-0.86,1.21-1.12c2.02-1.13,4.06-2.22,6.11-3.29c1.02-0.54,2.07-0.56,3.21-0.25
			c1.14,0.31,2.35,0.4,3.64,0.61c0.43-2.84,1.01-5.5,0.53-8.1c-0.45-2.44-1.46-3.5-3.99-3.01c-0.27,0.05-0.54,0.11-0.8,0.19
			c-2.86,0.83-5.75,1.57-8.56,2.54c-1.81,0.63-3.57,1.5-5.25,2.44c-3.98,2.23-7.46,5.14-10.65,8.38
			C66.62,89.05,65.58,94.1,66.54,99.71z"/>
		<path class="st0" d="M99.66,101.39c0.72,7.77,4.05,14.13,9.83,19.23c1.12-1.24,2.15-2.37,3.16-3.52c0.18-0.2,0.3-0.46,0.46-0.69
			c2.33-3.43,3.66-7.27,4.65-11.26c0.83-3.32,0.99-6.63,0.38-10.01c-1.03-5.68-3.76-10.6-6.95-15.26c-2.23-3.26-5.77-4.81-9.41-6.49
			c0.32,4.71-0.4,9.13-1.24,13.51C99.62,91.69,99.21,96.48,99.66,101.39z"/>
		<path class="st0" d="M87.83,97c0.55-0.75,1.29-1.11,2.31-0.94c0.53,0.09,1.2-0.07,1.68-0.35c2.43-1.4,4.13-3.6,6.03-5.59
			c0.22-0.23,0.36-0.57,0.43-0.88c0.31-1.56,0.59-3.13,0.91-4.89c-0.64-0.17-1.05-0.31-1.47-0.38c-0.7-0.13-1.44-0.11-2.11-0.33
			c-0.91-0.3-1.69-0.23-2.53,0.21c-2.92,1.53-5.98,2.83-8.07,5.56c-0.26,0.34-0.64,0.62-1.01,0.84c-0.8,0.46-1.32,1.13-1.69,1.96
			c-0.43,0.95-0.99,1.85-1.41,2.81c-0.24,0.54-0.35,1.15-0.49,1.73c-0.2,0.85-0.35,1.71-0.59,2.55c-0.28,0.97,0.01,1.58,1.01,1.56
			c0.86-0.02,1.77-0.17,2.54-0.53C85.07,99.53,86.68,98.58,87.83,97z"/>
		<path class="st0" d="M76.81,107.4c1.06,1.24,1.3,1.41,3.78,2.42c2.75,1.12,5.18,2.71,7.25,4.84c1.69,1.75,3.36,3.52,5.07,5.25
			c4.64,4.67,10.22,5.42,16.43,3.93c0.04-1.03-0.57-1.46-1.09-1.95c-4.42-4.09-7.88-8.8-9.39-14.75c-1.03-4.05-1.3-8.17-1.16-12.34
			c0.02-0.53,0-1.06,0-1.69c-0.26,0.13-0.43,0.16-0.53,0.26c-0.78,0.78-1.52,1.61-2.34,2.34c-1.36,1.21-2.74,2.41-4.8,2.2
			c-0.34-0.04-0.82,0.28-1.07,0.58c-1.01,1.22-2.26,2.1-3.64,2.83c-0.83,0.44-1.69,0.83-2.45,1.37c-1.89,1.34-3.73,2.75-5.58,4.14
			C77.1,106.98,76.96,107.22,76.81,107.4z"/>
		<path class="st0" d="M244.33,138.27c1.96,1.36,4.08,2.4,6.42,2.98c3.94,0.98,7.52,0.39,10.35-2.66c2.31-2.5,3.89-5.49,4.9-8.75
			c0.14-0.47,0.18-0.98,0.19-1.47c0.02-0.75-0.37-1.31-1.09-1.49c-2.24-0.56-4.49-1.16-6.76-1.55c-1.02-0.18-2.36-0.3-3.14,0.2
			c-2.73,1.73-5.75,2.81-8.64,4.16c-2.36,1.1-4.81,2.01-7.43,2.14c-1.85,0.09-3.71-0.11-6.01-0.2c1.51,0.95,2.64,1.83,3.91,2.43
			C239.59,135.25,242,136.66,244.33,138.27z"/>
		<path class="st0" d="M179.78,147.04c-3.97,8.07-9.49,14.78-17.1,19.61c1.3,1.97,2.65,4.03,4.16,6.33
			c2.29-1.06,4.79-1.98,7.05-3.32c2.84-1.69,5.55-3.62,8.18-5.63c1.1-0.84,2.08-2.03,2.72-3.27c1.94-3.78,3.62-7.69,4.66-11.84
			c0.48-1.93,1.12-3.79,2.35-5.43c2.64-3.49,3.45-7.72,4.52-11.82c0.11-0.43-0.14-1.12-0.46-1.46c-0.55-0.59-1.28-1-2.12-1.62
			c-1.65,1.24-3.36,2.45-4.97,3.78c-1.12,0.93-2.33,1.47-3.78,1.39c-1.91-0.11-3.81-0.28-5.65-0.42c-0.01-0.01,0.05,0.16,0.17,0.23
			c1.84,1.02,2.35,2.69,2.24,4.64C181.56,141.25,181.14,144.27,179.78,147.04z"/>
		<path class="st0" d="M191.45,161.58c1.39-0.67,2.8-1.32,4.13-2.1c1.18-0.7,2.35-1.46,3.35-2.39c3.93-3.65,6.22-8.13,7.28-13.43
			c1.37-6.84-0.39-12.44-5.71-16.92c-0.78-0.65-1.68-1.16-2.44-1.67c-0.74,1.13-1.36,2.07-2.02,3.08c0.1,0.07,0.32,0.33,0.61,0.46
			c1.12,0.52,1.44,1.46,1.43,2.58c0,0.49,0,1.01-0.15,1.48c-0.88,2.85-1.73,5.7-2.73,8.51c-0.38,1.07-1.03,2.08-1.72,3.01
			c-1.05,1.4-1.65,2.96-2.17,4.61c-0.84,2.68-1.76,5.34-2.73,7.98c-0.63,1.69-1.42,3.33-2.17,5.06c0.7,0.06,1.33-0.01,1.86,0.18
			C189.45,162.44,190.45,162.06,191.45,161.58z"/>
		<path class="st0" d="M231.84,73.96c-2.95-1.18-5.94-1.23-8.94-0.41c-5.06,1.38-8.87,4.39-11.24,9.11
			c-1.71,3.4-2.42,7.1-2.93,10.84c-0.05,0.4,0.04,0.81,0.07,1.48c0.42-0.44,0.66-0.66,0.85-0.91c1.12-1.48,2.55-2.6,4.09-3.6
			c2.65-1.74,5.49-3.09,8.5-4.05c2.97-0.94,6.01-1.59,9.13-0.75c1.32,0.36,2.6,0.85,3.99,1.32c0.38-2.09,0.71-3.94,1.05-5.78
			c0.2-1.06,0.22-2.1-0.27-3.08C235.2,76.23,233.86,74.77,231.84,73.96z"/>
		<path class="st0" d="M267.06,104.49c-3.5,0.34-6.74,1.67-9.99,2.85c-2.33,0.85-4.57,1.92-6.85,2.91c-1.08,0.47-1.5,1.21-1.41,2.47
			c0.21,2.72,0.03,5.43-1.49,7.84c-1.85,2.93-4.14,5.45-7.13,7.27c-1.01,0.62-2.02,1.24-3.03,1.86c0.04,0.14,0.08,0.27,0.12,0.41
			c0.95-0.06,1.93,0,2.86-0.19c4.2-0.88,8.01-2.79,11.81-4.66c4.15-2.04,7.61-5.12,11.11-8.06c2.69-2.26,4.78-5.07,5.78-8.53
			c0.23-0.78,0.34-1.63,0.3-2.43C269.07,104.64,268.64,104.34,267.06,104.49z"/>
		<path class="st0" d="M261.55,85.27c-1.5,0.76-3.17,1.33-3.9,3.27c1,1.09,1.96,2.23,3.01,3.28c0.79,0.79,1.21,1.65,1.14,2.8
			c-0.06,0.87,0.02,1.77,0.13,2.64c0.14,1.05-0.09,1.94-0.75,2.79c-0.43,0.56-0.71,1.23-1.1,1.82c-0.45,0.67-0.93,1.33-1.42,1.97
			c-0.26,0.34-0.59,0.63-0.88,0.94c0.05,0.11,0.1,0.21,0.15,0.32c0.45-0.15,0.9-0.31,1.36-0.45c1.96-0.58,3.9-1.21,5.87-1.7
			c2.91-0.73,4.75-2.82,4.95-5.82c0.23-3.41-0.5-6.7-1.4-9.96c-0.64-2.32-4.31-3.8-6.1-2.3C262.34,85.09,261.89,85.1,261.55,85.27z"
			/>
		<path class="st0" d="M208.66,102.97c0.21,1.73,0.67,3.47,1.24,5.12c0.8,2.33,1.81,4.59,2.78,7.02c0.36-0.16,0.91-0.38,1.43-0.65
			c2-1.05,3.96-2.21,6.01-3.15c3.37-1.56,6.83-2.81,10.63-2.81c2.1,0,4.2-0.17,6.3-0.28c0.32-0.02,0.74-0.03,0.92-0.23
			c1.43-1.53,2.88-3.02,3.17-5.29c0.36-2.85,0.05-5.61-0.7-8.36c-0.63-2.31-2.07-3.88-4.17-4.85c-1.75-0.8-3.54-1.56-5.39-2.09
			c-1.13-0.32-2.42-0.35-3.61-0.21c-5.41,0.63-10.22,2.82-14.43,6.18C209.85,95.76,208.18,98.99,208.66,102.97z"/>
		<path class="st0" d="M234.89,128.78c3.72-1.82,7.06-4.06,9.68-7.35c2.27-2.85,2.8-6.02,2.39-9.52c-0.12-1.03-0.73-1.42-1.54-1.67
			c-0.36-0.11-0.77-0.08-1.15-0.08c-4.04,0-8.07,0.03-12.11,0c-3.55-0.03-6.93,0.77-10.12,2.22c-3.81,1.73-7.52,3.7-11.21,5.53
			c1.62,1.6,3.21,3.2,4.84,4.76c2.56,2.47,5.41,4.57,8.67,6.02C227.82,130.23,231.33,130.53,234.89,128.78z"/>
		<path class="st0" d="M261.03,83.43c0.12-2.44-0.38-4.49-1.84-6.23c-0.82-0.97-1.67-1.92-2.54-2.84c-1.96-2.05-4.28-3.27-7.22-3.04
			c-0.82,0.06-1.66-0.03-2.49,0.03c-3.05,0.24-6.01,0.88-8.73,2.35c-0.65,0.35-1.23,0.85-1.94,1.36c2.17,2.37,2.37,4.97,1.67,7.75
			c-0.11,0.43-0.21,0.86-0.27,1.3c-0.18,1.25-0.35,2.5-0.51,3.73c0.93,0.63,1.74,1.18,2.63,1.79c0.1-0.56,0.17-0.98,0.27-1.41
			c0.56-2.59,2.41-3.52,4.81-2.37c0.85,0.41,1.64,0.43,2.55,0.3c2.01-0.29,4.01-0.62,5.79,0.99c1.06,0.96,2.42,0.52,3.43-0.54
			c0.79-0.82,1.74-1.5,2.67-2.18C259.88,83.99,260.54,83.7,261.03,83.43z"/>
		<path class="st0" d="M258.45,92.24c0.01,0.01,0.02,0.02,0.03,0.03L258.45,92.24C258.44,92.24,258.44,92.24,258.45,92.24
			c-0.52-0.62-1.1-1.21-1.54-1.89c-0.55-0.84-1.26-1.18-2.23-1.09c-0.9,0.08-1.82,0.02-2.5-0.65c-1.07-1.05-2.3-1.12-3.68-0.86
			c-1.58,0.3-3.14,0.47-4.66-0.45c-0.92-0.56-1.74-0.09-1.98,0.97c-0.19,0.86-0.29,1.74-0.36,2.62c-0.04,0.53-0.07,1.13,0.14,1.59
			c0.94,2.05,1.33,4.24,1.43,6.44c0.15,3.24-0.11,6.44-2.6,8.94c-0.05,0.05-0.01,0.19-0.01,0.37c2.55,0.47,5.36-0.61,7.41,1.2
			c1.88-0.87,3.5-1.7,5.18-2.39c0.92-0.37,1.64-0.89,2.18-1.69c0.34-0.5,0.62-1.06,1.02-1.51c1.11-1.28,2.12-2.58,2.95-4.1
			c0.61-1.13,1.19-2.06,0.78-3.35c-0.08-0.26-0.14-0.57-0.06-0.82C260.36,94.05,259.59,93.07,258.45,92.24z"/>
		<path class="st0" d="M212.54,140.41c-1.16,0.85-2.24,1.8-3.41,2.63c-0.87,0.62-1.31,1.4-1.51,2.44
			c-0.94,4.82-3.37,8.82-6.79,12.28c-1.49,1.51-3.12,2.78-5.07,3.65c-1.15,0.51-2.24,1.16-3.61,1.88c2.77,1.61,5.1,1.29,7.3-0.47
			c0.69-0.55,1.29-1.23,2.01-1.72c1.86-1.28,3.69-2.63,5.68-3.68c1.07-0.57,1.97-1.17,2.62-2.16c1.82-2.78,3.4-5.69,4.36-8.89
			c0.7-2.33,1.15-4.68,0.77-7.4C214,139.51,213.23,139.91,212.54,140.41z"/>
		<path class="st0" d="M141.01,187.4c-1.97-1.12-3.9-2.3-5.89-3.39c-5.43-2.97-9.91-7.01-13.57-11.96c-0.54-0.73-1.1-0.88-1.96-0.83
			c-2.97,0.17-5.95,0.26-8.93,0.37c-0.61,0.02-1.23-0.08-1.82,0.03c-1.23,0.25-2.52,0.44-3.65,0.94c-2.59,1.15-3.37,2.97-2.49,5.68
			c0.55,1.67,1.31,3.28,1.99,4.91c2.48,5.98,6.74,10.27,12.45,13.2c0.64,0.33,1.28,0.65,1.94,0.94c5.14,2.26,10.31,3.04,15.7,0.74
			c2.94-1.25,5.99-2.22,8.98-3.35c1.13-0.43,2.23-0.95,3.35-1.43c1.31-0.56,1.68-1.6,1.56-3.13
			C145.62,190.5,143.39,188.75,141.01,187.4z"/>
		<path class="st0" d="M83.37,207.06c3.56-1.01,6.54-3.24,9.45-5.39c1.72-1.26,3.41-2.4,5.41-3.07c1.23-0.41,2.01-1.27,2.61-2.39
			c0.96-1.79,0.99-3.71,0.95-5.66c0.03-3.05-0.36-6.06-0.97-9.04c-0.56-2.76-2.55-2.84-4.22-2.04c-1.44,0.68-2.85,1.46-4.19,2.33
			c-2.21,1.44-4.14,3.28-6.69,4.23c-1.83,0.68-3.6,1.24-5.6,1.21c-3.64-0.04-7.29,0.18-10.86,1.03c-2.09,0.5-3.98,1.29-5.21,3.22
			c-0.32,0.5-0.78,1-1.3,1.25c-1.93,0.95-2.12,2.57-1.76,4.37c1.06,5.29,4.16,8.76,9.33,10.4
			C74.73,208.89,79.08,208.28,83.37,207.06z"/>
		<path class="st0" d="M161.55,182.12c1.95-2.24,2.91-4.76,3.02-7.69c0.04-1.22-0.17-2.31-0.95-3.25c-2.31-2.75-4.6-5.51-6.97-8.2
			c-0.72-0.82-1.63-1.5-2.53-2.13c-1.84-1.3-2.87-1.06-4.15,0.75c-0.54,0.76-1.13,1.52-1.85,2.1c-1.52,1.23-2.68,1.03-3.74-0.59
			c-0.57-0.87-0.95-1.88-1.53-2.75c-1.04-1.56-2.09-3.11-3.27-4.56c-1.08-1.33-2.62-2.12-4.27-2.38c-3.32-0.54-6.67-0.89-10.01-1.31
			c-0.01,0.1-0.02,0.2-0.02,0.29c-0.94,0-1.88-0.07-2.82,0.02c-1.01,0.09-1.93,0.42-2.5,1.39c-0.94,1.59-1.63,3.25-1.64,5.14
			c-0.03,2.66,0.71,5.12,1.87,7.48c2.39,4.86,5.89,8.83,10.06,12.18c4.67,3.75,10.1,6.32,15.25,9.33c0.4,0.23,0.94,0.27,1.42,0.32
			c2.19,0.22,4.25-0.39,6.34-0.96C156.55,186.37,159.29,184.72,161.55,182.12z"/>
		<path class="st0" d="M212.36,160.67c0.31,1.21,0.44,2.5,0.39,3.75c-0.04,1.15-0.43,2.29-0.71,3.69c5.13-2.11,8.02-6.36,11.7-9.91
			c-4.36-1.32-8.54-0.86-12.85-0.87C211.43,158.52,212.07,159.55,212.36,160.67z"/>
		<path class="st0" d="M212.02,170.61c-0.64,0-1.19,0.14-1.58,0.71c-1.36,1.99-3.34,3.19-5.43,4.24c-3.7,1.87-7.39,3.74-11.1,5.59
			c-0.79,0.39-1.6,0.78-2.45,1.01c-3.08,0.84-5.51,2.72-7.96,4.85c1.34,0.42,2.57,0.73,3.74,1.2c0.74,0.3,1.33,0.18,2.04-0.01
			c1.16-0.31,2.36-0.48,3.55-0.62c1.09-0.13,2.21-0.06,3.3-0.23c4.42-0.69,8.83-1.41,13.23-2.17c2.23-0.38,4.46-0.77,6.65-1.32
			c1.44-0.36,2.91-0.89,3.9-2.08c2.44-2.95,3.81-6.45,4.93-10.06c0.3-0.95-0.06-1.32-1.05-1.43c-0.44-0.05-0.89-0.03-1.33-0.01
			c-1.99,0.1-3.97,0.24-5.96,0.31C215.01,170.65,213.51,170.62,212.02,170.61z"/>
		<path class="st0" d="M181,189.34c-1.44,0.64-2.99,1.12-4.54,1.45c-3.93,0.83-7.87,1.77-11.85,2.23c-3.26,0.38-6.59,0.76-9.91,0.21
			c-1.04-0.18-2.11-0.2-3.17-0.3c-0.04,0.11-0.08,0.22-0.12,0.33c0.6,0.33,1.16,0.73,1.79,0.99c1.71,0.69,3.23,1.64,4.63,2.84
			c1.03,0.87,2.3,1.27,3.65,1.41c0.6,0.06,1.2,0.15,1.8,0.25c4.12,0.75,8.23,1.54,12.45,1.48c0.77-0.01,1.54,0.1,2.31,0.17
			c3.11,0.3,6.18-0.12,9.13-1.01c3.1-0.94,6.1-2.25,9.49-3.53c-1.51-1.05-2.74-2.06-4.11-2.83c-2.25-1.27-4.54-2.5-6.9-3.54
			C184.2,188.85,182.64,188.61,181,189.34z"/>
		<path class="st0" d="M87.25,141.66c3.57-0.75,7.05-1.76,10.3-3.47c2.11-1.11,3.78-2.66,5.11-4.6c0.48-0.7,0.8-1.51,1.19-2.26
			c-0.09-0.07-0.18-0.14-0.26-0.21c-0.64,0.47-1.28,0.94-1.93,1.41c-3.3,2.38-6.85,4.24-10.91,4.91c-2.88,0.48-5.78,0.83-8.67,1.26
			c-0.59,0.09-1.16,0.25-1.87,0.4c2.13,0.89,4.09,1.72,6.07,2.51C86.57,141.71,86.94,141.72,87.25,141.66z"/>
		<path class="st0" d="M54.92,182.55c0.36,1.14,0.76,2.46,1.59,3.2c1.63,1.46,3.55,2.58,5.38,3.8c0.63,0.42,1.19,0.34,1.72-0.32
			c1.25-1.54,3.05-2.15,4.88-2.61c3.12-0.79,6.3-1.06,9.51-1.09c1.43-0.02,2.91,0.09,4.27-0.25c1.79-0.45,3.49-1.29,5.23-1.96
			c0.02-0.15,0.04-0.3,0.06-0.44c-2.73-2.05-5.46-4.11-8.2-6.14c-1.58-1.17-3.38-1.78-5.3-2.22c-1.69-0.39-3.03-0.01-4.25,1.13
			c-2.54,2.38-5.6,3.4-9.03,3.6c-1.48,0.08-2.97,0.33-4.41,0.68C54.94,180.28,54.47,181.11,54.92,182.55z"/>
		<path class="st0" d="M97.63,167.95c-3.18-1.77-6.39-3.5-9.63-5.17c-2.67-1.38-5.52-2.11-8.54-2.37
			c-4.76-0.42-9.56,2.72-11.03,7.92c-0.61,2.15,1.18,4.34,3.46,4.28c2.97-0.08,5.69,0.71,8.11,2.4c2.26,1.58,4.42,3.31,6.64,4.95
			c0.87,0.64,1.77,1.25,2.45,1.73c2.29-1.33,4.32-2.55,6.4-3.69c1.4-0.77,2.9-1.04,4.47-0.42c0.18,0.07,0.4,0.01,0.67,0.01
			c-0.18-1.95,0.14-3.71,1.53-5.18C101.15,170.57,99.74,169.12,97.63,167.95z"/>
		<path class="st0" d="M68.29,146.43c1.66,2.9,4.06,5.08,6.79,6.93c1.92,1.3,3.86,2.57,5.77,3.9c1.67,1.17,3.3,2.37,5.37,2.79
			c0.69,0.14,1.33,0.52,1.97,0.85c2.84,1.47,5.67,2.99,8.52,4.45c2.69,1.38,5.08,3.13,6.86,5.61c0.05,0.07,0.2,0.09,0.3,0.13
			c0.91-0.36,1.83-0.72,2.94-1.16c-0.18-0.66-0.27-1.21-0.49-1.7c-1.49-3.39-2.98-6.78-4.53-10.14c-0.39-0.85-0.89-1.67-1.47-2.4
			c-6.35-8.08-13.99-14.1-24.64-15.2c-2.32-0.24-4.65-0.2-6.89,0.51c-1.8,0.57-2.21,1.58-1.53,3.34
			C67.54,145.07,67.91,145.76,68.29,146.43z"/>
		<path class="st0" d="M67.36,107.97c1.55-0.35,3.07-0.33,4.02,1.42c0.22,0.41,0.98,0.69,1.52,0.75c1.04,0.12,2.06-0.15,2.97-0.74
			c-1.02-1.68-1.02-1.68-0.74-3.28c-1.83-0.4-3.64-0.83-5.47-1.18c-2.87-0.56-4.46-2.44-4.93-5.14c-0.74-4.29-0.32-8.47,1.83-12.37
			c0.19-0.34,0.35-0.7,0.62-1.27c-0.48,0.17-0.69,0.22-0.88,0.31c-2.36,1.08-4.29,2.7-5.87,4.73c-3.16,4.05-5.24,8.56-5.64,13.73
			c-0.17,2.26,0.78,4.15,2.31,5.61C60.65,109.64,63.99,108.74,67.36,107.97z"/>
		<path class="st0" d="M94.35,131.83c3.49-1.35,6.98-2.72,10.45-4.14c0.71-0.29,1.5-0.61,1.8-1.52c-0.57,0-1.07-0.06-1.56,0.01
			c-4.07,0.62-7.63-0.72-10.91-2.94c-1.18-0.8-2.2-1.84-3.22-2.84c-1.85-1.82-3.59-3.75-5.48-5.53c-2.17-2.04-4.87-3.21-7.76-4.33
			c-1.62,0.95-3.34,1.46-5.23,1.31c-1.03-0.08-1.91-0.42-2.54-1.32c-0.81-1.15-0.93-1.11-2.34-0.77c-2.08,0.51-4.19,0.93-6.28,1.43
			c-0.8,0.19-1.61,0.43-2.36,0.76c-1.37,0.6-1.75,1.59-1.06,2.96c0.49,0.98,1.07,1.95,1.8,2.76c2.54,2.86,5.37,5.43,8.67,7.39
			c2.84,1.69,5.76,3.27,8.67,4.85c0.87,0.47,1.79,0.92,2.75,1.12c2.59,0.55,5.21,0.92,7.8,1.46
			C89.9,132.99,92.15,132.69,94.35,131.83z"/>
		<path class="st0" d="M66.02,169.97c-2.25-0.31-4.2,0.54-5.57,2.81c-0.86,1.42-1.91,2.9-0.73,4.68c3.66-0.03,6.91-0.91,9.33-3.6
			C68.06,172.6,67.1,171.36,66.02,169.97z"/>
		<path class="st0" d="M48.32,164.37c0-0.45,0.05-0.78-0.01-1.1c-0.48-2.4,0.71-4.01,2.48-5.36c0.35-0.27,0.71-0.53,1.08-0.76
			c1.67-1.05,2.6-2.48,2.33-4.69c-0.33,0.09-0.55,0.13-0.74,0.22c-0.4,0.19-0.8,0.38-1.17,0.61c-2.9,1.87-5.39,4.18-7.52,6.9
			c-1.2,1.53-1.7,3.32-1.96,5.2c-0.05,0.38,0.06,0.78,0.13,1.54C44.47,165.01,46.38,164.67,48.32,164.37z"/>
		<path class="st0" d="M44.98,183.46c1.99,6.1,5.6,10.99,11,14.51c1.1,0.72,2.2,1.44,3.72,1.73c-0.15-0.67-0.3-1.18-0.38-1.71
			c-0.4-2.54-0.58-5.03,2.04-6.54c-1.66-1.11-3.28-2.15-4.86-3.25c-1.86-1.3-2.89-3.17-3.4-5.33c-0.51-2.12,0.3-3.72,2.32-4.53
			c0.66-0.27,1.37-0.38,2.31-0.64c-0.68-3.25-1.94-6.14-3.95-8.72c-0.77-0.99-1.75-1.67-2.9-2.14c-4.3-1.73-8.23,0.85-8.23,5.49
			c0,1.43,0.07,2.89,0.39,4.28C43.56,178.93,44.24,181.21,44.98,183.46z"/>
		<path class="st0" d="M53.97,159.79c0.15-0.47,0.02-1.04,0.02-1.97c-1.03,0.75-1.73,1.28-2.45,1.77c-1.49,1.01-1.73,2.43-1.43,4.07
			c0.13,0.7,0.35,1.16,1.13,1.41c2.25,0.74,3.82,2.35,5.01,4.35c0.66,1.11,1.26,2.26,1.94,3.49c0.61-0.89,1.17-1.69,1.7-2.45
			c-0.76-1.77-0.76-1.77-2.31-2.45C54.04,166.45,52.77,163.5,53.97,159.79z"/>
		<path class="st0" d="M58.12,166.29c1.43,0.6,2.64,1.34,3.16,2.62c1.86-0.41,3.6-0.8,5.42-1.2c0.18-0.53,0.39-1.14,0.66-1.91
			c-1.37,0-2.66-0.02-3.95,0c-2.73,0.04-5.27-0.43-7.13-2.69c-0.27-0.32-0.57-0.62-1.08-1.17C55.32,164.26,56.4,165.57,58.12,166.29
			z"/>
		<path class="st0" d="M58.17,152.19c0.31,0.12,0.64,0.18,0.95,0.27c2.55,0.76,3.02,1.38,3.04,4c0,0.17,0,0.33,0,0.5
			c0.05,2.29,1.01,3.39,3.32,3.78c2.69,0.46,5.3-0.08,7.79-0.95c1.9-0.66,3.74-1.31,5.78-1.19c0.06,0,0.12-0.14,0.24-0.29
			c-1.22-0.85-2.4-1.77-3.67-2.53c-4.32-2.58-7.94-5.79-9.93-10.62c-2.79,0.15-5.54,1.12-7.39,2.59c-0.47,0.37-0.94,0.8-1.26,1.3
			C56.19,150.42,56.65,151.62,58.17,152.19z"/>
		<path class="st0" d="M62.42,164.02c1.49,0.03,2.98-0.01,4.47-0.06c0.54-0.02,1.11-0.1,1.61-0.31c0.31-0.13,0.49-0.54,0.92-1.05
			c-1.53,0-2.7,0.08-3.85-0.02c-3.18-0.27-5.13-2.35-5.26-5.52c-0.02-0.39-0.02-0.77,0-1.16c0.06-0.85-0.33-1.33-1.14-1.56
			c-1-0.28-1.98-0.62-3.16-0.99c-0.15,1.05-0.34,1.98-0.4,2.91C55.33,160.45,58.39,163.94,62.42,164.02z"/>
	</g>
	<g>
		<path class="st1" d="M151.47,94.27c1.75-3.84,2.58-7.87,2.3-12.09c-0.15-2.15-0.32-4.3-0.61-6.44c-0.29-2.17-0.74-4.32-1.12-6.48
			c-0.13,0-0.26,0-0.39,0c-3.27,9.04-3.76,18.23-1.5,27.61C150.69,96.03,151.07,95.15,151.47,94.27z"/>
		<path class="st1" d="M185.68,99.01c0.01,0.27-0.14,0.54-0.15,0.81c-0.09,2.08-0.19,4.17-0.24,6.25c-0.02,0.81,0.5,1.24,1.18,1.63
			c1.19,0.69,2.34,1.45,3.44,2.28c1.15,0.86,2.21,1.83,3.36,2.8c1.72-2.02,3.55-3.93,4.77-6.33c0.5-0.99,0.62-1.85,0.25-2.96
			c-1.7-5.05-2.44-10.19-1.18-15.49c0.39-1.64,0.18-3.31-0.54-4.85c-0.61-1.3-1.26-2.59-2-3.81c-1.55-2.57-2.77-5.27-3.5-8.2
			c-0.23-0.95-0.61-1.86-0.93-2.79c-0.14,0-0.28-0.01-0.43-0.01c-0.33,2.01-0.73,4.02-0.99,6.04c-0.7,5.37-1.27,10.75-2.03,16.1
			C186.28,93.32,185.56,96.11,185.68,99.01z"/>
		<path class="st1" d="M174.03,106.8c1.72-0.31,3.22-0.72,4.74-0.82c1.5-0.1,3.03,0.1,4.5,0.17c0.88-12.57,2.91-24.93,4.2-37.44
			c-0.35,0.41-0.74,0.79-1.04,1.23c-2.84,4.15-5.64,8.32-7.92,12.81c-3.61,7.1-5.16,14.63-4.74,22.58
			C173.81,105.84,173.95,106.35,174.03,106.8z"/>
		<path class="st1" d="M258.51,123.38c0.32,0.1,0.58,0.19,0.84,0.26c2.29,0.59,4.58,1.19,6.88,1.75c0.41,0.1,0.87,0.06,1.3,0.01
			c2.35-0.3,4.7-0.62,7.05-0.94c1.21-0.16,2.41-0.35,3.61-0.52c-0.58-0.43-1.15-0.52-1.72-0.65c-4.31-0.99-8.69-1.49-13.09-1.76
			C261.6,121.43,259.73,121.55,258.51,123.38z"/>
		<path class="st1" d="M248.69,212.38c4.53,4.91,10.08,8.56,15.73,12.73c-0.51-2.07-0.93-3.72-1.31-5.38
			c-1.02-4.48-2.16-8.91-4.23-13.05c-2.81-5.62-7.72-8.7-13.34-11.08c-0.18,2.91-0.83,5.69-0.36,8.52
			C245.68,207.15,246.54,210.05,248.69,212.38z"/>
		<path class="st1" d="M247.21,182.24c3.08-0.34,5.96-1.2,8.31-3.32c2.17-1.96,4.28-3.99,6.41-5.99c-0.03-0.1-0.06-0.2-0.09-0.31
			c-0.54,0-1.07,0.01-1.61,0c-1.71-0.04-3.44,0.07-5.13-0.16c-4.46-0.61-8.92-0.57-13.38-0.17c-2.3,0.2-4.61,0.6-6.6,1.94
			c-1.98,1.33-3.86,2.82-6.58,3.48c1.44,0.71,2.53,1.22,3.61,1.77C236.89,181.9,241.91,182.82,247.21,182.24z"/>
		<path class="st1" d="M258.81,203.11c1.81,2.43,2.83,5.23,3.89,8.02c0.18,0.48,0.44,1.08,0.84,1.32c3.63,2.2,7.57,3.34,11.84,2.9
			c1.14-0.12,2.39-0.12,3.48-0.88c-0.2-0.32-0.32-0.57-0.49-0.77c-3.2-3.58-6.29-7.28-9.65-10.71c-3.68-3.76-8.33-5.96-13.44-7.08
			c-1.69-0.37-3.46-0.39-5.19-0.57c-0.02,0.14-0.04,0.28-0.06,0.42c0.33,0.19,0.65,0.4,0.99,0.56
			C254.2,197.9,256.7,200.28,258.81,203.11z"/>
		<path class="st1" d="M136.39,74.5c-2.53-3.49-5.22-6.86-7.81-10.31c-1.69-2.25-3.36-4.52-5-6.81c-1.21-1.7-2.35-3.46-3.53-5.19
			c-0.15,0.04-0.29,0.07-0.44,0.11c0.3,1.89,0.52,3.8,0.91,5.68c1.44,7.07,4.4,13.5,8.13,19.65c2.86,4.71,6.48,8.51,11.29,11.17
			c0.46,0.25,0.95,0.45,1.61,0.76c0-0.69,0.07-1.13-0.01-1.55C140.67,83.19,139.31,78.53,136.39,74.5z"/>
		<path class="st1" d="M56.02,92.35c0.17,0.32,0.39,0.61,0.54,0.86c1.77-2.14,3.48-4.21,5.23-6.32c0-1.54,0.16-3.21-0.03-4.84
			c-0.47-4.14-1.91-7.9-4.58-11.19c-1.77-2.18-3.75-4.1-6.24-5.36c-4.57-2.32-9.2-4.5-13.8-6.75c-0.09,0.1-0.17,0.2-0.26,0.29
			c2.06,3.52,4,7.12,6.21,10.55C47.81,76.94,52.01,84.59,56.02,92.35z"/>
		<path class="st1" d="M251.75,69.58c4.5,0.83,6.89,4.33,9.59,7.32c1.59-4.31,3.04-8.53,4.7-12.67c1.7-4.23,4.41-7.88,7.12-11.51
			c-0.11-0.12-0.23-0.24-0.34-0.35c-3.35,3.04-6.58,6.22-10.08,9.08C259.25,64.3,255.5,66.83,251.75,69.58z"/>
		<path class="st1" d="M223.33,71.67c4.17-0.86,8.12-0.39,11.78,2.02c3.44-2.68,7.42-3.79,11.69-4.07c0.54-0.04,1.15-0.07,1.6-0.33
			c1.3-0.72,2.57-1.5,3.79-2.35c2.57-1.81,5.2-3.57,7.63-5.55c3.67-3,7.2-6.17,10.78-9.27c-0.06-0.09-0.12-0.19-0.19-0.28
			c-0.79,0.2-1.57,0.4-2.36,0.58c-6.95,1.67-14.07,2.1-21.15,2.88c-3.9,0.43-7.78,0.97-11.56,2.03c-5.38,1.52-9.87,4.64-13.98,8.3
			c-0.96,0.85-1.58,2.09-2.41,3.23c0.93,0.38,1.76,0.58,2.43,1.02C222.11,70.34,222.68,71.04,223.33,71.67z"/>
		<path class="st1" d="M142.37,217.63c0.9,2.39,2.06,4.64,3.69,6.63c0.59,0.73,1.22,1.43,1.85,2.13c1.25,1.4,2.49,2.79,3.76,4.17
			c0.6,0.65,1.31,1.2,1.89,1.86c1.6,1.83,3.16,3.69,4.75,5.54c0.22,0.25,0.49,0.45,0.73,0.68c-0.07-1.75-0.47-3.36-0.7-4.99
			c-0.85-6.08-3.88-11.13-7.61-15.78c-1.54-1.92-3.51-3.51-5.33-5.2c-0.78-0.72-1.74-1.13-3-1.17
			C141.72,213.63,141.62,215.64,142.37,217.63z"/>
		<path class="st1" d="M138.66,199.95c-1.47,0.94-2.61,2.18-3.55,3.65c-2.23,3.49-4.5,6.96-6.74,10.44
			c-0.52,0.81-0.98,1.64-1.59,2.66c2.42-0.75,5.34-2.56,7.43-4.69c2.59-2.64,5.18-5.29,7.64-8.06c2.28-2.57,4.01-5.53,5.39-8.76
			c-1.3,0.56-2.65,1-3.87,1.69C141.75,197.81,140.24,198.93,138.66,199.95z"/>
		<path class="st1" d="M139.86,217.61c-0.97,1.88-1.8,3.35-2.52,4.88c-2.53,5.38-2.8,11.1-2.26,16.89c0.45,4.84,1.06,9.67,1.61,14.5
			c0.04,0.39,0.18,0.77,0.34,1.41c2.03-4.51,3.57-8.87,4.54-13.41c0.92-4.29,1.05-8.67,1.1-13.03c0.03-3.05-0.28-6.08-1.55-8.92
			C140.83,219.25,140.42,218.62,139.86,217.61z"/>
		<path class="st1" d="M84.35,217.14c5.15-4.26,10.11-8.76,15.2-13.1c2.18-1.86,4.46-3.62,6.74-5.37c1.65-1.26,3.38-2.41,5.02-3.57
			c-1.07-1.1-2.07-2.13-3.19-3.27c-1.13,0.34-2.24,0.66-3.34,1.01c-0.85,0.28-1.24,0.83-1.47,1.77c-0.71,2.89-2.19,5.14-5.33,5.95
			c-1.32,0.34-2.58,0.97-3.44,2.17c-0.24,0.34-0.69,0.53-1.05,0.77c-0.92,0.6-1.87,1.18-2.78,1.8c-3.39,2.29-7.01,4.05-11.12,4.38
			c-1.51,0.12-2.3,0.91-2.98,2.01c-0.93,1.5-1.8,3.04-2.69,4.57c-2.01,3.45-4.24,6.73-6.97,9.66c-0.37,0.39-0.69,0.83-1.22,1.49
			c0.54-0.1,0.7-0.11,0.85-0.16c3.63-1.09,6.89-2.98,10.12-4.89C79.36,220.79,81.98,219.1,84.35,217.14z"/>
		<path class="st1" d="M104.51,202.28c-6.21,5.24-12.31,10.61-18.52,15.86c-5.11,4.31-10.92,7.49-17.02,10.16
			c-0.37,0.16-0.74,0.34-1.39,0.64c2.21,0.27,4.07,0.48,5.92,0.73c2.52,0.34,5.02,0.8,7.54,1.04c4.33,0.41,8.58,0.04,12.72-1.52
			c4.72-1.79,9.36-3.67,13.28-6.97c5.73-4.81,9.4-10.94,11.47-18.06c0.44-1.51,0.6-3.11,0.88-4.65c-2.16-1.12-4.16-2.17-6.28-3.27
			C110.13,198,107.2,200,104.51,202.28z"/>
		<path class="st1" d="M214.15,241.72c-2.89-5.43-5.85-10.78-9.53-15.72c-2.15-2.89-4.33-5.74-6.47-8.63
			c-4.1-5.51-8.7-10.58-13.53-15.45c-4.79,0.49-9.58,0.15-14.43-0.15c0,0.4-0.03,0.67,0,0.93c0.75,5.99,2.65,11.65,5.38,16.98
			c1.73,3.38,3.85,6.59,6.04,9.71c5.59,7.93,12.91,13.9,21.49,18.37c1.96,1.02,3.96,1.94,5.93,2.93c2.61,1.32,5.21,2.66,7.82,3.99
			c0.39,0.2,0.8,0.35,1.31,0.57c0.07-0.28,0.11-0.39,0.12-0.5c0-0.16,0-0.34-0.04-0.49C216.94,250.08,216.28,245.73,214.15,241.72z"
			/>
		<path class="st1" d="M223.79,134.69c2.41-0.98,5-1.49,7.87-2.31c-0.65-0.27-1.03-0.52-1.45-0.58c-0.76-0.13-1.54-0.1-2.3-0.22
			c-2.65-0.41-5.08-1.43-7.31-2.81c-3.03,2.15-5.35,5.22-6.41,8.38c0.52,0,1.13-0.16,1.57,0.04c0.48,0.22,0.81,0.78,1.17,1.16
			C219.21,137.1,221.4,135.66,223.79,134.69z"/>
		<path class="st1" d="M267.17,131.9c-1.1,2.28-2.26,4.57-3.72,6.63c-2.95,4.17-7.14,5.52-12.1,4.67c-3.17-0.54-5.91-2.05-8.58-3.78
			c-1.94-1.26-4.01-2.32-6.02-3.47c-0.77-0.44-1.6-0.78-2.31-1.29c-0.75-0.54-1.44-0.66-2.31-0.35c-0.72,0.25-1.51,0.33-2.27,0.44
			c-4.5,0.65-8.35,2.79-12.03,5.28c-0.45,0.31-0.86,0.91-0.97,1.44c-0.32,1.56-0.47,3.15-0.69,4.72c1.1,0.51,2.24,0.93,3.27,1.54
			c3.74,2.23,7.41,4.59,11.49,6.22c1.71,0.69,3.44,1.21,5.26,1.38c5.08,0.46,9.65-0.87,13.5-4.28c4.7-4.16,9.79-7.75,15.28-10.78
			c0.39-0.21,0.75-0.47,1.13-0.69c0.87-0.5,1.46-1.24,1.58-2.22c0.31-2.42,1.65-4.17,3.53-5.58c2.26-1.69,4.53-3.36,6.78-5.05
			c0.31-0.23,0.58-0.53,0.87-0.8c-3.71,0.34-7.35,0.38-10.89,1.16C268.1,129.11,268.08,130.02,267.17,131.9z"/>
		<path class="st1" d="M186.83,201.51c0.46,0.54,0.78,0.98,1.15,1.35c4.96,4.86,9.18,10.32,13.41,15.81
			c5.55,7.2,10.71,14.63,14.72,22.82c0.9,1.85,1.72,3.69,2.17,5.71c0.55,2.44,1.22,4.85,1.86,7.34c0.19-0.17,0.33-0.23,0.34-0.31
			c0.8-4.47,1.38-8.96,1.29-13.51c-0.14-6.81-1.43-13.4-3.85-19.76c-2.77-7.29-6.33-14.12-11.87-19.76
			c-1.98-2.01-4.09-3.85-6.44-5.46c-0.65,1.36-0.65,1.36-1.89,1.78c-1.93,0.66-3.88,1.28-5.8,1.98
			C190.27,200.09,188.66,200.78,186.83,201.51z"/>
		<path class="st1" d="M216.66,185.6c-2.31,0.42-4.6,0.97-7.01,1.5c0,0.55,0,1.09,0,1.64c-0.03,5.81,2.78,9.95,7.65,12.82
			c1.19,0.7,2.41,1.38,3.68,1.89c2.39,0.96,4.82,1.8,7.24,2.68c0.06-0.13,0.11-0.26,0.17-0.39c-0.39-0.6-0.75-1.22-1.16-1.8
			c-1.84-2.58-3.3-5.35-4.41-8.31c-0.5-1.34-0.96-2.71-1.57-4c-0.75-1.59-1.6-3.15-2.5-4.67C218.3,186.2,217.64,185.42,216.66,185.6
			z"/>
		<path class="st1" d="M59.16,201.43c-1-0.18-2-0.66-2.89-1.19c-4.51-2.68-8.19-6.2-10.68-10.87c-0.41-0.78-0.8-1.57-1.28-2.52
			c-0.87,0.13-1.63,0.24-2.38,0.36c-4.41,0.73-8.84,1.5-12.99,3.23c-5.41,2.26-10.91,4.08-17.16,4.6c0.96,0.46,1.61,0.81,2.29,1.1
			c2.5,1.04,5.07,1.91,7.5,3.1c7.03,3.46,14.37,5.98,22.06,7.44c2.26,0.43,4.6,0.71,6.9,0.67c3.06-0.06,5.94-1.16,8.78-2.27
			c0.84-0.33,1.6-0.89,2.34-1.32C61.21,202.34,60.48,201.66,59.16,201.43z"/>
		<path class="st1" d="M45.2,117.84c4.06,0.36,8.12,0.78,12,2.16c0.7,0.25,1.46,0.36,2.54,0.61c-0.93-1.13-1.84-1.87-2.26-2.83
			c-0.83-1.88-2.37-2.62-4.13-3.16c-0.32-0.1-0.61-0.27-0.92-0.36c-3.08-0.82-6.14-1.78-9.26-2.41c-3.62-0.73-7.26-0.26-10.84,0.48
			c-1.91,0.4-3.79,0.96-5.68,1.46c1.42,0.8,2.8,1.36,4.23,1.71C35.58,116.66,40.36,117.42,45.2,117.84z"/>
		<path class="st1" d="M60.69,122.83c-0.42,0.03-0.85-0.22-1.27-0.34c-2.02-0.57-4-1.34-6.05-1.68c-4.13-0.68-8.31-1.12-12.46-1.67
			c-4.71-0.62-9.39-1.34-13.86-3.04c-0.92-0.35-1.85-0.66-2.77-0.99c-0.06,0.1-0.13,0.2-0.19,0.29c0.45,0.39,0.91,0.78,1.36,1.17
			c4.45,3.77,9.47,6.71,14.42,9.71c6.44,3.89,13.46,5.5,20.97,3.75c1.6-0.37,3.16-0.95,4.68-1.56c0.79-0.32,1.52-0.88,1.78-1.85
			c-0.94-0.67-1.86-1.28-2.72-1.96C63.42,123.75,62.35,122.73,60.69,122.83z"/>
		<path class="st1" d="M14.99,192.98c4.24-1.01,8.47-2.04,12.47-3.86c1.45-0.66,2.98-1.21,4.52-1.59c3.8-0.92,7.63-1.72,11.46-2.57
			c-0.75-2.73-1.58-5.43-2.2-8.17c-0.56-2.49-0.67-5.03,0.08-7.55c0.15-0.51-0.01-1.11-0.03-1.84c-0.79,0.17-1.33,0.24-1.84,0.41
			c-2.59,0.85-5,2.06-7.17,3.72c-3.66,2.8-6.91,6.04-9.85,9.59c-2.75,3.32-5.3,6.82-8.52,9.73c-0.72,0.65-1.38,1.36-2.06,2.04
			c0.04,0.11,0.07,0.22,0.11,0.33C12.97,193.15,14.01,193.21,14.99,192.98z"/>
		<path class="st1" d="M34.71,58.91c-0.16,0.06-0.32,0.13-0.48,0.19c0.29,1.45,0.6,2.9,0.87,4.36c0.64,3.45,0.9,6.86-0.1,10.33
			c-0.84,2.94-1.18,6.03-0.6,9.04c1.96,10,7.34,17.38,16.92,21.39c0.48,0.2,0.99,0.32,1.31,0.43c0.93-3.2,1.82-6.26,2.77-9.51
			C49.54,82.69,41.62,71.09,34.71,58.91z"/>
	</g>
</g>
</svg>
