  0
SECTION
  2
HEADER
  9
$ACADVER
  1
AC1024
  9
$ACADMAINTVER
 70
     6
  9
$DWGCODEPAGE
  3
UNDEFINED
  9
$INSBASE
 10
0.0
 20
0.0
 30
0.0
  9
$EXTMIN
 10
1.000000000000000E+20
 20
1.000000000000000E+20
 30
1.000000000000000E+20
  9
$EXTMAX
 10
-1.000000000000000E+20
 20
-1.000000000000000E+20
 30
-1.000000000000000E+20
  9
$LIMMIN
 10
0.0
 20
0.0
  9
$LIMMAX
 10
12.0
 20
9.0
  9
$ORTHOMODE
 70
     0
  9
$REGENMODE
 70
     1
  9
$FILLMODE
 70
     1
  9
$QTEXTMODE
 70
     0
  9
$MIRRTEXT
 70
     1
  9
$LTSCALE
 40
1.0
  9
$ATTMODE
 70
     1
  9
$TEXTSIZE
 40
0.2
  9
$TRACEWID
 40
0.05
  9
$TEXTSTYLE
  7
Standard
  9
$CLAYER
  8
0
  9
$CELTYPE
  6
ByLayer
  9
$CECOLOR
 62
   256
  9
$CELTSCALE
 40
1.0
  9
$DISPSILH
 70
     0
  9
$DIMSCALE
 40
1.0
  9
$DIMASZ
 40
0.18
  9
$DIMEXO
 40
0.0625
  9
$DIMDLI
 40
0.38
  9
$DIMRND
 40
0.0
  9
$DIMDLE
 40
0.0
  9
$DIMEXE
 40
0.18
  9
$DIMTP
 40
0.0
  9
$DIMTM
 40
0.0
  9
$DIMTXT
 40
0.18
  9
$DIMCEN
 40
0.09
  9
$DIMTSZ
 40
0.0
  9
$DIMTOL
 70
     0
  9
$DIMLIM
 70
     0
  9
$DIMTIH
 70
     1
  9
$DIMTOH
 70
     1
  9
$DIMSE1
 70
     0
  9
$DIMSE2
 70
     0
  9
$DIMTAD
 70
     0
  9
$DIMZIN
 70
     0
  9
$DIMBLK
  1

  9
$DIMASO
 70
     1
  9
$DIMSHO
 70
     1
  9
$DIMPOST
  1

  9
$DIMAPOST
  1

  9
$DIMALT
 70
     0
  9
$DIMALTD
 70
     2
  9
$DIMALTF
 40
25.4
  9
$DIMLFAC
 40
1.0
  9
$DIMTOFL
 70
     0
  9
$DIMTVP
 40
0.0
  9
$DIMTIX
 70
     0
  9
$DIMSOXD
 70
     0
  9
$DIMSAH
 70
     0
  9
$DIMBLK1
  1

  9
$DIMBLK2
  1

  9
$DIMSTYLE
  2
Standard
  9
$DIMCLRD
 70
     0
  9
$DIMCLRE
 70
     0
  9
$DIMCLRT
 70
     0
  9
$DIMTFAC
 40
1.0
  9
$DIMGAP
 40
0.09
  9
$DIMJUST
 70
     0
  9
$DIMSD1
 70
     0
  9
$DIMSD2
 70
     0
  9
$DIMTOLJ
 70
     1
  9
$DIMTZIN
 70
     0
  9
$DIMALTZ
 70
     0
  9
$DIMALTTZ
 70
     0
  9
$DIMUPT
 70
     0
  9
$DIMDEC
 70
     4
  9
$DIMTDEC
 70
     4
  9
$DIMALTU
 70
     2
  9
$DIMALTTD
 70
     2
  9
$DIMTXSTY
  7
Standard
  9
$DIMAUNIT
 70
     0
  9
$DIMADEC
 70
     0
  9
$DIMALTRND
 40
0.0
  9
$DIMAZIN
 70
     0
  9
$DIMDSEP
 70
    46
  9
$DIMATFIT
 70
     3
  9
$DIMFRAC
 70
     0
  9
$DIMLDRBLK
  1

  9
$DIMLUNIT
 70
     2
  9
$DIMLWD
 70
    -2
  9
$DIMLWE
 70
    -2
  9
$DIMTMOVE
 70
     0
  9
$DIMFXL
 40
1.0
  9
$DIMFXLON
 70
     0
  9
$DIMJOGANG
 40
0.7853981633974483
  9
$DIMTFILL
 70
     0
  9
$DIMTFILLCLR
 70
     0
  9
$DIMARCSYM
 70
     0
  9
$DIMLTYPE
  6

  9
$DIMLTEX1
  6

  9
$DIMLTEX2
  6

  9
$DIMTXTDIRECTION
 70
     0
  9
$LUNITS
 70
     2
  9
$LUPREC
 70
     4
  9
$SKETCHINC
 40
0.1
  9
$FILLETRAD
 40
0.5
  9
$AUNITS
 70
     0
  9
$AUPREC
 70
     0
  9
$MENU
  1
.
  9
$ELEVATION
 40
0.0
  9
$PELEVATION
 40
0.0
  9
$THICKNESS
 40
0.0
  9
$LIMCHECK
 70
     0
  9
$CHAMFERA
 40
0.5
  9
$CHAMFERB
 40
0.5
  9
$CHAMFERC
 40
1.0
  9
$CHAMFERD
 40
0.0
  9
$SKPOLY
 70
     0
  9
$TDCREATE
 40
2459247.612314803
  9
$TDUCREATE
 40
2459247.945648148
  9
$TDUPDATE
 40
2459247.612314803
  9
$TDUUPDATE
 40
2459247.945648148
  9
$TDINDWG
 40
0.0000000116
  9
$TDUSRTIMER
 40
0.0000000116
  9
$USRTIMER
 70
     1
  9
$ANGBASE
 50
0.0
  9
$ANGDIR
 70
     0
  9
$PDMODE
 70
     0
  9
$PDSIZE
 40
0.0
  9
$PLINEWID
 40
0.0
  9
$SPLFRAME
 70
     0
  9
$SPLINETYPE
 70
     6
  9
$SPLINESEGS
 70
     8
  9
$HANDSEED
  5
53
  9
$SURFTAB1
 70
     6
  9
$SURFTAB2
 70
     6
  9
$SURFTYPE
 70
     6
  9
$SURFU
 70
     6
  9
$SURFV
 70
     6
  9
$UCSBASE
  2

  9
$UCSNAME
  2

  9
$UCSORG
 10
0.0
 20
0.0
 30
0.0
  9
$UCSXDIR
 10
1.0
 20
0.0
 30
0.0
  9
$UCSYDIR
 10
0.0
 20
1.0
 30
0.0
  9
$UCSORTHOREF
  2

  9
$UCSORTHOVIEW
 70
     0
  9
$UCSORGTOP
 10
0.0
 20
0.0
 30
0.0
  9
$UCSORGBOTTOM
 10
0.0
 20
0.0
 30
0.0
  9
$UCSORGLEFT
 10
0.0
 20
0.0
 30
0.0
  9
$UCSORGRIGHT
 10
0.0
 20
0.0
 30
0.0
  9
$UCSORGFRONT
 10
0.0
 20
0.0
 30
0.0
  9
$UCSORGBACK
 10
0.0
 20
0.0
 30
0.0
  9
$PUCSBASE
  2

  9
$PUCSNAME
  2

  9
$PUCSORG
 10
0.0
 20
0.0
 30
0.0
  9
$PUCSXDIR
 10
1.0
 20
0.0
 30
0.0
  9
$PUCSYDIR
 10
0.0
 20
1.0
 30
0.0
  9
$PUCSORTHOREF
  2

  9
$PUCSORTHOVIEW
 70
     0
  9
$PUCSORGTOP
 10
0.0
 20
0.0
 30
0.0
  9
$PUCSORGBOTTOM
 10
0.0
 20
0.0
 30
0.0
  9
$PUCSORGLEFT
 10
0.0
 20
0.0
 30
0.0
  9
$PUCSORGRIGHT
 10
0.0
 20
0.0
 30
0.0
  9
$PUCSORGFRONT
 10
0.0
 20
0.0
 30
0.0
  9
$PUCSORGBACK
 10
0.0
 20
0.0
 30
0.0
  9
$USERI1
 70
     0
  9
$USERI2
 70
     0
  9
$USERI3
 70
     0
  9
$USERI4
 70
     0
  9
$USERI5
 70
     0
  9
$USERR1
 40
0.0
  9
$USERR2
 40
0.0
  9
$USERR3
 40
0.0
  9
$USERR4
 40
0.0
  9
$USERR5
 40
0.0
  9
$WORLDVIEW
 70
     1
  9
$SHADEDGE
 70
     3
  9
$SHADEDIF
 70
    70
  9
$TILEMODE
 70
     1
  9
$MAXACTVP
 70
    64
  9
$PINSBASE
 10
0.0
 20
0.0
 30
0.0
  9
$PLIMCHECK
 70
     0
  9
$PEXTMIN
 10
1.000000000000000E+20
 20
1.000000000000000E+20
 30
1.000000000000000E+20
  9
$PEXTMAX
 10
-1.000000000000000E+20
 20
-1.000000000000000E+20
 30
-1.000000000000000E+20
  9
$PLIMMIN
 10
0.0
 20
0.0
  9
$PLIMMAX
 10
12.0
 20
9.0
  9
$UNITMODE
 70
     0
  9
$VISRETAIN
 70
     1
  9
$PLINEGEN
 70
     0
  9
$PSLTSCALE
 70
     1
  9
$TREEDEPTH
 70
  3020
  9
$CMLSTYLE
  2
Standard
  9
$CMLJUST
 70
     0
  9
$CMLSCALE
 40
1.0
  9
$PROXYGRAPHICS
 70
     1
  9
$MEASUREMENT
 70
     0
  9
$CELWEIGHT
370
    -1
  9
$ENDCAPS
280
     0
  9
$JOINSTYLE
280
     0
  9
$LWDISPLAY
290
     1
  9
$INSUNITS
 70
     0
  9
$HYPERLINKBASE
  1

  9
$STYLESHEET
  1

  9
$XEDIT
290
     1
  9
$CEPSNTYPE
380
     0
  9
$PSTYLEMODE
290
     1
  9
$FINGERPRINTGUID
  2
{971C6368-BA9F-7D46-E50F-0A30283EEB86}
  9
$VERSIONGUID
  2
{FAEB1C32-E019-11D5-929B-00C0DF256EC4}
  9
$EXTNAMES
290
     1
  9
$PSVPSCALE
 40
0.0
  9
$OLESTARTUP
290
     0
  9
$SORTENTS
280
   127
  9
$INDEXCTL
280
     0
  9
$HIDETEXT
280
     1
  9
$XCLIPFRAME
280
     2
  9
$HALOGAP
280
     0
  9
$OBSCOLOR
 70
   257
  9
$OBSLTYPE
280
     0
  9
$INTERSECTIONDISPLAY
280
     0
  9
$INTERSECTIONCOLOR
 70
   257
  9
$DIMASSOC
280
     2
  9
$PROJECTNAME
  1

  9
$CAMERADISPLAY
290
     0
  9
$LENSLENGTH
 40
50.0
  9
$CAMERAHEIGHT
 40
0.0
  9
$STEPSPERSEC
 40
2.0
  9
$STEPSIZE
 40
6.0
  9
$3DDWFPREC
 40
2.0
  9
$PSOLWIDTH
 40
0.25
  9
$PSOLHEIGHT
 40
4.0
  9
$LOFTANG1
 40
1.570796326794897
  9
$LOFTANG2
 40
1.570796326794897
  9
$LOFTMAG1
 40
0.0
  9
$LOFTMAG2
 40
0.0
  9
$LOFTPARAM
 70
     7
  9
$LOFTNORMALS
280
     1
  9
$LATITUDE
 40
37.795
  9
$LONGITUDE
 40
-122.394
  9
$NORTHDIRECTION
 40
0.0
  9
$TIMEZONE
 70
 -8000
  9
$LIGHTGLYPHDISPLAY
280
     1
  9
$TILEMODELIGHTSYNCH
280
     1
  9
$CMATERIAL
347
3C
  9
$SOLIDHIST
280
     1
  9
$SHOWHIST
280
     1
  9
$DWFFRAME
280
     2
  9
$DGNFRAME
280
     2
  9
$REALWORLDSCALE
290
     1
  9
$INTERFERECOLOR
 62
   256
  9
$CSHADOW
280
     0
  9
$SHADOWPLANELOCATION
 40
0.0
  0
ENDSEC
  0
SECTION
  2
CLASSES
  0
CLASS
  1
ACDBDICTIONARYWDFLT
  2
AcDbDictionaryWithDefault
  3
ObjectDBX Classes
 90
        0
 91
        4
280
     0
281
     0
  0
CLASS
  1
VISUALSTYLE
  2
AcDbVisualStyle
  3
ObjectDBX Classes
 90
     4095
 91
        4
280
     0
281
     0
  0
CLASS
  1
MATERIAL
  2
AcDbMaterial
  3
ObjectDBX Classes
 90
     1153
 91
        4
280
     0
281
     0
  0
CLASS
  1
SUN
  2
AcDbSun
  3
SCENEOE
 90
     1024
 91
        4
280
     0
281
     0
  0
ENDSEC
  0
SECTION
  2
TABLES
  0
TABLE
  2
VPORT
  5
8
330
0
100
AcDbSymbolTable
 70
     1
  0
VPORT
  5
29
330
8
100
AcDbSymbolTableRecord
100
AcDbViewportTableRecord
  2
*Active
 70
     0
 10
0.0
 20
0.0
 11
1.0
 21
1.0
 12
0.0
 22
0.0
 13
0.0
 23
0.0
 14
0.5
 24
0.5
 15
0.5
 25
0.5
 16
0.0
 26
0.0
 36
1.0
 17
250.0
 27
-250.0
 37
0.0
 40
500.0
 41
1.0
 42
50.0
 43
0.0
 44
0.0
 50
0.0
 51
0.0
 71
     0
 72
   100
 73
     1
 74
     3
 75
     0
 76
     0
 77
     0
 78
     0
281
     0
 65
     1
110
0.0
120
0.0
130
0.0
111
1.0
121
0.0
131
0.0
112
0.0
122
1.0
132
0.0
 79
     0
146
0.0
 60
     3
 61
     5
292
     1
282
     1
141
0.0
142
0.0
 63
   250
361
3F
  0
ENDTAB
  0
TABLE
  2
LTYPE
  5
5
330
0
100
AcDbSymbolTable
 70
     1
  0
LTYPE
  5
14
330
5
100
AcDbSymbolTableRecord
100
AcDbLinetypeTableRecord
  2
ByBlock
 70
     0
  3

 72
    65
 73
     0
 40
0.0
  0
LTYPE
  5
15
330
5
100
AcDbSymbolTableRecord
100
AcDbLinetypeTableRecord
  2
ByLayer
 70
     0
  3

 72
    65
 73
     0
 40
0.0
  0
LTYPE
  5
16
330
5
100
AcDbSymbolTableRecord
100
AcDbLinetypeTableRecord
  2
Continuous
 70
     0
  3
Solid line
 72
    65
 73
     0
 40
0.0
  0
ENDTAB
  0
TABLE
  2
LAYER
  5
2
330
0
100
AcDbSymbolTable
 70
     2
  0
LAYER
  5
10
330
2
100
AcDbSymbolTableRecord
100
AcDbLayerTableRecord
  2
0
 70
     0
 62
     7
  6
Continuous
370
    -3
390
F
347
3E
  0
LAYER
  5
40
330
2
100
AcDbSymbolTableRecord
100
AcDbLayerTableRecord
  2
Layer 1
 70
     0
 62
     7
  6
Continuous
370
    -3
390
F
347
3E
  0
ENDTAB
  0
TABLE
  2
STYLE
  5
3
330
0
100
AcDbSymbolTable
 70
     1
  0
STYLE
  5
11
330
3
100
AcDbSymbolTableRecord
100
AcDbTextStyleTableRecord
  2
Standard
 70
     0
 40
0.0
 41
1.0
 50
0.0
 71
     0
 42
0.2
  3
txt
  4

  0
ENDTAB
  0
TABLE
  2
VIEW
  5
6
330
0
100
AcDbSymbolTable
 70
     0
  0
ENDTAB
  0
TABLE
  2
UCS
  5
7
330
0
100
AcDbSymbolTable
 70
     0
  0
ENDTAB
  0
TABLE
  2
APPID
  5
9
330
0
100
AcDbSymbolTable
 70
     1
  0
APPID
  5
12
330
9
100
AcDbSymbolTableRecord
100
AcDbRegAppTableRecord
  2
ACAD
 70
     0
  0
ENDTAB
  0
TABLE
  2
DIMSTYLE
  5
A
330
0
100
AcDbSymbolTable
 70
     1
100
AcDbDimStyleTable
  0
DIMSTYLE
105
27
330
A
100
AcDbSymbolTableRecord
100
AcDbDimStyleTableRecord
  2
Standard
 70
     0
178
     0
340
11
  0
ENDTAB
  0
TABLE
  2
BLOCK_RECORD
  5
1
330
0
100
AcDbSymbolTable
 70
     4
  0
BLOCK_RECORD
  5
1F
330
1
100
AcDbSymbolTableRecord
100
AcDbBlockTableRecord
  2
*Model_Space
340
22
 70
     0
280
     1
281
     0
  0
BLOCK_RECORD
  5
1B
330
1
100
AcDbSymbolTableRecord
100
AcDbBlockTableRecord
  2
*Paper_Space
340
1E
 70
     0
280
     1
281
     0
  0
BLOCK_RECORD
  5
23
330
1
100
AcDbSymbolTableRecord
100
AcDbBlockTableRecord
  2
*Paper_Space0
340
26
 70
     0
280
     1
281
     0
  0
BLOCK_RECORD
  5
41
330
1
100
AcDbSymbolTableRecord
100
AcDbBlockTableRecord
  2
block 2
340
0
102
{BLKREFS
331
42
102
}
 70
     0
280
     1
281
     0
  0
BLOCK_RECORD
  5
45
330
1
100
AcDbSymbolTableRecord
100
AcDbBlockTableRecord
  2
block 3
340
0
102
{BLKREFS
331
46
102
}
 70
     0
280
     1
281
     0
  0
BLOCK_RECORD
  5
4B
330
1
100
AcDbSymbolTableRecord
100
AcDbBlockTableRecord
  2
block 4
340
0
102
{BLKREFS
331
4C
102
}
 70
     0
280
     1
281
     0
  0
ENDTAB
  0
ENDSEC
  0
SECTION
  2
BLOCKS
  0
BLOCK
  5
20
330
1F
100
AcDbEntity
  8
0
100
AcDbBlockBegin
  2
*Model_Space
 70
     0
 10
0.0
 20
0.0
 30
0.0
  3
*Model_Space
  1

  0
ENDBLK
  5
21
330
1F
100
AcDbEntity
  8
0
100
AcDbBlockEnd
  0
BLOCK
  5
1C
330
1B
100
AcDbEntity
 67
     1
  8
0
100
AcDbBlockBegin
  2
*Paper_Space
 70
     0
 10
0.0
 20
0.0
 30
0.0
  3
*Paper_Space
  1

  0
ENDBLK
  5
1D
330
1B
100
AcDbEntity
 67
     1
  8
0
100
AcDbBlockEnd
  0
BLOCK
  5
24
330
23
100
AcDbEntity
  8
0
100
AcDbBlockBegin
  2
*Paper_Space0
 70
     0
 10
0.0
 20
0.0
 30
0.0
  3
*Paper_Space0
  1

  0
ENDBLK
  5
25
330
23
100
AcDbEntity
  8
0
100
AcDbBlockEnd
  0
BLOCK
  5
43
330
41
100
AcDbEntity
  8
0
100
AcDbBlockBegin
  2
block 2
 70
     0
 10
0.0
 20
0.0
 30
0.0
  3
block 2
  1

  0
INSERT
  5
46
330
41
100
AcDbEntity
  8
Layer 1
100
AcDbBlockReference
  2
block 3
 10
0.0
 20
0.0
 30
0.0
  0
INSERT
  5
4C
330
41
100
AcDbEntity
  8
Layer 1
100
AcDbBlockReference
  2
block 4
 10
0.0
 20
0.0
 30
0.0
  0
ENDBLK
  5
44
330
41
100
AcDbEntity
  8
0
100
AcDbBlockEnd
  0
BLOCK
  5
47
330
45
100
AcDbEntity
  8
0
100
AcDbBlockBegin
  2
block 3
 70
     0
 10
0.0
 20
0.0
 30
0.0
  3
block 3
  1

  0
SPLINE
  5
49
330
45
100
AcDbEntity
  8
Layer 1
370
     0
100
AcDbSpline
210
0.0
220
0.0
230
1.0
 70
    11
 71
     3
 72
   704
 73
   700
 74
     0
 42
0.0000000001
 43
0.0000000001
 12
1.0
 22
0.0
 32
0.0
 13
1.0
 23
0.0
 33
0.0
 40
0.0
 40
0.0
 40
0.0
 40
0.0
 40
1.0
 40
1.0
 40
1.0
 40
2.0
 40
2.0
 40
2.0
 40
3.0
 40
3.0
 40
3.0
 40
4.0
 40
4.0
 40
4.0
 40
5.0
 40
5.0
 40
5.0
 40
6.0
 40
6.0
 40
6.0
 40
7.0
 40
7.0
 40
7.0
 40
8.0
 40
8.0
 40
8.0
 40
9.0
 40
9.0
 40
9.0
 40
10.0
 40
10.0
 40
10.0
 40
11.0
 40
11.0
 40
11.0
 40
12.0
 40
12.0
 40
12.0
 40
13.0
 40
13.0
 40
13.0
 40
14.0
 40
14.0
 40
14.0
 40
15.0
 40
15.0
 40
15.0
 40
16.0
 40
16.0
 40
16.0
 40
17.0
 40
17.0
 40
17.0
 40
18.0
 40
18.0
 40
18.0
 40
19.0
 40
19.0
 40
19.0
 40
20.0
 40
20.0
 40
20.0
 40
21.0
 40
21.0
 40
21.0
 40
22.0
 40
22.0
 40
22.0
 40
23.0
 40
23.0
 40
23.0
 40
24.0
 40
24.0
 40
24.0
 40
25.0
 40
25.0
 40
25.0
 40
26.0
 40
26.0
 40
26.0
 40
27.0
 40
27.0
 40
27.0
 40
28.0
 40
28.0
 40
28.0
 40
29.0
 40
29.0
 40
29.0
 40
30.0
 40
30.0
 40
30.0
 40
31.0
 40
31.0
 40
31.0
 40
32.0
 40
32.0
 40
32.0
 40
33.0
 40
33.0
 40
33.0
 40
34.0
 40
34.0
 40
34.0
 40
35.0
 40
35.0
 40
35.0
 40
36.0
 40
36.0
 40
36.0
 40
37.0
 40
37.0
 40
37.0
 40
38.0
 40
38.0
 40
38.0
 40
39.0
 40
39.0
 40
39.0
 40
40.0
 40
40.0
 40
40.0
 40
41.0
 40
41.0
 40
41.0
 40
42.0
 40
42.0
 40
42.0
 40
43.0
 40
43.0
 40
43.0
 40
44.0
 40
44.0
 40
44.0
 40
45.0
 40
45.0
 40
45.0
 40
46.0
 40
46.0
 40
46.0
 40
47.0
 40
47.0
 40
47.0
 40
48.0
 40
48.0
 40
48.0
 40
49.0
 40
49.0
 40
49.0
 40
50.0
 40
50.0
 40
50.0
 40
51.0
 40
51.0
 40
51.0
 40
52.0
 40
52.0
 40
52.0
 40
53.0
 40
53.0
 40
53.0
 40
54.0
 40
54.0
 40
54.0
 40
55.0
 40
55.0
 40
55.0
 40
56.0
 40
56.0
 40
56.0
 40
57.0
 40
57.0
 40
57.0
 40
58.0
 40
58.0
 40
58.0
 40
59.0
 40
59.0
 40
59.0
 40
60.0
 40
60.0
 40
60.0
 40
61.0
 40
61.0
 40
61.0
 40
62.0
 40
62.0
 40
62.0
 40
63.0
 40
63.0
 40
63.0
 40
64.0
 40
64.0
 40
64.0
 40
65.0
 40
65.0
 40
65.0
 40
66.0
 40
66.0
 40
66.0
 40
67.0
 40
67.0
 40
67.0
 40
68.0
 40
68.0
 40
68.0
 40
69.0
 40
69.0
 40
69.0
 40
70.0
 40
70.0
 40
70.0
 40
71.0
 40
71.0
 40
71.0
 40
72.0
 40
72.0
 40
72.0
 40
73.0
 40
73.0
 40
73.0
 40
74.0
 40
74.0
 40
74.0
 40
75.0
 40
75.0
 40
75.0
 40
76.0
 40
76.0
 40
76.0
 40
77.0
 40
77.0
 40
77.0
 40
78.0
 40
78.0
 40
78.0
 40
79.0
 40
79.0
 40
79.0
 40
80.0
 40
80.0
 40
80.0
 40
81.0
 40
81.0
 40
81.0
 40
82.0
 40
82.0
 40
82.0
 40
83.0
 40
83.0
 40
83.0
 40
84.0
 40
84.0
 40
84.0
 40
85.0
 40
85.0
 40
85.0
 40
86.0
 40
86.0
 40
86.0
 40
87.0
 40
87.0
 40
87.0
 40
88.0
 40
88.0
 40
88.0
 40
89.0
 40
89.0
 40
89.0
 40
90.0
 40
90.0
 40
90.0
 40
91.0
 40
91.0
 40
91.0
 40
92.0
 40
92.0
 40
92.0
 40
93.0
 40
93.0
 40
93.0
 40
94.0
 40
94.0
 40
94.0
 40
95.0
 40
95.0
 40
95.0
 40
96.0
 40
96.0
 40
96.0
 40
97.0
 40
97.0
 40
97.0
 40
98.0
 40
98.0
 40
98.0
 40
99.0
 40
99.0
 40
99.0
 40
100.0
 40
100.0
 40
100.0
 40
101.0
 40
101.0
 40
101.0
 40
102.0
 40
102.0
 40
102.0
 40
103.0
 40
103.0
 40
103.0
 40
104.0
 40
104.0
 40
104.0
 40
105.0
 40
105.0
 40
105.0
 40
106.0
 40
106.0
 40
106.0
 40
107.0
 40
107.0
 40
107.0
 40
108.0
 40
108.0
 40
108.0
 40
109.0
 40
109.0
 40
109.0
 40
110.0
 40
110.0
 40
110.0
 40
111.0
 40
111.0
 40
111.0
 40
112.0
 40
112.0
 40
112.0
 40
113.0
 40
113.0
 40
113.0
 40
114.0
 40
114.0
 40
114.0
 40
115.0
 40
115.0
 40
115.0
 40
116.0
 40
116.0
 40
116.0
 40
117.0
 40
117.0
 40
117.0
 40
118.0
 40
118.0
 40
118.0
 40
119.0
 40
119.0
 40
119.0
 40
120.0
 40
120.0
 40
120.0
 40
121.0
 40
121.0
 40
121.0
 40
122.0
 40
122.0
 40
122.0
 40
123.0
 40
123.0
 40
123.0
 40
124.0
 40
124.0
 40
124.0
 40
125.0
 40
125.0
 40
125.0
 40
126.0
 40
126.0
 40
126.0
 40
127.0
 40
127.0
 40
127.0
 40
128.0
 40
128.0
 40
128.0
 40
129.0
 40
129.0
 40
129.0
 40
130.0
 40
130.0
 40
130.0
 40
131.0
 40
131.0
 40
131.0
 40
132.0
 40
132.0
 40
132.0
 40
133.0
 40
133.0
 40
133.0
 40
134.0
 40
134.0
 40
134.0
 40
135.0
 40
135.0
 40
135.0
 40
136.0
 40
136.0
 40
136.0
 40
137.0
 40
137.0
 40
137.0
 40
138.0
 40
138.0
 40
138.0
 40
139.0
 40
139.0
 40
139.0
 40
140.0
 40
140.0
 40
140.0
 40
141.0
 40
141.0
 40
141.0
 40
142.0
 40
142.0
 40
142.0
 40
143.0
 40
143.0
 40
143.0
 40
144.0
 40
144.0
 40
144.0
 40
145.0
 40
145.0
 40
145.0
 40
146.0
 40
146.0
 40
146.0
 40
147.0
 40
147.0
 40
147.0
 40
148.0
 40
148.0
 40
148.0
 40
149.0
 40
149.0
 40
149.0
 40
150.0
 40
150.0
 40
150.0
 40
151.0
 40
151.0
 40
151.0
 40
152.0
 40
152.0
 40
152.0
 40
153.0
 40
153.0
 40
153.0
 40
154.0
 40
154.0
 40
154.0
 40
155.0
 40
155.0
 40
155.0
 40
156.0
 40
156.0
 40
156.0
 40
157.0
 40
157.0
 40
157.0
 40
158.0
 40
158.0
 40
158.0
 40
159.0
 40
159.0
 40
159.0
 40
160.0
 40
160.0
 40
160.0
 40
161.0
 40
161.0
 40
161.0
 40
162.0
 40
162.0
 40
162.0
 40
163.0
 40
163.0
 40
163.0
 40
164.0
 40
164.0
 40
164.0
 40
165.0
 40
165.0
 40
165.0
 40
166.0
 40
166.0
 40
166.0
 40
167.0
 40
167.0
 40
167.0
 40
168.0
 40
168.0
 40
168.0
 40
169.0
 40
169.0
 40
169.0
 40
170.0
 40
170.0
 40
170.0
 40
171.0
 40
171.0
 40
171.0
 40
172.0
 40
172.0
 40
172.0
 40
173.0
 40
173.0
 40
173.0
 40
174.0
 40
174.0
 40
174.0
 40
175.0
 40
175.0
 40
175.0
 40
176.0
 40
176.0
 40
176.0
 40
177.0
 40
177.0
 40
177.0
 40
178.0
 40
178.0
 40
178.0
 40
179.0
 40
179.0
 40
179.0
 40
180.0
 40
180.0
 40
180.0
 40
181.0
 40
181.0
 40
181.0
 40
182.0
 40
182.0
 40
182.0
 40
183.0
 40
183.0
 40
183.0
 40
184.0
 40
184.0
 40
184.0
 40
185.0
 40
185.0
 40
185.0
 40
186.0
 40
186.0
 40
186.0
 40
187.0
 40
187.0
 40
187.0
 40
188.0
 40
188.0
 40
188.0
 40
189.0
 40
189.0
 40
189.0
 40
190.0
 40
190.0
 40
190.0
 40
191.0
 40
191.0
 40
191.0
 40
192.0
 40
192.0
 40
192.0
 40
193.0
 40
193.0
 40
193.0
 40
194.0
 40
194.0
 40
194.0
 40
195.0
 40
195.0
 40
195.0
 40
196.0
 40
196.0
 40
196.0
 40
197.0
 40
197.0
 40
197.0
 40
198.0
 40
198.0
 40
198.0
 40
199.0
 40
199.0
 40
199.0
 40
200.0
 40
200.0
 40
200.0
 40
201.0
 40
201.0
 40
201.0
 40
202.0
 40
202.0
 40
202.0
 40
203.0
 40
203.0
 40
203.0
 40
204.0
 40
204.0
 40
204.0
 40
205.0
 40
205.0
 40
205.0
 40
206.0
 40
206.0
 40
206.0
 40
207.0
 40
207.0
 40
207.0
 40
208.0
 40
208.0
 40
208.0
 40
209.0
 40
209.0
 40
209.0
 40
210.0
 40
210.0
 40
210.0
 40
211.0
 40
211.0
 40
211.0
 40
212.0
 40
212.0
 40
212.0
 40
213.0
 40
213.0
 40
213.0
 40
214.0
 40
214.0
 40
214.0
 40
215.0
 40
215.0
 40
215.0
 40
216.0
 40
216.0
 40
216.0
 40
217.0
 40
217.0
 40
217.0
 40
218.0
 40
218.0
 40
218.0
 40
219.0
 40
219.0
 40
219.0
 40
220.0
 40
220.0
 40
220.0
 40
221.0
 40
221.0
 40
221.0
 40
222.0
 40
222.0
 40
222.0
 40
223.0
 40
223.0
 40
223.0
 40
224.0
 40
224.0
 40
224.0
 40
225.0
 40
225.0
 40
225.0
 40
226.0
 40
226.0
 40
226.0
 40
227.0
 40
227.0
 40
227.0
 40
228.0
 40
228.0
 40
228.0
 40
229.0
 40
229.0
 40
229.0
 40
230.0
 40
230.0
 40
230.0
 40
231.0
 40
231.0
 40
231.0
 40
232.0
 40
232.0
 40
232.0
 40
233.0
 40
233.0
 40
233.0
 40
233.0
 10
429.6826619737076
 20
-288.7467604355024
 30
0.0
 10
428.6241814870882
 20
-287.1863683036045
 30
0.0
 10
428.0691675345624
 20
-286.1628768889805
 30
0.0
 10
427.3165605718204
 20
-285.3146727475741
 30
0.0
 10
426.5148565653908
 20
-284.4110461764703
 30
0.0
 10
425.3970542154093
 20
-284.6903726170185
 30
0.0
 10
425.0755015493196
 20
-285.8581512149012
 30
0.0
 10
424.896990527217
 20
-286.5064503645608
 30
0.0
 10
424.8663649131231
 20
-287.3183791906104
 30
0.0
 10
425.0979619610225
 20
-287.9325847539858
 30
0.0
 10
425.6885674033329
 20
-289.4989033736401
 30
0.0
 10
426.3974502370911
 20
-291.0311609701257
 30
0.0
 10
427.1877897147351
 20
-292.5080938262745
 30
0.0
 10
427.7483475383815
 20
-293.5556493863423
 30
0.0
 10
428.1884462415692
 20
-294.4883873864146
 30
0.0
 10
427.8366098741717
 20
-295.7598143942287
 30
0.0
 10
425.2950421013302
 20
-304.9446981829733
 30
0.0
 10
422.0311592078069
 20
-313.8492786374936
 30
0.0
 10
417.7140954753304
 20
-322.3552213808634
 30
0.0
 10
417.601036323802
 20
-322.5779531194585
 30
0.0
 10
417.3904262064971
 20
-322.7512214792569
 30
0.0
 10
416.979552903158
 20
-323.239798526889
 30
0.0
 10
416.9795529032017
 20
-322.2333050607613
 30
0.0
 10
416.9748882363383
 20
-321.5092966578359
 30
0.0
 10
416.9803832628204
 20
-320.7853859442785
 30
0.0
 10
417.0006863680574
 20
-318.1121166343164
 30
0.0
 10
417.0060755644845
 20
-315.44132212144
 30
0.0
 10
415.7586312944113
 20
-312.9668180939352
 30
0.0
 10
414.8456184041825
 20
-311.1557225036468
 30
0.0
 10
413.6245014162923
 20
-310.2876874223311
 30
0.0
 10
412.3325026576022
 20
-310.5254307590458
 30
0.0
 10
410.8944176032492
 20
-310.7900386694837
 30
0.0
 10
409.5351027353463
 20
-312.1621508432927
 30
0.0
 10
409.410947700715
 20
-313.9391202841161
 30
0.0
 10
409.2948601789903
 20
-315.6004580869649
 30
0.0
 10
409.3635520798744
 20
-317.3278013334038
 30
0.0
 10
409.693823521131
 20
-318.9565434534725
 30
0.0
 10
410.4521371704686
 20
-322.6961246804512
 30
0.0
 10
411.4312531935611
 20
-326.3905408604423
 30
0.0
 10
412.2893158192492
 20
-330.1105842156157
 30
0.0
 10
412.4237282364702
 20
-330.6933012422578
 30
0.0
 10
412.645002775429
 20
-331.4541059704261
 30
0.0
 10
412.3995256977178
 20
-331.8951083002157
 30
0.0
 10
410.3921151995492
 20
-335.5013109888623
 30
0.0
 10
408.2834415399557
 20
-339.0511794804643
 30
0.0
 10
405.7950819049292
 20
-342.4425632685798
 30
0.0
 10
405.5674738392518
 20
-340.4632140389422
 30
0.0
 10
405.6288553199374
 20
-338.393697530928
 30
0.0
 10
405.0457882398478
 20
-336.5252582868943
 30
0.0
 10
404.1285665664473
 20
-333.5860459784799
 30
0.0
 10
402.8977701913282
 20
-330.7233570012922
 30
0.0
 10
401.5423791795329
 20
-327.9541893038131
 30
0.0
 10
401.0904682046821
 20
-327.0308620453234
 30
0.0
 10
399.9333296061777
 20
-326.3099797018422
 30
0.0
 10
398.9353025511919
 20
-325.8533470745515
 30
0.0
 10
398.3873954994997
 20
-325.6026761792436
 30
0.0
 10
397.178164050245
 20
-325.8639952146095
 30
0.0
 10
396.8529724555592
 20
-326.3159387526048
 30
0.0
 10
396.5109375872235
 20
-326.7913602998906
 30
0.0
 10
396.6100678642506
 20
-327.9395033366181
 30
0.0
 10
396.974066556766
 20
-328.4924576718859
 30
0.0
 10
397.6944930164718
 20
-329.5868064349397
 30
0.0
 10
398.6259529140334
 20
-330.60482724547
 30
0.0
 10
399.6547195539861
 20
-331.4219987338383
 30
0.0
 10
402.8478672102756
 20
-333.9583726888213
 30
0.0
 10
403.4520351918472
 20
-337.4108448895877
 30
0.0
 10
403.1691919341501
 20
-341.2721470578745
 30
0.0
 10
402.8207177089462
 20
-340.6075012221136
 30
0.0
 10
402.4715677990098
 20
-339.9432461437846
 30
0.0
 10
402.1240134819345
 20
-339.2781118612274
 30
0.0
 10
401.8778362971898
 20
-338.8070537719559
 30
0.0
 10
401.6848021237638
 20
-338.298352716336
 30
0.0
 10
401.3789204590867
 20
-337.8701476925544
 30
0.0
 10
400.5752789470425
 20
-336.7451244707645
 30
0.0
 10
399.5351396375299
 20
-336.373058265277
 30
0.0
 10
398.9748341779778
 20
-337.0184918603863
 30
0.0
 10
398.2174404365687
 20
-337.8908903996471
 30
0.0
 10
398.7527292793602
 20
-338.6265563994366
 30
0.0
 10
399.3356172623462
 20
-339.3550910760187
 30
0.0
 10
402.4046261655858
 20
-343.1909288848674
 30
0.0
 10
402.5882903011297
 20
-348.0645207546022
 30
0.0
 10
399.8248699941578
 20
-352.0631090353399
 30
0.0
 10
398.5111597753421
 20
-353.9639811464785
 30
0.0
 10
397.1936315307466
 20
-355.8623784605279
 30
0.0
 10
395.8551000739571
 20
-357.7457316132877
 30
0.0
 10
395.5171518771349
 20
-358.2212834130496
 30
0.0
 10
395.0918693933418
 20
-358.6347373435838
 30
0.0
 10
394.4263931980095
 20
-359.3984076262368
 30
0.0
 10
394.6094711976948
 20
-357.7208533897992
 30
0.0
 10
394.8981676760341
 20
-356.4895115823074
 30
0.0
 10
394.8357034717665
 20
-355.2762097431023
 30
0.0
 10
394.7637308365629
 20
-353.8780470734837
 30
0.0
 10
394.536627499212
 20
-352.444064972211
 30
0.0
 10
394.0944773195042
 20
-351.1199508367263
 30
0.0
 10
393.5582278647198
 20
-349.5140029004233
 30
0.0
 10
392.2697784861157
 20
-348.6956917028565
 30
0.0
 10
391.1504212471773
 20
-348.8934149654942
 30
0.0
 10
389.9703663531545
 20
-349.1017863682591
 30
0.0
 10
389.1515178641239
 20
-350.2256698807851
 30
0.0
 10
389.1022335824127
 20
-351.9564322547903
 30
0.0
 10
389.0721615413386
 20
-353.0124216628265
 30
0.0
 10
389.1913751224347
 20
-354.0842367470304
 30
0.0
 10
389.3536697108648
 20
-355.1318574333218
 30
0.0
 10
389.7477811482131
 20
-357.6755580901063
 30
0.0
 10
390.1941563926448
 20
-360.211508724411
 30
0.0
 10
390.6437553859214
 20
-362.7462545232829
 30
0.0
 10
390.8736347292324
 20
-364.0422341233589
 30
0.0
 10
390.6591903045446
 20
-365.1339452736738
 30
0.0
 10
389.7466577201994
 20
-366.1875901370568
 30
0.0
 10
387.6714589476942
 20
-368.5837147353468
 30
0.0
 10
385.7092216373458
 20
-371.077658945158
 30
0.0
 10
383.6261751529892
 20
-373.62334595213
 30
0.0
 10
383.5060986492645
 20
-371.585545922675
 30
0.0
 10
383.4687324695151
 20
-369.8371017746849
 30
0.0
 10
383.2681436523744
 20
-368.107544236098
 30
0.0
 10
383.1903340779354
 20
-367.4367439707257
 30
0.0
 10
382.877125711344
 20
-366.6854151103853
 30
0.0
 10
382.4262241931865
 20
-366.1968380627168
 30
0.0
 10
381.9980028878817
 20
-365.7329112966454
 30
0.0
 10
381.1683434431907
 20
-365.2280852522363
 30
0.0
 10
380.6626707577052
 20
-365.3504574559647
 30
0.0
 10
380.0200375908535
 20
-365.5060440417601
 30
0.0
 10
379.28238524076
 20
-366.1773001907659
 30
0.0
 10
379.0297279951483
 20
-366.8049543225479
 30
0.0
 10
378.7165521916068
 20
-367.582952377883
 30
0.0
 10
378.8039353232234
 20
-368.5447041175776
 30
0.0
 10
378.8138182300063
 20
-369.4259598254193
 30
0.0
 10
378.8426691539244
 20
-372.0029074273825
 30
0.0
 10
378.895372563009
 20
-374.5801480974169
 30
0.0
 10
378.9875587546994
 20
-377.1555326696343
 30
0.0
 10
379.0280184308467
 20
-378.2855054855881
 30
0.0
 10
378.6928788030855
 20
-379.1372915701086
 30
0.0
 10
377.8653033979899
 20
-379.9735450465214
 30
0.0
 10
373.2026716988876
 20
-384.6850702693973
 30
0.0
 10
367.8486761243767
 20
-388.4418773864109
 30
0.0
 10
361.863330504013
 20
-391.8111833792263
 30
0.0
 10
362.4166267521177
 20
-389.6940270271461
 30
0.0
 10
363.1367112992048
 20
-387.7987883356782
 30
0.0
 10
363.3579939790616
 20
-385.8470200684296
 30
0.0
 10
363.5740014335315
 20
-383.9418821885574
 30
0.0
 10
363.3470039263448
 20
-381.9730508465746
 30
0.0
 10
363.1741751687405
 20
-380.0447605885947
 30
0.0
 10
363.1148777278395
 20
-379.3829477442578
 30
0.0
 10
362.7575626156431
 20
-378.6408342467821
 30
0.0
 10
362.3018091926533
 20
-378.1559693947511
 30
0.0
 10
361.9481737129681
 20
-377.7798327993351
 30
0.0
 10
361.1586483132669
 20
-377.4983571928078
 30
0.0
 10
360.6936795273759
 20
-377.6315403522694
 30
0.0
 10
360.2390495319887
 20
-377.7617602678383
 30
0.0
 10
359.6822364670224
 20
-378.4495259185333
 30
0.0
 10
359.645065665889
 20
-378.9293434869851
 30
0.0
 10
359.5714730153741
 20
-379.8800237659834
 30
0.0
 10
359.851532126122
 20
-380.8536284812453
 30
0.0
 10
359.9375801698261
 20
-381.8220230973584
 30
0.0
 10
360.1078852856554
 20
-383.7390790790469
 30
0.0
 10
360.2457086896065
 20
-385.6590657415054
 30
0.0
 10
360.4336630162798
 20
-388.043467616817
 30
0.0
 10
358.8278127693957
 20
-387.2244074674836
 30
0.0
 10
358.7297652161033
 20
-385.9518733135865
 30
0.0
 10
358.0880112535269
 20
-385.1158152158259
 30
0.0
 10
357.5523642164153
 20
-384.4179875610989
 30
0.0
 10
357.1980937559165
 20
-383.5722582168037
 30
0.0
 10
356.621580003608
 20
-382.9168277439003
 30
0.0
 10
355.9707409306357
 20
-382.1769285385471
 30
0.0
 10
354.9973153125502
 20
-381.9635424152566
 30
0.0
 10
354.2373409439169
 20
-382.6250296283597
 30
0.0
 10
353.3644213946718
 20
-383.3847923366466
 30
0.0
 10
353.8267851309429
 20
-384.2697602401586
 30
0.0
 10
354.5272666798664
 20
-384.9183524579366
 30
0.0
 10
356.3697531174075
 20
-386.6243017348261
 30
0.0
 10
357.1653515388462
 20
-388.8091242496575
 30
0.0
 10
357.8362169303437
 20
-391.1676710079682
 30
0.0
 10
358.3493954148289
 20
-392.9718957799869
 30
0.0
 10
357.8744460327071
 20
-394.2871853100023
 30
0.0
 10
356.7613571942566
 20
-395.5458475748655
 30
0.0
 10
355.9963843867445
 20
-396.4107565965987
 30
0.0
 10
355.1101302399948
 20
-397.1730266651011
 30
0.0
 10
354.3905667028666
 20
-398.0712803213846
 30
0.0
 10
354.0862155047798
 20
-398.4511616755353
 30
0.0
 10
354.0706991782245
 20
-399.0624691212524
 30
0.0
 10
353.8183024375649
 20
-399.9325556790336
 30
0.0
 10
355.6469821124629
 20
-399.4153556492729
 30
0.0
 10
356.8907467501485
 20
-398.8599265169778
 30
0.0
 10
357.895384118503
 20
-397.8125012094624
 30
0.0
 10
358.5722411241622
 20
-397.1068909691912
 30
0.0
 10
359.2462977015275
 20
-396.3938237745115
 30
0.0
 10
359.9737415136042
 20
-395.7422357497871
 30
0.0
 10
363.290083592663
 20
-392.7715023417131
 30
0.0
 10
366.8025696230725
 20
-390.4843990681675
 30
0.0
 10
371.6500784339041
 20
-391.2145619009225
 30
0.0
 10
373.5261537294609
 20
-391.4971772166955
 30
0.0
 10
375.5301858038256
 20
-391.0369300832554
 30
0.0
 10
377.4610973929412
 20
-390.7961258133237
 30
0.0
 10
378.229538172669
 20
-390.7002925521429
 30
0.0
 10
378.9966275829356
 20
-390.3565236977392
 30
0.0
 10
379.6946180532505
 20
-389.9921098254545
 30
0.0
 10
380.5989447314096
 20
-389.519912027039
 30
0.0
 10
381.3200387351499
 20
-388.8075612209996
 30
0.0
 10
381.0812696601643
 20
-387.6584738537913
 30
0.0
 10
380.8432658184902
 20
-386.5131312453432
 30
0.0
 10
379.9114721489204
 20
-386.1148517285237
 30
0.0
 10
378.8875248506483
 20
-386.0857402994861
 30
0.0
 10
377.9217027209997
 20
-386.0582895895514
 30
0.0
 10
376.9408364300543
 20
-386.1747678685988
 30
0.0
 10
375.9839691583074
 20
-386.333122319551
 30
0.0
 10
375.123863196688
 20
-386.4754882787438
 30
0.0
 10
374.2873817783839
 20
-386.7607086439621
 30
0.0
 10
372.9700570533569
 20
-387.1063987224061
 30
0.0
 10
376.042322268866
 20
-384.1931392205533
 30
0.0
 10
378.4715472785429
 20
-381.1222416563087
 30
0.0
 10
381.5981277776336
 20
-379.1658494261919
 30
0.0
 10
384.1345342956665
 20
-377.5787229732032
 30
0.0
 10
387.5083665623824
 20
-377.6192314942327
 30
0.0
 10
390.5672483355193
 20
-378.7995143302196
 30
0.0
 10
391.8045329123452
 20
-379.2768896647558
 30
0.0
 10
393.0565034561405
 20
-379.7467754817644
 30
0.0
 10
394.3408173185708
 20
-380.0600652562443
 30
0.0
 10
395.0960781755894
 20
-380.2443399505337
 30
0.0
 10
395.943557787552
 20
-380.218452270432
 30
0.0
 10
396.7219628819003
 20
-380.102234496333
 30
0.0
 10
398.0226885566663
 20
-379.9080931768713
 30
0.0
 10
398.7797403853219
 20
-379.0021871874651
 30
0.0
 10
398.6324329727249
 20
-377.9647913207536
 30
0.0
 10
398.4582040009445
 20
-376.7379106606404
 30
0.0
 10
397.5713962812079
 20
-376.4209086905339
 30
0.0
 10
396.5038306841234
 20
-376.4297984221612
 30
0.0
 10
394.7267716947135
 20
-376.4446472046493
 30
0.0
 10
392.9500139141601
 20
-376.4946967195192
 30
0.0
 10
391.1730363325514
 20
-376.5241663427423
 30
0.0
 10
390.5910519761092
 20
-376.5338375892625
 30
0.0
 10
390.0087745515848
 20
-376.5256968093181
 30
0.0
 10
389.2879736159703
 20
-376.1248773691677
 30
0.0
 10
389.7648767852261
 20
-375.8399175088871
 30
0.0
 10
390.2195393437469
 20
-375.5059501534906
 30
0.0
 10
390.7222325037837
 20
-375.2778129370508
 30
0.0
 10
394.7509091073116
 20
-373.4496217091491
 30
0.0
 10
398.8102194656676
 20
-371.6871428567592
 30
0.0
 10
402.8116325972442
 20
-369.8016079751051
 30
0.0
 10
404.1582966931201
 20
-369.1670504620033
 30
0.0
 10
405.4528353751739
 20
-368.3430407186042
 30
0.0
 10
406.6053907146597
 20
-367.402422443638
 30
0.0
 10
407.4086984548048
 20
-366.7468617183167
 30
0.0
 10
408.2151892399197
 20
-365.6513081199064
 30
0.0
 10
407.44221404583
 20
-364.6093534164156
 30
0.0
 10
406.6403879277059
 20
-363.5285509111472
 30
0.0
 10
405.4952162756235
 20
-364.1476083792932
 30
0.0
 10
404.5708388565181
 20
-364.7070753384414
 30
0.0
 10
403.5842088933678
 20
-365.3042503901725
 30
0.0
 10
402.6429149335854
 20
-365.9779487731485
 30
0.0
 10
401.6950025197293
 20
-366.6371891309882
 30
0.0
 10
397.0967318267358
 20
-369.8352456774755
 30
0.0
 10
392.3431431936697
 20
-372.7621491264017
 30
0.0
 10
387.1783881892443
 20
-374.9723383111941
 30
0.0
 10
386.3977525211885
 20
-375.3064033559331
 30
0.0
 10
385.6051010619703
 20
-375.6124315546313
 30
0.0
 10
384.5407429321785
 20
-375.5543715121985
 30
0.0
 10
385.85855610406
 20
-373.9296020927995
 30
0.0
 10
387.1623671344823
 20
-372.293207639681
 30
0.0
 10
388.4964944293206
 20
-370.6819519149558
 30
0.0
 10
395.8249384841729
 20
-361.8313285499262
 30
0.0
 10
402.0898954727127
 20
-352.2261851387866
 30
0.0
 10
408.3086698167681
 20
-342.5960983779714
 30
0.0
 10
409.348564902979
 20
-340.9857544205825
 30
0.0
 10
410.5813476285548
 20
-340.4170069723459
 30
0.0
 10
412.3613291579677
 20
-340.1426301260126
 30
0.0
 10
414.5247251400287
 20
-339.8092163437304
 30
0.0
 10
416.6379901993605
 20
-339.117445429385
 30
0.0
 10
418.7490491073331
 20
-338.4991369130348
 30
0.0
 10
419.3196119495624
 20
-338.3320229828732
 30
0.0
 10
419.864278970872
 20
-337.9367718362428
 30
0.0
 10
420.3147734500744
 20
-337.52904901478
 30
0.0
 10
421.1926425935089
 20
-336.7343786421934
 30
0.0
 10
421.4219765046655
 20
-335.6942474734515
 30
0.0
 10
420.955005086973
 20
-334.6135752206737
 30
0.0
 10
420.524528785656
 20
-333.6172740109887
 30
0.0
 10
419.6063383593428
 20
-333.033384712
 30
0.0
 10
418.5858346109599
 20
-333.2610334816218
 30
0.0
 10
416.800585996938
 20
-333.6592804352058
 30
0.0
 10
415.0702388026803
 20
-334.303606884192
 30
0.0
 10
413.2125453881454
 20
-334.8770434216403
 30
0.0
 10
413.4019976184536
 20
-334.4171219193177
 30
0.0
 10
413.5811680437291
 20
-333.7840297465464
 30
0.0
 10
413.9019636172598
 20
-333.2334199559245
 30
0.0
 10
417.8418324528648
 20
-326.4710694556907
 30
0.0
 10
421.4730761809478
 20
-319.5576912063789
 30
0.0
 10
424.3567195259202
 20
-312.2674925361152
 30
0.0
 10
424.5674191918224
 20
-311.734825024434
 30
0.0
 10
424.9702738269407
 20
-311.1972079185707
 30
0.0
 10
425.4286078772056
 20
-310.8569233179533
 30
0.0
 10
427.9088185914588
 20
-309.0154463371564
 30
0.0
 10
430.5386324182909
 20
-307.3599698959642
 30
0.0
 10
432.9041069803679
 20
-305.3855051343908
 30
0.0
 10
434.232975331357
 20
-304.2762750257407
 30
0.0
 10
435.5104265163463
 20
-303.7722956225425
 30
0.0
 10
437.2009490152086
 20
-303.847581555312
 30
0.0
 10
439.418603295413
 20
-303.9463780605165
 30
0.0
 10
441.6598332742687
 20
-304.0161282629651
 30
0.0
 10
443.8618653978265
 20
-303.800983731353
 30
0.0
 10
445.5054807228007
 20
-303.6403824251774
 30
0.0
 10
447.1740963829179
 20
-303.1775302421465
 30
0.0
 10
448.6997762292231
 20
-302.53587396896
 30
0.0
 10
450.0390729192659
 20
-301.9725971248317
 30
0.0
 10
450.5557437984753
 20
-300.6548979239651
 30
0.0
 10
450.1710593841963
 20
-299.7461589430986
 30
0.0
 10
449.6057392043076
 20
-298.4106802788356
 30
0.0
 10
448.4398004226859
 20
-298.2161156387065
 30
0.0
 10
447.267902590138
 20
-298.5612195810008
 30
0.0
 10
445.9217432226324
 20
-298.9575778736635
 30
0.0
 10
444.6224666066737
 20
-299.549868457425
 30
0.0
 10
443.353091075358
 20
-300.1614038449206
 30
0.0
 10
441.6020500185368
 20
-301.0049514600996
 30
0.0
 10
439.8844024409409
 20
-301.8943479477875
 30
0.0
 10
437.5936439570614
 20
-301.6964618694055
 30
0.0
 10
439.2748615445817
 20
-299.3804425455
 30
0.0
 10
440.9337082688726
 20
-297.3162012629491
 30
0.0
 10
442.3236731732068
 20
-295.0845204189955
 30
0.0
 10
442.9895808298861
 20
-294.0153429475195
 30
0.0
 10
443.2515185646407
 20
-292.6473011636208
 30
0.0
 10
443.4711812292662
 20
-291.3756787770853
 30
0.0
 10
443.5390509114732
 20
-290.9828047381725
 30
0.0
 10
442.928166786347
 20
-290.1712341064103
 30
0.0
 10
442.5112693058945
 20
-290.07898278834
 30
0.0
 10
442.0756561724047
 20
-289.9825308278359
 30
0.0
 10
441.3617830404692
 20
-290.4065677722519
 30
0.0
 10
441.0215310029344
 20
-290.8137044575724
 30
0.0
 10
440.6479750347462
 20
-291.260665838252
 30
0.0
 10
440.4220195472699
 20
-291.9366762027621
 30
0.0
 10
440.3741354797603
 20
-292.5324184772671
 30
0.0
 10
440.1206804376015
 20
-295.6852774138406
 30
0.0
 10
438.3567606668803
 20
-298.0440195507526
 30
0.0
 10
436.2046966503913
 20
-300.0610443097521
 30
0.0
 10
433.0355561538345
 20
-303.0313218341598
 30
0.0
 10
429.6717451870718
 20
-305.7938792181285
 30
0.0
 10
426.390856204569
 20
-308.6449105982738
 30
0.0
 10
426.2313294812702
 20
-308.5474166179465
 30
0.0
 10
426.071810898753
 20
-308.4499226376265
 30
0.0
 10
425.9122841754543
 20
-308.3524286573029
 30
0.0
 10
426.4341163091449
 20
-306.736386153947
 30
0.0
 10
427.1187640412281
 20
-305.1524834497195
 30
0.0
 10
427.4455837919486
 20
-303.4979187757763
 30
0.0
 10
428.249550935423
 20
-299.4277567578993
 30
0.0
 10
430.3457122162545
 20
-296.3261521717814
 30
0.0
 10
433.480490480757
 20
-293.5995444719247
 30
0.0
 10
435.7240812858799
 20
-291.6480367097265
 30
0.0
 10
437.5023613923913
 20
-289.1011123041881
 30
0.0
 10
439.2260575695364
 20
-286.6364749020777
 30
0.0
 10
440.1652919120315
 20
-285.2935067203598
 30
0.0
 10
440.6411123576181
 20
-283.5958610390862
 30
0.0
 10
441.1680569011005
 20
-282.0058690314709
 30
0.0
 10
441.5176545540126
 20
-280.9510193326405
 30
0.0
 10
441.3847156179763
 20
-279.8011830136838
 30
0.0
 10
440.3017476653113
 20
-279.1713797159482
 30
0.0
 10
439.0944048770434
 20
-278.4693188556321
 30
0.0
 10
438.191795903429
 20
-279.3105544893533
 30
0.0
 10
437.5999937663655
 20
-280.1757240160496
 30
0.0
 10
436.2992518099636
 20
-282.0773776420665
 30
0.0
 10
435.1322710084096
 20
-284.0727479265206
 30
0.0
 10
433.9584519517302
 20
-286.0581538963579
 30
0.0
 10
433.1539800800238
 20
-287.4189015414286
 30
0.0
 10
432.4299879585997
 20
-288.827223904349
 30
0.0
 10
431.3691385048915
 20
-290.0834439352384
 30
0.0
 10
432.0604616766104
 20
-286.2906220076566
 30
0.0
 10
432.9089751677857
 20
-282.5182171561155
 30
0.0
 10
433.4055546022682
 20
-278.7000611214153
 30
0.0
 10
434.1152922182337
 20
-273.2429381470884
 30
0.0
 10
434.7027797421506
 20
-267.7611974542815
 30
0.0
 10
435.0638721765063
 20
-262.2716741758613
 30
0.0
 10
435.2106667201151
 20
-260.040025894974
 30
0.0
 10
435.8838278117328
 20
-258.4199130016677
 30
0.0
 10
437.5976085188886
 20
-257.0196988555872
 30
0.0
 10
440.9457322027447
 20
-254.2841362978288
 30
0.0
 10
443.6188305564792
 20
-250.9716203855851
 30
0.0
 10
445.3043057719733
 20
-246.9568482343193
 30
0.0
 10
445.7405376047864
 20
-245.9176939591753
 30
0.0
 10
446.0699949681803
 20
-244.7503061187344
 30
0.0
 10
446.085177522782
 20
-243.6368753675824
 30
0.0
 10
446.1093393576593
 20
-241.8641065691972
 30
0.0
 10
444.7078226867598
 20
-241.0119297271585
 30
0.0
 10
443.2106355701617
 20
-241.9698064555414
 30
0.0
 10
441.9074432390516
 20
-242.8035851348377
 30
0.0
 10
440.7926611183757
 20
-244.0055224452208
 30
0.0
 10
439.785044224569
 20
-245.2047895797969
 30
0.0
 10
438.9375076271026
 20
-246.2134973380244
 30
0.0
 10
438.3295948865598
 20
-247.4332141117784
 30
0.0
 10
437.6791058670424
 20
-248.5950336587375
 30
0.0
 10
437.047951199831
 20
-249.7223688619615
 30
0.0
 10
436.4976833219007
 20
-250.8949993646629
 30
0.0
 10
435.7433016690484
 20
-251.9970655870111
 30
0.0
 10
435.3125241591115
 20
-245.6986092895149
 30
0.0
 10
435.059174947517
 20
-239.4532308771004
 30
0.0
 10
437.3534583893816
 20
-233.427099949592
 30
0.0
 10
437.6062133243504
 20
-232.7632030656068
 30
0.0
 10
437.8982231000919
 20
-232.109726379922
 30
0.0
 10
438.0920469292287
 20
-231.4287012949853
 30
0.0
 10
438.9972690932991
 20
-228.2479683280008
 30
0.0
 10
440.1668549444657
 20
-225.2723830149989
 30
0.0
 10
442.9571235435287
 20
-223.1536799148316
 30
0.0
 10
443.8346263518652
 20
-222.4873896415775
 30
0.0
 10
444.3512158232661
 20
-221.3340690688492
 30
0.0
 10
445.0007279491874
 20
-220.3816629445373
 30
0.0
 10
446.3946655541149
 20
-218.3376107961703
 30
0.0
 10
447.8038101359343
 20
-216.3022530007611
 30
0.0
 10
449.130911937722
 20
-214.2151361266187
 30
0.0
 10
449.6440090145261
 20
-213.4081568947822
 30
0.0
 10
450.128466827573
 20
-212.5005576231397
 30
0.0
 10
450.2848674914312
 20
-211.5807960262782
 30
0.0
 10
450.375327837919
 20
-211.0488123401046
 30
0.0
 10
449.9214305127643
 20
-210.2159779912008
 30
0.0
 10
449.4530181769915
 20
-209.8740815161173
 30
0.0
 10
449.1643705433962
 20
-209.6634144133477
 30
0.0
 10
448.1617439477195
 20
-209.9467298360642
 30
0.0
 10
447.8736336055699
 20
-210.3157839529194
 30
0.0
 10
447.1778981312709
 20
-211.207069101597
 30
0.0
 10
446.6527445593965
 20
-212.2504077376143
 30
0.0
 10
446.1680669452835
 20
-213.2837006512136
 30
0.0
 10
445.1139743388667
 20
-215.5309792295075
 30
0.0
 10
444.20403052248
 20
-217.8488220881472
 30
0.0
 10
443.0812134519838
 20
-220.0596299723939
 30
0.0
 10
442.5464456190239
 20
-221.1125910102801
 30
0.0
 10
441.6596460400142
 20
-221.9867642395548
 30
0.0
 10
440.8175067796328
 20
-223.0926729100202
 30
0.0
 10
440.8175067797856
 20
-219.6584849009778
 30
0.0
 10
440.7754189477382
 20
-216.6008568078914
 30
0.0
 10
440.8568104655096
 20
-213.5465013083403
 30
0.0
 10
440.8712359275523
 20
-213.0049929096531
 30
0.0
 10
441.367994459044
 20
-212.4567276636562
 30
0.0
 10
441.6963446763402
 20
-211.9465287045587
 30
0.0
 10
443.3782379486074
 20
-209.3330452823993
 30
0.0
 10
445.1427438554965
 20
-206.769757909221
 30
0.0
 10
446.7367655493144
 20
-204.1042223402528
 30
0.0
 10
447.3064084834405
 20
-203.1516859634557
 30
0.0
 10
447.6798993254197
 20
-201.9804231117769
 30
0.0
 10
447.7839629151786
 20
-200.8751982667909
 30
0.0
 10
447.9312133424355
 20
-199.3111427839804
 30
0.0
 10
446.9743053668499
 20
-198.0977432553764
 30
0.0
 10
445.5880607990657
 20
-197.5740468830936
 30
0.0
 10
444.2053086258602
 20
-197.0516693171603
 30
0.0
 10
442.8200002477242
 20
-197.4012018437206
 30
0.0
 10
441.8608779798815
 20
-198.8090520413934
 30
0.0
 10
441.1753754659367
 20
-199.815236157855
 30
0.0
 10
440.604234628292
 20
-200.9812563472597
 30
0.0
 10
440.3111828326983
 20
-202.1579409583683
 30
0.0
 10
439.3247970927951
 20
-206.1184466707236
 30
0.0
 10
438.7614062775065
 20
-210.0916519997691
 30
0.0
 10
438.9044072173856
 20
-214.250629926607
 30
0.0
 10
439.1342947012345
 20
-220.9366036298234
 30
0.0
 10
438.3504190024869
 20
-227.5526154703657
 30
0.0
 10
435.0506922550958
 20
-233.8667671913818
 30
0.0
 10
434.8508605304341
 20
-233.3008201713683
 30
0.0
 10
434.6085664977072
 20
-232.8868126677726
 30
0.0
 10
434.565493631173
 20
-232.4530393505383
 30
0.0
 10
433.2471024645893
 20
-219.1759483116903
 30
0.0
 10
431.1560291719325
 20
-206.0361922300499
 30
0.0
 10
427.7093206439567
 20
-193.1288716966055
 30
0.0
 10
427.5450885498867
 20
-192.5138520552446
 30
0.0
 10
427.6414265394924
 20
-191.7393545352634
 30
0.0
 10
427.8597296938387
 20
-191.1256699818223
 30
0.0
 10
430.7720937104095
 20
-182.9389923452673
 30
0.0
 10
432.5709292864776
 20
-174.5650279258343
 30
0.0
 10
432.2545460160763
 20
-165.8214232532819
 30
0.0
 10
432.2290083895023
 20
-165.1159107023368
 30
0.0
 10
432.3312647261082
 20
-164.3096315775556
 30
0.0
 10
432.0252528089586
 20
-163.7364067002873
 30
0.0
 10
431.6925147113361
 20
-163.1131160265168
 30
0.0
 10
431.0124258161122
 20
-162.4654518576517
 30
0.0
 10
430.3652500940807
 20
-162.3042644152156
 30
0.0
 10
430.0176794954168
 20
-162.2176953615362
 30
0.0
 10
429.1423584160984
 20
-163.0527277209603
 30
0.0
 10
428.9900362829976
 20
-163.6055192406056
 30
0.0
 10
428.5451508011065
 20
-165.2199173064228
 30
0.0
 10
428.2703750564069
 20
-166.8922451621538
 30
0.0
 10
428.0609616336842
 20
-168.5584674329493
 30
0.0
 10
427.3855781089806
 20
-173.931968315942
 30
0.0
 10
426.7739124687068
 20
-179.3134471632593
 30
0.0
 10
426.1219906717342
 20
-184.6899601348241
 30
0.0
 10
426.0700280734854
 20
-185.1185396344654
 30
0.0
 10
425.8977610295915
 20
-185.5325471380429
 30
0.0
 10
425.6716101633901
 20
-186.3503210440658
 30
0.0
 10
422.0272190764881
 20
-176.6149902800107
 30
0.0
 10
418.5188441404571
 20
-167.2429662422082
 30
0.0
 10
414.9384721468341
 20
-157.6786244195837
 30
0.0
 10
417.0287964884265
 20
-155.3461281571435
 30
0.0
 10
418.3383304871895
 20
-152.4346596267942
 30
0.0
 10
418.6923404429108
 20
-149.2200935784331
 30
0.0
 10
418.8810192991841
 20
-147.5067850365858
 30
0.0
 10
418.5881466008796
 20
-145.7051164694685
 30
0.0
 10
418.2789597796145
 20
-143.9853441483401
 30
0.0
 10
418.0880340682088
 20
-142.9233468447128
 30
0.0
 10
417.333212813337
 20
-142.0208111381235
 30
0.0
 10
416.0969865378829
 20
-141.9465835067622
 30
0.0
 10
415.15011614389
 20
-141.8897120182019
 30
0.0
 10
414.3362905160684
 20
-142.9691468723713
 30
0.0
 10
414.2112644179942
 20
-144.4998577206288
 30
0.0
 10
413.9798627486598
 20
-147.3330770744415
 30
0.0
 10
413.8332473021801
 20
-150.1731835280725
 30
0.0
 10
413.645097596549
 20
-153.0100011066124
 30
0.0
 10
413.6231174907552
 20
-153.3414936649333
 30
0.0
 10
413.5619639519864
 20
-153.670381173677
 30
0.0
 10
413.4455915029976
 20
-154.5639457407569
 30
0.0
 10
412.047135765406
 20
-152.3045536818372
 30
0.0
 10
410.9577121743241
 20
-150.4248964430526
 30
0.0
 10
409.7507438619796
 20
-148.6240256723268
 30
0.0
 10
408.1661980362151
 20
-146.2597803680346
 30
0.0
 10
406.957145684235
 20
-143.8909925085645
 30
0.0
 10
406.4362253180989
 20
-140.9396178749657
 30
0.0
 10
405.4597387670037
 20
-135.4070461522706
 30
0.0
 10
403.5273618377505
 20
-130.0734025276461
 30
0.0
 10
399.6544590582598
 20
-125.8047194504425
 30
0.0
 10
397.948859835069
 20
-123.9248017066757
 30
0.0
 10
395.7924893461604
 20
-122.4396629443054
 30
0.0
 10
393.7600459499663
 20
-120.8805244924706
 30
0.0
 10
393.2527369677409
 20
-120.4913463676157
 30
0.0
 10
392.4356143241057
 20
-120.3841648591597
 30
0.0
 10
391.7557208075741
 20
-120.3682577751661
 30
0.0
 10
390.5019104474886
 20
-120.3389021227213
 30
0.0
 10
389.8733771114385
 20
-120.9707731784838
 30
0.0
 10
390.0977207244068
 20
-122.1893013984054
 30
0.0
 10
390.3847320611749
 20
-123.7482444714424
 30
0.0
 10
390.7299662559308
 20
-125.3468168611307
 30
0.0
 10
391.3793074253626
 20
-126.7790893986366
 30
0.0
 10
393.1925521813355
 20
-130.7786382916083
 30
0.0
 10
395.7573293171554
 20
-134.2916616135044
 30
0.0
 10
398.8472925879396
 20
-137.4134553340537
 30
0.0
 10
406.0900142295141
 20
-144.7308279281406
 30
0.0
 10
411.0704863984138
 20
-153.4664546365811
 30
0.0
 10
414.851829825915
 20
-162.9502678642511
 30
0.0
 10
415.5411992101981
 20
-164.6792555482662
 30
0.0
 10
416.1550302976102
 20
-166.4385920598179
 30
0.0
 10
416.7818947736741
 20
-168.191725297067
 30
0.0
 10
416.8288426514591
 20
-168.3230035140523
 30
0.0
 10
416.6995019400929
 20
-168.5173239307251
 30
0.0
 10
416.6326172922636
 20
-168.750199081097
 30
0.0
 10
414.11915963297
 20
-167.0685418914545
 30
0.0
 10
411.6495807774518
 20
-165.3572848260264
 30
0.0
 10
409.1170574115858
 20
-163.7449056734949
 30
0.0
 10
407.6969390585691
 20
-162.8407743740145
 30
0.0
 10
406.2084218726668
 20
-162.0248728472961
 30
0.0
 10
404.6872845816179
 20
-161.3028833577255
 30
0.0
 10
402.1066817695319
 20
-160.0780378924792
 30
0.0
 10
399.7754147648338
 20
-158.5727914037016
 30
0.0
 10
397.6172695859204
 20
-156.6508509539708
 30
0.0
 10
395.0183093151609
 20
-154.3363783780596
 30
0.0
 10
392.0044053511047
 20
-152.5814704506784
 30
0.0
 10
388.3660954263723
 20
-152.3515748255895
 30
0.0
 10
387.8353328571829
 20
-152.3180348122942
 30
0.0
 10
387.2927987202274
 20
-152.3047327778831
 30
0.0
 10
386.7678812310151
 20
-152.3740759412121
 30
0.0
 10
384.9040008237571
 20
-152.6203508152539
 30
0.0
 10
384.166283347382
 20
-154.1348940745638
 30
0.0
 10
385.3438308811128
 20
-155.618486088707
 30
0.0
 10
386.0902427103319
 20
-156.5588764219201
 30
0.0
 10
387.1340860746895
 20
-157.3736870841112
 30
0.0
 10
388.2092388786332
 20
-157.9216592621005
 30
0.0
 10
391.3094920953081
 20
-159.5018334892948
 30
0.0
 10
394.6088687888296
 20
-160.6067978294768
 30
0.0
 10
398.0887265732053
 20
-160.8955675749366
 30
0.0
 10
401.1580692485841
 20
-161.1502762971959
 30
0.0
 10
403.4660536227057
 20
-162.8901563448126
 30
0.0
 10
406.4366323560462
 20
-164.3526800206064
 30
0.0
 10
402.9573851301029
 20
-165.3540936399058
 30
0.0
 10
399.9860981488091
 20
-166.199448508175
 30
0.0
 10
397.0219831946197
 20
-167.0692745608821
 30
0.0
 10
396.2614064082882
 20
-167.2924621831189
 30
0.0
 10
395.4390411023742
 20
-167.4690845442155
 30
0.0
 10
394.8050453030046
 20
-167.9016041813111
 30
0.0
 10
394.388204807994
 20
-168.1859941869998
 30
0.0
 10
393.9135159308462
 20
-169.1422264778821
 30
0.0
 10
394.0695909634487
 20
-169.3560033585773
 30
0.0
 10
394.4199782719443
 20
-169.835983742646
 30
0.0
 10
395.1636792214667
 20
-170.3209462840414
 30
0.0
 10
395.7172441152179
 20
-170.2886925140265
 30
0.0
 10
396.4587796173037
 20
-170.2454975358069
 30
0.0
 10
397.2534092860442
 20
-169.828266283409
 30
0.0
 10
397.8834486663764
 20
-169.3746945894418
 30
0.0
 10
400.9514969578595
 20
-167.1659056187009
 30
0.0
 10
404.6215315019617
 20
-166.7690100346717
 30
0.0
 10
408.1325847550434
 20
-165.9169797268933
 30
0.0
 10
408.6410171649222
 20
-165.7935980664552
 30
0.0
 10
409.3506001058122
 20
-166.0832958607052
 30
0.0
 10
409.8422869313763
 20
-166.3851234170215
 30
0.0
 10
411.2794032328675
 20
-167.2674374263215
 30
0.0
 10
412.6897038052957
 20
-168.2035457093261
 30
0.0
 10
414.0447529044104
 20
-169.2073364365824
 30
0.0
 10
417.0931574937458
 20
-171.4655887863892
 30
0.0
 10
419.3602995749679
 20
-174.1692069239953
 30
0.0
 10
420.6082322917755
 20
-177.9564931213217
 30
0.0
 10
423.108086707558
 20
-185.5431464333742
 30
0.0
 10
426.0623675992319
 20
-192.9800093949261
 30
0.0
 10
427.6432907776834
 20
-200.8475847403988
 30
0.0
 10
427.7256022034344
 20
-201.2572287859521
 30
0.0
 10
427.7915262392016
 20
-201.6701779881523
 30
0.0
 10
427.9627105593063
 20
-202.627582551374
 30
0.0
 10
426.6164290801862
 20
-201.1081548240154
 30
0.0
 10
425.6958778277221
 20
-199.9194055770113
 30
0.0
 10
424.6217344805082
 20
-198.8910948206494
 30
0.0
 10
422.8913954271338
 20
-197.2345926409935
 30
0.0
 10
421.0825222698732
 20
-195.6571211527917
 30
0.0
 10
419.2566348825785
 20
-194.1053094028921
 30
0.0
 10
418.7271422750746
 20
-193.6552545257991
 30
0.0
 10
418.051164473698
 20
-193.1971402765776
 30
0.0
 10
417.3975900986443
 20
-193.1194935176763
 30
0.0
 10
416.5939892904535
 20
-193.0240510138665
 30
0.0
 10
415.5786875004524
 20
-193.0820622115261
 30
0.0
 10
414.9528650441207
 20
-193.5097462253489
 30
0.0
 10
414.0687356409362
 20
-194.1139874740529
 30
0.0
 10
413.9858299381849
 20
-195.3019714877009
 30
0.0
 10
414.6135573369575
 20
-196.152243387206
 30
0.0
 10
415.6006350429161
 20
-197.4892036734291
 30
0.0
 10
416.6776927893297
 20
-198.8106801962513
 30
0.0
 10
417.9317555135385
 20
-199.8883729236086
 30
0.0
 10
420.152617260952
 20
-201.7969299311535
 30
0.0
 10
422.5662933807689
 20
-203.4791244122698
 30
0.0
 10
424.837815201623
 20
-205.3314449121353
 30
0.0
 10
426.141837892199
 20
-206.3947610221585
 30
0.0
 10
427.3662763182801
 20
-207.5660564370301
 30
0.0
 10
428.5421305698001
 20
-208.7711198070065
 30
0.0
 10
429.0107871289656
 20
-209.2514583853972
 30
0.0
 10
429.4550132075819
 20
-209.9192465622164
 30
0.0
 10
429.5645392605911
 20
-210.5607400198778
 30
0.0
 10
430.5148369226808
 20
-216.1268191927193
 30
0.0
 10
431.3864376652928
 20
-221.7063469339837
 30
0.0
 10
432.2814512909536
 20
-227.281853129969
 30
0.0
 10
432.1034694195696
 20
-227.342339124767
 30
0.0
 10
431.9254875481893
 20
-227.402808838001
 30
0.0
 10
431.7475056768017
 20
-227.4632785512349
 30
0.0
 10
431.2912393846891
 20
-226.7384886334194
 30
0.0
 10
430.8556506735658
 20
-225.9996640110294
 30
0.0
 10
430.3747178182966
 20
-225.2916115367289
 30
0.0
 10
429.0783556016613
 20
-223.3830545292194
 30
0.0
 10
427.8222576825101
 20
-221.4421949069956
 30
0.0
 10
426.4258045767601
 20
-219.6089075506225
 30
0.0
 10
425.8531576949172
 20
-218.8571228065912
 30
0.0
 10
425.036140881446
 20
-218.2056650342774
 30
0.0
 10
424.1959554083151
 20
-217.7642882285654
 30
0.0
 10
423.0321088071505
 20
-217.1528830934349
 30
0.0
 10
421.9414966620825
 20
-217.8383530441724
 30
0.0
 10
422.0426214301842
 20
-219.1390054519152
 30
0.0
 10
422.1227267045469
 20
-220.1692211507298
 30
0.0
 10
422.4761261015847
 20
-221.2281575211109
 30
0.0
 10
422.9249272985035
 20
-222.1711854670066
 30
0.0
 10
425.0037731401135
 20
-226.5393163116269
 30
0.0
 10
427.7328719185898
 20
-230.4750577716331
 30
0.0
 10
431.1430690490524
 20
-233.9115414807611
 30
0.0
 10
432.5236964786563
 20
-235.3028007690682
 30
0.0
 10
433.1355249342196
 20
-236.8433619610614
 30
0.0
 10
433.2672101901044
 20
-238.8517574934458
 30
0.0
 10
433.9258155667048
 20
-248.8969589042217
 30
0.0
 10
433.7353457384743
 20
-258.9132442646915
 30
0.0
 10
432.723463075592
 20
-268.9293993726369
 30
0.0
 10
432.5562026113657
 20
-268.8766796818709
 30
0.0
 10
432.3161065892018
 20
-268.864663890703
 30
0.0
 10
432.2900642342465
 20
-268.7837771014219
 30
0.0
 10
430.6086838314659
 20
-263.5593176170878
 30
0.0
 10
428.2446501877494
 20
-258.5544638118336
 30
0.0
 10
427.4054009045321
 20
-253.055985675448
 30
0.0
 10
427.0703019808025
 20
-250.8605475836212
 30
0.0
 10
426.3180450716573
 20
-248.7425445903718
 30
0.0
 10
424.8161607251677
 20
-247.0031204264615
 30
0.0
 10
423.7141514883006
 20
-245.7268089506324
 30
0.0
 10
422.6718630128853
 20
-245.3622648257933
 30
0.0
 10
421.8739770321663
 20
-246.0165555894437
 30
0.0
 10
420.8687128237689
 20
-246.8409235271702
 30
0.0
 10
420.9662800710576
 20
-247.8981177706382
 30
0.0
 10
421.5200484842535
 20
-248.9107331032947
 30
0.0
 10
422.583209919314
 20
-250.8547187849945
 30
0.0
 10
423.7315727570167
 20
-252.7520415162035
 30
0.0
 10
424.7989104121734
 20
-254.6938454688934
 30
0.0
 10
425.6006958263788
 20
-256.1525104149041
 30
0.0
 10
426.3310866006905
 20
-257.6504464832469
 30
0.0
 10
427.4013060919315
 20
-259.7292760435357
 30
0.0
 10
425.0953080680738
 20
-258.8880404096708
 30
0.0
 10
423.438602369024
 20
-258.2390248712964
 30
0.0
 10
421.7509535654972
 20
-257.6840516225475
 30
0.0
 10
420.6630034555092
 20
-257.3263457528374
 30
0.0
 10
419.5414156428997
 20
-257.000486614168
 30
0.0
 10
418.4111090549777
 20
-256.8753465451955
 30
0.0
 10
417.9322602393368
 20
-256.8223337863365
 30
0.0
 10
417.3923718558326
 20
-257.3207774592229
 30
0.0
 10
416.8802353910869
 20
-257.5685502368324
 30
0.0
 10
417.2164984464143
 20
-258.1245655053481
 30
0.0
 10
417.4385219371288
 20
-258.8365255539993
 30
0.0
 10
417.9224261770905
 20
-259.1910402379508
 30
0.0
 10
418.3718704956518
 20
-259.5203510672745
 30
0.0
 10
419.1020007650695
 20
-259.4619328306089
 30
0.0
 10
419.7062745769326
 20
-259.585412180455
 30
0.0
 10
421.0919574309155
 20
-259.8686461954749
 30
0.0
 10
422.4979189676851
 20
-260.0813484932733
 30
0.0
 10
423.8565744323314
 20
-260.4620764886113
 30
0.0
 10
426.7106830273915
 20
-261.2619569605104
 30
0.0
 10
428.6634851736271
 20
-262.9817455632692
 30
0.0
 10
429.4096853424708
 20
-265.9820788473135
 30
0.0
 10
429.8157067408829
 20
-267.614663415512
 30
0.0
 10
430.3300982015826
 20
-269.2464339057169
 30
0.0
 10
431.023350737898
 20
-270.7752723746326
 30
0.0
 10
432.0561389230643
 20
-273.0529323436767
 30
0.0
 10
432.2629961407183
 20
-275.3257729709712
 30
0.0
 10
431.7568919937912
 20
-277.7572936804263
 30
0.0
 10
431.0360422133272
 20
-281.2205768368603
 30
0.0
 10
430.4378821270257
 20
-284.7094220422568
 30
0.0
 10
429.6826619737076
 20
-288.7467604355024
 30
0.0
  0
HATCH
  5
4A
330
45
100
AcDbEntity
  8
Layer 1
 62
     7
420
 16777215
100
AcDbHatch
 10
0.0
 20
0.0
 30
0.0
210
0.0
220
0.0
230
1.0
  2
SOLID
 70
     1
 71
     0
 91
        1
 92
        1
 93
        1
 72
     4
 94
        3
 73
     0
 74
     1
 95
      704
 96
      700
 40
0.0
 40
0.0
 40
0.0
 40
0.0
 40
1.0
 40
1.0
 40
1.0
 40
2.0
 40
2.0
 40
2.0
 40
3.0
 40
3.0
 40
3.0
 40
4.0
 40
4.0
 40
4.0
 40
5.0
 40
5.0
 40
5.0
 40
6.0
 40
6.0
 40
6.0
 40
7.0
 40
7.0
 40
7.0
 40
8.0
 40
8.0
 40
8.0
 40
9.0
 40
9.0
 40
9.0
 40
10.0
 40
10.0
 40
10.0
 40
11.0
 40
11.0
 40
11.0
 40
12.0
 40
12.0
 40
12.0
 40
13.0
 40
13.0
 40
13.0
 40
14.0
 40
14.0
 40
14.0
 40
15.0
 40
15.0
 40
15.0
 40
16.0
 40
16.0
 40
16.0
 40
17.0
 40
17.0
 40
17.0
 40
18.0
 40
18.0
 40
18.0
 40
19.0
 40
19.0
 40
19.0
 40
20.0
 40
20.0
 40
20.0
 40
21.0
 40
21.0
 40
21.0
 40
22.0
 40
22.0
 40
22.0
 40
23.0
 40
23.0
 40
23.0
 40
24.0
 40
24.0
 40
24.0
 40
25.0
 40
25.0
 40
25.0
 40
26.0
 40
26.0
 40
26.0
 40
27.0
 40
27.0
 40
27.0
 40
28.0
 40
28.0
 40
28.0
 40
29.0
 40
29.0
 40
29.0
 40
30.0
 40
30.0
 40
30.0
 40
31.0
 40
31.0
 40
31.0
 40
32.0
 40
32.0
 40
32.0
 40
33.0
 40
33.0
 40
33.0
 40
34.0
 40
34.0
 40
34.0
 40
35.0
 40
35.0
 40
35.0
 40
36.0
 40
36.0
 40
36.0
 40
37.0
 40
37.0
 40
37.0
 40
38.0
 40
38.0
 40
38.0
 40
39.0
 40
39.0
 40
39.0
 40
40.0
 40
40.0
 40
40.0
 40
41.0
 40
41.0
 40
41.0
 40
42.0
 40
42.0
 40
42.0
 40
43.0
 40
43.0
 40
43.0
 40
44.0
 40
44.0
 40
44.0
 40
45.0
 40
45.0
 40
45.0
 40
46.0
 40
46.0
 40
46.0
 40
47.0
 40
47.0
 40
47.0
 40
48.0
 40
48.0
 40
48.0
 40
49.0
 40
49.0
 40
49.0
 40
50.0
 40
50.0
 40
50.0
 40
51.0
 40
51.0
 40
51.0
 40
52.0
 40
52.0
 40
52.0
 40
53.0
 40
53.0
 40
53.0
 40
54.0
 40
54.0
 40
54.0
 40
55.0
 40
55.0
 40
55.0
 40
56.0
 40
56.0
 40
56.0
 40
57.0
 40
57.0
 40
57.0
 40
58.0
 40
58.0
 40
58.0
 40
59.0
 40
59.0
 40
59.0
 40
60.0
 40
60.0
 40
60.0
 40
61.0
 40
61.0
 40
61.0
 40
62.0
 40
62.0
 40
62.0
 40
63.0
 40
63.0
 40
63.0
 40
64.0
 40
64.0
 40
64.0
 40
65.0
 40
65.0
 40
65.0
 40
66.0
 40
66.0
 40
66.0
 40
67.0
 40
67.0
 40
67.0
 40
68.0
 40
68.0
 40
68.0
 40
69.0
 40
69.0
 40
69.0
 40
70.0
 40
70.0
 40
70.0
 40
71.0
 40
71.0
 40
71.0
 40
72.0
 40
72.0
 40
72.0
 40
73.0
 40
73.0
 40
73.0
 40
74.0
 40
74.0
 40
74.0
 40
75.0
 40
75.0
 40
75.0
 40
76.0
 40
76.0
 40
76.0
 40
77.0
 40
77.0
 40
77.0
 40
78.0
 40
78.0
 40
78.0
 40
79.0
 40
79.0
 40
79.0
 40
80.0
 40
80.0
 40
80.0
 40
81.0
 40
81.0
 40
81.0
 40
82.0
 40
82.0
 40
82.0
 40
83.0
 40
83.0
 40
83.0
 40
84.0
 40
84.0
 40
84.0
 40
85.0
 40
85.0
 40
85.0
 40
86.0
 40
86.0
 40
86.0
 40
87.0
 40
87.0
 40
87.0
 40
88.0
 40
88.0
 40
88.0
 40
89.0
 40
89.0
 40
89.0
 40
90.0
 40
90.0
 40
90.0
 40
91.0
 40
91.0
 40
91.0
 40
92.0
 40
92.0
 40
92.0
 40
93.0
 40
93.0
 40
93.0
 40
94.0
 40
94.0
 40
94.0
 40
95.0
 40
95.0
 40
95.0
 40
96.0
 40
96.0
 40
96.0
 40
97.0
 40
97.0
 40
97.0
 40
98.0
 40
98.0
 40
98.0
 40
99.0
 40
99.0
 40
99.0
 40
100.0
 40
100.0
 40
100.0
 40
101.0
 40
101.0
 40
101.0
 40
102.0
 40
102.0
 40
102.0
 40
103.0
 40
103.0
 40
103.0
 40
104.0
 40
104.0
 40
104.0
 40
105.0
 40
105.0
 40
105.0
 40
106.0
 40
106.0
 40
106.0
 40
107.0
 40
107.0
 40
107.0
 40
108.0
 40
108.0
 40
108.0
 40
109.0
 40
109.0
 40
109.0
 40
110.0
 40
110.0
 40
110.0
 40
111.0
 40
111.0
 40
111.0
 40
112.0
 40
112.0
 40
112.0
 40
113.0
 40
113.0
 40
113.0
 40
114.0
 40
114.0
 40
114.0
 40
115.0
 40
115.0
 40
115.0
 40
116.0
 40
116.0
 40
116.0
 40
117.0
 40
117.0
 40
117.0
 40
118.0
 40
118.0
 40
118.0
 40
119.0
 40
119.0
 40
119.0
 40
120.0
 40
120.0
 40
120.0
 40
121.0
 40
121.0
 40
121.0
 40
122.0
 40
122.0
 40
122.0
 40
123.0
 40
123.0
 40
123.0
 40
124.0
 40
124.0
 40
124.0
 40
125.0
 40
125.0
 40
125.0
 40
126.0
 40
126.0
 40
126.0
 40
127.0
 40
127.0
 40
127.0
 40
128.0
 40
128.0
 40
128.0
 40
129.0
 40
129.0
 40
129.0
 40
130.0
 40
130.0
 40
130.0
 40
131.0
 40
131.0
 40
131.0
 40
132.0
 40
132.0
 40
132.0
 40
133.0
 40
133.0
 40
133.0
 40
134.0
 40
134.0
 40
134.0
 40
135.0
 40
135.0
 40
135.0
 40
136.0
 40
136.0
 40
136.0
 40
137.0
 40
137.0
 40
137.0
 40
138.0
 40
138.0
 40
138.0
 40
139.0
 40
139.0
 40
139.0
 40
140.0
 40
140.0
 40
140.0
 40
141.0
 40
141.0
 40
141.0
 40
142.0
 40
142.0
 40
142.0
 40
143.0
 40
143.0
 40
143.0
 40
144.0
 40
144.0
 40
144.0
 40
145.0
 40
145.0
 40
145.0
 40
146.0
 40
146.0
 40
146.0
 40
147.0
 40
147.0
 40
147.0
 40
148.0
 40
148.0
 40
148.0
 40
149.0
 40
149.0
 40
149.0
 40
150.0
 40
150.0
 40
150.0
 40
151.0
 40
151.0
 40
151.0
 40
152.0
 40
152.0
 40
152.0
 40
153.0
 40
153.0
 40
153.0
 40
154.0
 40
154.0
 40
154.0
 40
155.0
 40
155.0
 40
155.0
 40
156.0
 40
156.0
 40
156.0
 40
157.0
 40
157.0
 40
157.0
 40
158.0
 40
158.0
 40
158.0
 40
159.0
 40
159.0
 40
159.0
 40
160.0
 40
160.0
 40
160.0
 40
161.0
 40
161.0
 40
161.0
 40
162.0
 40
162.0
 40
162.0
 40
163.0
 40
163.0
 40
163.0
 40
164.0
 40
164.0
 40
164.0
 40
165.0
 40
165.0
 40
165.0
 40
166.0
 40
166.0
 40
166.0
 40
167.0
 40
167.0
 40
167.0
 40
168.0
 40
168.0
 40
168.0
 40
169.0
 40
169.0
 40
169.0
 40
170.0
 40
170.0
 40
170.0
 40
171.0
 40
171.0
 40
171.0
 40
172.0
 40
172.0
 40
172.0
 40
173.0
 40
173.0
 40
173.0
 40
174.0
 40
174.0
 40
174.0
 40
175.0
 40
175.0
 40
175.0
 40
176.0
 40
176.0
 40
176.0
 40
177.0
 40
177.0
 40
177.0
 40
178.0
 40
178.0
 40
178.0
 40
179.0
 40
179.0
 40
179.0
 40
180.0
 40
180.0
 40
180.0
 40
181.0
 40
181.0
 40
181.0
 40
182.0
 40
182.0
 40
182.0
 40
183.0
 40
183.0
 40
183.0
 40
184.0
 40
184.0
 40
184.0
 40
185.0
 40
185.0
 40
185.0
 40
186.0
 40
186.0
 40
186.0
 40
187.0
 40
187.0
 40
187.0
 40
188.0
 40
188.0
 40
188.0
 40
189.0
 40
189.0
 40
189.0
 40
190.0
 40
190.0
 40
190.0
 40
191.0
 40
191.0
 40
191.0
 40
192.0
 40
192.0
 40
192.0
 40
193.0
 40
193.0
 40
193.0
 40
194.0
 40
194.0
 40
194.0
 40
195.0
 40
195.0
 40
195.0
 40
196.0
 40
196.0
 40
196.0
 40
197.0
 40
197.0
 40
197.0
 40
198.0
 40
198.0
 40
198.0
 40
199.0
 40
199.0
 40
199.0
 40
200.0
 40
200.0
 40
200.0
 40
201.0
 40
201.0
 40
201.0
 40
202.0
 40
202.0
 40
202.0
 40
203.0
 40
203.0
 40
203.0
 40
204.0
 40
204.0
 40
204.0
 40
205.0
 40
205.0
 40
205.0
 40
206.0
 40
206.0
 40
206.0
 40
207.0
 40
207.0
 40
207.0
 40
208.0
 40
208.0
 40
208.0
 40
209.0
 40
209.0
 40
209.0
 40
210.0
 40
210.0
 40
210.0
 40
211.0
 40
211.0
 40
211.0
 40
212.0
 40
212.0
 40
212.0
 40
213.0
 40
213.0
 40
213.0
 40
214.0
 40
214.0
 40
214.0
 40
215.0
 40
215.0
 40
215.0
 40
216.0
 40
216.0
 40
216.0
 40
217.0
 40
217.0
 40
217.0
 40
218.0
 40
218.0
 40
218.0
 40
219.0
 40
219.0
 40
219.0
 40
220.0
 40
220.0
 40
220.0
 40
221.0
 40
221.0
 40
221.0
 40
222.0
 40
222.0
 40
222.0
 40
223.0
 40
223.0
 40
223.0
 40
224.0
 40
224.0
 40
224.0
 40
225.0
 40
225.0
 40
225.0
 40
226.0
 40
226.0
 40
226.0
 40
227.0
 40
227.0
 40
227.0
 40
228.0
 40
228.0
 40
228.0
 40
229.0
 40
229.0
 40
229.0
 40
230.0
 40
230.0
 40
230.0
 40
231.0
 40
231.0
 40
231.0
 40
232.0
 40
232.0
 40
232.0
 40
233.0
 40
233.0
 40
233.0
 40
233.0
 10
429.6826619737076
 20
-288.7467604355024
 10
428.6241814870882
 20
-287.1863683036045
 10
428.0691675345624
 20
-286.1628768889805
 10
427.3165605718204
 20
-285.3146727475741
 10
426.5148565653908
 20
-284.4110461764703
 10
425.3970542154093
 20
-284.6903726170185
 10
425.0755015493196
 20
-285.8581512149012
 10
424.896990527217
 20
-286.5064503645608
 10
424.8663649131231
 20
-287.3183791906104
 10
425.0979619610225
 20
-287.9325847539858
 10
425.6885674033329
 20
-289.4989033736401
 10
426.3974502370911
 20
-291.0311609701257
 10
427.1877897147351
 20
-292.5080938262745
 10
427.7483475383815
 20
-293.5556493863423
 10
428.1884462415692
 20
-294.4883873864146
 10
427.8366098741717
 20
-295.7598143942287
 10
425.2950421013302
 20
-304.9446981829733
 10
422.0311592078069
 20
-313.8492786374936
 10
417.7140954753304
 20
-322.3552213808634
 10
417.601036323802
 20
-322.5779531194585
 10
417.3904262064971
 20
-322.7512214792569
 10
416.979552903158
 20
-323.239798526889
 10
416.9795529032017
 20
-322.2333050607613
 10
416.9748882363383
 20
-321.5092966578359
 10
416.9803832628204
 20
-320.7853859442785
 10
417.0006863680574
 20
-318.1121166343164
 10
417.0060755644845
 20
-315.44132212144
 10
415.7586312944113
 20
-312.9668180939352
 10
414.8456184041825
 20
-311.1557225036468
 10
413.6245014162923
 20
-310.2876874223311
 10
412.3325026576022
 20
-310.5254307590458
 10
410.8944176032492
 20
-310.7900386694837
 10
409.5351027353463
 20
-312.1621508432927
 10
409.410947700715
 20
-313.9391202841161
 10
409.2948601789903
 20
-315.6004580869649
 10
409.3635520798744
 20
-317.3278013334038
 10
409.693823521131
 20
-318.9565434534725
 10
410.4521371704686
 20
-322.6961246804512
 10
411.4312531935611
 20
-326.3905408604423
 10
412.2893158192492
 20
-330.1105842156157
 10
412.4237282364702
 20
-330.6933012422578
 10
412.645002775429
 20
-331.4541059704261
 10
412.3995256977178
 20
-331.8951083002157
 10
410.3921151995492
 20
-335.5013109888623
 10
408.2834415399557
 20
-339.0511794804643
 10
405.7950819049292
 20
-342.4425632685798
 10
405.5674738392518
 20
-340.4632140389422
 10
405.6288553199374
 20
-338.393697530928
 10
405.0457882398478
 20
-336.5252582868943
 10
404.1285665664473
 20
-333.5860459784799
 10
402.8977701913282
 20
-330.7233570012922
 10
401.5423791795329
 20
-327.9541893038131
 10
401.0904682046821
 20
-327.0308620453234
 10
399.9333296061777
 20
-326.3099797018422
 10
398.9353025511919
 20
-325.8533470745515
 10
398.3873954994997
 20
-325.6026761792436
 10
397.178164050245
 20
-325.8639952146095
 10
396.8529724555592
 20
-326.3159387526048
 10
396.5109375872235
 20
-326.7913602998906
 10
396.6100678642506
 20
-327.9395033366181
 10
396.974066556766
 20
-328.4924576718859
 10
397.6944930164718
 20
-329.5868064349397
 10
398.6259529140334
 20
-330.60482724547
 10
399.6547195539861
 20
-331.4219987338383
 10
402.8478672102756
 20
-333.9583726888213
 10
403.4520351918472
 20
-337.4108448895877
 10
403.1691919341501
 20
-341.2721470578745
 10
402.8207177089462
 20
-340.6075012221136
 10
402.4715677990098
 20
-339.9432461437846
 10
402.1240134819345
 20
-339.2781118612274
 10
401.8778362971898
 20
-338.8070537719559
 10
401.6848021237638
 20
-338.298352716336
 10
401.3789204590867
 20
-337.8701476925544
 10
400.5752789470425
 20
-336.7451244707645
 10
399.5351396375299
 20
-336.373058265277
 10
398.9748341779778
 20
-337.0184918603863
 10
398.2174404365687
 20
-337.8908903996471
 10
398.7527292793602
 20
-338.6265563994366
 10
399.3356172623462
 20
-339.3550910760187
 10
402.4046261655858
 20
-343.1909288848674
 10
402.5882903011297
 20
-348.0645207546022
 10
399.8248699941578
 20
-352.0631090353399
 10
398.5111597753421
 20
-353.9639811464785
 10
397.1936315307466
 20
-355.8623784605279
 10
395.8551000739571
 20
-357.7457316132877
 10
395.5171518771349
 20
-358.2212834130496
 10
395.0918693933418
 20
-358.6347373435838
 10
394.4263931980095
 20
-359.3984076262368
 10
394.6094711976948
 20
-357.7208533897992
 10
394.8981676760341
 20
-356.4895115823074
 10
394.8357034717665
 20
-355.2762097431023
 10
394.7637308365629
 20
-353.8780470734837
 10
394.536627499212
 20
-352.444064972211
 10
394.0944773195042
 20
-351.1199508367263
 10
393.5582278647198
 20
-349.5140029004233
 10
392.2697784861157
 20
-348.6956917028565
 10
391.1504212471773
 20
-348.8934149654942
 10
389.9703663531545
 20
-349.1017863682591
 10
389.1515178641239
 20
-350.2256698807851
 10
389.1022335824127
 20
-351.9564322547903
 10
389.0721615413386
 20
-353.0124216628265
 10
389.1913751224347
 20
-354.0842367470304
 10
389.3536697108648
 20
-355.1318574333218
 10
389.7477811482131
 20
-357.6755580901063
 10
390.1941563926448
 20
-360.211508724411
 10
390.6437553859214
 20
-362.7462545232829
 10
390.8736347292324
 20
-364.0422341233589
 10
390.6591903045446
 20
-365.1339452736738
 10
389.7466577201994
 20
-366.1875901370568
 10
387.6714589476942
 20
-368.5837147353468
 10
385.7092216373458
 20
-371.077658945158
 10
383.6261751529892
 20
-373.62334595213
 10
383.5060986492645
 20
-371.585545922675
 10
383.4687324695151
 20
-369.8371017746849
 10
383.2681436523744
 20
-368.107544236098
 10
383.1903340779354
 20
-367.4367439707257
 10
382.877125711344
 20
-366.6854151103853
 10
382.4262241931865
 20
-366.1968380627168
 10
381.9980028878817
 20
-365.7329112966454
 10
381.1683434431907
 20
-365.2280852522363
 10
380.6626707577052
 20
-365.3504574559647
 10
380.0200375908535
 20
-365.5060440417601
 10
379.28238524076
 20
-366.1773001907659
 10
379.0297279951483
 20
-366.8049543225479
 10
378.7165521916068
 20
-367.582952377883
 10
378.8039353232234
 20
-368.5447041175776
 10
378.8138182300063
 20
-369.4259598254193
 10
378.8426691539244
 20
-372.0029074273825
 10
378.895372563009
 20
-374.5801480974169
 10
378.9875587546994
 20
-377.1555326696343
 10
379.0280184308467
 20
-378.2855054855881
 10
378.6928788030855
 20
-379.1372915701086
 10
377.8653033979899
 20
-379.9735450465214
 10
373.2026716988876
 20
-384.6850702693973
 10
367.8486761243767
 20
-388.4418773864109
 10
361.863330504013
 20
-391.8111833792263
 10
362.4166267521177
 20
-389.6940270271461
 10
363.1367112992048
 20
-387.7987883356782
 10
363.3579939790616
 20
-385.8470200684296
 10
363.5740014335315
 20
-383.9418821885574
 10
363.3470039263448
 20
-381.9730508465746
 10
363.1741751687405
 20
-380.0447605885947
 10
363.1148777278395
 20
-379.3829477442578
 10
362.7575626156431
 20
-378.6408342467821
 10
362.3018091926533
 20
-378.1559693947511
 10
361.9481737129681
 20
-377.7798327993351
 10
361.1586483132669
 20
-377.4983571928078
 10
360.6936795273759
 20
-377.6315403522694
 10
360.2390495319887
 20
-377.7617602678383
 10
359.6822364670224
 20
-378.4495259185333
 10
359.645065665889
 20
-378.9293434869851
 10
359.5714730153741
 20
-379.8800237659834
 10
359.851532126122
 20
-380.8536284812453
 10
359.9375801698261
 20
-381.8220230973584
 10
360.1078852856554
 20
-383.7390790790469
 10
360.2457086896065
 20
-385.6590657415054
 10
360.4336630162798
 20
-388.043467616817
 10
358.8278127693957
 20
-387.2244074674836
 10
358.7297652161033
 20
-385.9518733135865
 10
358.0880112535269
 20
-385.1158152158259
 10
357.5523642164153
 20
-384.4179875610989
 10
357.1980937559165
 20
-383.5722582168037
 10
356.621580003608
 20
-382.9168277439003
 10
355.9707409306357
 20
-382.1769285385471
 10
354.9973153125502
 20
-381.9635424152566
 10
354.2373409439169
 20
-382.6250296283597
 10
353.3644213946718
 20
-383.3847923366466
 10
353.8267851309429
 20
-384.2697602401586
 10
354.5272666798664
 20
-384.9183524579366
 10
356.3697531174075
 20
-386.6243017348261
 10
357.1653515388462
 20
-388.8091242496575
 10
357.8362169303437
 20
-391.1676710079682
 10
358.3493954148289
 20
-392.9718957799869
 10
357.8744460327071
 20
-394.2871853100023
 10
356.7613571942566
 20
-395.5458475748655
 10
355.9963843867445
 20
-396.4107565965987
 10
355.1101302399948
 20
-397.1730266651011
 10
354.3905667028666
 20
-398.0712803213846
 10
354.0862155047798
 20
-398.4511616755353
 10
354.0706991782245
 20
-399.0624691212524
 10
353.8183024375649
 20
-399.9325556790336
 10
355.6469821124629
 20
-399.4153556492729
 10
356.8907467501485
 20
-398.8599265169778
 10
357.895384118503
 20
-397.8125012094624
 10
358.5722411241622
 20
-397.1068909691912
 10
359.2462977015275
 20
-396.3938237745115
 10
359.9737415136042
 20
-395.7422357497871
 10
363.290083592663
 20
-392.7715023417131
 10
366.8025696230725
 20
-390.4843990681675
 10
371.6500784339041
 20
-391.2145619009225
 10
373.5261537294609
 20
-391.4971772166955
 10
375.5301858038256
 20
-391.0369300832554
 10
377.4610973929412
 20
-390.7961258133237
 10
378.229538172669
 20
-390.7002925521429
 10
378.9966275829356
 20
-390.3565236977392
 10
379.6946180532505
 20
-389.9921098254545
 10
380.5989447314096
 20
-389.519912027039
 10
381.3200387351499
 20
-388.8075612209996
 10
381.0812696601643
 20
-387.6584738537913
 10
380.8432658184902
 20
-386.5131312453432
 10
379.9114721489204
 20
-386.1148517285237
 10
378.8875248506483
 20
-386.0857402994861
 10
377.9217027209997
 20
-386.0582895895514
 10
376.9408364300543
 20
-386.1747678685988
 10
375.9839691583074
 20
-386.333122319551
 10
375.123863196688
 20
-386.4754882787438
 10
374.2873817783839
 20
-386.7607086439621
 10
372.9700570533569
 20
-387.1063987224061
 10
376.042322268866
 20
-384.1931392205533
 10
378.4715472785429
 20
-381.1222416563087
 10
381.5981277776336
 20
-379.1658494261919
 10
384.1345342956665
 20
-377.5787229732032
 10
387.5083665623824
 20
-377.6192314942327
 10
390.5672483355193
 20
-378.7995143302196
 10
391.8045329123452
 20
-379.2768896647558
 10
393.0565034561405
 20
-379.7467754817644
 10
394.3408173185708
 20
-380.0600652562443
 10
395.0960781755894
 20
-380.2443399505337
 10
395.943557787552
 20
-380.218452270432
 10
396.7219628819003
 20
-380.102234496333
 10
398.0226885566663
 20
-379.9080931768713
 10
398.7797403853219
 20
-379.0021871874651
 10
398.6324329727249
 20
-377.9647913207536
 10
398.4582040009445
 20
-376.7379106606404
 10
397.5713962812079
 20
-376.4209086905339
 10
396.5038306841234
 20
-376.4297984221612
 10
394.7267716947135
 20
-376.4446472046493
 10
392.9500139141601
 20
-376.4946967195192
 10
391.1730363325514
 20
-376.5241663427423
 10
390.5910519761092
 20
-376.5338375892625
 10
390.0087745515848
 20
-376.5256968093181
 10
389.2879736159703
 20
-376.1248773691677
 10
389.7648767852261
 20
-375.8399175088871
 10
390.2195393437469
 20
-375.5059501534906
 10
390.7222325037837
 20
-375.2778129370508
 10
394.7509091073116
 20
-373.4496217091491
 10
398.8102194656676
 20
-371.6871428567592
 10
402.8116325972442
 20
-369.8016079751051
 10
404.1582966931201
 20
-369.1670504620033
 10
405.4528353751739
 20
-368.3430407186042
 10
406.6053907146597
 20
-367.402422443638
 10
407.4086984548048
 20
-366.7468617183167
 10
408.2151892399197
 20
-365.6513081199064
 10
407.44221404583
 20
-364.6093534164156
 10
406.6403879277059
 20
-363.5285509111472
 10
405.4952162756235
 20
-364.1476083792932
 10
404.5708388565181
 20
-364.7070753384414
 10
403.5842088933678
 20
-365.3042503901725
 10
402.6429149335854
 20
-365.9779487731485
 10
401.6950025197293
 20
-366.6371891309882
 10
397.0967318267358
 20
-369.8352456774755
 10
392.3431431936697
 20
-372.7621491264017
 10
387.1783881892443
 20
-374.9723383111941
 10
386.3977525211885
 20
-375.3064033559331
 10
385.6051010619703
 20
-375.6124315546313
 10
384.5407429321785
 20
-375.5543715121985
 10
385.85855610406
 20
-373.9296020927995
 10
387.1623671344823
 20
-372.293207639681
 10
388.4964944293206
 20
-370.6819519149558
 10
395.8249384841729
 20
-361.8313285499262
 10
402.0898954727127
 20
-352.2261851387866
 10
408.3086698167681
 20
-342.5960983779714
 10
409.348564902979
 20
-340.9857544205825
 10
410.5813476285548
 20
-340.4170069723459
 10
412.3613291579677
 20
-340.1426301260126
 10
414.5247251400287
 20
-339.8092163437304
 10
416.6379901993605
 20
-339.117445429385
 10
418.7490491073331
 20
-338.4991369130348
 10
419.3196119495624
 20
-338.3320229828732
 10
419.864278970872
 20
-337.9367718362428
 10
420.3147734500744
 20
-337.52904901478
 10
421.1926425935089
 20
-336.7343786421934
 10
421.4219765046655
 20
-335.6942474734515
 10
420.955005086973
 20
-334.6135752206737
 10
420.524528785656
 20
-333.6172740109887
 10
419.6063383593428
 20
-333.033384712
 10
418.5858346109599
 20
-333.2610334816218
 10
416.800585996938
 20
-333.6592804352058
 10
415.0702388026803
 20
-334.303606884192
 10
413.2125453881454
 20
-334.8770434216403
 10
413.4019976184536
 20
-334.4171219193177
 10
413.5811680437291
 20
-333.7840297465464
 10
413.9019636172598
 20
-333.2334199559245
 10
417.8418324528648
 20
-326.4710694556907
 10
421.4730761809478
 20
-319.5576912063789
 10
424.3567195259202
 20
-312.2674925361152
 10
424.5674191918224
 20
-311.734825024434
 10
424.9702738269407
 20
-311.1972079185707
 10
425.4286078772056
 20
-310.8569233179533
 10
427.9088185914588
 20
-309.0154463371564
 10
430.5386324182909
 20
-307.3599698959642
 10
432.9041069803679
 20
-305.3855051343908
 10
434.232975331357
 20
-304.2762750257407
 10
435.5104265163463
 20
-303.7722956225425
 10
437.2009490152086
 20
-303.847581555312
 10
439.418603295413
 20
-303.9463780605165
 10
441.6598332742687
 20
-304.0161282629651
 10
443.8618653978265
 20
-303.800983731353
 10
445.5054807228007
 20
-303.6403824251774
 10
447.1740963829179
 20
-303.1775302421465
 10
448.6997762292231
 20
-302.53587396896
 10
450.0390729192659
 20
-301.9725971248317
 10
450.5557437984753
 20
-300.6548979239651
 10
450.1710593841963
 20
-299.7461589430986
 10
449.6057392043076
 20
-298.4106802788356
 10
448.4398004226859
 20
-298.2161156387065
 10
447.267902590138
 20
-298.5612195810008
 10
445.9217432226324
 20
-298.9575778736635
 10
444.6224666066737
 20
-299.549868457425
 10
443.353091075358
 20
-300.1614038449206
 10
441.6020500185368
 20
-301.0049514600996
 10
439.8844024409409
 20
-301.8943479477875
 10
437.5936439570614
 20
-301.6964618694055
 10
439.2748615445817
 20
-299.3804425455
 10
440.9337082688726
 20
-297.3162012629491
 10
442.3236731732068
 20
-295.0845204189955
 10
442.9895808298861
 20
-294.0153429475195
 10
443.2515185646407
 20
-292.6473011636208
 10
443.4711812292662
 20
-291.3756787770853
 10
443.5390509114732
 20
-290.9828047381725
 10
442.928166786347
 20
-290.1712341064103
 10
442.5112693058945
 20
-290.07898278834
 10
442.0756561724047
 20
-289.9825308278359
 10
441.3617830404692
 20
-290.4065677722519
 10
441.0215310029344
 20
-290.8137044575724
 10
440.6479750347462
 20
-291.260665838252
 10
440.4220195472699
 20
-291.9366762027621
 10
440.3741354797603
 20
-292.5324184772671
 10
440.1206804376015
 20
-295.6852774138406
 10
438.3567606668803
 20
-298.0440195507526
 10
436.2046966503913
 20
-300.0610443097521
 10
433.0355561538345
 20
-303.0313218341598
 10
429.6717451870718
 20
-305.7938792181285
 10
426.390856204569
 20
-308.6449105982738
 10
426.2313294812702
 20
-308.5474166179465
 10
426.071810898753
 20
-308.4499226376265
 10
425.9122841754543
 20
-308.3524286573029
 10
426.4341163091449
 20
-306.736386153947
 10
427.1187640412281
 20
-305.1524834497195
 10
427.4455837919486
 20
-303.4979187757763
 10
428.249550935423
 20
-299.4277567578993
 10
430.3457122162545
 20
-296.3261521717814
 10
433.480490480757
 20
-293.5995444719247
 10
435.7240812858799
 20
-291.6480367097265
 10
437.5023613923913
 20
-289.1011123041881
 10
439.2260575695364
 20
-286.6364749020777
 10
440.1652919120315
 20
-285.2935067203598
 10
440.6411123576181
 20
-283.5958610390862
 10
441.1680569011005
 20
-282.0058690314709
 10
441.5176545540126
 20
-280.9510193326405
 10
441.3847156179763
 20
-279.8011830136838
 10
440.3017476653113
 20
-279.1713797159482
 10
439.0944048770434
 20
-278.4693188556321
 10
438.191795903429
 20
-279.3105544893533
 10
437.5999937663655
 20
-280.1757240160496
 10
436.2992518099636
 20
-282.0773776420665
 10
435.1322710084096
 20
-284.0727479265206
 10
433.9584519517302
 20
-286.0581538963579
 10
433.1539800800238
 20
-287.4189015414286
 10
432.4299879585997
 20
-288.827223904349
 10
431.3691385048915
 20
-290.0834439352384
 10
432.0604616766104
 20
-286.2906220076566
 10
432.9089751677857
 20
-282.5182171561155
 10
433.4055546022682
 20
-278.7000611214153
 10
434.1152922182337
 20
-273.2429381470884
 10
434.7027797421506
 20
-267.7611974542815
 10
435.0638721765063
 20
-262.2716741758613
 10
435.2106667201151
 20
-260.040025894974
 10
435.8838278117328
 20
-258.4199130016677
 10
437.5976085188886
 20
-257.0196988555872
 10
440.9457322027447
 20
-254.2841362978288
 10
443.6188305564792
 20
-250.9716203855851
 10
445.3043057719733
 20
-246.9568482343193
 10
445.7405376047864
 20
-245.9176939591753
 10
446.0699949681803
 20
-244.7503061187344
 10
446.085177522782
 20
-243.6368753675824
 10
446.1093393576593
 20
-241.8641065691972
 10
444.7078226867598
 20
-241.0119297271585
 10
443.2106355701617
 20
-241.9698064555414
 10
441.9074432390516
 20
-242.8035851348377
 10
440.7926611183757
 20
-244.0055224452208
 10
439.785044224569
 20
-245.2047895797969
 10
438.9375076271026
 20
-246.2134973380244
 10
438.3295948865598
 20
-247.4332141117784
 10
437.6791058670424
 20
-248.5950336587375
 10
437.047951199831
 20
-249.7223688619615
 10
436.4976833219007
 20
-250.8949993646629
 10
435.7433016690484
 20
-251.9970655870111
 10
435.3125241591115
 20
-245.6986092895149
 10
435.059174947517
 20
-239.4532308771004
 10
437.3534583893816
 20
-233.427099949592
 10
437.6062133243504
 20
-232.7632030656068
 10
437.8982231000919
 20
-232.109726379922
 10
438.0920469292287
 20
-231.4287012949853
 10
438.9972690932991
 20
-228.2479683280008
 10
440.1668549444657
 20
-225.2723830149989
 10
442.9571235435287
 20
-223.1536799148316
 10
443.8346263518652
 20
-222.4873896415775
 10
444.3512158232661
 20
-221.3340690688492
 10
445.0007279491874
 20
-220.3816629445373
 10
446.3946655541149
 20
-218.3376107961703
 10
447.8038101359343
 20
-216.3022530007611
 10
449.130911937722
 20
-214.2151361266187
 10
449.6440090145261
 20
-213.4081568947822
 10
450.128466827573
 20
-212.5005576231397
 10
450.2848674914312
 20
-211.5807960262782
 10
450.375327837919
 20
-211.0488123401046
 10
449.9214305127643
 20
-210.2159779912008
 10
449.4530181769915
 20
-209.8740815161173
 10
449.1643705433962
 20
-209.6634144133477
 10
448.1617439477195
 20
-209.9467298360642
 10
447.8736336055699
 20
-210.3157839529194
 10
447.1778981312709
 20
-211.207069101597
 10
446.6527445593965
 20
-212.2504077376143
 10
446.1680669452835
 20
-213.2837006512136
 10
445.1139743388667
 20
-215.5309792295075
 10
444.20403052248
 20
-217.8488220881472
 10
443.0812134519838
 20
-220.0596299723939
 10
442.5464456190239
 20
-221.1125910102801
 10
441.6596460400142
 20
-221.9867642395548
 10
440.8175067796328
 20
-223.0926729100202
 10
440.8175067797856
 20
-219.6584849009778
 10
440.7754189477382
 20
-216.6008568078914
 10
440.8568104655096
 20
-213.5465013083403
 10
440.8712359275523
 20
-213.0049929096531
 10
441.367994459044
 20
-212.4567276636562
 10
441.6963446763402
 20
-211.9465287045587
 10
443.3782379486074
 20
-209.3330452823993
 10
445.1427438554965
 20
-206.769757909221
 10
446.7367655493144
 20
-204.1042223402528
 10
447.3064084834405
 20
-203.1516859634557
 10
447.6798993254197
 20
-201.9804231117769
 10
447.7839629151786
 20
-200.8751982667909
 10
447.9312133424355
 20
-199.3111427839804
 10
446.9743053668499
 20
-198.0977432553764
 10
445.5880607990657
 20
-197.5740468830936
 10
444.2053086258602
 20
-197.0516693171603
 10
442.8200002477242
 20
-197.4012018437206
 10
441.8608779798815
 20
-198.8090520413934
 10
441.1753754659367
 20
-199.815236157855
 10
440.604234628292
 20
-200.9812563472597
 10
440.3111828326983
 20
-202.1579409583683
 10
439.3247970927951
 20
-206.1184466707236
 10
438.7614062775065
 20
-210.0916519997691
 10
438.9044072173856
 20
-214.250629926607
 10
439.1342947012345
 20
-220.9366036298234
 10
438.3504190024869
 20
-227.5526154703657
 10
435.0506922550958
 20
-233.8667671913818
 10
434.8508605304341
 20
-233.3008201713683
 10
434.6085664977072
 20
-232.8868126677726
 10
434.565493631173
 20
-232.4530393505383
 10
433.2471024645893
 20
-219.1759483116903
 10
431.1560291719325
 20
-206.0361922300499
 10
427.7093206439567
 20
-193.1288716966055
 10
427.5450885498867
 20
-192.5138520552446
 10
427.6414265394924
 20
-191.7393545352634
 10
427.8597296938387
 20
-191.1256699818223
 10
430.7720937104095
 20
-182.9389923452673
 10
432.5709292864776
 20
-174.5650279258343
 10
432.2545460160763
 20
-165.8214232532819
 10
432.2290083895023
 20
-165.1159107023368
 10
432.3312647261082
 20
-164.3096315775556
 10
432.0252528089586
 20
-163.7364067002873
 10
431.6925147113361
 20
-163.1131160265168
 10
431.0124258161122
 20
-162.4654518576517
 10
430.3652500940807
 20
-162.3042644152156
 10
430.0176794954168
 20
-162.2176953615362
 10
429.1423584160984
 20
-163.0527277209603
 10
428.9900362829976
 20
-163.6055192406056
 10
428.5451508011065
 20
-165.2199173064228
 10
428.2703750564069
 20
-166.8922451621538
 10
428.0609616336842
 20
-168.5584674329493
 10
427.3855781089806
 20
-173.931968315942
 10
426.7739124687068
 20
-179.3134471632593
 10
426.1219906717342
 20
-184.6899601348241
 10
426.0700280734854
 20
-185.1185396344654
 10
425.8977610295915
 20
-185.5325471380429
 10
425.6716101633901
 20
-186.3503210440658
 10
422.0272190764881
 20
-176.6149902800107
 10
418.5188441404571
 20
-167.2429662422082
 10
414.9384721468341
 20
-157.6786244195837
 10
417.0287964884265
 20
-155.3461281571435
 10
418.3383304871895
 20
-152.4346596267942
 10
418.6923404429108
 20
-149.2200935784331
 10
418.8810192991841
 20
-147.5067850365858
 10
418.5881466008796
 20
-145.7051164694685
 10
418.2789597796145
 20
-143.9853441483401
 10
418.0880340682088
 20
-142.9233468447128
 10
417.333212813337
 20
-142.0208111381235
 10
416.0969865378829
 20
-141.9465835067622
 10
415.15011614389
 20
-141.8897120182019
 10
414.3362905160684
 20
-142.9691468723713
 10
414.2112644179942
 20
-144.4998577206288
 10
413.9798627486598
 20
-147.3330770744415
 10
413.8332473021801
 20
-150.1731835280725
 10
413.645097596549
 20
-153.0100011066124
 10
413.6231174907552
 20
-153.3414936649333
 10
413.5619639519864
 20
-153.670381173677
 10
413.4455915029976
 20
-154.5639457407569
 10
412.047135765406
 20
-152.3045536818372
 10
410.9577121743241
 20
-150.4248964430526
 10
409.7507438619796
 20
-148.6240256723268
 10
408.1661980362151
 20
-146.2597803680346
 10
406.957145684235
 20
-143.8909925085645
 10
406.4362253180989
 20
-140.9396178749657
 10
405.4597387670037
 20
-135.4070461522706
 10
403.5273618377505
 20
-130.0734025276461
 10
399.6544590582598
 20
-125.8047194504425
 10
397.948859835069
 20
-123.9248017066757
 10
395.7924893461604
 20
-122.4396629443054
 10
393.7600459499663
 20
-120.8805244924706
 10
393.2527369677409
 20
-120.4913463676157
 10
392.4356143241057
 20
-120.3841648591597
 10
391.7557208075741
 20
-120.3682577751661
 10
390.5019104474886
 20
-120.3389021227213
 10
389.8733771114385
 20
-120.9707731784838
 10
390.0977207244068
 20
-122.1893013984054
 10
390.3847320611749
 20
-123.7482444714424
 10
390.7299662559308
 20
-125.3468168611307
 10
391.3793074253626
 20
-126.7790893986366
 10
393.1925521813355
 20
-130.7786382916083
 10
395.7573293171554
 20
-134.2916616135044
 10
398.8472925879396
 20
-137.4134553340537
 10
406.0900142295141
 20
-144.7308279281406
 10
411.0704863984138
 20
-153.4664546365811
 10
414.851829825915
 20
-162.9502678642511
 10
415.5411992101981
 20
-164.6792555482662
 10
416.1550302976102
 20
-166.4385920598179
 10
416.7818947736741
 20
-168.191725297067
 10
416.8288426514591
 20
-168.3230035140523
 10
416.6995019400929
 20
-168.5173239307251
 10
416.6326172922636
 20
-168.750199081097
 10
414.11915963297
 20
-167.0685418914545
 10
411.6495807774518
 20
-165.3572848260264
 10
409.1170574115858
 20
-163.7449056734949
 10
407.6969390585691
 20
-162.8407743740145
 10
406.2084218726668
 20
-162.0248728472961
 10
404.6872845816179
 20
-161.3028833577255
 10
402.1066817695319
 20
-160.0780378924792
 10
399.7754147648338
 20
-158.5727914037016
 10
397.6172695859204
 20
-156.6508509539708
 10
395.0183093151609
 20
-154.3363783780596
 10
392.0044053511047
 20
-152.5814704506784
 10
388.3660954263723
 20
-152.3515748255895
 10
387.8353328571829
 20
-152.3180348122942
 10
387.2927987202274
 20
-152.3047327778831
 10
386.7678812310151
 20
-152.3740759412121
 10
384.9040008237571
 20
-152.6203508152539
 10
384.166283347382
 20
-154.1348940745638
 10
385.3438308811128
 20
-155.618486088707
 10
386.0902427103319
 20
-156.5588764219201
 10
387.1340860746895
 20
-157.3736870841112
 10
388.2092388786332
 20
-157.9216592621005
 10
391.3094920953081
 20
-159.5018334892948
 10
394.6088687888296
 20
-160.6067978294768
 10
398.0887265732053
 20
-160.8955675749366
 10
401.1580692485841
 20
-161.1502762971959
 10
403.4660536227057
 20
-162.8901563448126
 10
406.4366323560462
 20
-164.3526800206064
 10
402.9573851301029
 20
-165.3540936399058
 10
399.9860981488091
 20
-166.199448508175
 10
397.0219831946197
 20
-167.0692745608821
 10
396.2614064082882
 20
-167.2924621831189
 10
395.4390411023742
 20
-167.4690845442155
 10
394.8050453030046
 20
-167.9016041813111
 10
394.388204807994
 20
-168.1859941869998
 10
393.9135159308462
 20
-169.1422264778821
 10
394.0695909634487
 20
-169.3560033585773
 10
394.4199782719443
 20
-169.835983742646
 10
395.1636792214667
 20
-170.3209462840414
 10
395.7172441152179
 20
-170.2886925140265
 10
396.4587796173037
 20
-170.2454975358069
 10
397.2534092860442
 20
-169.828266283409
 10
397.8834486663764
 20
-169.3746945894418
 10
400.9514969578595
 20
-167.1659056187009
 10
404.6215315019617
 20
-166.7690100346717
 10
408.1325847550434
 20
-165.9169797268933
 10
408.6410171649222
 20
-165.7935980664552
 10
409.3506001058122
 20
-166.0832958607052
 10
409.8422869313763
 20
-166.3851234170215
 10
411.2794032328675
 20
-167.2674374263215
 10
412.6897038052957
 20
-168.2035457093261
 10
414.0447529044104
 20
-169.2073364365824
 10
417.0931574937458
 20
-171.4655887863892
 10
419.3602995749679
 20
-174.1692069239953
 10
420.6082322917755
 20
-177.9564931213217
 10
423.108086707558
 20
-185.5431464333742
 10
426.0623675992319
 20
-192.9800093949261
 10
427.6432907776834
 20
-200.8475847403988
 10
427.7256022034344
 20
-201.2572287859521
 10
427.7915262392016
 20
-201.6701779881523
 10
427.9627105593063
 20
-202.627582551374
 10
426.6164290801862
 20
-201.1081548240154
 10
425.6958778277221
 20
-199.9194055770113
 10
424.6217344805082
 20
-198.8910948206494
 10
422.8913954271338
 20
-197.2345926409935
 10
421.0825222698732
 20
-195.6571211527917
 10
419.2566348825785
 20
-194.1053094028921
 10
418.7271422750746
 20
-193.6552545257991
 10
418.051164473698
 20
-193.1971402765776
 10
417.3975900986443
 20
-193.1194935176763
 10
416.5939892904535
 20
-193.0240510138665
 10
415.5786875004524
 20
-193.0820622115261
 10
414.9528650441207
 20
-193.5097462253489
 10
414.0687356409362
 20
-194.1139874740529
 10
413.9858299381849
 20
-195.3019714877009
 10
414.6135573369575
 20
-196.152243387206
 10
415.6006350429161
 20
-197.4892036734291
 10
416.6776927893297
 20
-198.8106801962513
 10
417.9317555135385
 20
-199.8883729236086
 10
420.152617260952
 20
-201.7969299311535
 10
422.5662933807689
 20
-203.4791244122698
 10
424.837815201623
 20
-205.3314449121353
 10
426.141837892199
 20
-206.3947610221585
 10
427.3662763182801
 20
-207.5660564370301
 10
428.5421305698001
 20
-208.7711198070065
 10
429.0107871289656
 20
-209.2514583853972
 10
429.4550132075819
 20
-209.9192465622164
 10
429.5645392605911
 20
-210.5607400198778
 10
430.5148369226808
 20
-216.1268191927193
 10
431.3864376652928
 20
-221.7063469339837
 10
432.2814512909536
 20
-227.281853129969
 10
432.1034694195696
 20
-227.342339124767
 10
431.9254875481893
 20
-227.402808838001
 10
431.7475056768017
 20
-227.4632785512349
 10
431.2912393846891
 20
-226.7384886334194
 10
430.8556506735658
 20
-225.9996640110294
 10
430.3747178182966
 20
-225.2916115367289
 10
429.0783556016613
 20
-223.3830545292194
 10
427.8222576825101
 20
-221.4421949069956
 10
426.4258045767601
 20
-219.6089075506225
 10
425.8531576949172
 20
-218.8571228065912
 10
425.036140881446
 20
-218.2056650342774
 10
424.1959554083151
 20
-217.7642882285654
 10
423.0321088071505
 20
-217.1528830934349
 10
421.9414966620825
 20
-217.8383530441724
 10
422.0426214301842
 20
-219.1390054519152
 10
422.1227267045469
 20
-220.1692211507298
 10
422.4761261015847
 20
-221.2281575211109
 10
422.9249272985035
 20
-222.1711854670066
 10
425.0037731401135
 20
-226.5393163116269
 10
427.7328719185898
 20
-230.4750577716331
 10
431.1430690490524
 20
-233.9115414807611
 10
432.5236964786563
 20
-235.3028007690682
 10
433.1355249342196
 20
-236.8433619610614
 10
433.2672101901044
 20
-238.8517574934458
 10
433.9258155667048
 20
-248.8969589042217
 10
433.7353457384743
 20
-258.9132442646915
 10
432.723463075592
 20
-268.9293993726369
 10
432.5562026113657
 20
-268.8766796818709
 10
432.3161065892018
 20
-268.864663890703
 10
432.2900642342465
 20
-268.7837771014219
 10
430.6086838314659
 20
-263.5593176170878
 10
428.2446501877494
 20
-258.5544638118336
 10
427.4054009045321
 20
-253.055985675448
 10
427.0703019808025
 20
-250.8605475836212
 10
426.3180450716573
 20
-248.7425445903718
 10
424.8161607251677
 20
-247.0031204264615
 10
423.7141514883006
 20
-245.7268089506324
 10
422.6718630128853
 20
-245.3622648257933
 10
421.8739770321663
 20
-246.0165555894437
 10
420.8687128237689
 20
-246.8409235271702
 10
420.9662800710576
 20
-247.8981177706382
 10
421.5200484842535
 20
-248.9107331032947
 10
422.583209919314
 20
-250.8547187849945
 10
423.7315727570167
 20
-252.7520415162035
 10
424.7989104121734
 20
-254.6938454688934
 10
425.6006958263788
 20
-256.1525104149041
 10
426.3310866006905
 20
-257.6504464832469
 10
427.4013060919315
 20
-259.7292760435357
 10
425.0953080680738
 20
-258.8880404096708
 10
423.438602369024
 20
-258.2390248712964
 10
421.7509535654972
 20
-257.6840516225475
 10
420.6630034555092
 20
-257.3263457528374
 10
419.5414156428997
 20
-257.000486614168
 10
418.4111090549777
 20
-256.8753465451955
 10
417.9322602393368
 20
-256.8223337863365
 10
417.3923718558326
 20
-257.3207774592229
 10
416.8802353910869
 20
-257.5685502368324
 10
417.2164984464143
 20
-258.1245655053481
 10
417.4385219371288
 20
-258.8365255539993
 10
417.9224261770905
 20
-259.1910402379508
 10
418.3718704956518
 20
-259.5203510672745
 10
419.1020007650695
 20
-259.4619328306089
 10
419.7062745769326
 20
-259.585412180455
 10
421.0919574309155
 20
-259.8686461954749
 10
422.4979189676851
 20
-260.0813484932733
 10
423.8565744323314
 20
-260.4620764886113
 10
426.7106830273915
 20
-261.2619569605104
 10
428.6634851736271
 20
-262.9817455632692
 10
429.4096853424708
 20
-265.9820788473135
 10
429.8157067408829
 20
-267.614663415512
 10
430.3300982015826
 20
-269.2464339057169
 10
431.023350737898
 20
-270.7752723746326
 10
432.0561389230643
 20
-273.0529323436767
 10
432.2629961407183
 20
-275.3257729709712
 10
431.7568919937912
 20
-277.7572936804263
 10
431.0360422133272
 20
-281.2205768368603
 10
430.4378821270257
 20
-284.7094220422568
 10
429.6826619737076
 20
-288.7467604355024
 97
        0
 97
        0
 75
     2
 76
     1
 98
        0
  0
ENDBLK
  5
48
330
45
100
AcDbEntity
  8
0
100
AcDbBlockEnd
  0
BLOCK
  5
4D
330
4B
100
AcDbEntity
  8
0
100
AcDbBlockBegin
  2
block 4
 70
     0
 10
0.0
 20
0.0
 30
0.0
  3
block 4
  1

  0
SPLINE
  5
4F
330
4B
100
AcDbEntity
  8
Layer 1
370
     0
100
AcDbSpline
210
0.0
220
0.0
230
1.0
 70
    11
 71
     3
 72
   704
 73
   700
 74
     0
 42
0.0000000001
 43
0.0000000001
 12
1.0
 22
0.0
 32
0.0
 13
1.0
 23
0.0
 33
0.0
 40
0.0
 40
0.0
 40
0.0
 40
0.0
 40
1.0
 40
1.0
 40
1.0
 40
2.0
 40
2.0
 40
2.0
 40
3.0
 40
3.0
 40
3.0
 40
4.0
 40
4.0
 40
4.0
 40
5.0
 40
5.0
 40
5.0
 40
6.0
 40
6.0
 40
6.0
 40
7.0
 40
7.0
 40
7.0
 40
8.0
 40
8.0
 40
8.0
 40
9.0
 40
9.0
 40
9.0
 40
10.0
 40
10.0
 40
10.0
 40
11.0
 40
11.0
 40
11.0
 40
12.0
 40
12.0
 40
12.0
 40
13.0
 40
13.0
 40
13.0
 40
14.0
 40
14.0
 40
14.0
 40
15.0
 40
15.0
 40
15.0
 40
16.0
 40
16.0
 40
16.0
 40
17.0
 40
17.0
 40
17.0
 40
18.0
 40
18.0
 40
18.0
 40
19.0
 40
19.0
 40
19.0
 40
20.0
 40
20.0
 40
20.0
 40
21.0
 40
21.0
 40
21.0
 40
22.0
 40
22.0
 40
22.0
 40
23.0
 40
23.0
 40
23.0
 40
24.0
 40
24.0
 40
24.0
 40
25.0
 40
25.0
 40
25.0
 40
26.0
 40
26.0
 40
26.0
 40
27.0
 40
27.0
 40
27.0
 40
28.0
 40
28.0
 40
28.0
 40
29.0
 40
29.0
 40
29.0
 40
30.0
 40
30.0
 40
30.0
 40
31.0
 40
31.0
 40
31.0
 40
32.0
 40
32.0
 40
32.0
 40
33.0
 40
33.0
 40
33.0
 40
34.0
 40
34.0
 40
34.0
 40
35.0
 40
35.0
 40
35.0
 40
36.0
 40
36.0
 40
36.0
 40
37.0
 40
37.0
 40
37.0
 40
38.0
 40
38.0
 40
38.0
 40
39.0
 40
39.0
 40
39.0
 40
40.0
 40
40.0
 40
40.0
 40
41.0
 40
41.0
 40
41.0
 40
42.0
 40
42.0
 40
42.0
 40
43.0
 40
43.0
 40
43.0
 40
44.0
 40
44.0
 40
44.0
 40
45.0
 40
45.0
 40
45.0
 40
46.0
 40
46.0
 40
46.0
 40
47.0
 40
47.0
 40
47.0
 40
48.0
 40
48.0
 40
48.0
 40
49.0
 40
49.0
 40
49.0
 40
50.0
 40
50.0
 40
50.0
 40
51.0
 40
51.0
 40
51.0
 40
52.0
 40
52.0
 40
52.0
 40
53.0
 40
53.0
 40
53.0
 40
54.0
 40
54.0
 40
54.0
 40
55.0
 40
55.0
 40
55.0
 40
56.0
 40
56.0
 40
56.0
 40
57.0
 40
57.0
 40
57.0
 40
58.0
 40
58.0
 40
58.0
 40
59.0
 40
59.0
 40
59.0
 40
60.0
 40
60.0
 40
60.0
 40
61.0
 40
61.0
 40
61.0
 40
62.0
 40
62.0
 40
62.0
 40
63.0
 40
63.0
 40
63.0
 40
64.0
 40
64.0
 40
64.0
 40
65.0
 40
65.0
 40
65.0
 40
66.0
 40
66.0
 40
66.0
 40
67.0
 40
67.0
 40
67.0
 40
68.0
 40
68.0
 40
68.0
 40
69.0
 40
69.0
 40
69.0
 40
70.0
 40
70.0
 40
70.0
 40
71.0
 40
71.0
 40
71.0
 40
72.0
 40
72.0
 40
72.0
 40
73.0
 40
73.0
 40
73.0
 40
74.0
 40
74.0
 40
74.0
 40
75.0
 40
75.0
 40
75.0
 40
76.0
 40
76.0
 40
76.0
 40
77.0
 40
77.0
 40
77.0
 40
78.0
 40
78.0
 40
78.0
 40
79.0
 40
79.0
 40
79.0
 40
80.0
 40
80.0
 40
80.0
 40
81.0
 40
81.0
 40
81.0
 40
82.0
 40
82.0
 40
82.0
 40
83.0
 40
83.0
 40
83.0
 40
84.0
 40
84.0
 40
84.0
 40
85.0
 40
85.0
 40
85.0
 40
86.0
 40
86.0
 40
86.0
 40
87.0
 40
87.0
 40
87.0
 40
88.0
 40
88.0
 40
88.0
 40
89.0
 40
89.0
 40
89.0
 40
90.0
 40
90.0
 40
90.0
 40
91.0
 40
91.0
 40
91.0
 40
92.0
 40
92.0
 40
92.0
 40
93.0
 40
93.0
 40
93.0
 40
94.0
 40
94.0
 40
94.0
 40
95.0
 40
95.0
 40
95.0
 40
96.0
 40
96.0
 40
96.0
 40
97.0
 40
97.0
 40
97.0
 40
98.0
 40
98.0
 40
98.0
 40
99.0
 40
99.0
 40
99.0
 40
100.0
 40
100.0
 40
100.0
 40
101.0
 40
101.0
 40
101.0
 40
102.0
 40
102.0
 40
102.0
 40
103.0
 40
103.0
 40
103.0
 40
104.0
 40
104.0
 40
104.0
 40
105.0
 40
105.0
 40
105.0
 40
106.0
 40
106.0
 40
106.0
 40
107.0
 40
107.0
 40
107.0
 40
108.0
 40
108.0
 40
108.0
 40
109.0
 40
109.0
 40
109.0
 40
110.0
 40
110.0
 40
110.0
 40
111.0
 40
111.0
 40
111.0
 40
112.0
 40
112.0
 40
112.0
 40
113.0
 40
113.0
 40
113.0
 40
114.0
 40
114.0
 40
114.0
 40
115.0
 40
115.0
 40
115.0
 40
116.0
 40
116.0
 40
116.0
 40
117.0
 40
117.0
 40
117.0
 40
118.0
 40
118.0
 40
118.0
 40
119.0
 40
119.0
 40
119.0
 40
120.0
 40
120.0
 40
120.0
 40
121.0
 40
121.0
 40
121.0
 40
122.0
 40
122.0
 40
122.0
 40
123.0
 40
123.0
 40
123.0
 40
124.0
 40
124.0
 40
124.0
 40
125.0
 40
125.0
 40
125.0
 40
126.0
 40
126.0
 40
126.0
 40
127.0
 40
127.0
 40
127.0
 40
128.0
 40
128.0
 40
128.0
 40
129.0
 40
129.0
 40
129.0
 40
130.0
 40
130.0
 40
130.0
 40
131.0
 40
131.0
 40
131.0
 40
132.0
 40
132.0
 40
132.0
 40
133.0
 40
133.0
 40
133.0
 40
134.0
 40
134.0
 40
134.0
 40
135.0
 40
135.0
 40
135.0
 40
136.0
 40
136.0
 40
136.0
 40
137.0
 40
137.0
 40
137.0
 40
138.0
 40
138.0
 40
138.0
 40
139.0
 40
139.0
 40
139.0
 40
140.0
 40
140.0
 40
140.0
 40
141.0
 40
141.0
 40
141.0
 40
142.0
 40
142.0
 40
142.0
 40
143.0
 40
143.0
 40
143.0
 40
144.0
 40
144.0
 40
144.0
 40
145.0
 40
145.0
 40
145.0
 40
146.0
 40
146.0
 40
146.0
 40
147.0
 40
147.0
 40
147.0
 40
148.0
 40
148.0
 40
148.0
 40
149.0
 40
149.0
 40
149.0
 40
150.0
 40
150.0
 40
150.0
 40
151.0
 40
151.0
 40
151.0
 40
152.0
 40
152.0
 40
152.0
 40
153.0
 40
153.0
 40
153.0
 40
154.0
 40
154.0
 40
154.0
 40
155.0
 40
155.0
 40
155.0
 40
156.0
 40
156.0
 40
156.0
 40
157.0
 40
157.0
 40
157.0
 40
158.0
 40
158.0
 40
158.0
 40
159.0
 40
159.0
 40
159.0
 40
160.0
 40
160.0
 40
160.0
 40
161.0
 40
161.0
 40
161.0
 40
162.0
 40
162.0
 40
162.0
 40
163.0
 40
163.0
 40
163.0
 40
164.0
 40
164.0
 40
164.0
 40
165.0
 40
165.0
 40
165.0
 40
166.0
 40
166.0
 40
166.0
 40
167.0
 40
167.0
 40
167.0
 40
168.0
 40
168.0
 40
168.0
 40
169.0
 40
169.0
 40
169.0
 40
170.0
 40
170.0
 40
170.0
 40
171.0
 40
171.0
 40
171.0
 40
172.0
 40
172.0
 40
172.0
 40
173.0
 40
173.0
 40
173.0
 40
174.0
 40
174.0
 40
174.0
 40
175.0
 40
175.0
 40
175.0
 40
176.0
 40
176.0
 40
176.0
 40
177.0
 40
177.0
 40
177.0
 40
178.0
 40
178.0
 40
178.0
 40
179.0
 40
179.0
 40
179.0
 40
180.0
 40
180.0
 40
180.0
 40
181.0
 40
181.0
 40
181.0
 40
182.0
 40
182.0
 40
182.0
 40
183.0
 40
183.0
 40
183.0
 40
184.0
 40
184.0
 40
184.0
 40
185.0
 40
185.0
 40
185.0
 40
186.0
 40
186.0
 40
186.0
 40
187.0
 40
187.0
 40
187.0
 40
188.0
 40
188.0
 40
188.0
 40
189.0
 40
189.0
 40
189.0
 40
190.0
 40
190.0
 40
190.0
 40
191.0
 40
191.0
 40
191.0
 40
192.0
 40
192.0
 40
192.0
 40
193.0
 40
193.0
 40
193.0
 40
194.0
 40
194.0
 40
194.0
 40
195.0
 40
195.0
 40
195.0
 40
196.0
 40
196.0
 40
196.0
 40
197.0
 40
197.0
 40
197.0
 40
198.0
 40
198.0
 40
198.0
 40
199.0
 40
199.0
 40
199.0
 40
200.0
 40
200.0
 40
200.0
 40
201.0
 40
201.0
 40
201.0
 40
202.0
 40
202.0
 40
202.0
 40
203.0
 40
203.0
 40
203.0
 40
204.0
 40
204.0
 40
204.0
 40
205.0
 40
205.0
 40
205.0
 40
206.0
 40
206.0
 40
206.0
 40
207.0
 40
207.0
 40
207.0
 40
208.0
 40
208.0
 40
208.0
 40
209.0
 40
209.0
 40
209.0
 40
210.0
 40
210.0
 40
210.0
 40
211.0
 40
211.0
 40
211.0
 40
212.0
 40
212.0
 40
212.0
 40
213.0
 40
213.0
 40
213.0
 40
214.0
 40
214.0
 40
214.0
 40
215.0
 40
215.0
 40
215.0
 40
216.0
 40
216.0
 40
216.0
 40
217.0
 40
217.0
 40
217.0
 40
218.0
 40
218.0
 40
218.0
 40
219.0
 40
219.0
 40
219.0
 40
220.0
 40
220.0
 40
220.0
 40
221.0
 40
221.0
 40
221.0
 40
222.0
 40
222.0
 40
222.0
 40
223.0
 40
223.0
 40
223.0
 40
224.0
 40
224.0
 40
224.0
 40
225.0
 40
225.0
 40
225.0
 40
226.0
 40
226.0
 40
226.0
 40
227.0
 40
227.0
 40
227.0
 40
228.0
 40
228.0
 40
228.0
 40
229.0
 40
229.0
 40
229.0
 40
230.0
 40
230.0
 40
230.0
 40
231.0
 40
231.0
 40
231.0
 40
232.0
 40
232.0
 40
232.0
 40
233.0
 40
233.0
 40
233.0
 40
233.0
 10
105.4096071329641
 20
-288.7467604342601
 30
0.0
 10
106.4680876196553
 20
-287.1863683024112
 30
0.0
 10
107.0231015722275
 20
-286.1628768878109
 30
0.0
 10
107.7757085350049
 20
-285.3146727464391
 30
0.0
 10
108.5774125414764
 20
-284.4110461753717
 30
0.0
 10
109.6952148914461
 20
-284.6903726159708
 30
0.0
 10
110.016767557483
 20
-285.8581512138662
 30
0.0
 10
110.1952785795575
 20
-286.5064503635349
 30
0.0
 10
110.225904193614
 20
-287.3183791895844
 30
0.0
 10
109.9943071456864
 20
-287.932584752949
 30
0.0
 10
109.4037017033052
 20
-289.4989033725797
 30
0.0
 10
108.6948188694778
 20
-291.0311609690307
 30
0.0
 10
107.9044793917701
 20
-292.5080938251467
 30
0.0
 10
107.3439215680755
 20
-293.5556493851891
 30
0.0
 10
106.9038228648451
 20
-294.4883873852414
 30
0.0
 10
107.255659232188
 20
-295.7598143930718
 30
0.0
 10
109.7972270046148
 20
-304.9446981819274
 30
0.0
 10
113.0611098977406
 20
-313.849278636595
 30
0.0
 10
117.3781736298324
 20
-322.3552213801613
 30
0.0
 10
117.4912327813518
 20
-322.5779531187582
 30
0.0
 10
117.7018428986494
 20
-322.7512214785693
 30
0.0
 10
118.1127162019675
 20
-323.2397985262178
 30
0.0
 10
118.1127162019675
 20
-322.2333050600901
 30
0.0
 10
118.1173808688618
 20
-321.5092966571665
 30
0.0
 10
118.1118858424143
 20
-320.7853859436073
 30
0.0
 10
118.0915827372964
 20
-318.1121166336434
 30
0.0
 10
118.0861935409885
 20
-315.4413221207687
 30
0.0
 10
119.3336378111744
 20
-312.9668180933186
 30
0.0
 10
120.246650701486
 20
-311.1557225030701
 30
0.0
 10
121.4677676894116
 20
-310.2876874218127
 30
0.0
 10
122.7597664480945
 20
-310.5254307585838
 30
0.0
 10
124.1978515024357
 20
-310.7900386690853
 30
0.0
 10
125.5571663702749
 20
-312.1621508429562
 30
0.0
 10
125.6813214048252
 20
-313.9391202837851
 30
0.0
 10
125.7974089264771
 20
-315.6004580866393
 30
0.0
 10
125.7287170255149
 20
-317.3278013330764
 30
0.0
 10
125.3984455841837
 20
-318.9565434531305
 30
0.0
 10
124.6401319346814
 20
-322.6961246800729
 30
0.0
 10
123.6610159114216
 20
-326.3905408600222
 30
0.0
 10
122.802953285568
 20
-330.1105842151555
 30
0.0
 10
122.6685408683179
 20
-330.6933012417921
 30
0.0
 10
122.4472663293254
 20
-331.4541059699495
 30
0.0
 10
122.6927434070176
 20
-331.8951082997501
 30
0.0
 10
124.7001539050261
 20
-335.5013109884876
 30
0.0
 10
126.8088275644577
 20
-339.0511794801841
 30
0.0
 10
129.2971871993313
 20
-342.4425632684106
 30
0.0
 10
129.5247952650989
 20
-340.4632140387821
 30
0.0
 10
129.4634137845069
 20
-338.3936975307661
 30
0.0
 10
130.0464808646811
 20
-336.5252582867597
 30
0.0
 10
130.9637025382117
 20
-333.5860459783871
 30
0.0
 10
132.1944989134599
 20
-330.723357001254
 30
0.0
 10
133.5498899253789
 20
-327.9541893038368
 30
0.0
 10
134.0018009002706
 20
-327.030862045367
 30
0.0
 10
135.1589394988077
 20
-326.3099797019349
 30
0.0
 10
136.1569665538154
 20
-325.8533470746916
 30
0.0
 10
136.7048736055194
 20
-325.6026761794092
 30
0.0
 10
137.9141050547614
 20
-325.863995214826
 30
0.0
 10
138.2392966494263
 20
-326.3159387528358
 30
0.0
 10
138.581331517742
 20
-326.791360300138
 30
0.0
 10
138.482201240663
 20
-327.9395033368601
 30
0.0
 10
138.1182025481239
 20
-328.4924576721114
 30
0.0
 10
137.3977760883663
 20
-329.5868064351343
 30
0.0
 10
136.4663161907592
 20
-330.6048272456246
 30
0.0
 10
135.437549550772
 20
-331.4219987339438
 30
0.0
 10
132.2444018943679
 20
-333.9583726887849
 30
0.0
 10
131.6402339126407
 20
-337.4108448895258
 30
0.0
 10
131.9230771701641
 20
-341.2721470578235
 30
0.0
 10
132.2715513953981
 20
-340.6075012220772
 30
0.0
 10
132.6207013053645
 20
-339.9432461437646
 30
0.0
 10
132.9682556224689
 20
-339.2781118612238
 30
0.0
 10
133.2144328072363
 20
-338.8070537719614
 30
0.0
 10
133.4074669806851
 20
-338.2983527163506
 30
0.0
 10
133.7133486453795
 20
-337.8701476925853
 30
0.0
 10
134.5169901574736
 20
-336.74512447083
 30
0.0
 10
135.5571294670062
 20
-336.3730582653898
 30
0.0
 10
136.1174349265284
 20
-337.0184918605246
 30
0.0
 10
136.8748286678992
 20
-337.8908903998199
 30
0.0
 10
136.3395398250714
 20
-338.6265563995839
 30
0.0
 10
135.7566518420554
 20
-339.3550910761405
 30
0.0
 10
132.6876429386421
 20
-343.190928884851
 30
0.0
 10
132.5039788028789
 20
-348.0645207545767
 30
0.0
 10
135.2673991096735
 20
-352.06310903544
 30
0.0
 10
136.5811093284019
 20
-353.9639811466386
 30
0.0
 10
137.8986375729137
 20
-355.8623784607462
 30
0.0
 10
139.2371690296177
 20
-357.7457316135642
 30
0.0
 10
139.5751172264172
 20
-358.2212834133425
 30
0.0
 10
140.0003997101921
 20
-358.6347373438948
 30
0.0
 10
140.6658759054908
 20
-359.3984076265788
 30
0.0
 10
140.4827979058828
 20
-357.7208533901321
 30
0.0
 10
140.1941014275963
 20
-356.4895115826293
 30
0.0
 10
140.2565656319184
 20
-355.2762097434261
 30
0.0
 10
140.3285382671847
 20
-353.8780470738111
 30
0.0
 10
140.5556416045993
 20
-352.4440649725493
 30
0.0
 10
140.9977917843689
 20
-351.1199508370828
 30
0.0
 10
141.5340412392261
 20
-349.5140029008035
 30
0.0
 10
142.8224906178648
 20
-348.6956917032967
 30
0.0
 10
143.9418478567968
 20
-348.8934149659817
 30
0.0
 10
145.1219027508077
 20
-349.1017863687994
 30
0.0
 10
145.9407512397902
 20
-350.2256698813635
 30
0.0
 10
145.9900355214231
 20
-351.9564322553706
 30
0.0
 10
146.0201075624473
 20
-353.0124216634085
 30
0.0
 10
145.9008939813057
 20
-354.0842367476089
 30
0.0
 10
145.7385993928292
 20
-355.1318574338911
 30
0.0
 10
145.3444879553654
 20
-357.6755580906593
 30
0.0
 10
144.8981127108209
 20
-360.211508724944
 30
0.0
 10
144.4485137174279
 20
-362.7462545237959
 30
0.0
 10
144.2186343740595
 20
-364.0422341238609
 30
0.0
 10
144.4330787986983
 20
-365.1339452741831
 30
0.0
 10
145.3456113829961
 20
-366.1875901376079
 30
0.0
 10
147.4208101553941
 20
-368.5837147359907
 30
0.0
 10
149.3830474656324
 20
-371.077658945891
 30
0.0
 10
151.4660939498744
 20
-373.6233459529576
 30
0.0
 10
151.5861704536874
 20
-371.5855459235081
 30
0.0
 10
151.6235366335159
 20
-369.8371017755198
 30
0.0
 10
151.8241254507338
 20
-368.1075442369402
 30
0.0
 10
151.9019350252047
 20
-367.4367439715716
 30
0.0
 10
152.215143391828
 20
-366.6854151112457
 30
0.0
 10
152.6660449100091
 20
-366.1968380635972
 30
0.0
 10
153.0942662153329
 20
-365.7329112975458
 30
0.0
 10
153.9239256600495
 20
-365.228085253173
 30
0.0
 10
154.4295983455286
 20
-365.3504574569233
 30
0.0
 10
155.0722315123739
 20
-365.5060440427478
 30
0.0
 10
155.8098838624373
 20
-366.1773001917882
 30
0.0
 10
156.0625411080191
 20
-366.8049543235793
 30
0.0
 10
156.3757169115252
 20
-367.5829523789307
 30
0.0
 10
156.2883337798667
 20
-368.5447041186198
 30
0.0
 10
156.2784508730456
 20
-369.4259598264634
 30
0.0
 10
156.249599949012
 20
-372.002907428423
 30
0.0
 10
156.1968965398119
 20
-374.5801480984574
 30
0.0
 10
156.1047103480032
 20
-377.1555326706675
 30
0.0
 10
156.064250671805
 20
-378.2855054866195
 30
0.0
 10
156.3993902995289
 20
-379.1372915711563
 30
0.0
 10
157.2269657045863
 20
-379.9735450476055
 30
0.0
 10
161.8895974034785
 20
-384.6850702706924
 30
0.0
 10
167.2435929778185
 20
-388.4418773879461
 30
0.0
 10
173.2289385980312
 20
-391.811183381029
 30
0.0
 10
172.6756423500228
 20
-389.6940270289251
 30
0.0
 10
171.9555578030222
 20
-387.7987883374244
 30
0.0
 10
171.7342751232509
 20
-385.8470200701668
 30
0.0
 10
171.5182676688664
 20
-383.9418821902855
 30
0.0
 10
171.7452651761432
 20
-381.9730508483099
 30
0.0
 10
171.918093933833
 20
-380.0447605903391
 30
0.0
 10
171.9773913747649
 20
-379.382947746004
 30
0.0
 10
172.334706486994
 20
-378.6408342485447
 30
0.0
 10
172.7904599100066
 20
-378.1559693965355
 30
0.0
 10
173.1440953897081
 20
-377.779832801134
 30
0.0
 10
173.9336207894221
 20
-377.4983571946432
 30
0.0
 10
174.3985895753067
 20
-377.6315403541248
 30
0.0
 10
174.8532195706894
 20
-377.7617602697155
 30
0.0
 10
175.4100326356238
 20
-378.4495259204341
 30
0.0
 10
175.4472034367354
 20
-378.9293434888896
 30
0.0
 10
175.5207960872085
 20
-379.8800237678897
 30
0.0
 10
175.240736976416
 20
-380.8536284831389
 30
0.0
 10
175.1546889326692
 20
-381.8220230992483
 30
0.0
 10
174.9843838167535
 20
-383.7390790809295
 30
0.0
 10
174.8465604127141
 20
-385.6590657433808
 30
0.0
 10
174.6586060859336
 20
-388.0434676186851
 30
0.0
 10
176.2644563328549
 20
-387.2244074694245
 30
0.0
 10
176.3625038862056
 20
-385.951873315531
 30
0.0
 10
177.0042578488183
 20
-385.1158152177977
 30
0.0
 10
177.5399048859617
 20
-384.4179875630962
 30
0.0
 10
177.8941753464997
 20
-383.5722582188173
 30
0.0
 10
178.4706890988382
 20
-382.9168277459394
 30
0.0
 10
179.1215281718423
 20
-382.1769285406172
 30
0.0
 10
180.0949537899369
 20
-381.9635424173684
 30
0.0
 10
180.8549281585401
 20
-382.6250296305061
 30
0.0
 10
181.7278477077516
 20
-383.384792338833
 30
0.0
 10
181.2654839714423
 20
-384.2697602423214
 30
0.0
 10
180.5650024224879
 20
-384.9183524600703
 30
0.0
 10
178.7225159848695
 20
-386.6243017368761
 30
0.0
 10
177.9269175633353
 20
-388.809124251673
 30
0.0
 10
177.2560521717296
 20
-391.1676710099528
 30
0.0
 10
176.7428736871634
 20
-392.9718957819478
 30
0.0
 10
177.217823069228
 20
-394.2871853119868
 30
0.0
 10
178.3309119076212
 20
-395.5458475768992
 30
0.0
 10
179.095884715096
 20
-396.4107565986651
 30
0.0
 10
179.9821388618102
 20
-397.1730266672093
 30
0.0
 10
180.7017023988965
 20
-398.0712803235256
 30
0.0
 10
181.006053596966
 20
-398.451161677689
 30
0.0
 10
181.021569923495
 20
-399.0624691234043
 30
0.0
 10
181.2739666641173
 20
-399.9325556812
 30
0.0
 10
179.445286989243
 20
-399.4153556513575
 30
0.0
 10
178.20152235158
 20
-398.8599265190041
 30
0.0
 10
177.1968849832738
 20
-397.8125012114451
 30
0.0
 10
176.5200279776464
 20
-397.106890971143
 30
0.0
 10
175.845971400312
 20
-396.3938237764323
 30
0.0
 10
175.1185275882644
 20
-395.7422357516753
 30
0.0
 10
171.8021855093393
 20
-392.7715023434521
 30
0.0
 10
168.2896994790326
 20
-390.48439906975
 30
0.0
 10
163.4421906681682
 20
-391.2145619022867
 30
0.0
 10
161.5661153725987
 20
-391.4971772179761
 30
0.0
 10
159.5620832982549
 20
-391.0369300844468
 30
0.0
 10
157.6311717091503
 20
-390.796125814426
 30
0.0
 10
156.8627309294279
 20
-390.7002925532124
 30
0.0
 10
156.095641519174
 20
-390.3565236987743
 30
0.0
 10
155.3976510488756
 20
-389.9921098264567
 30
0.0
 10
154.4933243707374
 20
-389.5199120280031
 30
0.0
 10
153.7722303670289
 20
-388.8075612219291
 30
0.0
 10
154.0109994420691
 20
-387.6584738547317
 30
0.0
 10
154.2490032837923
 20
-386.5131312462963
 30
0.0
 10
155.1807969533802
 20
-386.1148517295169
 30
0.0
 10
156.204744251655
 20
-386.0857403005266
 30
0.0
 10
157.1705663813027
 20
-386.0582895906355
 30
0.0
 10
158.1514326722445
 20
-386.1747678697266
 30
0.0
 10
159.108299943985
 20
-386.3331223207206
 30
0.0
 10
159.968405905598
 20
-386.4754882799516
 30
0.0
 10
160.8048873238868
 20
-386.7607086452081
 30
0.0
 10
162.1222120489001
 20
-387.1063987237103
 30
0.0
 10
159.0499468335202
 20
-384.1931392217193
 30
0.0
 10
156.6207218239824
 20
-381.1222416573655
 30
0.0
 10
153.494141324978
 20
-379.1658494271105
 30
0.0
 10
150.9577348070197
 20
-377.5787229740072
 30
0.0
 10
147.583902540302
 20
-377.6192314948858
 30
0.0
 10
144.5250207671088
 20
-378.7995143307362
 30
0.0
 10
143.2877361902629
 20
-379.2768896652142
 30
0.0
 10
142.0357656464466
 20
-379.7467754821664
 30
0.0
 10
140.7514517840036
 20
-380.0600652565881
 30
0.0
 10
139.9961909269741
 20
-380.2443399508466
 30
0.0
 10
139.1487113150133
 20
-380.2184522707048
 30
0.0
 10
138.3703062206714
 20
-380.1022344965713
 30
0.0
 10
137.0695805459127
 20
-379.9080931770513
 30
0.0
 10
136.3125287172988
 20
-379.0021871876106
 30
0.0
 10
136.4598361299413
 20
-377.9647913209064
 30
0.0
 10
136.6340651017772
 20
-376.7379106608023
 30
0.0
 10
137.5208728215293
 20
-376.420908690734
 30
0.0
 10
138.588438418612
 20
-376.4297984224086
 30
0.0
 10
140.3654974080218
 20
-376.4446472049785
 30
0.0
 10
142.1422551885726
 20
-376.4946967199267
 30
0.0
 10
143.9192327701803
 20
-376.5241663432316
 30
0.0
 10
144.5012171266235
 20
-376.5338375897772
 30
0.0
 10
145.083494551146
 20
-376.5256968098565
 30
0.0
 10
145.8042954867797
 20
-376.1248773697407
 30
0.0
 10
145.3273923175348
 20
-375.8399175094382
 30
0.0
 10
144.8727297590322
 20
-375.50595015402
 30
0.0
 10
144.3700365990035
 20
-375.2778129375602
 30
0.0
 10
140.3413599955593
 20
-373.4496217094747
 30
0.0
 10
136.2820496372797
 20
-371.6871428569048
 30
0.0
 10
132.2806365057886
 20
-369.8016079750687
 30
0.0
 10
130.9339724099436
 20
-369.1670504619069
 30
0.0
 10
129.6394337279253
 20
-368.3430407184514
 30
0.0
 10
128.4868783884831
 20
-367.4024224434343
 30
0.0
 10
127.6835706483662
 20
-366.7468617180748
 30
0.0
 10
126.8770798633004
 20
-365.6513081196299
 30
0.0
 10
127.6500550574383
 20
-364.6093534161737
 30
0.0
 10
128.4518811756088
 20
-363.5285509109417
 30
0.0
 10
129.5970528276639
 20
-364.1476083791385
 30
0.0
 10
130.521430246743
 20
-364.7070753383268
 30
0.0
 10
131.5080602098687
 20
-365.3042503901015
 30
0.0
 10
132.4493541696211
 20
-365.9779487731212
 30
0.0
 10
133.3972665834463
 20
-366.6371891310027
 30
0.0
 10
137.9955372762961
 20
-369.8352456776975
 30
0.0
 10
142.7491259092312
 20
-372.7621491268364
 30
0.0
 10
147.9138809135584
 20
-374.9723383118599
 30
0.0
 10
148.6945165815978
 20
-375.3064033566352
 30
0.0
 10
149.4871680408014
 20
-375.6124315553679
 30
0.0
 10
150.5515261705968
 20
-375.5543715129843
 30
0.0
 10
149.2337129987891
 20
-373.9296020935271
 30
0.0
 10
147.9299019684404
 20
-372.2932076403486
 30
0.0
 10
146.595774673674
 20
-370.6819519155633
 30
0.0
 10
139.2673306192191
 20
-361.8313285502063
 30
0.0
 10
133.0023736311105
 20
-352.2261851387848
 30
0.0
 10
126.7835992874861
 20
-342.5960983776913
 30
0.0
 10
125.743704201348
 20
-340.9857544202532
 30
0.0
 10
124.5109214757986
 20
-340.4170069719621
 30
0.0
 10
122.7309399463993
 20
-340.1426301255506
 30
0.0
 10
120.567543964351
 20
-339.8092163431702
 30
0.0
 10
118.4542789050502
 20
-339.1174454287284
 30
0.0
 10
116.3432199971057
 20
-338.4991369122854
 30
0.0
 10
115.7726571548856
 20
-338.3320229820984
 30
0.0
 10
115.2279901335942
 20
-337.9367718354442
 30
0.0
 10
114.7774956544081
 20
-337.5290490139578
 30
0.0
 10
113.89962651101
 20
-336.734378641333
 30
0.0
 10
113.6702925998979
 20
-335.694247472582
 30
0.0
 10
114.1372640176405
 20
-334.6135752198243
 30
0.0
 10
114.567740319002
 20
-333.6172740101574
 30
0.0
 10
115.4859307453407
 20
-333.0333847112106
 30
0.0
 10
116.5064344937127
 20
-333.2610334808796
 30
0.0
 10
118.2916831077182
 20
-333.6592804345419
 30
0.0
 10
120.0220303019487
 20
-334.3036068836082
 30
0.0
 10
121.8797237164581
 20
-334.8770434211383
 30
0.0
 10
121.6902714861699
 20
-334.4171219188065
 30
0.0
 10
121.5111010609235
 20
-333.7840297460298
 30
0.0
 10
121.1903054874165
 20
-333.2334199553916
 30
0.0
 10
117.2504366521134
 20
-326.4710694549813
 30
0.0
 10
113.6191929243405
 20
-319.5576912055076
 30
0.0
 10
110.7355495796955
 20
-312.2674925351148
 30
0.0
 10
110.5248499138197
 20
-311.7348250234209
 30
0.0
 10
110.1219952787233
 20
-311.1972079175393
 30
0.0
 10
109.6636612284756
 20
-310.8569233169019
 30
0.0
 10
107.1834505143024
 20
-309.0154463359941
 30
0.0
 10
104.5536366875467
 20
-307.3599698946855
 30
0.0
 10
102.1881621255579
 20
-305.3855051330065
 30
0.0
 10
100.859293774618
 20
-304.2762750242964
 30
0.0
 10
99.58184258965139
 20
-303.77229562104
 30
0.0
 10
97.8913200907873
 20
-303.8475815537349
 30
0.0
 10
95.6736658105765
 20
-303.9463780588394
 30
0.0
 10
93.43243583171898
 20
-304.016128261188
 30
0.0
 10
91.23040370817216
 20
-303.8009837294758
 30
0.0
 10
89.5867883832043
 20
-303.6403824232257
 30
0.0
 10
87.91817272310618
 20
-303.1775302401202
 30
0.0
 10
86.39249287683106
 20
-302.5358739668663
 30
0.0
 10
85.0531961868146
 20
-301.9725971226781
 30
0.0
 10
84.5365253076634
 20
-300.654897921786
 30
0.0
 10
84.92120972198245
 20
-299.7461589409359
 30
0.0
 10
85.48652990193204
 20
-298.4106802766983
 30
0.0
 10
86.6524686835628
 20
-298.2161156366219
 30
0.0
 10
87.82436651609441
 20
-298.561219578969
 30
0.0
 10
89.17052588358183
 20
-298.9575778716917
 30
0.0
 10
90.46980249951503
 20
-299.5498684555114
 30
0.0
 10
91.73917803080349
 20
-300.1614038430653
 30
0.0
 10
93.4902190875855
 20
-301.0049514583225
 30
0.0
 10
95.2078666651405
 20
-301.8943479460868
 30
0.0
 10
97.49862514902907
 20
-301.6964618678085
 30
0.0
 10
95.81740756161344
 20
-299.3804425438284
 30
0.0
 10
94.1585608374171
 20
-297.3162012612011
 30
0.0
 10
92.76859593318295
 20
-295.0845204171874
 30
0.0
 10
92.10268827654909
 20
-294.0153429456805
 30
0.0
 10
91.84075054185723
 20
-292.6473011617709
 30
0.0
 10
91.62108787728903
 20
-291.3756787752245
 30
0.0
 10
91.55321819510027
 20
-290.982804736308
 30
0.0
 10
92.16410232026101
 20
-290.1712341045732
 30
0.0
 10
92.58099980071802
 20
-290.0789827865246
 30
0.0
 10
93.01661293421148
 20
-289.9825308260388
 30
0.0
 10
93.73048606613065
 20
-290.4065677704857
 30
0.0
 10
94.07073810364636
 20
-290.8137044558225
 30
0.0
 10
94.44429407181269
 20
-291.2606658365185
 30
0.0
 10
94.67024955925808
 20
-291.9366762010395
 30
0.0
 10
94.71813362674402
 20
-292.5324184755464
 30
0.0
 10
94.97158866875907
 20
-295.6852774121307
 30
0.0
 10
96.73550843937664
 20
-298.044019549121
 30
0.0
 10
98.88757245577472
 20
-300.0610443082187
 30
0.0
 10
102.0567129521987
 20
-303.0313218327683
 30
0.0
 10
105.4205239188341
 20
-305.7938792168879
 30
0.0
 10
108.7014129012096
 20
-308.6449105971788
 30
0.0
 10
108.8609396245138
 20
-308.5474166168588
 30
0.0
 10
109.0204582070346
 20
-308.449922636546
 30
0.0
 10
109.1799849303379
 20
-308.3524286562315
 30
0.0
 10
108.6581527967192
 20
-306.7363861528502
 30
0.0
 10
107.9735050647096
 20
-305.1524834485917
 30
0.0
 10
107.646685314061
 20
-303.4979187746358
 30
0.0
 10
106.8427181707721
 20
-299.4277567567242
 30
0.0
 10
104.7465568900789
 20
-296.3261521705099
 30
0.0
 10
101.6117786256973
 20
-293.5995444705131
 30
0.0
 10
99.36818782066257
 20
-291.6480367082131
 30
0.0
 10
97.5899077142667
 20
-289.1011123025964
 30
0.0
 10
95.86621153723172
 20
-286.6364749004097
 30
0.0
 10
94.92697719479747
 20
-285.2935067186463
 30
0.0
 10
94.45115674928638
 20
-283.5958610373546
 30
0.0
 10
93.92421220587494
 20
-282.0058690297137
 30
0.0
 10
93.57461455301109
 20
-280.9510193308688
 30
0.0
 10
93.70755348909825
 20
-279.8011830119176
 30
0.0
 10
94.79052144178968
 20
-279.1713797142293
 30
0.0
 10
95.99786423008936
 20
-278.4693188539677
 30
0.0
 10
96.90047320366648
 20
-279.3105544877308
 30
0.0
 10
97.49227534069269
 20
-280.1757240144525
 30
0.0
 10
98.7930172970091
 20
-282.0773776405276
 30
0.0
 10
99.95999809847126
 20
-284.0727479250363
 30
0.0
 10
101.1338171550624
 20
-286.0581538949245
 30
0.0
 10
101.9382890267098
 20
-287.4189015400298
 30
0.0
 10
102.6622811480693
 20
-288.827223902983
 30
0.0
 10
103.7231306017202
 20
-290.0834439339233
 30
0.0
 10
103.031807430174
 20
-286.2906220063087
 30
0.0
 10
102.183293939167
 20
-282.5182171547312
 30
0.0
 10
101.6867145048564
 20
-278.7000611200056
 30
0.0
 10
100.9769768891347
 20
-273.2429381456477
 30
0.0
 10
100.3894893654651
 20
-267.7611974528154
 30
0.0
 10
100.0283969313559
 20
-262.2716741743789
 30
0.0
 10
99.8816023878453
 20
-260.0400258934842
 30
0.0
 10
99.20844129630223
 20
-258.4199130001471
 30
0.0
 10
97.49466058920825
 20
-257.0196988539919
 30
0.0
 10
94.14653690547493
 20
-254.2841362960826
 30
0.0
 10
91.47343855189047
 20
-250.9716203837179
 30
0.0
 10
89.78796333657738
 20
-246.9568482323766
 30
0.0
 10
89.35173150380888
 20
-245.9176939572135
 30
0.0
 10
89.02227414046683
 20
-244.7503061167572
 30
0.0
 10
89.0070915859169
 20
-243.6368753656052
 30
0.0
 10
88.9829297511169
 20
-241.8641065672182
 30
0.0
 10
90.38444642205741
 20
-241.0119297252431
 30
0.0
 10
91.88163353861182
 20
-241.9698064536933
 30
0.0
 10
93.18482586968548
 20
-242.8035851330478
 30
0.0
 10
94.29960799030505
 20
-244.0055224434809
 30
0.0
 10
95.307224884059
 20
-245.2047895781025
 30
0.0
 10
96.15476148147809
 20
-246.2134973363673
 30
0.0
 10
96.76267422196815
 20
-247.4332141101495
 30
0.0
 10
97.41316324143372
 20
-248.5950336571377
 30
0.0
 10
98.04431790859417
 20
-249.7223688603899
 30
0.0
 10
98.59458578647263
 20
-250.8949993631159
 30
0.0
 10
99.34896743927311
 20
-251.9970655854977
 30
0.0
 10
99.77974494949376
 20
-245.6986092880206
 30
0.0
 10
100.0330941613684
 20
-239.4532308756179
 30
0.0
 10
97.73881071977485
 20
-233.4270999480068
 30
0.0
 10
97.4860557848342
 20
-232.7632030640098
 30
0.0
 10
97.19404600912276
 20
-232.1097263783122
 30
0.0
 10
97.00022218001777
 20
-231.4287012933664
 30
0.0
 10
96.09500001609013
 20
-228.2479683263418
 30
0.0
 10
94.92541416505537
 20
-225.2723830132873
 30
0.0
 10
92.13514556608789
 20
-223.1536799129944
 30
0.0
 10
91.2576427577842
 20
-222.4873896397012
 30
0.0
 10
90.74105328643236
 20
-221.3340690669493
 30
0.0
 10
90.0915411605547
 20
-220.3816629426083
 30
0.0
 10
88.69760355571816
 20
-218.3376107941785
 30
0.0
 10
87.28845897399151
 20
-216.3022529987065
 30
0.0
 10
85.96135717229754
 20
-214.2151361245042
 30
0.0
 10
85.44826009552798
 20
-213.4081568926449
 30
0.0
 10
84.96380228252201
 20
-212.5005576209805
 30
0.0
 10
84.80740161870654
 20
-211.5807960241118
 30
0.0
 10
84.71694127224237
 20
-211.0488123379346
 30
0.0
 10
85.17083859743252
 20
-210.2159779890508
 30
0.0
 10
85.63925093322086
 20
-209.8740815139881
 30
0.0
 10
85.92789856682612
 20
-209.6634144112322
 30
0.0
 10
86.93052516249281
 20
-209.9467298339932
 30
0.0
 10
87.21863550462513
 20
-210.3157839508613
 30
0.0
 10
87.91437097888229
 20
-211.2070690995706
 30
0.0
 10
88.43952455071121
 20
-212.2504077356116
 30
0.0
 10
88.92420216477785
 20
-213.2837006492327
 30
0.0
 10
89.97829477109462
 20
-215.5309792275739
 30
0.0
 10
90.8882385873776
 20
-217.8488220862546
 30
0.0
 10
92.01105565777289
 20
-220.0596299705512
 30
0.0
 10
92.54582349068642
 20
-221.1125910084611
 30
0.0
 10
93.43262306965607
 20
-221.9867642377758
 30
0.0
 10
94.27476232998833
 20
-223.0926729082794
 30
0.0
 10
94.27476232998833
 20
-219.658484899237
 30
0.0
 10
94.31685016217307
 20
-216.6008568061525
 30
0.0
 10
94.23545864453808
 20
-213.5465013065977
 30
0.0
 10
94.22103318252175
 20
-213.0049929079096
 30
0.0
 10
93.72427465105284
 20
-212.4567276618909
 30
0.0
 10
93.39592443377933
 20
-211.9465287027779
 30
0.0
 10
91.71403116163037
 20
-209.333045280543
 30
0.0
 10
89.9495252548586
 20
-206.7697579072856
 30
0.0
 10
88.35550356115982
 20
-204.1042223382456
 30
0.0
 10
87.78586062707382
 20
-203.151685961423
 30
0.0
 10
87.41236978514917
 20
-201.9804231097278
 30
0.0
 10
87.30830619543849
 20
-200.8751982647373
 30
0.0
 10
87.16105576825248
 20
-199.3111427819204
 30
0.0
 10
88.11796374389178
 20
-198.0977432533591
 30
0.0
 10
89.5042083117014
 20
-197.5740468811382
 30
0.0
 10
90.88696048492784
 20
-197.0516693152667
 30
0.0
 10
92.27226886304925
 20
-197.4012018418898
 30
0.0
 10
93.23139113082743
 20
-198.8090520396054
 30
0.0
 10
93.91689364472768
 20
-199.8152361560979
 30
0.0
 10
94.48803448232047
 20
-200.981256345528
 30
0.0
 10
94.7810862778606
 20
-202.1579409566502
 30
0.0
 10
95.76747201758826
 20
-206.1184466690493
 30
0.0
 10
96.33086283269859
 20
-210.0916519981201
 30
0.0
 10
96.18786189263028
 20
-214.2506299249517
 30
0.0
 10
95.957974408484
 20
-220.9366036281581
 30
0.0
 10
96.74185010693327
 20
-227.552615468735
 30
0.0
 10
100.0415768540424
 20
-233.8667671898993
 30
0.0
 10
100.2414085787277
 20
-233.3008201698949
 30
0.0
 10
100.4837026114719
 20
-232.8868126663101
 30
0.0
 10
100.5267754780261
 20
-232.4530393490777
 30
0.0
 10
101.8451666452083
 20
-219.1759483102887
 30
0.0
 10
103.9362399384536
 20
-206.0361922287429
 30
0.0
 10
107.3829484670105
 20
-193.1288716954532
 30
0.0
 10
107.5471805611051
 20
-192.5138520540995
 30
0.0
 10
107.4508425715367
 20
-191.7393545341138
 30
0.0
 10
107.2325394172158
 20
-191.1256699806627
 30
0.0
 10
104.3201754010133
 20
-182.9389923439776
 30
0.0
 10
102.5213398253218
 20
-174.5650279244637
 30
0.0
 10
102.8377230961141
 20
-165.8214232519249
 30
0.0
 10
102.86326072272
 20
-165.1159107009817
 30
0.0
 10
102.7610043861514
 20
-164.3096315761959
 30
0.0
 10
103.0670163033283
 20
-163.7364066989412
 30
0.0
 10
103.3997544009781
 20
-163.1131160251853
 30
0.0
 10
104.0798432962301
 20
-162.4654518563511
 30
0.0
 10
104.7270190182708
 20
-162.3042644139441
 30
0.0
 10
105.0745896169365
 20
-162.2176953602802
 30
0.0
 10
105.9499106962194
 20
-163.0527277197434
 30
0.0
 10
106.1022328292929
 20
-163.605519239396
 30
0.0
 10
106.5471183111122
 20
-165.2199173052331
 30
0.0
 10
106.8218940557372
 20
-166.892245160976
 30
0.0
 10
107.0313074783844
 20
-168.5584674317806
 30
0.0
 10
107.706691002847
 20
-173.9319683148042
 30
0.0
 10
108.3183566428788
 20
-179.3134471621488
 30
0.0
 10
108.9702784396113
 20
-184.6899601337427
 30
0.0
 10
109.0222410378401
 20
-185.1185396333867
 30
0.0
 10
109.1945080817159
 20
-185.5325471369715
 30
0.0
 10
109.4206589478781
 20
-186.3503210430044
 30
0.0
 10
113.0650500352203
 20
-176.614990279113
 30
0.0
 10
116.5734249716697
 20
-167.2429662414679
 30
0.0
 10
120.1537969657238
 20
-157.6786244190043
 30
0.0
 10
118.0634726242342
 20
-155.3461281564705
 30
0.0
 10
116.753938625604
 20
-152.4346596260621
 30
0.0
 10
116.3999286700255
 20
-149.2200935776855
 30
0.0
 10
116.2112498138295
 20
-147.50678503583
 30
0.0
 10
116.5041225122141
 20
-145.7051164687255
 30
0.0
 10
116.8133093335564
 20
-143.9853441476107
 30
0.0
 10
117.0042350450103
 20
-142.9233468439925
 30
0.0
 10
117.7590562999249
 20
-142.0208111374368
 30
0.0
 10
118.9952825753808
 20
-141.946583506131
 30
0.0
 10
119.9421529693773
 20
-141.8897120176134
 30
0.0
 10
120.7559785971489
 20
-142.9691468718192
 30
0.0
 10
120.8810046951548
 20
-144.4998577200822
 30
0.0
 10
121.1124063643638
 20
-147.3330770739058
 30
0.0
 10
121.2590218107143
 20
-150.1731835275432
 30
0.0
 10
121.4471715162163
 20
-153.0100011060913
 30
0.0
 10
121.4691516219973
 20
-153.3414936644131
 30
0.0
 10
121.5303051607516
 20
-153.6703811731595
 30
0.0
 10
121.6466776097013
 20
-154.5639457402449
 30
0.0
 10
123.045133347392
 20
-152.3045536813879
 30
0.0
 10
124.1345569385603
 20
-150.4248964426524
 30
0.0
 10
125.3415252509858
 20
-148.6240256719802
 30
0.0
 10
126.9260710768558
 20
-146.259780367759
 30
0.0
 10
128.1351234289396
 20
-143.8909925083435
 30
0.0
 10
128.6560437952094
 20
-140.9396178747684
 30
0.0
 10
129.6325303465546
 20
-135.4070461521169
 30
0.0
 10
131.5649072760471
 20
-130.0734025275788
 30
0.0
 10
135.4378100557296
 20
-125.8047194505498
 30
0.0
 10
137.1434092790023
 20
-123.9248017068594
 30
0.0
 10
139.29977976798
 20
-122.4396629445855
 30
0.0
 10
141.3322231642424
 20
-120.8805244928426
 30
0.0
 10
141.8395321464868
 20
-120.4913463680105
 30
0.0
 10
142.6566547901248
 20
-120.3841648595908
 30
0.0
 10
143.33654830666
 20
-120.3682577756281
 30
0.0
 10
144.5903586667437
 20
-120.3389021232388
 30
0.0
 10
145.2188920027666
 20
-120.9707731790304
 30
0.0
 10
144.9945483897454
 20
-122.1893013989411
 30
0.0
 10
144.7075370529055
 20
-123.7482444719653
 30
0.0
 10
144.3623028580796
 20
-125.3468168616382
 30
0.0
 10
143.7129616885804
 20
-126.779089399115
 30
0.0
 10
141.8997169324302
 20
-130.7786382920058
 30
0.0
 10
139.334939796453
 20
-134.2916616137863
 30
0.0
 10
136.2449765255287
 20
-137.4134553341974
 30
0.0
 10
129.0022548836259
 20
-144.7308279279587
 30
0.0
 10
124.0217827143333
 20
-153.4664546361755
 30
0.0
 10
120.2404392864073
 20
-162.9502678636754
 30
0.0
 10
119.5510699020451
 20
-164.6792555476595
 30
0.0
 10
118.9372388145548
 20
-166.438592059184
 30
0.0
 10
118.3103743384117
 20
-168.1917252964049
 30
0.0
 10
118.2634264606186
 20
-168.3230035133884
 30
0.0
 10
118.3927671719775
 20
-168.5173239300666
 30
0.0
 10
118.4596518197959
 20
-168.7501990804421
 30
0.0
 10
120.9731094791641
 20
-167.0685418909125
 30
0.0
 10
123.4426883347624
 20
-165.3572848255953
 30
0.0
 10
125.9752117006974
 20
-163.7449056731775
 30
0.0
 10
127.3953300537578
 20
-162.8407743737607
 30
0.0
 10
128.8838472396956
 20
-162.0248728471088
 30
0.0
 10
130.4049845307754
 20
-161.3028833576063
 30
0.0
 10
132.985587342916
 20
-160.0780378924765
 30
0.0
 10
135.3168543476841
 20
-158.5727914038034
 30
0.0
 10
137.474999526683
 20
-156.6508509541691
 30
0.0
 10
140.0739597975453
 20
-154.3363783783752
 30
0.0
 10
143.0878637616806
 20
-152.5814704511286
 30
0.0
 10
146.726173686423
 20
-152.3515748262034
 30
0.0
 10
147.2569362556142
 20
-152.3180348129317
 30
0.0
 10
147.7994703925715
 20
-152.3047327785453
 30
0.0
 10
148.3243878817793
 20
-152.3740759418979
 30
0.0
 10
150.1882682890282
 20
-152.6203508160233
 30
0.0
 10
150.9259857653351
 20
-154.134894075366
 30
0.0
 10
149.748438231537
 20
-155.6184860894564
 30
0.0
 10
149.0020264022769
 20
-156.5588764226359
 30
0.0
 10
147.9581830378811
 20
-157.3736870847806
 30
0.0
 10
146.883030233912
 20
-157.9216592627217
 30
0.0
 10
143.7827770171671
 20
-159.5018334897768
 30
0.0
 10
140.4834003235965
 20
-160.6067978298106
 30
0.0
 10
137.0035425392061
 20
-160.895567575114
 30
0.0
 10
133.9341998638183
 20
-161.150276297235
 30
0.0
 10
131.6262154896185
 20
-162.8901563447489
 30
0.0
 10
128.6556367562125
 20
-164.352680020409
 30
0.0
 10
132.1348839821094
 20
-165.3540936398649
 30
0.0
 10
135.1061709633668
 20
-166.1994485082669
 30
0.0
 10
138.0702859175171
 20
-167.0692745611077
 30
0.0
 10
138.8308627038368
 20
-167.2924621833781
 30
0.0
 10
139.6532280097445
 20
-167.469084544512
 30
0.0
 10
140.2872238090949
 20
-167.9016041816358
 30
0.0
 10
140.7040643040928
 20
-168.1859941873436
 30
0.0
 10
141.1787531811979
 20
-169.1422264782468
 30
0.0
 10
141.0226781485826
 20
-169.3560033589347
 30
0.0
 10
140.6722908400679
 20
-169.835983742988
 30
0.0
 10
139.9285898905218
 20
-170.3209462843497
 30
0.0
 10
139.3750249967743
 20
-170.2886925143102
 30
0.0
 10
138.6334894946876
 20
-170.245497536057
 30
0.0
 10
137.8388598259671
 20
-169.8282662836236
 30
0.0
 10
137.2088204456568
 20
-169.3746945896282
 30
0.0
 10
134.1407721542728
 20
-167.16590561875
 30
0.0
 10
130.4707376101869
 20
-166.7690100345553
 30
0.0
 10
126.9596843571444
 20
-165.9169797266195
 30
0.0
 10
126.4512519472719
 20
-165.7935980661587
 30
0.0
 10
125.7416690063683
 20
-166.0832958603769
 30
0.0
 10
125.2499821807905
 20
-166.3851234166714
 30
0.0
 10
123.8128658792602
 20
-167.2674374259068
 30
0.0
 10
122.4025653067874
 20
-168.2035457088477
 30
0.0
 10
121.0475162076282
 20
-169.2073364360431
 30
0.0
 10
117.9991116181927
 20
-171.4655887857134
 30
0.0
 10
115.7319695368496
 20
-174.1692069232176
 30
0.0
 10
114.4840368198711
 20
-177.9564931204877
 30
0.0
 10
111.9841824037494
 20
-185.5431464324283
 30
0.0
 10
109.0299015117407
 20
-192.9800093938475
 30
0.0
 10
107.4489783329354
 20
-200.8475847392492
 30
0.0
 10
107.3666669071681
 20
-201.2572287847988
 30
0.0
 10
107.3007428713809
 20
-201.6701779869964
 30
0.0
 10
107.1295585512335
 20
-202.6275825502098
 30
0.0
 10
108.4758400304199
 20
-201.1081548229122
 30
0.0
 10
109.3963912829377
 20
-199.919405575949
 30
0.0
 10
110.470534630198
 20
-198.8910948196353
 30
0.0
 10
112.200873683646
 20
-197.2345926400576
 30
0.0
 10
114.0097468409786
 20
-195.6571211519367
 30
0.0
 10
115.835634228345
 20
-194.105309402119
 30
0.0
 10
116.3651268358681
 20
-193.6552545250497
 30
0.0
 10
117.0411046372656
 20
-193.1971402758591
 30
0.0
 10
117.6946790123211
 20
-193.1194935169869
 30
0.0
 10
118.4982798205156
 20
-193.0240510132126
 30
0.0
 10
119.5135816105148
 20
-193.0820622109186
 30
0.0
 10
120.1394040668274
 20
-193.5097462247686
 30
0.0
 10
121.0235334699855
 20
-194.1139874735127
 30
0.0
 10
121.1064391726841
 20
-195.3019714871643
 30
0.0
 10
120.4787117738724
 20
-196.1522433866412
 30
0.0
 10
119.4916340678528
 20
-197.4892036728206
 30
0.0
 10
118.4145763213819
 20
-198.8106801955937
 30
0.0
 10
117.160513597124
 20
-199.8883729228946
 30
0.0
 10
114.939651849626
 20
-201.7969299303404
 30
0.0
 10
112.5259757297326
 20
-203.4791244113485
 30
0.0
 10
110.2544539087939
 20
-205.3314449111122
 30
0.0
 10
108.9504312181698
 20
-206.3947610210762
 30
0.0
 10
107.7259927920368
 20
-207.5660564358932
 30
0.0
 10
106.550138540465
 20
-208.7711198058169
 30
0.0
 10
106.0814819812776
 20
-209.2514583841867
 30
0.0
 10
105.6372559026313
 20
-209.9192465609858
 30
0.0
 10
105.527729849593
 20
-210.5607400186418
 30
0.0
 10
104.5774321872523
 20
-216.1268191914405
 30
0.0
 10
103.7058314443912
 20
-221.7063469326658
 30
0.0
 10
102.8108178184802
 20
-227.2818531286111
 30
0.0
 10
102.9887996898606
 20
-227.3423391234173
 30
0.0
 10
103.1667815612391
 20
-227.4028088366595
 30
0.0
 10
103.3447634326221
 20
-227.4632785499007
 30
0.0
 10
103.8010297247674
 20
-226.7384886321061
 30
0.0
 10
104.2366184359225
 20
-225.9996640097352
 30
0.0
 10
104.7175512912263
 20
-225.2916115354565
 30
0.0
 10
106.0139135079462
 20
-223.3830545280052
 30
0.0
 10
107.2700114271847
 20
-221.4421949058378
 30
0.0
 10
108.6664645330175
 20
-219.6089075495274
 30
0.0
 10
109.239111414895
 20
-218.8571228055216
 30
0.0
 10
110.0561282283952
 20
-218.2056650332452
 30
0.0
 10
110.8963137015462
 20
-217.7642882275704
 30
0.0
 10
112.060160302738
 20
-217.1528830924926
 30
0.0
 10
113.1507724477724
 20
-217.8383530432784
 30
0.0
 10
113.0496476796134
 20
-219.1390054510166
 30
0.0
 10
112.9695424052052
 20
-220.1692211498284
 30
0.0
 10
112.6161430081193
 20
-221.2281575201932
 30
0.0
 10
112.1673418111595
 20
-222.1711854660689
 30
0.0
 10
110.088495969354
 20
-226.5393163105955
 30
0.0
 10
107.3593971907003
 20
-230.4750577704799
 30
0.0
 10
103.9492000600831
 20
-233.9115414794542
 30
0.0
 10
102.5685726304155
 20
-235.3028007676994
 30
0.0
 10
101.9567441747849
 20
-236.8433619596653
 30
0.0
 10
101.8250589188092
 20
-238.8517574920434
 30
0.0
 10
101.1664535417585
 20
-248.8969589027902
 30
0.0
 10
101.3569233695371
 20
-258.913244263269
 30
0.0
 10
102.368806031971
 20
-268.9293993712599
 30
0.0
 10
102.5360664961981
 20
-268.8766796805012
 30
0.0
 10
102.776162518363
 20
-268.8646638893424
 30
0.0
 10
102.8022048733237
 20
-268.7837771000632
 30
0.0
 10
104.4835852763381
 20
-263.5593176158054
 30
0.0
 10
106.8476189202802
 20
-258.5544638106549
 30
0.0
 10
107.6868682037439
 20
-253.0559856743093
 30
0.0
 10
108.0219671275709
 20
-250.860547582497
 30
0.0
 10
108.7742240368116
 20
-248.7425445892814
 30
0.0
 10
110.2761083833784
 20
-247.0031204254392
 30
0.0
 10
111.3781176203029
 20
-245.7268089496592
 30
0.0
 10
112.4204060957363
 20
-245.3622648248665
 30
0.0
 10
113.2182920764253
 20
-246.0165555885533
 30
0.0
 10
114.2235562847836
 20
-246.8409235263243
 30
0.0
 10
114.1259890374504
 20
-247.8981177697888
 30
0.0
 10
113.5722206242062
 20
-248.9107331024197
 30
0.0
 10
112.5090591890594
 20
-250.8547187840722
 30
0.0
 10
111.3606963512739
 20
-252.7520415152285
 30
0.0
 10
110.2933586960289
 20
-254.6938454678711
 30
0.0
 10
109.4915732817572
 20
-256.1525104138473
 30
0.0
 10
108.76118250738
 20
-257.6504464821555
 30
0.0
 10
107.6909630160426
 20
-259.729276042397
 30
0.0
 10
109.9969610399412
 20
-258.888040408634
 30
0.0
 10
111.6536667390174
 20
-258.2390248703359
 30
0.0
 10
113.3413155425706
 20
-257.6840516216616
 30
0.0
 10
114.4292656525731
 20
-257.3263457520006
 30
0.0
 10
115.550853465199
 20
-257.0004866133822
 30
0.0
 10
116.6811600531246
 20
-256.8753465444606
 30
0.0
 10
117.1600088687692
 20
-256.8223337856216
 30
0.0
 10
117.6998972522506
 20
-257.3207774585335
 30
0.0
 10
118.2120337169863
 20
-257.5685502361666
 30
0.0
 10
117.8757706616316
 20
-258.124565504666
 30
0.0
 10
117.653747170888
 20
-258.8365255533081
 30
0.0
 10
117.1698429309108
 20
-259.1910402372378
 30
0.0
 10
116.720398612335
 20
-259.5203510665415
 30
0.0
 10
115.9902683429173
 20
-259.4619328298431
 30
0.0
 10
115.3859945310496
 20
-259.5854121796619
 30
0.0
 10
114.000311677054
 20
-259.8686461946199
 30
0.0
 10
112.5943501402744
 20
-260.0813484923565
 30
0.0
 10
111.2356946756117
 20
-260.4620764876308
 30
0.0
 10
108.3815860805144
 20
-261.2619569594044
 30
0.0
 10
106.4287839342041
 20
-262.9817455620741
 30
0.0
 10
105.6825837652232
 20
-265.9820788460838
 30
0.0
 10
105.2765623667392
 20
-267.614663414266
 30
0.0
 10
104.762170905964
 20
-269.2464339044454
 30
0.0
 10
104.0689183695804
 20
-270.775272373332
 30
0.0
 10
103.0361301843122
 20
-273.0529323423289
 30
0.0
 10
102.8292729665573
 20
-275.3257729696143
 30
0.0
 10
103.3353771133743
 20
-277.7572936790912
 30
0.0
 10
104.0562268936847
 20
-281.2205768355598
 30
0.0
 10
104.6543869798288
 20
-284.7094220409836
 30
0.0
 10
105.4096071329641
 20
-288.7467604342601
 30
0.0
  0
HATCH
  5
50
330
4B
100
AcDbEntity
  8
Layer 1
 62
     7
420
 16777215
100
AcDbHatch
 10
0.0
 20
0.0
 30
0.0
210
0.0
220
0.0
230
1.0
  2
SOLID
 70
     1
 71
     0
 91
        1
 92
        1
 93
        1
 72
     4
 94
        3
 73
     0
 74
     1
 95
      704
 96
      700
 40
0.0
 40
0.0
 40
0.0
 40
0.0
 40
1.0
 40
1.0
 40
1.0
 40
2.0
 40
2.0
 40
2.0
 40
3.0
 40
3.0
 40
3.0
 40
4.0
 40
4.0
 40
4.0
 40
5.0
 40
5.0
 40
5.0
 40
6.0
 40
6.0
 40
6.0
 40
7.0
 40
7.0
 40
7.0
 40
8.0
 40
8.0
 40
8.0
 40
9.0
 40
9.0
 40
9.0
 40
10.0
 40
10.0
 40
10.0
 40
11.0
 40
11.0
 40
11.0
 40
12.0
 40
12.0
 40
12.0
 40
13.0
 40
13.0
 40
13.0
 40
14.0
 40
14.0
 40
14.0
 40
15.0
 40
15.0
 40
15.0
 40
16.0
 40
16.0
 40
16.0
 40
17.0
 40
17.0
 40
17.0
 40
18.0
 40
18.0
 40
18.0
 40
19.0
 40
19.0
 40
19.0
 40
20.0
 40
20.0
 40
20.0
 40
21.0
 40
21.0
 40
21.0
 40
22.0
 40
22.0
 40
22.0
 40
23.0
 40
23.0
 40
23.0
 40
24.0
 40
24.0
 40
24.0
 40
25.0
 40
25.0
 40
25.0
 40
26.0
 40
26.0
 40
26.0
 40
27.0
 40
27.0
 40
27.0
 40
28.0
 40
28.0
 40
28.0
 40
29.0
 40
29.0
 40
29.0
 40
30.0
 40
30.0
 40
30.0
 40
31.0
 40
31.0
 40
31.0
 40
32.0
 40
32.0
 40
32.0
 40
33.0
 40
33.0
 40
33.0
 40
34.0
 40
34.0
 40
34.0
 40
35.0
 40
35.0
 40
35.0
 40
36.0
 40
36.0
 40
36.0
 40
37.0
 40
37.0
 40
37.0
 40
38.0
 40
38.0
 40
38.0
 40
39.0
 40
39.0
 40
39.0
 40
40.0
 40
40.0
 40
40.0
 40
41.0
 40
41.0
 40
41.0
 40
42.0
 40
42.0
 40
42.0
 40
43.0
 40
43.0
 40
43.0
 40
44.0
 40
44.0
 40
44.0
 40
45.0
 40
45.0
 40
45.0
 40
46.0
 40
46.0
 40
46.0
 40
47.0
 40
47.0
 40
47.0
 40
48.0
 40
48.0
 40
48.0
 40
49.0
 40
49.0
 40
49.0
 40
50.0
 40
50.0
 40
50.0
 40
51.0
 40
51.0
 40
51.0
 40
52.0
 40
52.0
 40
52.0
 40
53.0
 40
53.0
 40
53.0
 40
54.0
 40
54.0
 40
54.0
 40
55.0
 40
55.0
 40
55.0
 40
56.0
 40
56.0
 40
56.0
 40
57.0
 40
57.0
 40
57.0
 40
58.0
 40
58.0
 40
58.0
 40
59.0
 40
59.0
 40
59.0
 40
60.0
 40
60.0
 40
60.0
 40
61.0
 40
61.0
 40
61.0
 40
62.0
 40
62.0
 40
62.0
 40
63.0
 40
63.0
 40
63.0
 40
64.0
 40
64.0
 40
64.0
 40
65.0
 40
65.0
 40
65.0
 40
66.0
 40
66.0
 40
66.0
 40
67.0
 40
67.0
 40
67.0
 40
68.0
 40
68.0
 40
68.0
 40
69.0
 40
69.0
 40
69.0
 40
70.0
 40
70.0
 40
70.0
 40
71.0
 40
71.0
 40
71.0
 40
72.0
 40
72.0
 40
72.0
 40
73.0
 40
73.0
 40
73.0
 40
74.0
 40
74.0
 40
74.0
 40
75.0
 40
75.0
 40
75.0
 40
76.0
 40
76.0
 40
76.0
 40
77.0
 40
77.0
 40
77.0
 40
78.0
 40
78.0
 40
78.0
 40
79.0
 40
79.0
 40
79.0
 40
80.0
 40
80.0
 40
80.0
 40
81.0
 40
81.0
 40
81.0
 40
82.0
 40
82.0
 40
82.0
 40
83.0
 40
83.0
 40
83.0
 40
84.0
 40
84.0
 40
84.0
 40
85.0
 40
85.0
 40
85.0
 40
86.0
 40
86.0
 40
86.0
 40
87.0
 40
87.0
 40
87.0
 40
88.0
 40
88.0
 40
88.0
 40
89.0
 40
89.0
 40
89.0
 40
90.0
 40
90.0
 40
90.0
 40
91.0
 40
91.0
 40
91.0
 40
92.0
 40
92.0
 40
92.0
 40
93.0
 40
93.0
 40
93.0
 40
94.0
 40
94.0
 40
94.0
 40
95.0
 40
95.0
 40
95.0
 40
96.0
 40
96.0
 40
96.0
 40
97.0
 40
97.0
 40
97.0
 40
98.0
 40
98.0
 40
98.0
 40
99.0
 40
99.0
 40
99.0
 40
100.0
 40
100.0
 40
100.0
 40
101.0
 40
101.0
 40
101.0
 40
102.0
 40
102.0
 40
102.0
 40
103.0
 40
103.0
 40
103.0
 40
104.0
 40
104.0
 40
104.0
 40
105.0
 40
105.0
 40
105.0
 40
106.0
 40
106.0
 40
106.0
 40
107.0
 40
107.0
 40
107.0
 40
108.0
 40
108.0
 40
108.0
 40
109.0
 40
109.0
 40
109.0
 40
110.0
 40
110.0
 40
110.0
 40
111.0
 40
111.0
 40
111.0
 40
112.0
 40
112.0
 40
112.0
 40
113.0
 40
113.0
 40
113.0
 40
114.0
 40
114.0
 40
114.0
 40
115.0
 40
115.0
 40
115.0
 40
116.0
 40
116.0
 40
116.0
 40
117.0
 40
117.0
 40
117.0
 40
118.0
 40
118.0
 40
118.0
 40
119.0
 40
119.0
 40
119.0
 40
120.0
 40
120.0
 40
120.0
 40
121.0
 40
121.0
 40
121.0
 40
122.0
 40
122.0
 40
122.0
 40
123.0
 40
123.0
 40
123.0
 40
124.0
 40
124.0
 40
124.0
 40
125.0
 40
125.0
 40
125.0
 40
126.0
 40
126.0
 40
126.0
 40
127.0
 40
127.0
 40
127.0
 40
128.0
 40
128.0
 40
128.0
 40
129.0
 40
129.0
 40
129.0
 40
130.0
 40
130.0
 40
130.0
 40
131.0
 40
131.0
 40
131.0
 40
132.0
 40
132.0
 40
132.0
 40
133.0
 40
133.0
 40
133.0
 40
134.0
 40
134.0
 40
134.0
 40
135.0
 40
135.0
 40
135.0
 40
136.0
 40
136.0
 40
136.0
 40
137.0
 40
137.0
 40
137.0
 40
138.0
 40
138.0
 40
138.0
 40
139.0
 40
139.0
 40
139.0
 40
140.0
 40
140.0
 40
140.0
 40
141.0
 40
141.0
 40
141.0
 40
142.0
 40
142.0
 40
142.0
 40
143.0
 40
143.0
 40
143.0
 40
144.0
 40
144.0
 40
144.0
 40
145.0
 40
145.0
 40
145.0
 40
146.0
 40
146.0
 40
146.0
 40
147.0
 40
147.0
 40
147.0
 40
148.0
 40
148.0
 40
148.0
 40
149.0
 40
149.0
 40
149.0
 40
150.0
 40
150.0
 40
150.0
 40
151.0
 40
151.0
 40
151.0
 40
152.0
 40
152.0
 40
152.0
 40
153.0
 40
153.0
 40
153.0
 40
154.0
 40
154.0
 40
154.0
 40
155.0
 40
155.0
 40
155.0
 40
156.0
 40
156.0
 40
156.0
 40
157.0
 40
157.0
 40
157.0
 40
158.0
 40
158.0
 40
158.0
 40
159.0
 40
159.0
 40
159.0
 40
160.0
 40
160.0
 40
160.0
 40
161.0
 40
161.0
 40
161.0
 40
162.0
 40
162.0
 40
162.0
 40
163.0
 40
163.0
 40
163.0
 40
164.0
 40
164.0
 40
164.0
 40
165.0
 40
165.0
 40
165.0
 40
166.0
 40
166.0
 40
166.0
 40
167.0
 40
167.0
 40
167.0
 40
168.0
 40
168.0
 40
168.0
 40
169.0
 40
169.0
 40
169.0
 40
170.0
 40
170.0
 40
170.0
 40
171.0
 40
171.0
 40
171.0
 40
172.0
 40
172.0
 40
172.0
 40
173.0
 40
173.0
 40
173.0
 40
174.0
 40
174.0
 40
174.0
 40
175.0
 40
175.0
 40
175.0
 40
176.0
 40
176.0
 40
176.0
 40
177.0
 40
177.0
 40
177.0
 40
178.0
 40
178.0
 40
178.0
 40
179.0
 40
179.0
 40
179.0
 40
180.0
 40
180.0
 40
180.0
 40
181.0
 40
181.0
 40
181.0
 40
182.0
 40
182.0
 40
182.0
 40
183.0
 40
183.0
 40
183.0
 40
184.0
 40
184.0
 40
184.0
 40
185.0
 40
185.0
 40
185.0
 40
186.0
 40
186.0
 40
186.0
 40
187.0
 40
187.0
 40
187.0
 40
188.0
 40
188.0
 40
188.0
 40
189.0
 40
189.0
 40
189.0
 40
190.0
 40
190.0
 40
190.0
 40
191.0
 40
191.0
 40
191.0
 40
192.0
 40
192.0
 40
192.0
 40
193.0
 40
193.0
 40
193.0
 40
194.0
 40
194.0
 40
194.0
 40
195.0
 40
195.0
 40
195.0
 40
196.0
 40
196.0
 40
196.0
 40
197.0
 40
197.0
 40
197.0
 40
198.0
 40
198.0
 40
198.0
 40
199.0
 40
199.0
 40
199.0
 40
200.0
 40
200.0
 40
200.0
 40
201.0
 40
201.0
 40
201.0
 40
202.0
 40
202.0
 40
202.0
 40
203.0
 40
203.0
 40
203.0
 40
204.0
 40
204.0
 40
204.0
 40
205.0
 40
205.0
 40
205.0
 40
206.0
 40
206.0
 40
206.0
 40
207.0
 40
207.0
 40
207.0
 40
208.0
 40
208.0
 40
208.0
 40
209.0
 40
209.0
 40
209.0
 40
210.0
 40
210.0
 40
210.0
 40
211.0
 40
211.0
 40
211.0
 40
212.0
 40
212.0
 40
212.0
 40
213.0
 40
213.0
 40
213.0
 40
214.0
 40
214.0
 40
214.0
 40
215.0
 40
215.0
 40
215.0
 40
216.0
 40
216.0
 40
216.0
 40
217.0
 40
217.0
 40
217.0
 40
218.0
 40
218.0
 40
218.0
 40
219.0
 40
219.0
 40
219.0
 40
220.0
 40
220.0
 40
220.0
 40
221.0
 40
221.0
 40
221.0
 40
222.0
 40
222.0
 40
222.0
 40
223.0
 40
223.0
 40
223.0
 40
224.0
 40
224.0
 40
224.0
 40
225.0
 40
225.0
 40
225.0
 40
226.0
 40
226.0
 40
226.0
 40
227.0
 40
227.0
 40
227.0
 40
228.0
 40
228.0
 40
228.0
 40
229.0
 40
229.0
 40
229.0
 40
230.0
 40
230.0
 40
230.0
 40
231.0
 40
231.0
 40
231.0
 40
232.0
 40
232.0
 40
232.0
 40
233.0
 40
233.0
 40
233.0
 40
233.0
 10
105.4096071329641
 20
-288.7467604342601
 10
106.4680876196553
 20
-287.1863683024112
 10
107.0231015722275
 20
-286.1628768878109
 10
107.7757085350049
 20
-285.3146727464391
 10
108.5774125414764
 20
-284.4110461753717
 10
109.6952148914461
 20
-284.6903726159708
 10
110.016767557483
 20
-285.8581512138662
 10
110.1952785795575
 20
-286.5064503635349
 10
110.225904193614
 20
-287.3183791895844
 10
109.9943071456864
 20
-287.932584752949
 10
109.4037017033052
 20
-289.4989033725797
 10
108.6948188694778
 20
-291.0311609690307
 10
107.9044793917701
 20
-292.5080938251467
 10
107.3439215680755
 20
-293.5556493851891
 10
106.9038228648451
 20
-294.4883873852414
 10
107.255659232188
 20
-295.7598143930718
 10
109.7972270046148
 20
-304.9446981819274
 10
113.0611098977406
 20
-313.849278636595
 10
117.3781736298324
 20
-322.3552213801613
 10
117.4912327813518
 20
-322.5779531187582
 10
117.7018428986494
 20
-322.7512214785693
 10
118.1127162019675
 20
-323.2397985262178
 10
118.1127162019675
 20
-322.2333050600901
 10
118.1173808688618
 20
-321.5092966571665
 10
118.1118858424143
 20
-320.7853859436073
 10
118.0915827372964
 20
-318.1121166336434
 10
118.0861935409885
 20
-315.4413221207687
 10
119.3336378111744
 20
-312.9668180933186
 10
120.246650701486
 20
-311.1557225030701
 10
121.4677676894116
 20
-310.2876874218127
 10
122.7597664480945
 20
-310.5254307585838
 10
124.1978515024357
 20
-310.7900386690853
 10
125.5571663702749
 20
-312.1621508429562
 10
125.6813214048252
 20
-313.9391202837851
 10
125.7974089264771
 20
-315.6004580866393
 10
125.7287170255149
 20
-317.3278013330764
 10
125.3984455841837
 20
-318.9565434531305
 10
124.6401319346814
 20
-322.6961246800729
 10
123.6610159114216
 20
-326.3905408600222
 10
122.802953285568
 20
-330.1105842151555
 10
122.6685408683179
 20
-330.6933012417921
 10
122.4472663293254
 20
-331.4541059699495
 10
122.6927434070176
 20
-331.8951082997501
 10
124.7001539050261
 20
-335.5013109884876
 10
126.8088275644577
 20
-339.0511794801841
 10
129.2971871993313
 20
-342.4425632684106
 10
129.5247952650989
 20
-340.4632140387821
 10
129.4634137845069
 20
-338.3936975307661
 10
130.0464808646811
 20
-336.5252582867597
 10
130.9637025382117
 20
-333.5860459783871
 10
132.1944989134599
 20
-330.723357001254
 10
133.5498899253789
 20
-327.9541893038368
 10
134.0018009002706
 20
-327.030862045367
 10
135.1589394988077
 20
-326.3099797019349
 10
136.1569665538154
 20
-325.8533470746916
 10
136.7048736055194
 20
-325.6026761794092
 10
137.9141050547614
 20
-325.863995214826
 10
138.2392966494263
 20
-326.3159387528358
 10
138.581331517742
 20
-326.791360300138
 10
138.482201240663
 20
-327.9395033368601
 10
138.1182025481239
 20
-328.4924576721114
 10
137.3977760883663
 20
-329.5868064351343
 10
136.4663161907592
 20
-330.6048272456246
 10
135.437549550772
 20
-331.4219987339438
 10
132.2444018943679
 20
-333.9583726887849
 10
131.6402339126407
 20
-337.4108448895258
 10
131.9230771701641
 20
-341.2721470578235
 10
132.2715513953981
 20
-340.6075012220772
 10
132.6207013053645
 20
-339.9432461437646
 10
132.9682556224689
 20
-339.2781118612238
 10
133.2144328072363
 20
-338.8070537719614
 10
133.4074669806851
 20
-338.2983527163506
 10
133.7133486453795
 20
-337.8701476925853
 10
134.5169901574736
 20
-336.74512447083
 10
135.5571294670062
 20
-336.3730582653898
 10
136.1174349265284
 20
-337.0184918605246
 10
136.8748286678992
 20
-337.8908903998199
 10
136.3395398250714
 20
-338.6265563995839
 10
135.7566518420554
 20
-339.3550910761405
 10
132.6876429386421
 20
-343.190928884851
 10
132.5039788028789
 20
-348.0645207545767
 10
135.2673991096735
 20
-352.06310903544
 10
136.5811093284019
 20
-353.9639811466386
 10
137.8986375729137
 20
-355.8623784607462
 10
139.2371690296177
 20
-357.7457316135642
 10
139.5751172264172
 20
-358.2212834133425
 10
140.0003997101921
 20
-358.6347373438948
 10
140.6658759054908
 20
-359.3984076265788
 10
140.4827979058828
 20
-357.7208533901321
 10
140.1941014275963
 20
-356.4895115826293
 10
140.2565656319184
 20
-355.2762097434261
 10
140.3285382671847
 20
-353.8780470738111
 10
140.5556416045993
 20
-352.4440649725493
 10
140.9977917843689
 20
-351.1199508370828
 10
141.5340412392261
 20
-349.5140029008035
 10
142.8224906178648
 20
-348.6956917032967
 10
143.9418478567968
 20
-348.8934149659817
 10
145.1219027508077
 20
-349.1017863687994
 10
145.9407512397902
 20
-350.2256698813635
 10
145.9900355214231
 20
-351.9564322553706
 10
146.0201075624473
 20
-353.0124216634085
 10
145.9008939813057
 20
-354.0842367476089
 10
145.7385993928292
 20
-355.1318574338911
 10
145.3444879553654
 20
-357.6755580906593
 10
144.8981127108209
 20
-360.211508724944
 10
144.4485137174279
 20
-362.7462545237959
 10
144.2186343740595
 20
-364.0422341238609
 10
144.4330787986983
 20
-365.1339452741831
 10
145.3456113829961
 20
-366.1875901376079
 10
147.4208101553941
 20
-368.5837147359907
 10
149.3830474656324
 20
-371.077658945891
 10
151.4660939498744
 20
-373.6233459529576
 10
151.5861704536874
 20
-371.5855459235081
 10
151.6235366335159
 20
-369.8371017755198
 10
151.8241254507338
 20
-368.1075442369402
 10
151.9019350252047
 20
-367.4367439715716
 10
152.215143391828
 20
-366.6854151112457
 10
152.6660449100091
 20
-366.1968380635972
 10
153.0942662153329
 20
-365.7329112975458
 10
153.9239256600495
 20
-365.228085253173
 10
154.4295983455286
 20
-365.3504574569233
 10
155.0722315123739
 20
-365.5060440427478
 10
155.8098838624373
 20
-366.1773001917882
 10
156.0625411080191
 20
-366.8049543235793
 10
156.3757169115252
 20
-367.5829523789307
 10
156.2883337798667
 20
-368.5447041186198
 10
156.2784508730456
 20
-369.4259598264634
 10
156.249599949012
 20
-372.002907428423
 10
156.1968965398119
 20
-374.5801480984574
 10
156.1047103480032
 20
-377.1555326706675
 10
156.064250671805
 20
-378.2855054866195
 10
156.3993902995289
 20
-379.1372915711563
 10
157.2269657045863
 20
-379.9735450476055
 10
161.8895974034785
 20
-384.6850702706924
 10
167.2435929778185
 20
-388.4418773879461
 10
173.2289385980312
 20
-391.811183381029
 10
172.6756423500228
 20
-389.6940270289251
 10
171.9555578030222
 20
-387.7987883374244
 10
171.7342751232509
 20
-385.8470200701668
 10
171.5182676688664
 20
-383.9418821902855
 10
171.7452651761432
 20
-381.9730508483099
 10
171.918093933833
 20
-380.0447605903391
 10
171.9773913747649
 20
-379.382947746004
 10
172.334706486994
 20
-378.6408342485447
 10
172.7904599100066
 20
-378.1559693965355
 10
173.1440953897081
 20
-377.779832801134
 10
173.9336207894221
 20
-377.4983571946432
 10
174.3985895753067
 20
-377.6315403541248
 10
174.8532195706894
 20
-377.7617602697155
 10
175.4100326356238
 20
-378.4495259204341
 10
175.4472034367354
 20
-378.9293434888896
 10
175.5207960872085
 20
-379.8800237678897
 10
175.240736976416
 20
-380.8536284831389
 10
175.1546889326692
 20
-381.8220230992483
 10
174.9843838167535
 20
-383.7390790809295
 10
174.8465604127141
 20
-385.6590657433808
 10
174.6586060859336
 20
-388.0434676186851
 10
176.2644563328549
 20
-387.2244074694245
 10
176.3625038862056
 20
-385.951873315531
 10
177.0042578488183
 20
-385.1158152177977
 10
177.5399048859617
 20
-384.4179875630962
 10
177.8941753464997
 20
-383.5722582188173
 10
178.4706890988382
 20
-382.9168277459394
 10
179.1215281718423
 20
-382.1769285406172
 10
180.0949537899369
 20
-381.9635424173684
 10
180.8549281585401
 20
-382.6250296305061
 10
181.7278477077516
 20
-383.384792338833
 10
181.2654839714423
 20
-384.2697602423214
 10
180.5650024224879
 20
-384.9183524600703
 10
178.7225159848695
 20
-386.6243017368761
 10
177.9269175633353
 20
-388.809124251673
 10
177.2560521717296
 20
-391.1676710099528
 10
176.7428736871634
 20
-392.9718957819478
 10
177.217823069228
 20
-394.2871853119868
 10
178.3309119076212
 20
-395.5458475768992
 10
179.095884715096
 20
-396.4107565986651
 10
179.9821388618102
 20
-397.1730266672093
 10
180.7017023988965
 20
-398.0712803235256
 10
181.006053596966
 20
-398.451161677689
 10
181.021569923495
 20
-399.0624691234043
 10
181.2739666641173
 20
-399.9325556812
 10
179.445286989243
 20
-399.4153556513575
 10
178.20152235158
 20
-398.8599265190041
 10
177.1968849832738
 20
-397.8125012114451
 10
176.5200279776464
 20
-397.106890971143
 10
175.845971400312
 20
-396.3938237764323
 10
175.1185275882644
 20
-395.7422357516753
 10
171.8021855093393
 20
-392.7715023434521
 10
168.2896994790326
 20
-390.48439906975
 10
163.4421906681682
 20
-391.2145619022867
 10
161.5661153725987
 20
-391.4971772179761
 10
159.5620832982549
 20
-391.0369300844468
 10
157.6311717091503
 20
-390.796125814426
 10
156.8627309294279
 20
-390.7002925532124
 10
156.095641519174
 20
-390.3565236987743
 10
155.3976510488756
 20
-389.9921098264567
 10
154.4933243707374
 20
-389.5199120280031
 10
153.7722303670289
 20
-388.8075612219291
 10
154.0109994420691
 20
-387.6584738547317
 10
154.2490032837923
 20
-386.5131312462963
 10
155.1807969533802
 20
-386.1148517295169
 10
156.204744251655
 20
-386.0857403005266
 10
157.1705663813027
 20
-386.0582895906355
 10
158.1514326722445
 20
-386.1747678697266
 10
159.108299943985
 20
-386.3331223207206
 10
159.968405905598
 20
-386.4754882799516
 10
160.8048873238868
 20
-386.7607086452081
 10
162.1222120489001
 20
-387.1063987237103
 10
159.0499468335202
 20
-384.1931392217193
 10
156.6207218239824
 20
-381.1222416573655
 10
153.494141324978
 20
-379.1658494271105
 10
150.9577348070197
 20
-377.5787229740072
 10
147.583902540302
 20
-377.6192314948858
 10
144.5250207671088
 20
-378.7995143307362
 10
143.2877361902629
 20
-379.2768896652142
 10
142.0357656464466
 20
-379.7467754821664
 10
140.7514517840036
 20
-380.0600652565881
 10
139.9961909269741
 20
-380.2443399508466
 10
139.1487113150133
 20
-380.2184522707048
 10
138.3703062206714
 20
-380.1022344965713
 10
137.0695805459127
 20
-379.9080931770513
 10
136.3125287172988
 20
-379.0021871876106
 10
136.4598361299413
 20
-377.9647913209064
 10
136.6340651017772
 20
-376.7379106608023
 10
137.5208728215293
 20
-376.420908690734
 10
138.588438418612
 20
-376.4297984224086
 10
140.3654974080218
 20
-376.4446472049785
 10
142.1422551885726
 20
-376.4946967199267
 10
143.9192327701803
 20
-376.5241663432316
 10
144.5012171266235
 20
-376.5338375897772
 10
145.083494551146
 20
-376.5256968098565
 10
145.8042954867797
 20
-376.1248773697407
 10
145.3273923175348
 20
-375.8399175094382
 10
144.8727297590322
 20
-375.50595015402
 10
144.3700365990035
 20
-375.2778129375602
 10
140.3413599955593
 20
-373.4496217094747
 10
136.2820496372797
 20
-371.6871428569048
 10
132.2806365057886
 20
-369.8016079750687
 10
130.9339724099436
 20
-369.1670504619069
 10
129.6394337279253
 20
-368.3430407184514
 10
128.4868783884831
 20
-367.4024224434343
 10
127.6835706483662
 20
-366.7468617180748
 10
126.8770798633004
 20
-365.6513081196299
 10
127.6500550574383
 20
-364.6093534161737
 10
128.4518811756088
 20
-363.5285509109417
 10
129.5970528276639
 20
-364.1476083791385
 10
130.521430246743
 20
-364.7070753383268
 10
131.5080602098687
 20
-365.3042503901015
 10
132.4493541696211
 20
-365.9779487731212
 10
133.3972665834463
 20
-366.6371891310027
 10
137.9955372762961
 20
-369.8352456776975
 10
142.7491259092312
 20
-372.7621491268364
 10
147.9138809135584
 20
-374.9723383118599
 10
148.6945165815978
 20
-375.3064033566352
 10
149.4871680408014
 20
-375.6124315553679
 10
150.5515261705968
 20
-375.5543715129843
 10
149.2337129987891
 20
-373.9296020935271
 10
147.9299019684404
 20
-372.2932076403486
 10
146.595774673674
 20
-370.6819519155633
 10
139.2673306192191
 20
-361.8313285502063
 10
133.0023736311105
 20
-352.2261851387848
 10
126.7835992874861
 20
-342.5960983776913
 10
125.743704201348
 20
-340.9857544202532
 10
124.5109214757986
 20
-340.4170069719621
 10
122.7309399463993
 20
-340.1426301255506
 10
120.567543964351
 20
-339.8092163431702
 10
118.4542789050502
 20
-339.1174454287284
 10
116.3432199971057
 20
-338.4991369122854
 10
115.7726571548856
 20
-338.3320229820984
 10
115.2279901335942
 20
-337.9367718354442
 10
114.7774956544081
 20
-337.5290490139578
 10
113.89962651101
 20
-336.734378641333
 10
113.6702925998979
 20
-335.694247472582
 10
114.1372640176405
 20
-334.6135752198243
 10
114.567740319002
 20
-333.6172740101574
 10
115.4859307453407
 20
-333.0333847112106
 10
116.5064344937127
 20
-333.2610334808796
 10
118.2916831077182
 20
-333.6592804345419
 10
120.0220303019487
 20
-334.3036068836082
 10
121.8797237164581
 20
-334.8770434211383
 10
121.6902714861699
 20
-334.4171219188065
 10
121.5111010609235
 20
-333.7840297460298
 10
121.1903054874165
 20
-333.2334199553916
 10
117.2504366521134
 20
-326.4710694549813
 10
113.6191929243405
 20
-319.5576912055076
 10
110.7355495796955
 20
-312.2674925351148
 10
110.5248499138197
 20
-311.7348250234209
 10
110.1219952787233
 20
-311.1972079175393
 10
109.6636612284756
 20
-310.8569233169019
 10
107.1834505143024
 20
-309.0154463359941
 10
104.5536366875467
 20
-307.3599698946855
 10
102.1881621255579
 20
-305.3855051330065
 10
100.859293774618
 20
-304.2762750242964
 10
99.58184258965139
 20
-303.77229562104
 10
97.8913200907873
 20
-303.8475815537349
 10
95.6736658105765
 20
-303.9463780588394
 10
93.43243583171898
 20
-304.016128261188
 10
91.23040370817216
 20
-303.8009837294758
 10
89.5867883832043
 20
-303.6403824232257
 10
87.91817272310618
 20
-303.1775302401202
 10
86.39249287683106
 20
-302.5358739668663
 10
85.0531961868146
 20
-301.9725971226781
 10
84.5365253076634
 20
-300.654897921786
 10
84.92120972198245
 20
-299.7461589409359
 10
85.48652990193204
 20
-298.4106802766983
 10
86.6524686835628
 20
-298.2161156366219
 10
87.82436651609441
 20
-298.561219578969
 10
89.17052588358183
 20
-298.9575778716917
 10
90.46980249951503
 20
-299.5498684555114
 10
91.73917803080349
 20
-300.1614038430653
 10
93.4902190875855
 20
-301.0049514583225
 10
95.2078666651405
 20
-301.8943479460868
 10
97.49862514902907
 20
-301.6964618678085
 10
95.81740756161344
 20
-299.3804425438284
 10
94.1585608374171
 20
-297.3162012612011
 10
92.76859593318295
 20
-295.0845204171874
 10
92.10268827654909
 20
-294.0153429456805
 10
91.84075054185723
 20
-292.6473011617709
 10
91.62108787728903
 20
-291.3756787752245
 10
91.55321819510027
 20
-290.982804736308
 10
92.16410232026101
 20
-290.1712341045732
 10
92.58099980071802
 20
-290.0789827865246
 10
93.01661293421148
 20
-289.9825308260388
 10
93.73048606613065
 20
-290.4065677704857
 10
94.07073810364636
 20
-290.8137044558225
 10
94.44429407181269
 20
-291.2606658365185
 10
94.67024955925808
 20
-291.9366762010395
 10
94.71813362674402
 20
-292.5324184755464
 10
94.97158866875907
 20
-295.6852774121307
 10
96.73550843937664
 20
-298.044019549121
 10
98.88757245577472
 20
-300.0610443082187
 10
102.0567129521987
 20
-303.0313218327683
 10
105.4205239188341
 20
-305.7938792168879
 10
108.7014129012096
 20
-308.6449105971788
 10
108.8609396245138
 20
-308.5474166168588
 10
109.0204582070346
 20
-308.449922636546
 10
109.1799849303379
 20
-308.3524286562315
 10
108.6581527967192
 20
-306.7363861528502
 10
107.9735050647096
 20
-305.1524834485917
 10
107.646685314061
 20
-303.4979187746358
 10
106.8427181707721
 20
-299.4277567567242
 10
104.7465568900789
 20
-296.3261521705099
 10
101.6117786256973
 20
-293.5995444705131
 10
99.36818782066257
 20
-291.6480367082131
 10
97.5899077142667
 20
-289.1011123025964
 10
95.86621153723172
 20
-286.6364749004097
 10
94.92697719479747
 20
-285.2935067186463
 10
94.45115674928638
 20
-283.5958610373546
 10
93.92421220587494
 20
-282.0058690297137
 10
93.57461455301109
 20
-280.9510193308688
 10
93.70755348909825
 20
-279.8011830119176
 10
94.79052144178968
 20
-279.1713797142293
 10
95.99786423008936
 20
-278.4693188539677
 10
96.90047320366648
 20
-279.3105544877308
 10
97.49227534069269
 20
-280.1757240144525
 10
98.7930172970091
 20
-282.0773776405276
 10
99.95999809847126
 20
-284.0727479250363
 10
101.1338171550624
 20
-286.0581538949245
 10
101.9382890267098
 20
-287.4189015400298
 10
102.6622811480693
 20
-288.827223902983
 10
103.7231306017202
 20
-290.0834439339233
 10
103.031807430174
 20
-286.2906220063087
 10
102.183293939167
 20
-282.5182171547312
 10
101.6867145048564
 20
-278.7000611200056
 10
100.9769768891347
 20
-273.2429381456477
 10
100.3894893654651
 20
-267.7611974528154
 10
100.0283969313559
 20
-262.2716741743789
 10
99.8816023878453
 20
-260.0400258934842
 10
99.20844129630223
 20
-258.4199130001471
 10
97.49466058920825
 20
-257.0196988539919
 10
94.14653690547493
 20
-254.2841362960826
 10
91.47343855189047
 20
-250.9716203837179
 10
89.78796333657738
 20
-246.9568482323766
 10
89.35173150380888
 20
-245.9176939572135
 10
89.02227414046683
 20
-244.7503061167572
 10
89.0070915859169
 20
-243.6368753656052
 10
88.9829297511169
 20
-241.8641065672182
 10
90.38444642205741
 20
-241.0119297252431
 10
91.88163353861182
 20
-241.9698064536933
 10
93.18482586968548
 20
-242.8035851330478
 10
94.29960799030505
 20
-244.0055224434809
 10
95.307224884059
 20
-245.2047895781025
 10
96.15476148147809
 20
-246.2134973363673
 10
96.76267422196815
 20
-247.4332141101495
 10
97.41316324143372
 20
-248.5950336571377
 10
98.04431790859417
 20
-249.7223688603899
 10
98.59458578647263
 20
-250.8949993631159
 10
99.34896743927311
 20
-251.9970655854977
 10
99.77974494949376
 20
-245.6986092880206
 10
100.0330941613684
 20
-239.4532308756179
 10
97.73881071977485
 20
-233.4270999480068
 10
97.4860557848342
 20
-232.7632030640098
 10
97.19404600912276
 20
-232.1097263783122
 10
97.00022218001777
 20
-231.4287012933664
 10
96.09500001609013
 20
-228.2479683263418
 10
94.92541416505537
 20
-225.2723830132873
 10
92.13514556608789
 20
-223.1536799129944
 10
91.2576427577842
 20
-222.4873896397012
 10
90.74105328643236
 20
-221.3340690669493
 10
90.0915411605547
 20
-220.3816629426083
 10
88.69760355571816
 20
-218.3376107941785
 10
87.28845897399151
 20
-216.3022529987065
 10
85.96135717229754
 20
-214.2151361245042
 10
85.44826009552798
 20
-213.4081568926449
 10
84.96380228252201
 20
-212.5005576209805
 10
84.80740161870654
 20
-211.5807960241118
 10
84.71694127224237
 20
-211.0488123379346
 10
85.17083859743252
 20
-210.2159779890508
 10
85.63925093322086
 20
-209.8740815139881
 10
85.92789856682612
 20
-209.6634144112322
 10
86.93052516249281
 20
-209.9467298339932
 10
87.21863550462513
 20
-210.3157839508613
 10
87.91437097888229
 20
-211.2070690995706
 10
88.43952455071121
 20
-212.2504077356116
 10
88.92420216477785
 20
-213.2837006492327
 10
89.97829477109462
 20
-215.5309792275739
 10
90.8882385873776
 20
-217.8488220862546
 10
92.01105565777289
 20
-220.0596299705512
 10
92.54582349068642
 20
-221.1125910084611
 10
93.43262306965607
 20
-221.9867642377758
 10
94.27476232998833
 20
-223.0926729082794
 10
94.27476232998833
 20
-219.658484899237
 10
94.31685016217307
 20
-216.6008568061525
 10
94.23545864453808
 20
-213.5465013065977
 10
94.22103318252175
 20
-213.0049929079096
 10
93.72427465105284
 20
-212.4567276618909
 10
93.39592443377933
 20
-211.9465287027779
 10
91.71403116163037
 20
-209.333045280543
 10
89.9495252548586
 20
-206.7697579072856
 10
88.35550356115982
 20
-204.1042223382456
 10
87.78586062707382
 20
-203.151685961423
 10
87.41236978514917
 20
-201.9804231097278
 10
87.30830619543849
 20
-200.8751982647373
 10
87.16105576825248
 20
-199.3111427819204
 10
88.11796374389178
 20
-198.0977432533591
 10
89.5042083117014
 20
-197.5740468811382
 10
90.88696048492784
 20
-197.0516693152667
 10
92.27226886304925
 20
-197.4012018418898
 10
93.23139113082743
 20
-198.8090520396054
 10
93.91689364472768
 20
-199.8152361560979
 10
94.48803448232047
 20
-200.981256345528
 10
94.7810862778606
 20
-202.1579409566502
 10
95.76747201758826
 20
-206.1184466690493
 10
96.33086283269859
 20
-210.0916519981201
 10
96.18786189263028
 20
-214.2506299249517
 10
95.957974408484
 20
-220.9366036281581
 10
96.74185010693327
 20
-227.552615468735
 10
100.0415768540424
 20
-233.8667671898993
 10
100.2414085787277
 20
-233.3008201698949
 10
100.4837026114719
 20
-232.8868126663101
 10
100.5267754780261
 20
-232.4530393490777
 10
101.8451666452083
 20
-219.1759483102887
 10
103.9362399384536
 20
-206.0361922287429
 10
107.3829484670105
 20
-193.1288716954532
 10
107.5471805611051
 20
-192.5138520540995
 10
107.4508425715367
 20
-191.7393545341138
 10
107.2325394172158
 20
-191.1256699806627
 10
104.3201754010133
 20
-182.9389923439776
 10
102.5213398253218
 20
-174.5650279244637
 10
102.8377230961141
 20
-165.8214232519249
 10
102.86326072272
 20
-165.1159107009817
 10
102.7610043861514
 20
-164.3096315761959
 10
103.0670163033283
 20
-163.7364066989412
 10
103.3997544009781
 20
-163.1131160251853
 10
104.0798432962301
 20
-162.4654518563511
 10
104.7270190182708
 20
-162.3042644139441
 10
105.0745896169365
 20
-162.2176953602802
 10
105.9499106962194
 20
-163.0527277197434
 10
106.1022328292929
 20
-163.605519239396
 10
106.5471183111122
 20
-165.2199173052331
 10
106.8218940557372
 20
-166.892245160976
 10
107.0313074783844
 20
-168.5584674317806
 10
107.706691002847
 20
-173.9319683148042
 10
108.3183566428788
 20
-179.3134471621488
 10
108.9702784396113
 20
-184.6899601337427
 10
109.0222410378401
 20
-185.1185396333867
 10
109.1945080817159
 20
-185.5325471369715
 10
109.4206589478781
 20
-186.3503210430044
 10
113.0650500352203
 20
-176.614990279113
 10
116.5734249716697
 20
-167.2429662414679
 10
120.1537969657238
 20
-157.6786244190043
 10
118.0634726242342
 20
-155.3461281564705
 10
116.753938625604
 20
-152.4346596260621
 10
116.3999286700255
 20
-149.2200935776855
 10
116.2112498138295
 20
-147.50678503583
 10
116.5041225122141
 20
-145.7051164687255
 10
116.8133093335564
 20
-143.9853441476107
 10
117.0042350450103
 20
-142.9233468439925
 10
117.7590562999249
 20
-142.0208111374368
 10
118.9952825753808
 20
-141.946583506131
 10
119.9421529693773
 20
-141.8897120176134
 10
120.7559785971489
 20
-142.9691468718192
 10
120.8810046951548
 20
-144.4998577200822
 10
121.1124063643638
 20
-147.3330770739058
 10
121.2590218107143
 20
-150.1731835275432
 10
121.4471715162163
 20
-153.0100011060913
 10
121.4691516219973
 20
-153.3414936644131
 10
121.5303051607516
 20
-153.6703811731595
 10
121.6466776097013
 20
-154.5639457402449
 10
123.045133347392
 20
-152.3045536813879
 10
124.1345569385603
 20
-150.4248964426524
 10
125.3415252509858
 20
-148.6240256719802
 10
126.9260710768558
 20
-146.259780367759
 10
128.1351234289396
 20
-143.8909925083435
 10
128.6560437952094
 20
-140.9396178747684
 10
129.6325303465546
 20
-135.4070461521169
 10
131.5649072760471
 20
-130.0734025275788
 10
135.4378100557296
 20
-125.8047194505498
 10
137.1434092790023
 20
-123.9248017068594
 10
139.29977976798
 20
-122.4396629445855
 10
141.3322231642424
 20
-120.8805244928426
 10
141.8395321464868
 20
-120.4913463680105
 10
142.6566547901248
 20
-120.3841648595908
 10
143.33654830666
 20
-120.3682577756281
 10
144.5903586667437
 20
-120.3389021232388
 10
145.2188920027666
 20
-120.9707731790304
 10
144.9945483897454
 20
-122.1893013989411
 10
144.7075370529055
 20
-123.7482444719653
 10
144.3623028580796
 20
-125.3468168616382
 10
143.7129616885804
 20
-126.779089399115
 10
141.8997169324302
 20
-130.7786382920058
 10
139.334939796453
 20
-134.2916616137863
 10
136.2449765255287
 20
-137.4134553341974
 10
129.0022548836259
 20
-144.7308279279587
 10
124.0217827143333
 20
-153.4664546361755
 10
120.2404392864073
 20
-162.9502678636754
 10
119.5510699020451
 20
-164.6792555476595
 10
118.9372388145548
 20
-166.438592059184
 10
118.3103743384117
 20
-168.1917252964049
 10
118.2634264606186
 20
-168.3230035133884
 10
118.3927671719775
 20
-168.5173239300666
 10
118.4596518197959
 20
-168.7501990804421
 10
120.9731094791641
 20
-167.0685418909125
 10
123.4426883347624
 20
-165.3572848255953
 10
125.9752117006974
 20
-163.7449056731775
 10
127.3953300537578
 20
-162.8407743737607
 10
128.8838472396956
 20
-162.0248728471088
 10
130.4049845307754
 20
-161.3028833576063
 10
132.985587342916
 20
-160.0780378924765
 10
135.3168543476841
 20
-158.5727914038034
 10
137.474999526683
 20
-156.6508509541691
 10
140.0739597975453
 20
-154.3363783783752
 10
143.0878637616806
 20
-152.5814704511286
 10
146.726173686423
 20
-152.3515748262034
 10
147.2569362556142
 20
-152.3180348129317
 10
147.7994703925715
 20
-152.3047327785453
 10
148.3243878817793
 20
-152.3740759418979
 10
150.1882682890282
 20
-152.6203508160233
 10
150.9259857653351
 20
-154.134894075366
 10
149.748438231537
 20
-155.6184860894564
 10
149.0020264022769
 20
-156.5588764226359
 10
147.9581830378811
 20
-157.3736870847806
 10
146.883030233912
 20
-157.9216592627217
 10
143.7827770171671
 20
-159.5018334897768
 10
140.4834003235965
 20
-160.6067978298106
 10
137.0035425392061
 20
-160.895567575114
 10
133.9341998638183
 20
-161.150276297235
 10
131.6262154896185
 20
-162.8901563447489
 10
128.6556367562125
 20
-164.352680020409
 10
132.1348839821094
 20
-165.3540936398649
 10
135.1061709633668
 20
-166.1994485082669
 10
138.0702859175171
 20
-167.0692745611077
 10
138.8308627038368
 20
-167.2924621833781
 10
139.6532280097445
 20
-167.469084544512
 10
140.2872238090949
 20
-167.9016041816358
 10
140.7040643040928
 20
-168.1859941873436
 10
141.1787531811979
 20
-169.1422264782468
 10
141.0226781485826
 20
-169.3560033589347
 10
140.6722908400679
 20
-169.835983742988
 10
139.9285898905218
 20
-170.3209462843497
 10
139.3750249967743
 20
-170.2886925143102
 10
138.6334894946876
 20
-170.245497536057
 10
137.8388598259671
 20
-169.8282662836236
 10
137.2088204456568
 20
-169.3746945896282
 10
134.1407721542728
 20
-167.16590561875
 10
130.4707376101869
 20
-166.7690100345553
 10
126.9596843571444
 20
-165.9169797266195
 10
126.4512519472719
 20
-165.7935980661587
 10
125.7416690063683
 20
-166.0832958603769
 10
125.2499821807905
 20
-166.3851234166714
 10
123.8128658792602
 20
-167.2674374259068
 10
122.4025653067874
 20
-168.2035457088477
 10
121.0475162076282
 20
-169.2073364360431
 10
117.9991116181927
 20
-171.4655887857134
 10
115.7319695368496
 20
-174.1692069232176
 10
114.4840368198711
 20
-177.9564931204877
 10
111.9841824037494
 20
-185.5431464324283
 10
109.0299015117407
 20
-192.9800093938475
 10
107.4489783329354
 20
-200.8475847392492
 10
107.3666669071681
 20
-201.2572287847988
 10
107.3007428713809
 20
-201.6701779869964
 10
107.1295585512335
 20
-202.6275825502098
 10
108.4758400304199
 20
-201.1081548229122
 10
109.3963912829377
 20
-199.919405575949
 10
110.470534630198
 20
-198.8910948196353
 10
112.200873683646
 20
-197.2345926400576
 10
114.0097468409786
 20
-195.6571211519367
 10
115.835634228345
 20
-194.105309402119
 10
116.3651268358681
 20
-193.6552545250497
 10
117.0411046372656
 20
-193.1971402758591
 10
117.6946790123211
 20
-193.1194935169869
 10
118.4982798205156
 20
-193.0240510132126
 10
119.5135816105148
 20
-193.0820622109186
 10
120.1394040668274
 20
-193.5097462247686
 10
121.0235334699855
 20
-194.1139874735127
 10
121.1064391726841
 20
-195.3019714871643
 10
120.4787117738724
 20
-196.1522433866412
 10
119.4916340678528
 20
-197.4892036728206
 10
118.4145763213819
 20
-198.8106801955937
 10
117.160513597124
 20
-199.8883729228946
 10
114.939651849626
 20
-201.7969299303404
 10
112.5259757297326
 20
-203.4791244113485
 10
110.2544539087939
 20
-205.3314449111122
 10
108.9504312181698
 20
-206.3947610210762
 10
107.7259927920368
 20
-207.5660564358932
 10
106.550138540465
 20
-208.7711198058169
 10
106.0814819812776
 20
-209.2514583841867
 10
105.6372559026313
 20
-209.9192465609858
 10
105.527729849593
 20
-210.5607400186418
 10
104.5774321872523
 20
-216.1268191914405
 10
103.7058314443912
 20
-221.7063469326658
 10
102.8108178184802
 20
-227.2818531286111
 10
102.9887996898606
 20
-227.3423391234173
 10
103.1667815612391
 20
-227.4028088366595
 10
103.3447634326221
 20
-227.4632785499007
 10
103.8010297247674
 20
-226.7384886321061
 10
104.2366184359225
 20
-225.9996640097352
 10
104.7175512912263
 20
-225.2916115354565
 10
106.0139135079462
 20
-223.3830545280052
 10
107.2700114271847
 20
-221.4421949058378
 10
108.6664645330175
 20
-219.6089075495274
 10
109.239111414895
 20
-218.8571228055216
 10
110.0561282283952
 20
-218.2056650332452
 10
110.8963137015462
 20
-217.7642882275704
 10
112.060160302738
 20
-217.1528830924926
 10
113.1507724477724
 20
-217.8383530432784
 10
113.0496476796134
 20
-219.1390054510166
 10
112.9695424052052
 20
-220.1692211498284
 10
112.6161430081193
 20
-221.2281575201932
 10
112.1673418111595
 20
-222.1711854660689
 10
110.088495969354
 20
-226.5393163105955
 10
107.3593971907003
 20
-230.4750577704799
 10
103.9492000600831
 20
-233.9115414794542
 10
102.5685726304155
 20
-235.3028007676994
 10
101.9567441747849
 20
-236.8433619596653
 10
101.8250589188092
 20
-238.8517574920434
 10
101.1664535417585
 20
-248.8969589027902
 10
101.3569233695371
 20
-258.913244263269
 10
102.368806031971
 20
-268.9293993712599
 10
102.5360664961981
 20
-268.8766796805012
 10
102.776162518363
 20
-268.8646638893424
 10
102.8022048733237
 20
-268.7837771000632
 10
104.4835852763381
 20
-263.5593176158054
 10
106.8476189202802
 20
-258.5544638106549
 10
107.6868682037439
 20
-253.0559856743093
 10
108.0219671275709
 20
-250.860547582497
 10
108.7742240368116
 20
-248.7425445892814
 10
110.2761083833784
 20
-247.0031204254392
 10
111.3781176203029
 20
-245.7268089496592
 10
112.4204060957363
 20
-245.3622648248665
 10
113.2182920764253
 20
-246.0165555885533
 10
114.2235562847836
 20
-246.8409235263243
 10
114.1259890374504
 20
-247.8981177697888
 10
113.5722206242062
 20
-248.9107331024197
 10
112.5090591890594
 20
-250.8547187840722
 10
111.3606963512739
 20
-252.7520415152285
 10
110.2933586960289
 20
-254.6938454678711
 10
109.4915732817572
 20
-256.1525104138473
 10
108.76118250738
 20
-257.6504464821555
 10
107.6909630160426
 20
-259.729276042397
 10
109.9969610399412
 20
-258.888040408634
 10
111.6536667390174
 20
-258.2390248703359
 10
113.3413155425706
 20
-257.6840516216616
 10
114.4292656525731
 20
-257.3263457520006
 10
115.550853465199
 20
-257.0004866133822
 10
116.6811600531246
 20
-256.8753465444606
 10
117.1600088687692
 20
-256.8223337856216
 10
117.6998972522506
 20
-257.3207774585335
 10
118.2120337169863
 20
-257.5685502361666
 10
117.8757706616316
 20
-258.124565504666
 10
117.653747170888
 20
-258.8365255533081
 10
117.1698429309108
 20
-259.1910402372378
 10
116.720398612335
 20
-259.5203510665415
 10
115.9902683429173
 20
-259.4619328298431
 10
115.3859945310496
 20
-259.5854121796619
 10
114.000311677054
 20
-259.8686461946199
 10
112.5943501402744
 20
-260.0813484923565
 10
111.2356946756117
 20
-260.4620764876308
 10
108.3815860805144
 20
-261.2619569594044
 10
106.4287839342041
 20
-262.9817455620741
 10
105.6825837652232
 20
-265.9820788460838
 10
105.2765623667392
 20
-267.614663414266
 10
104.762170905964
 20
-269.2464339044454
 10
104.0689183695804
 20
-270.775272373332
 10
103.0361301843122
 20
-273.0529323423289
 10
102.8292729665573
 20
-275.3257729696143
 10
103.3353771133743
 20
-277.7572936790912
 10
104.0562268936847
 20
-281.2205768355598
 10
104.6543869798288
 20
-284.7094220409836
 10
105.4096071329641
 20
-288.7467604342601
 97
        0
 97
        0
 75
     2
 76
     1
 98
        0
  0
ENDBLK
  5
4E
330
4B
100
AcDbEntity
  8
0
100
AcDbBlockEnd
  0
ENDSEC
  0
SECTION
  2
ENTITIES
  0
INSERT
  5
42
330
1F
100
AcDbEntity
  8
Layer 1
100
AcDbBlockReference
  2
block 2
 10
0.0
 20
0.0
 30
0.0
  0
ENDSEC
  0
SECTION
  2
OBJECTS
  0
DICTIONARY
  5
C
330
0
100
AcDbDictionary
281
     1
  3
ACAD_GROUP
350
D
  3
ACAD_LAYOUT
350
1A
  3
ACAD_MATERIAL
350
3B
  3
ACAD_MLEADERSTYLE
350
52
  3
ACAD_MLINESTYLE
350
17
  3
ACAD_PLOTSETTINGS
350
19
  3
ACAD_PLOTSTYLENAME
350
E
  3
ACAD_TABLESTYLE
350
51
  3
ACAD_VISUALSTYLE
350
2A
  0
SUN
  5
3F
330
29
100
AcDbSun
 90
        1
290
     0
 63
     7
421
 16777215
 40
1.0
291
     1
 91
  2455826
 92
 54000000
292
     0
 70
     2
 71
   256
280
     1
  0
DICTIONARY
  5
D
102
{ACAD_REACTORS
330
C
102
}
330
C
100
AcDbDictionary
281
     1
  0
DICTIONARY
  5
1A
102
{ACAD_REACTORS
330
C
102
}
330
C
100
AcDbDictionary
281
     1
  3
Layout1
350
1E
  3
Layout2
350
26
  3
Model
350
22
  0
DICTIONARY
  5
3B
102
{ACAD_REACTORS
330
C
102
}
330
C
100
AcDbDictionary
281
     1
  3
ByBlock
350
3D
  3
ByLayer
350
3C
  3
Global
350
3E
  0
DICTIONARY
  5
52
102
{ACAD_REACTORS
330
C
102
}
330
C
100
AcDbDictionary
281
     1
  0
DICTIONARY
  5
17
102
{ACAD_REACTORS
330
C
102
}
330
C
100
AcDbDictionary
281
     1
  3
Standard
350
18
  0
DICTIONARY
  5
19
102
{ACAD_REACTORS
330
C
102
}
330
C
100
AcDbDictionary
281
     1
  0
ACDBDICTIONARYWDFLT
  5
E
102
{ACAD_REACTORS
330
C
102
}
330
C
100
AcDbDictionary
281
     1
  3
Normal
350
F
100
AcDbDictionaryWithDefault
340
F
  0
DICTIONARY
  5
51
102
{ACAD_REACTORS
330
C
102
}
330
C
100
AcDbDictionary
281
     1
  0
DICTIONARY
  5
2A
102
{ACAD_REACTORS
330
C
102
}
330
C
100
AcDbDictionary
281
     1
  3
2dWireframe
350
2F
  3
3D Hidden
350
31
  3
3dWireframe
350
30
  3
Basic
350
32
  3
Brighten
350
36
  3
ColorChange
350
3A
  3
Conceptual
350
34
  3
Dim
350
35
  3
Facepattern
350
39
  3
Flat
350
2B
  3
FlatWithEdges
350
2C
  3
Gouraud
350
2D
  3
GouraudWithEdges
350
2E
  3
Linepattern
350
38
  3
Realistic
350
33
  3
Thicken
350
37
  0
LAYOUT
  5
1E
102
{ACAD_REACTORS
330
1A
102
}
330
1A
100
AcDbPlotSettings
  1

  2
none_device
  4

  6

 40
0.0
 41
0.0
 42
0.0
 43
0.0
 44
0.0
 45
0.0
 46
0.0
 47
0.0
 48
0.0
 49
0.0
140
0.0
141
0.0
142
1.0
143
1.0
 70
   688
 72
     0
 73
     0
 74
     5
  7

 75
    16
 76
     0
 77
     2
 78
   300
147
1.0
148
0.0
149
0.0
100
AcDbLayout
  1
Layout1
 70
     1
 71
     1
 10
0.0
 20
0.0
 11
12.0
 21
9.0
 12
0.0
 22
0.0
 32
0.0
 14
1.000000000000000E+20
 24
1.000000000000000E+20
 34
1.000000000000000E+20
 15
-1.000000000000000E+20
 25
-1.000000000000000E+20
 35
-1.000000000000000E+20
146
0.0
 13
0.0
 23
0.0
 33
0.0
 16
1.0
 26
0.0
 36
0.0
 17
0.0
 27
1.0
 37
0.0
 76
     0
330
1B
  0
LAYOUT
  5
26
102
{ACAD_REACTORS
330
1A
102
}
330
1A
100
AcDbPlotSettings
  1

  2
none_device
  4

  6

 40
0.0
 41
0.0
 42
0.0
 43
0.0
 44
0.0
 45
0.0
 46
0.0
 47
0.0
 48
0.0
 49
0.0
140
0.0
141
0.0
142
1.0
143
1.0
 70
   688
 72
     0
 73
     0
 74
     5
  7

 75
    16
 76
     0
 77
     2
 78
   300
147
1.0
148
0.0
149
0.0
100
AcDbLayout
  1
Layout2
 70
     1
 71
     2
 10
0.0
 20
0.0
 11
0.0
 21
0.0
 12
0.0
 22
0.0
 32
0.0
 14
0.0
 24
0.0
 34
0.0
 15
0.0
 25
0.0
 35
0.0
146
0.0
 13
0.0
 23
0.0
 33
0.0
 16
1.0
 26
0.0
 36
0.0
 17
0.0
 27
1.0
 37
0.0
 76
     0
330
23
  0
LAYOUT
  5
22
102
{ACAD_REACTORS
330
1A
102
}
330
1A
100
AcDbPlotSettings
  1

  2
none_device
  4

  6

 40
0.0
 41
0.0
 42
0.0
 43
0.0
 44
0.0
 45
0.0
 46
0.0
 47
0.0
 48
0.0
 49
0.0
140
0.0
141
0.0
142
1.0
143
1.0
 70
  1712
 72
     0
 73
     0
 74
     0
  7

 75
     0
 76
     0
 77
     2
 78
   300
147
1.0
148
0.0
149
0.0
100
AcDbLayout
  1
Model
 70
     1
 71
     0
 10
0.0
 20
0.0
 11
12.0
 21
9.0
 12
0.0
 22
0.0
 32
0.0
 14
1.000000000000000E+20
 24
1.000000000000000E+20
 34
1.000000000000000E+20
 15
-1.000000000000000E+20
 25
-1.000000000000000E+20
 35
-1.000000000000000E+20
146
0.0
 13
0.0
 23
0.0
 33
0.0
 16
1.0
 26
0.0
 36
0.0
 17
0.0
 27
1.0
 37
0.0
 76
     0
330
1F
331
29
  0
MATERIAL
  5
3D
102
{ACAD_REACTORS
330
3B
102
}
330
3B
100
AcDbMaterial
  1
ByBlock
 72
     1
 94
      127
  0
MATERIAL
  5
3C
102
{ACAD_REACTORS
330
3B
102
}
330
3B
100
AcDbMaterial
  1
ByLayer
 72
     1
 94
      127
  0
MATERIAL
  5
3E
102
{ACAD_REACTORS
330
3B
102
}
330
3B
100
AcDbMaterial
  1
Global
 72
     1
 94
      127
  0
MLINESTYLE
  5
18
102
{ACAD_REACTORS
330
17
102
}
330
17
100
AcDbMlineStyle
  2
Standard
 70
     0
  3

 62
   256
 51
90.0
 52
90.0
 71
     2
 49
0.5
 62
   256
  6
BYLAYER
 49
-0.5
 62
   256
  6
BYLAYER
  0
ACDBPLACEHOLDER
  5
F
102
{ACAD_REACTORS
330
E
102
}
330
E
  0
VISUALSTYLE
  5
2F
102
{ACAD_REACTORS
330
2A
102
}
330
2A
100
AcDbVisualStyle
  2
2dWireframe
 70
     4
177
     2
291
     0
 71
     0
176
     1
 72
     2
176
     1
 73
     0
176
     1
 90
        0
176
     1
 40
-0.6
176
     1
 41
-30.0
176
     1
 62
     5
 63
     7
421
 16777215
176
     1
 74
     1
176
     1
 91
        4
176
     1
 64
     7
176
     1
 65
   257
176
     1
 75
     1
176
     1
175
     1
176
     1
 42
1.0
176
     1
 92
        0
176
     1
 66
   257
176
     1
 43
1.0
176
     1
 76
     1
176
     1
 77
     6
176
     1
 78
     2
176
     1
 67
     7
176
     1
 79
     5
176
     1
170
     0
176
     1
171
     0
176
     1
290
     0
176
     1
 93
        1
176
     1
 44
0.0
176
     1
173
     0
176
     1
  0
VISUALSTYLE
  5
31
102
{ACAD_REACTORS
330
2A
102
}
330
2A
100
AcDbVisualStyle
  2
3D Hidden
 70
     6
177
     2
291
     0
 71
     1
176
     1
 72
     2
176
     1
 73
     2
176
     1
 90
        0
176
     1
 40
-0.6
176
     1
 41
-30.0
176
     1
 62
     5
 63
     7
421
 16777215
176
     1
 74
     2
176
     1
 91
        2
176
     1
 64
     7
176
     1
 65
   257
176
     1
 75
     2
176
     1
175
     1
176
     1
 42
40.0
176
     1
 92
        0
176
     1
 66
   257
176
     1
 43
1.0
176
     1
 76
     1
176
     1
 77
     6
176
     1
 78
     2
176
     1
 67
     7
176
     1
 79
     3
176
     1
170
     0
176
     1
171
     0
176
     1
290
     0
176
     1
 93
        1
176
     1
 44
0.0
176
     1
173
     0
176
     1
  0
VISUALSTYLE
  5
30
102
{ACAD_REACTORS
330
2A
102
}
330
2A
100
AcDbVisualStyle
  2
3dWireframe
 70
     5
177
     2
291
     0
 71
     0
176
     1
 72
     2
176
     1
 73
     0
176
     1
 90
        0
176
     1
 40
-0.6
176
     1
 41
-30.0
176
     1
 62
     5
 63
     7
421
 16777215
176
     1
 74
     1
176
     1
 91
        4
176
     1
 64
     7
176
     1
 65
   257
176
     1
 75
     1
176
     1
175
     1
176
     1
 42
1.0
176
     1
 92
        0
176
     1
 66
   257
176
     1
 43
1.0
176
     1
 76
     1
176
     1
 77
     6
176
     1
 78
     2
176
     1
 67
     7
176
     1
 79
     5
176
     1
170
     0
176
     1
171
     0
176
     1
290
     0
176
     1
 93
        1
176
     1
 44
0.0
176
     1
173
     0
176
     1
  0
VISUALSTYLE
  5
32
102
{ACAD_REACTORS
330
2A
102
}
330
2A
100
AcDbVisualStyle
  2
Basic
 70
     7
177
     2
291
     1
 71
     1
176
     1
 72
     0
176
     1
 73
     1
176
     1
 90
        0
176
     1
 40
-0.6
176
     1
 41
-30.0
176
     1
 62
     5
 63
     7
421
 16777215
176
     1
 74
     0
176
     1
 91
        4
176
     1
 64
     7
176
     1
 65
   257
176
     1
 75
     1
176
     1
175
     1
176
     1
 42
1.0
176
     1
 92
        8
176
     1
 66
     7
176
     1
 43
1.0
176
     1
 76
     1
176
     1
 77
     6
176
     1
 78
     2
176
     1
 67
     7
176
     1
 79
     5
176
     1
170
     0
176
     1
171
     0
176
     1
290
     0
176
     1
 93
        1
176
     1
 44
0.0
176
     1
173
     0
176
     1
  0
VISUALSTYLE
  5
36
102
{ACAD_REACTORS
330
2A
102
}
330
2A
100
AcDbVisualStyle
  2
Brighten
 70
    12
177
     2
291
     1
 71
     2
176
     1
 72
     2
176
     1
 73
     0
176
     1
 90
        0
176
     1
 40
-0.6
176
     1
 41
-30.0
176
     1
 62
     5
 63
     7
421
 16777215
176
     1
 74
     1
176
     1
 91
        4
176
     1
 64
     7
176
     1
 65
   257
176
     1
 75
     1
176
     1
175
     1
176
     1
 42
1.0
176
     1
 92
        8
176
     1
 66
     7
176
     1
 43
1.0
176
     1
 76
     1
176
     1
 77
     6
176
     1
 78
     2
176
     1
 67
     7
176
     1
 79
     5
176
     1
170
     0
176
     1
171
     0
176
     1
290
     0
176
     1
 93
        1
176
     1
 44
50.0
176
     1
173
     0
176
     1
  0
VISUALSTYLE
  5
3A
102
{ACAD_REACTORS
330
2A
102
}
330
2A
100
AcDbVisualStyle
  2
ColorChange
 70
    16
177
     2
291
     1
 71
     2
176
     1
 72
     2
176
     1
 73
     3
176
     1
 90
        0
176
     1
 40
-0.6
176
     1
 41
-30.0
176
     1
 62
     5
 63
     8
421
  8421504
176
     1
 74
     1
176
     1
 91
        4
176
     1
 64
     7
176
     1
 65
   257
176
     1
 75
     1
176
     1
175
     1
176
     1
 42
1.0
176
     1
 92
        8
176
     1
 66
     8
424
  8421504
176
     1
 43
1.0
176
     1
 76
     1
176
     1
 77
     6
176
     1
 78
     2
176
     1
 67
     7
176
     1
 79
     5
176
     1
170
     0
176
     1
171
     0
176
     1
290
     0
176
     1
 93
        1
176
     1
 44
0.0
176
     1
173
     0
176
     1
  0
VISUALSTYLE
  5
34
102
{ACAD_REACTORS
330
2A
102
}
330
2A
100
AcDbVisualStyle
  2
Conceptual
 70
     9
177
     2
291
     0
 71
     3
176
     1
 72
     2
176
     1
 73
     0
176
     1
 90
        0
176
     1
 40
-0.6
176
     1
 41
-30.0
176
     1
 62
     5
 63
     7
421
 16777215
176
     1
 74
     2
176
     1
 91
        2
176
     1
 64
     7
176
     1
 65
   257
176
     1
 75
     1
176
     1
175
     1
176
     1
 42
40.0
176
     1
 92
        8
176
     1
 66
     7
176
     1
 43
1.0
176
     1
 76
     1
176
     1
 77
     6
176
     1
 78
     2
176
     1
 67
     7
176
     1
 79
     3
176
     1
170
     0
176
     1
171
     0
176
     1
290
     0
176
     1
 93
        1
176
     1
 44
0.0
176
     1
173
     0
176
     1
  0
VISUALSTYLE
  5
35
102
{ACAD_REACTORS
330
2A
102
}
330
2A
100
AcDbVisualStyle
  2
Dim
 70
    11
177
     2
291
     1
 71
     2
176
     1
 72
     2
176
     1
 73
     0
176
     1
 90
        0
176
     1
 40
-0.6
176
     1
 41
-30.0
176
     1
 62
     5
 63
     7
421
 16777215
176
     1
 74
     1
176
     1
 91
        4
176
     1
 64
     7
176
     1
 65
   257
176
     1
 75
     1
176
     1
175
     1
176
     1
 42
1.0
176
     1
 92
        8
176
     1
 66
     7
176
     1
 43
1.0
176
     1
 76
     1
176
     1
 77
     6
176
     1
 78
     2
176
     1
 67
     7
176
     1
 79
     5
176
     1
170
     0
176
     1
171
     0
176
     1
290
     0
176
     1
 93
        1
176
     1
 44
-50.0
176
     1
173
     0
176
     1
  0
VISUALSTYLE
  5
39
102
{ACAD_REACTORS
330
2A
102
}
330
2A
100
AcDbVisualStyle
  2
Facepattern
 70
    15
177
     2
291
     1
 71
     2
176
     1
 72
     2
176
     1
 73
     0
176
     1
 90
        0
176
     1
 40
-0.6
176
     1
 41
-30.0
176
     1
 62
     5
 63
     7
421
 16777215
176
     1
 74
     1
176
     1
 91
        4
176
     1
 64
     7
176
     1
 65
   257
176
     1
 75
     1
176
     1
175
     1
176
     1
 42
1.0
176
     1
 92
        8
176
     1
 66
     7
176
     1
 43
1.0
176
     1
 76
     1
176
     1
 77
     6
176
     1
 78
     2
176
     1
 67
     7
176
     1
 79
     5
176
     1
170
     0
176
     1
171
     0
176
     1
290
     0
176
     1
 93
        1
176
     1
 44
0.0
176
     1
173
     0
176
     1
  0
VISUALSTYLE
  5
2B
102
{ACAD_REACTORS
330
2A
102
}
330
2A
100
AcDbVisualStyle
  2
Flat
 70
     0
177
     2
291
     1
 71
     2
176
     1
 72
     1
176
     1
 73
     1
176
     1
 90
        2
176
     1
 40
-0.6
176
     1
 41
30.0
176
     1
 62
     5
 63
     7
421
 16777215
176
     1
 74
     0
176
     1
 91
        4
176
     1
 64
     7
176
     1
 65
   257
176
     1
 75
     1
176
     1
175
     1
176
     1
 42
1.0
176
     1
 92
        8
176
     1
 66
     7
176
     1
 43
1.0
176
     1
 76
     1
176
     1
 77
     6
176
     1
 78
     2
176
     1
 67
     7
176
     1
 79
     5
176
     1
170
     0
176
     1
171
     0
176
     1
290
     0
176
     1
 93
       13
176
     1
 44
0.0
176
     1
173
     0
176
     1
  0
VISUALSTYLE
  5
2C
102
{ACAD_REACTORS
330
2A
102
}
330
2A
100
AcDbVisualStyle
  2
FlatWithEdges
 70
     1
177
     2
291
     1
 71
     2
176
     1
 72
     1
176
     1
 73
     1
176
     1
 90
        2
176
     1
 40
-0.6
176
     1
 41
30.0
176
     1
 62
     5
 63
     7
421
 16777215
176
     1
 74
     1
176
     1
 91
        4
176
     1
 64
     7
176
     1
 65
   257
176
     1
 75
     1
176
     1
175
     1
176
     1
 42
1.0
176
     1
 92
        0
176
     1
 66
   257
176
     1
 43
1.0
176
     1
 76
     1
176
     1
 77
     6
176
     1
 78
     2
176
     1
 67
     7
176
     1
 79
     5
176
     1
170
     0
176
     1
171
     0
176
     1
290
     0
176
     1
 93
       13
176
     1
 44
0.0
176
     1
173
     0
176
     1
  0
VISUALSTYLE
  5
2D
102
{ACAD_REACTORS
330
2A
102
}
330
2A
100
AcDbVisualStyle
  2
Gouraud
 70
     2
177
     2
291
     1
 71
     2
176
     1
 72
     2
176
     1
 73
     1
176
     1
 90
        2
176
     1
 40
-0.6
176
     1
 41
30.0
176
     1
 62
     5
 63
     7
421
 16777215
176
     1
 74
     0
176
     1
 91
        4
176
     1
 64
     7
176
     1
 65
   257
176
     1
 75
     1
176
     1
175
     1
176
     1
 42
1.0
176
     1
 92
        0
176
     1
 66
     7
176
     1
 43
1.0
176
     1
 76
     1
176
     1
 77
     6
176
     1
 78
     2
176
     1
 67
     7
176
     1
 79
     5
176
     1
170
     0
176
     1
171
     0
176
     1
290
     0
176
     1
 93
       13
176
     1
 44
0.0
176
     1
173
     0
176
     1
  0
VISUALSTYLE
  5
2E
102
{ACAD_REACTORS
330
2A
102
}
330
2A
100
AcDbVisualStyle
  2
GouraudWithEdges
 70
     3
177
     2
291
     1
 71
     2
176
     1
 72
     2
176
     1
 73
     1
176
     1
 90
        2
176
     1
 40
-0.6
176
     1
 41
30.0
176
     1
 62
     5
 63
     7
421
 16777215
176
     1
 74
     1
176
     1
 91
        4
176
     1
 64
     7
176
     1
 65
   257
176
     1
 75
     1
176
     1
175
     1
176
     1
 42
1.0
176
     1
 92
        0
176
     1
 66
   257
176
     1
 43
1.0
176
     1
 76
     1
176
     1
 77
     6
176
     1
 78
     2
176
     1
 67
     7
176
     1
 79
     5
176
     1
170
     0
176
     1
171
     0
176
     1
290
     0
176
     1
 93
       13
176
     1
 44
0.0
176
     1
173
     0
176
     1
  0
VISUALSTYLE
  5
38
102
{ACAD_REACTORS
330
2A
102
}
330
2A
100
AcDbVisualStyle
  2
Linepattern
 70
    14
177
     2
291
     1
 71
     2
176
     1
 72
     2
176
     1
 73
     0
176
     1
 90
        0
176
     1
 40
-0.6
176
     1
 41
-30.0
176
     1
 62
     5
 63
     7
421
 16777215
176
     1
 74
     1
176
     1
 91
        4
176
     1
 64
     7
176
     1
 65
   257
176
     1
 75
     7
176
     1
175
     7
176
     1
 42
1.0
176
     1
 92
        8
176
     1
 66
     7
176
     1
 43
1.0
176
     1
 76
     1
176
     1
 77
     6
176
     1
 78
     2
176
     1
 67
     7
176
     1
 79
     5
176
     1
170
     0
176
     1
171
     0
176
     1
290
     0
176
     1
 93
        1
176
     1
 44
0.0
176
     1
173
     0
176
     1
  0
VISUALSTYLE
  5
33
102
{ACAD_REACTORS
330
2A
102
}
330
2A
100
AcDbVisualStyle
  2
Realistic
 70
     8
177
     2
291
     0
 71
     2
176
     1
 72
     2
176
     1
 73
     0
176
     1
 90
        0
176
     1
 40
-0.6
176
     1
 41
-30.0
176
     1
 62
     5
 63
     7
421
 16777215
176
     1
 74
     1
176
     1
 91
        0
176
     1
 64
     7
176
     1
 65
   257
176
     1
 75
     1
176
     1
175
     1
176
     1
 42
1.0
176
     1
 92
        8
176
     1
 66
     8
424
  7895160
176
     1
 43
1.0
176
     1
 76
     1
176
     1
 77
     6
176
     1
 78
     2
176
     1
 67
     7
176
     1
 79
     5
176
     1
170
     0
176
     1
171
     0
176
     1
290
     0
176
     1
 93
       13
176
     1
 44
0.0
176
     1
173
     0
176
     1
  0
VISUALSTYLE
  5
37
102
{ACAD_REACTORS
330
2A
102
}
330
2A
100
AcDbVisualStyle
  2
Thicken
 70
    13
177
     2
291
     1
 71
     2
176
     1
 72
     2
176
     1
 73
     0
176
     1
 90
        0
176
     1
 40
-0.6
176
     1
 41
-30.0
176
     1
 62
     5
 63
     7
421
 16777215
176
     1
 74
     1
176
     1
 91
        4
176
     1
 64
     7
176
     1
 65
   257
176
     1
 75
     1
176
     1
175
     1
176
     1
 42
1.0
176
     1
 92
       12
176
     1
 66
     7
176
     1
 43
1.0
176
     1
 76
     1
176
     1
 77
     6
176
     1
 78
     2
176
     1
 67
     7
176
     1
 79
     5
176
     1
170
     0
176
     1
171
     0
176
     1
290
     0
176
     1
 93
        1
176
     1
 44
0.0
176
     1
173
     0
176
     1
  0
ENDSEC
  0
EOF
