<svg xmlns="http://www.w3.org/2000/svg" version="1.1" xmlns:xlink="http://www.w3.org/1999/xlink" xmlns:svgjs="http://svgjs.com/svgjs" width="1440" height="560" preserveAspectRatio="none" viewBox="0 0 1440 560"><g mask="url(&quot;#SvgjsMask1041&quot;)" fill="none"><rect width="1440" height="560" x="0" y="0" fill="rgba(244, 221, 213, 1)"></rect><path d="M 0,89 C 57.6,123 172.8,250 288,259 C 403.2,268 460.8,151.2 576,134 C 691.2,116.8 748.8,177 864,173 C 979.2,169 1036.8,103.6 1152,114 C 1267.2,124.4 1382.4,202.8 1440,225L1440 560L0 560z" fill="rgba(234, 233, 229, 1)"></path><path d="M 0,456 C 32,435.4 96,338.4 160,353 C 224,367.6 256,520.2 320,529 C 384,537.8 416,403.8 480,397 C 544,390.2 576,510.4 640,495 C 704,479.6 736,328.6 800,320 C 864,311.4 896,447.4 960,452 C 1024,456.6 1056,334.8 1120,343 C 1184,351.2 1216,492.2 1280,493 C 1344,493.8 1408,376.2 1440,347L1440 560L0 560z" fill="rgba(234, 233, 229, 1)"></path></g><defs><mask id="SvgjsMask1041"><rect width="1440" height="560" fill="#ffffff"></rect></mask></defs></svg>