<?xml version="1.0" encoding="utf-8"?>
<!-- Generator: Adobe Illustrator 25.2.0, SVG Export Plug-In . SVG Version: 6.00 Build 0)  -->
<svg version="1.1" id="Layer_1" xmlns="http://www.w3.org/2000/svg" xmlns:xlink="http://www.w3.org/1999/xlink" x="0px" y="0px"
	 width="300px" height="300px" viewBox="0 0 300 300" style="enable-background:new 0 0 300 300;" xml:space="preserve">
<style type="text/css">
	.st0{fill-rule:evenodd;clip-rule:evenodd;fill:#010101;}
</style>
<g id="_2873118956912">
	<g>
		<path class="st0" d="M287.5,137.1h-54c0.3-1.7,0.4-3.7,0.4-5.9c3.2,1.8,7.5,3.5,12.9,4.4c2.2,0.3,4.2,0.5,6.1,0.5
			c11.5,0,18.1-5.5,18.4-5.8c0.4-0.3,0.5-0.8,0.3-1.3c-0.2-0.4-4.7-9.1-20.9-12.9c0,0-0.1,0-0.1,0c0.5-0.3,1.1-0.6,1.6-0.9
			c10.6-6.7,12-18.1,11.8-18.7c-0.1-0.3-0.4-0.6-0.7-0.7c-1.2-0.4-11.7-0.4-21.5,5.8c-3.9,2.5-6.5,5.5-8.2,8.3
			c-0.3-0.7-0.5-1.4-0.8-2.1l-0.7-1.9c-0.8-2.2-2.7-3.4-4.9-4.8c-1.2-0.8-2.6-1.6-4-2.8c-1-0.9-2.1-1.5-3.1-2
			c0.2-0.3,0.5-0.5,0.7-0.8c0.9,0.3,3.3,0.9,5.8,0.9c0.3,0,0.6,0,1,0c3.5-0.2,5.5-0.9,6.3-1.9c0.3-0.4,0.5-0.9,0.4-1.4
			c-0.1-0.5-0.4-1-0.9-1.3c-1.1-0.8-3.3-0.8-6.6-0.2c-1.1,0.2-2.3,0.6-3.3,1c1.6-1.7,3.1-3.1,4.4-4.4c1,0.3,3.8,1.2,6.5,1.2
			c0.1,0,0.2,0,0.3,0c3.5-0.1,5.6-0.6,6.4-1.6c0.3-0.4,0.5-0.9,0.4-1.4c-0.1-0.5-0.3-1-0.8-1.3c-1.1-0.8-3.2-1-6.5-0.5
			c-1.1,0.2-2.1,0.4-3.1,0.7c1.8-1.5,2.9-2.5,3.3-2.7c0.7-0.2,4-1.1,6.5-2.9c2.8-2,4.3-3.6,4.4-4.9c0.1-0.5-0.1-1-0.4-1.4
			c-0.4-0.4-0.8-0.6-1.4-0.7c-1.4-0.1-3.2,1-5.7,3.3c-2.2,2-3.9,4.9-4.3,5.5c-0.3,0.3-1.5,1.2-3.2,2.6c0.4-0.9,0.8-1.8,1-2.8
			c0.9-3.2,1-5.4,0.4-6.5c-0.3-0.5-0.7-0.8-1.2-1c-0.5-0.1-1,0-1.5,0.2c-1.1,0.7-1.9,2.7-2.4,6.2c-0.4,2.8,0.1,5.8,0.3,6.9
			c-1.2,1.1-2.5,2.4-4,3.9c0.3-0.8,0.6-1.7,0.8-2.5c0.8-3.3,0.8-5.4,0.1-6.6c-0.3-0.5-0.7-0.8-1.3-0.9c-0.5-0.1-1,0-1.4,0.3
			c-1,0.8-1.7,2.8-2.1,6.3c-0.3,2.8,0.4,5.8,0.6,6.9c-0.4,0.4-0.7,0.8-1.1,1.2c-1.8-0.6-3.4-0.8-4.2-0.8c-1.4-1.3-2.8-2.2-4.2-2.9
			c0.9-0.4,1.9-0.9,2.5-1.8c0.4-0.6,0.5-1.3,0.3-2c-0.2-0.9-0.7-1.6-1.5-2c-1.1-0.6-2.7-0.6-4.8,0.1c-0.9,0.3-1.6,0.7-2.1,1.2
			c0.4-1.3,0.9-2.5,1.3-3.7c0.8,0.5,2.2,1.1,3.9,1.1c0.3,0,0.6,0,0.9-0.1c0.8-0.1,3.4-0.6,4.6-2.1c0.4-0.6,0.6-1.2,0.5-1.9
			c-0.2-0.9-0.6-1.6-1.3-2.1c-1.1-0.7-2.7-0.7-4.8-0.2c-0.7,0.2-1.3,0.5-1.8,0.8c0.6-1.3,1.2-2.5,1.8-3.7c0.8,0.6,2.4,1.4,4.3,1.4
			c0.1,0,0.3,0,0.4,0c0.8,0,3.5-0.3,4.7-1.8c0.5-0.5,0.7-1.2,0.6-1.9c-0.1-0.9-0.5-1.7-1.2-2.2c-1-0.8-2.6-0.9-4.7-0.5
			c-0.6,0.1-1.2,0.3-1.7,0.6c0.6-1,1.1-1.8,1.5-2.4c1-0.2,3.3-0.8,4.9-2.8c1.3-1.7,1.9-3.2,1.7-4.5c-0.1-0.8-0.6-1.5-1.4-2
			c-0.6-0.4-1.3-0.5-2-0.3c-1.9,0.5-3.3,2.7-3.7,3.4c-1.4,2.5-0.9,5-0.8,5.6c-0.4,0.6-0.8,1.3-1.3,2.1c0-0.5-0.1-1-0.3-1.5
			c-0.6-2.1-1.5-3.4-2.7-3.9c-0.8-0.4-1.6-0.4-2.5,0c-0.6,0.3-1.1,0.8-1.4,1.4c-0.7,1.8,0.3,4.3,0.6,5c0.9,2,2.6,3.1,3.5,3.6
			c-0.5,1-1.1,2-1.6,3.2c-0.1-0.4-0.2-0.8-0.3-1.2c-0.8-2-1.8-3.3-3-3.7c-0.8-0.3-1.6-0.2-2.4,0.2c-0.6,0.3-1.1,0.8-1.3,1.5
			c-0.6,1.8,0.6,4.2,1,4.9c1.1,2,2.8,2.9,3.8,3.3c-0.3,0.8-0.6,1.6-0.9,2.5c-0.1-0.2-0.1-0.5-0.2-0.7c-0.9-2-2-3.1-3.2-3.5
			c-0.8-0.3-1.6-0.1-2.4,0.3c-0.6,0.3-1,0.9-1.2,1.6c-0.5,1.9,0.9,4.2,1.3,4.9c0.6,1,1.4,1.7,2.2,2.2c-2.3,0.2-4.3,0.7-6,1.2
			l-0.9,0.2c-3.6,0.9-8.5,2.1-12.1,5.3c-0.4-1.2-0.9-2.6-1.7-4.2c0.4-1.2,0.7-2.4,1.1-3.6c0.6,0.1,1.7,0.2,2.9,0.2
			c1.2,0,2.5-0.1,3.5-0.4c3-0.9,5.8-2.9,5.3-5.5c-0.2-0.9-0.7-1.5-1.6-1.9c-1.7-0.8-4-0.3-5.7,0.6c-1,0.5-2,1.4-2.9,2.4
			c2-5.3,4.1-10,5.5-13.2c-0.1,1-0.2,2-0.2,2.6c0,2.2,0.9,4.8,2.6,5.1c0.1,0,0.2,0,0.3,0c0.4,0,0.8-0.2,1.1-0.5c1.3-1.2,1.1-4.1,1-5
			c-0.1-1.1-0.3-2.4-0.6-3.5c0.5,0.5,1,1.1,1.6,1.6c1.9,1.7,3.5,2.6,4.7,2.6c0.6,0,1.1-0.2,1.5-0.6c0.4-0.4,0.6-1,0.6-1.6
			c-0.1-1.7-1.9-3.4-2.7-4c-0.3-0.2-0.5-0.4-0.9-0.6c0.1,0,0.1,0,0.2,0c0.7,0,1.5,0,2.2-0.2c4.1-0.6,7.1-2.9,6.8-5.1
			c-0.1-0.4-0.3-1-1.1-1.5c-1.6-1-4.7-0.8-6.7,0c-0.5,0.2-1.2,0.5-1.8,0.8c0.2-0.2,0.4-0.4,0.6-0.6c1.9-2.2,4.1-5.6,3.9-7.6
			c-0.1-0.6-0.3-1.1-0.7-1.4c-0.7-0.5-1.5-0.7-2.5-0.5c-1.8,0.3-3.6,2-5,4.3c-0.4,0.8-0.8,1.6-1.2,2.4c0.1-0.8,0.1-1.5,0.1-2
			c0-1-0.1-4.3-1.7-5.9c-0.5-0.5-1.2-0.8-1.9-0.8c-0.7,0-1.3,0.4-1.8,1c-1.2,1.5-1.6,4.3-0.9,7.1c0.3,1.1,0.6,2.1,0.9,3
			c-0.3-0.3-0.6-0.6-0.9-0.8c-0.1-0.1-3.6-2.7-5.7-2.1c-0.6,0.1-1,0.5-1.2,1c-0.9,1.9,0.5,4.2,3.8,6.2c0.5,0.3,1.1,0.6,1.6,0.8
			c-0.6,0.1-1.3,0.1-1.9,0.3c-1.5,0.3-4,1.3-4.8,2.9c-0.4,0.7-0.4,1.4,0,2.1c0.3,0.8,0.9,1.3,1.7,1.5c0.4,0.1,0.8,0.2,1.2,0.2
			c1.4,0,3-0.7,3.8-1.2c1-0.5,2.3-1.4,3.5-2.2c-1.5,3.2-4.2,9.1-6.7,15.8c-0.1-1.3-0.4-2.6-0.7-3.6c-0.8-2.2-2.4-4.2-4-4.9
			c-0.9-0.4-1.7-0.4-2.5-0.1c-1,0.4-1.6,1.1-1.9,2.1c-0.4,1.4,0.1,3.3,1.4,5.1c1.6,2.3,5.1,4.5,6.4,5.3c-0.3,0.8-0.5,1.5-0.7,2.3
			c-0.1-0.3-0.3-0.5-0.4-0.8c-4.4-7.4-12.3-7.9-14.3-7.9c-0.7-0.6-1.4-1.3-2.1-2c-2.4-2.4-4.9-4.9-7.3-5.8c-2.2-0.8-4.7,0.4-7.7,1.9
			c-1.4-0.5-6-2-10.1-0.8c-1,0.3-2.1,0.5-3.1,0.8c-0.6,0.1-1.2,0.3-1.8,0.5c-0.2-0.5-0.5-1.1-0.7-1.6c0.1-0.4,0.6-1.4,1-2.3
			c1.2-2.4,2.7-5.7,3.3-8.6c0.8-4.4-0.8-11.8-0.9-12.2c-0.1-0.3-0.3-0.5-0.5-0.5c-0.3-0.1-0.6,0-0.7,0.3c-0.2,0.2-3.8,5.2-4.7,11.3
			c-0.2,1.6-0.2,3.2-0.2,4.6c-0.9-2.7-1.4-4.5-1.6-5.1c0.3-1.1,2-6.7,1.2-11.9c-0.6-4.4-3.3-9.2-4.6-11.4c-0.2-0.4-0.5-0.9-0.5-1
			c-0.1-0.3-0.4-0.5-0.7-0.5c0,0,0,0,0,0c-0.3,0-0.6,0.2-0.7,0.5c-0.1,0.4-3.1,10.1-1.7,15.9c1.2,5.2,4.7,8.1,5.6,8.8
			c0.2,0.8,1,3.6,2.4,7.5c-0.7-1.2-1.4-2.2-1.9-2.8c-1.4-1.7-5.5-4.1-8.5-5.8c-1.2-0.7-2.2-1.2-2.5-1.5c-0.4-0.3-0.9-0.2-1.1,0.1
			c-1.1,1.3,4.4,11.8,7.2,14.3c1.6,1.5,3.8,2.5,5.7,3.3c-1.5,0.6-3,1.3-4.5,2.3c-5.3,3.3-9.1,9.9-10.5,15c-0.1-0.1-0.2-0.1-0.3-0.2
			c-0.7-1.2-1.5-2.5-2.3-3.9c0.7-0.9,2.1-3.2,2.5-5.6c0.4-2.6,0-4.8-0.9-5.8c-0.4-0.4-0.9-0.6-1.4-0.5c-1.5,0.2-2.4,1.9-2.8,4.9
			c-0.1,0.5-0.1,1.2,0,1.8c-0.6-1.5-1.2-3-1.6-4.4c0.8-0.7,2.4-2.3,3.4-4.1c0.7-1.3,1.4-4,0.8-5.5c-0.3-0.8-0.8-1.1-1.2-1.2
			c-2.5-0.8-3.7,2.3-4.3,3.7c-0.2,0.4-0.3,0.9-0.4,1.3c-0.4-1.9-0.6-3.4-0.7-4.1c0.7-0.5,2.1-1.7,3-3.4c0.4-0.8,2.4-4.6,0.4-5.8
			c-0.5-0.3-1.2-0.4-1.8-0.1c-1,0.4-1.9,1.5-2.4,3.1c-0.2,0.5-0.3,1.1-0.4,1.7c-0.4-0.9-0.8-1.7-1.3-2.4c-1.3-1.7-3.7-3.5-5.4-3.6
			c-0.8-0.1-1.3,0.3-1.5,0.5c-0.4,0.4-0.6,1-0.6,1.7c0.1,1.7,1.6,3.6,3.1,4.9c1.7,1.5,4.3,3.1,5.3,3.6c0.1,0.5,0.2,1.6,0.5,2.9
			c-0.5-0.6-1-1.2-1.5-1.6c-1.5-1.4-3.5-2.3-4.9-2.2c-0.8,0.1-1.3,0.4-1.5,0.7c-0.2,0.3-0.5,0.8-0.3,1.5c0.3,1.6,2.1,3.6,4.3,4.9
			c1.7,1,4,1.5,5.1,1.7c0.2,0.6,0.4,1.3,0.6,2c0,0,0,0,0,0c0.2,0.5,0.3,1.1,0.5,1.7c-0.5-0.4-1.1-0.8-1.7-1.2
			c-1.8-1.2-3.6-1.6-5-1.2c-0.7,0.2-1.2,0.6-1.4,1.2c-0.1,0.3-0.2,0.9,0.1,1.6c0.5,1,1.8,2.3,4.1,2.9c2.1,0.6,4.4,0.7,5.5,0.8
			c0.1,0.2,0.2,0.4,0.3,0.6c0.3,0.6,0.6,1.3,1,1.9c-0.8-0.7-1.7-1.4-2.5-1.8c-1.9-0.9-5.1-0.7-8.4-0.2c-0.7-3.2-2.3-7.2-5.9-11
			c-7.2-7.5-16.4-9.7-17.5-9.6c-0.3,0-0.7,0.2-0.8,0.5C71.4,69,70,79,78,87.3c1.2,1.3,2.5,2.3,3.8,3.3c-0.8,0.1-1.6,0.2-2.5,0.4
			c-3.7,0.6-6.3,3.8-7.4,6.3c-0.1,0.1-0.1,0.3-0.2,0.4c-2.8,0.7-5.5,1.9-7.6,4.1c-1,1.1-1.6,2.3-2,3.5c-0.3-0.3-0.5-0.6-0.8-0.9
			c-7.2-7.5-16.4-9.7-17.5-9.6c-0.3,0-0.7,0.2-0.8,0.5c-0.3,0.5-1.7,10.6,6.3,18.8c0.5,0.5,0.9,0.9,1.4,1.4c-0.2,0-0.5,0-0.7,0.1
			c-16.5,1.9-22,10.1-22.2,10.4c-0.3,0.4-0.2,0.9,0.1,1.3c0.3,0.3,7.7,8,21.9,8c0.6,0,1.2,0,1.9,0c3.8-0.2,7.1-0.8,9.9-1.7
			c0,1.1,0.2,2.3,0.5,3.6H11.8c-0.6,0-1.1,0.5-1.1,1.1c0,0.6,0.5,1.1,1.1,1.1h104.6c0,0,0,0,0,0c0,0,0,0,0,0h171
			c0.6,0,1.1-0.5,1.1-1.1C288.5,137.6,288.1,137.1,287.5,137.1L287.5,137.1L287.5,137.1z M227.3,93.1c3.6-0.7,4.9-0.4,5.4-0.1
			l-8.2,1C225.3,93.6,226.3,93.3,227.3,93.1L227.3,93.1z M232.8,93.8c-0.4,0.3-1.6,1-5.2,1.2c-1.2,0.1-2.4,0-3.5-0.2L232.8,93.8
			L232.8,93.8L232.8,93.8z M234.7,86.1c3.6-0.5,4.9-0.1,5.4,0.1l-8.3,0.6C232.7,86.5,233.7,86.2,234.7,86.1L234.7,86.1L234.7,86.1z
			 M240.2,87.1c-0.4,0.3-1.6,0.9-5.3,1c-1.2,0-2.4-0.1-3.5-0.4L240.2,87.1L240.2,87.1z M244.1,74.9c-0.1,0.5-0.8,1.6-3.8,3.8
			c-1,0.7-2.1,1.2-3.1,1.7L244.1,74.9L244.1,74.9z M239,77.1c2.7-2.5,4-2.9,4.5-2.9l-6.5,5.1C237.6,78.6,238.3,77.8,239,77.1z
			 M230.8,75.7c0.2,0.5,0.4,1.8-0.6,5.3c-0.3,1-0.7,1.9-1.1,2.8L230.8,75.7z M228.3,80.6c0.5-3.6,1.3-4.7,1.6-5.1l-1.7,8.6
			C228.2,83,228.2,81.8,228.3,80.6L228.3,80.6L228.3,80.6z M223,83c0.2,0.5,0.5,1.8-0.3,5.4c-0.2,1-0.6,1.9-1,2.8L223,83L223,83z
			 M220.7,87.9c0.4-3.6,1-4.8,1.4-5.2l-1.3,8.7C220.7,90.3,220.6,89.1,220.7,87.9z M191.1,77.9c-0.1,0.1-0.1,0.1-0.2,0.1
			c-0.8-0.1-1.4-1.9-1.5-3.8c0-1.4,0.5-4.5,0.7-6c0.1,0,0.3,0.1,0.5,0.1c0,0,0,0,0,0c0.3,1.2,0.9,3.9,1.1,5.8
			C191.9,76,191.5,77.5,191.1,77.9L191.1,77.9z M199.4,72.4c0,0.2,0,0.4-0.2,0.5c-0.6,0.6-2.4-0.3-4.3-2c-1.2-1.1-2.3-2.5-2.9-3.3
			c0.2-0.1,0.3-0.3,0.4-0.5c1.1,0.4,3.5,1.3,4.7,2.3C198.5,70.5,199.4,71.7,199.4,72.4L199.4,72.4L199.4,72.4z M199.3,62.3
			c1.8-0.7,4.4-0.8,5.5-0.1c0.4,0.2,0.4,0.4,0.4,0.5c0.1,1.1-2,3-5.6,3.6c-2.7,0.4-5.4-0.2-6.6-0.5c0-0.1,0-0.3-0.1-0.4
			C194.1,64.7,197.2,63.1,199.3,62.3L199.3,62.3L199.3,62.3z M194.6,56.5c1.3-2.4,3-3.5,4-3.7c0.5-0.1,1,0,1.3,0.3
			c0.1,0.1,0.2,0.2,0.2,0.5c0.1,1.3-1.4,4.1-3.6,6.6c-1.3,1.5-3.4,3.1-4.4,3.9c-0.2-0.1-0.4-0.3-0.6-0.4
			C192,62.3,193.1,59.1,194.6,56.5L194.6,56.5L194.6,56.5z M191.4,65.3c0.1,0.2,0.2,0.5,0.1,0.7c-0.1,0.3-0.2,0.5-0.5,0.6
			c-0.2,0.1-0.5,0.2-0.7,0.1c-0.5-0.1-0.8-0.7-0.7-1.2c0.1-0.5,0.7-0.8,1.2-0.7C191,65,191.3,65.1,191.4,65.3L191.4,65.3L191.4,65.3
			z M187.9,51.4c0.2-0.3,0.5-0.5,0.7-0.5c0.4,0,0.6,0.1,0.9,0.4c0.9,0.9,1.3,3.1,1.3,4.8c0,2-0.6,5.9-0.8,7.3
			c-0.1,0-0.3,0.1-0.4,0.1c-0.5-0.9-1.7-3.3-2.4-6.3C186.6,54.6,187.1,52.4,187.9,51.4L187.9,51.4L187.9,51.4z M183.4,63.7
			c-2.5-1.5-3.8-3.2-3.2-4.4c0-0.1,0.1-0.2,0.3-0.2c0.9-0.2,3.1,0.8,4.5,1.9c1.2,0.9,2.9,2.9,3.5,3.6c-0.1,0.2-0.2,0.4-0.3,0.6
			c0,0,0,0,0,0c0,0.1,0,0.1,0,0.2C187.1,65.2,185,64.7,183.4,63.7L183.4,63.7L183.4,63.7z M183.5,70.3c-1.6,0.8-3,1.2-3.9,0.9
			c-0.4-0.1-0.7-0.4-0.9-0.8c-0.1-0.3-0.1-0.6,0-0.9c0.5-1,2.4-1.9,3.8-2.2c2.1-0.4,4.6-0.4,5.7-0.4c0,0,0,0,0,0c0,0,0,0.1,0.1,0.1
			C187.4,67.9,185,69.5,183.5,70.3L183.5,70.3L183.5,70.3z M191.4,84.5c-0.1,1.6-2.5,2.9-4.3,3.4c-0.9,0.3-2.1,0.3-3.2,0.3
			C186,87.5,188.8,86.3,191.4,84.5L191.4,84.5L191.4,84.5z M186.2,83.7c1.5-0.8,3.4-1,4.4-0.5c0.2,0.1,0.3,0.2,0.5,0.4
			c-3.3,2.2-6.9,3.6-9,4.2C183.1,86.4,184.7,84.4,186.2,83.7L186.2,83.7L186.2,83.7z M121.6,54.5c-0.7-3.1-0.1-7.6,0.6-10.9
			c0,2.8,0.1,6.4,0.3,8.6c0.2,2.6,1.5,6.3,2.5,8.7C123.8,59.5,122.3,57.4,121.6,54.5L121.6,54.5L121.6,54.5z M123.4,52.1
			c-0.2-2.6-0.3-7.2-0.3-10.2c0.8,2.7,2,6.9,2.2,9.2c0.2,2.4,0.4,6.8,0.6,9.5C124.9,58.3,123.6,54.6,123.4,52.1L123.4,52.1
			L123.4,52.1z M126.6,59.3c-0.2-2.7-0.4-6.1-0.5-8.2c-0.1-1.6-0.6-3.8-1.2-6c0.9,2,1.8,4.3,2.1,6.5
			C127.4,54.2,127.1,57.1,126.6,59.3L126.6,59.3L126.6,59.3z M190.6,137.1c-1.3-0.7-2.3-1.7-2.9-3.2c-1-2.6-0.7-5.1-0.3-6.6
			c1,1.5,2.4,2.3,3.1,2.6c1,1.9,2.5,3.3,4.1,4c1.1,0.4,2.3,0.6,3.5,0.6c1.2,0,2.5-0.2,3.5-0.7c1.3-0.6,2.3-1.5,3-2.7
			c0.5-0.1,1-0.4,1.5-0.7c2.6-1.9,2.8-5.8,1.9-7.7c-0.1-0.2-0.2-0.3-0.3-0.5c-0.1-0.3-0.3-0.6-0.5-1c0.1-0.3,0.1-0.6,0.1-0.9
			c3.2,1.6,5.1,4,4.8,9.3c-0.2,3.5-3.1,6-6.4,7.5L190.6,137.1L190.6,137.1L190.6,137.1L190.6,137.1z M178.8,129.9
			c0.2-1.1,0.8-1.9,1.7-3c0.3-0.4,0.6-0.8,0.9-1.2c1,2.7,2.6,4.3,3.5,4.9c0,1.3,0.3,2.7,0.8,4.1c0.4,1,0.9,1.8,1.5,2.4h-4.6
			C180.9,134.9,179.5,132.4,178.8,129.9L178.8,129.9z M180.1,137.1h-4.4c0.9-1.4,1.6-2.8,2.1-4C178.4,134.5,179.2,135.8,180.1,137.1
			z M184.8,113.2c2.5-4.7,6.7-7.4,8.9-7.5c3.4-0.2,7.8,1.1,11.6,3.5c2.3,1.4,8.9,6.3,7.5,13c-1.2-1.8-3-3.2-5.6-4.3
			c-0.3-0.9-0.7-1.6-1.1-2.1c-1.3-1.8-3.4-2.8-4.7-2.8c-0.4,0-0.9-0.1-1.5-0.1c-1.7-0.2-4-0.4-7,0.1c-4.3,0.7-7.5,5.8-6.9,10.9
			c0,0.2,0.1,0.4,0.1,0.6c0,0,0,0-0.1,0.1c-0.1,0.1-0.7,1.4-1.1,3.3c-0.8-0.9-1.8-2.5-2.2-4.6c0.5-1,1-2.2,1.3-3.6
			C185,116.9,185,114.9,184.8,113.2L184.8,113.2L184.8,113.2z M189.5,126.6c-0.6-0.7-1.1-1.6-1.3-3c-0.5-3.9,2-8,5.1-8.5
			c2.7-0.4,4.8-0.3,6.5-0.1c0.6,0.1,1.2,0.1,1.6,0.1c0.5,0,2,0.6,3,2c0.4,0.6,0.7,1.2,0.8,1.9c-1.1-0.7-2.6-1.3-4.8-1.3
			c-0.4-0.3-0.9-0.5-1.5-0.7c-4.2-1.1-7.5,0.8-9,5.2C189.5,123.7,189.4,125.2,189.5,126.6L189.5,126.6L189.5,126.6z M192,122.9
			c1.4-4.2,4.3-4.4,6.4-3.9c0.9,0.2,1.4,0.9,1.8,1.5c-0.6-0.4-1.3-0.7-2.2-0.7c-1.1-0.1-2.3,0.4-3.2,1.3c-1.2,1.2-1.9,3.1-1.7,5.1
			c0.1,1.6,0.8,3,1.9,3.9c0.9,0.8,2.2,1.2,3.5,1.2c0.2,0,0.4,0,0.6,0c0.7-0.1,1.2-0.3,1.7-0.5c0.3,0.1,0.8,0.3,1.3,0.4
			c-0.4,0.3-0.8,0.6-1.2,0.7c-1.6,0.7-3.7,0.7-5.4,0C193.1,131,190.6,127.1,192,122.9L192,122.9L192,122.9z M200.2,128.5
			c-0.3,0.3-0.7,0.7-1.5,0.7c-0.9,0.1-1.8-0.2-2.5-0.7c-0.7-0.6-1-1.4-1.1-2.4c-0.1-1.4,0.3-2.7,1.1-3.5c0.5-0.5,1-0.7,1.5-0.7
			c0.4,0,0.7,0.1,0.9,0.2c0,0,0,0-0.1,0c-0.7,0.7-1.1,1.7-1.1,2.7C197.6,126.4,198.5,128,200.2,128.5L200.2,128.5L200.2,128.5z
			 M201.2,126.5c-1.4-0.1-1.5-1.4-1.5-1.6c0-0.5,0.1-0.9,0.4-1.2c0.2-0.2,0.6-0.4,1-0.4c0,0,0.1,0,0.1,0c1,0,1.5,0.7,1.5,1.3
			c0,0.6-0.2,1.1-0.5,1.4C201.9,126.4,201.6,126.5,201.2,126.5L201.2,126.5L201.2,126.5z M202.7,128.3c0.4-0.2,0.7-0.4,1-0.7
			c0.8-0.7,1.2-1.8,1.2-3c0-1.2-0.7-2.5-2-3.1c-0.1-0.4-0.3-1.1-0.5-1.7c1.6,0.3,2.4,1.1,3,2c0,0,0,0,0,0c0.2,0.4,0.4,0.8,0.6,1.2
			c0.1,0.2,0.2,0.5,0.3,0.7c0.5,1,0.4,3.8-1.3,5c-0.8,0.6-1.8,0.5-2.5,0.3C202.5,128.8,202.6,128.6,202.7,128.3L202.7,128.3
			L202.7,128.3z M214.4,129.8c0.1-1.7,0-3.2-0.3-4.6c3.3-7.4-1.7-14-7.7-17.7c-0.4-0.3-0.9-0.5-1.4-0.8c1.7-0.6,4.5-1.2,7.8,0.2
			c5.1,2.1,10.3,8.9,9.6,18.6c-0.4,4.9-1.8,8.8-3.7,11.6h-8.6C212.4,135.4,214.2,132.9,214.4,129.8L214.4,129.8L214.4,129.8z
			 M224.5,125.6c0.2-2,0.1-3.9-0.2-5.7c2.2,0.8,7.2,3.2,7.5,8.4c0.2,3.6,0,6.4-0.4,8.8h-10.1C222.9,134.1,224.1,130.3,224.5,125.6
			L224.5,125.6z M235.4,129.6l-1.6-2c0-0.2,0-0.4-0.1-0.6c0.2-0.2,0.4-0.4,0.6-0.7l3.6,4.4C237,130.4,236.2,130,235.4,129.6
			L235.4,129.6L235.4,129.6z M247.2,133.5c-2.5-0.4-4.6-1-6.6-1.6l-5.5-6.7c0.2-0.4,0.4-0.8,0.5-1.2c3,0,5.9,0.3,8.8,0.6l8.4,9.4
			C251,133.9,249.2,133.8,247.2,133.5L247.2,133.5L247.2,133.5z M237.6,122.2c-0.5,0-1,0-1.4,0c0.3-1.2,0.4-2.5,0.4-3.7
			c2.3-0.7,5.1-1.1,8.3-1L237.6,122.2L237.6,122.2z M247.1,117.7c0.8,0.1,1.7,0.2,2.6,0.4l-7.2,4.4c-0.8-0.1-1.7-0.1-2.5-0.2
			L247.1,117.7L247.1,117.7L247.1,117.7z M254.6,133.9l-8.1-9.1c1,0.1,2.1,0.3,3.1,0.5l7.7,8.4C256.4,133.8,255.5,133.8,254.6,133.9
			L254.6,133.9L254.6,133.9z M258.9,133.4l-7.1-7.8c3.3,0.6,6.4,1.3,9.1,2l3.5,4.2C262.8,132.4,261,133,258.9,133.4z M268.5,129.7
			c-0.7,0.4-1.6,1-2.8,1.5l-2.5-3.1C265.5,128.8,267.3,129.3,268.5,129.7L268.5,129.7L268.5,129.7z M268.1,127.7
			c-1.1-0.4-2.6-0.8-4.3-1.2l2.2-0.8C266.9,126.4,267.5,127.1,268.1,127.7L268.1,127.7z M264.7,124.7l-3.4,1.2
			c-0.5-0.1-1.1-0.3-1.7-0.4l3.7-1.7C263.9,124,264.3,124.4,264.7,124.7z M251.6,118.6c4.4,1.1,7.8,2.7,10.4,4.2l-4.6,2.1
			c-3.8-0.8-8.1-1.6-12.6-2.1L251.6,118.6L251.6,118.6L251.6,118.6z M251.1,113.4c-1.4,0.9-2.7,1.6-4.1,2.1
			c-2.9-0.3-5.5-0.3-7.8,0.1c1.2-0.7,2.5-1.5,3.6-2.2l8.3-0.2C251.2,113.3,251.2,113.4,251.1,113.4L251.1,113.4z M253.3,111.9
			l-8.1,0.2c0.4-0.3,0.9-0.6,1.3-0.9l8.5-0.8C254.5,110.9,253.9,111.4,253.3,111.9L253.3,111.9L253.3,111.9z M256.5,108.8l-7.5,0.7
			c0.4-0.3,0.8-0.5,1.1-0.8l7-0.6C256.9,108.3,256.7,108.6,256.5,108.8L256.5,108.8z M258.2,106.5l-5.9,0.5c1.9-1.4,3.6-2.7,5.1-3.9
			l3-0.7C259.9,103.8,259.1,105.1,258.2,106.5L258.2,106.5L258.2,106.5z M261,100.9l-1.3,0.3c0.6-0.6,1.2-1.1,1.7-1.5
			C261.3,100.1,261.2,100.5,261,100.9L261,100.9L261,100.9z M258.4,98c0.9-0.1,1.7-0.2,2.4-0.2c-0.8,0.8-2,1.8-3.5,3.1L258.4,98
			L258.4,98L258.4,98z M256.8,98.2l-1.8,4.6c-0.5,0.4-1,0.8-1.6,1.2l2.4-5.6C256.2,98.4,256.5,98.3,256.8,98.2L256.8,98.2z
			 M254.1,98.8l-3,7c-2.3,1.7-4.9,3.5-7.9,5.4l3.7-9.9C249.5,100.1,252,99.3,254.1,98.8L254.1,98.8L254.1,98.8z M243.6,103.1
			c0.5-0.3,1-0.6,1.6-0.9l-3.9,10.2c-0.3,0.2-0.6,0.4-0.9,0.5L243.6,103.1L243.6,103.1L243.6,103.1z M241.7,104.4l-3.1,9.7
			c-0.8,0.5-1.7,1-2.6,1.5c0-0.1-0.1-0.1-0.1-0.2c-0.4-0.8-0.8-1.7-1.2-2.7C236,110,238.2,107,241.7,104.4L241.7,104.4L241.7,104.4z
			 M222,100c1.5,1.3,2.9,2.2,4.2,3c2,1.3,3.5,2.2,4,3.8l0.7,1.8c1,2.6,2,5.6,3.1,7.7c0.8,1.6,0.4,5.9-1,8.3c-2.4-5.2-8.8-6.9-9.2-7
			c-0.9-3.4-2.5-6.2-4.4-8.4c0.7-1.7,1.8-6.3-2.4-11.6C218.4,97.9,220.3,98.6,222,100L222,100L222,100z M194.4,94l0.8-0.2
			c5.1-1.3,12-3,18.4,3.1c4.7,4.5,4.6,8.5,4.1,10.6c-1.3-1.1-2.7-2-4-2.6c-5.3-2.2-9.6-0.3-11,0.6c-3.1-1.4-6.4-2-9.1-1.9
			c-2.8,0.2-6.6,2.6-9.4,6.7c-0.1-0.2-0.1-0.4-0.2-0.5c-0.3-1-0.6-2.1-0.9-3.4c-0.3-1.3-0.4-2.5-0.5-3.6c-0.1-1-0.2-2-0.4-3
			C185.5,96.2,190.5,95,194.4,94L194.4,94L194.4,94z M174.4,83c-1-1.5-1.5-2.9-1.2-3.9c0.1-0.3,0.3-0.6,0.5-0.8
			c0.4,1.5,1.5,4.5,3.8,7.7C176.4,85.1,175.1,84,174.4,83L174.4,83L174.4,83z M174.7,77.8c0.1,0,0.1,0,0.2,0c0.3,0,0.5,0.1,0.8,0.2
			c1.3,0.5,2.6,2.2,3.2,4.1c0.5,1.4,0.7,3.5,0.8,5C176.6,83.3,175.2,79.3,174.7,77.8L174.7,77.8z M176.7,91.6
			c3.3,5.5,3.5,8.3,3.8,11.3c0.1,1.2,0.2,2.4,0.5,3.8c0.3,1.4,0.6,2.6,0.9,3.6c0.3,0.9,0.5,1.7,0.7,2.6c0,0.2,0.1,0.4,0.1,0.5
			c0.2,1.5,0.2,3.2-0.5,5.7c-0.9,3.2-2.2,4.9-3.4,6.5c-1,1.2-1.9,2.4-2.1,4c-0.2,1.4-1.3,4.6-3.6,7.5h-3.8c2.4-3.3,4.6-9.6,1.2-16.2
			c0.7-2.7,0.6-5.7,0-8.4c-0.3-1.4-0.4-2.3-0.4-3.5c-0.1-1.4-0.2-3-0.7-5.8c2.1-2.2,3.1-4.9,2.9-7.8c-0.3-4.4-3-8.3-5.2-10.3
			C169.9,85.6,174.1,87.2,176.7,91.6L176.7,91.6L176.7,91.6z M159.1,137.1c2.4-2.6,4.4-5.9,5.2-9.6c2.3-0.7,4-2.1,5-3.9
			c2.4,6.6-1.4,12.1-2.8,13.5H159.1L159.1,137.1z M162.5,115.2c0.3-3.1-0.4-6-2-8.6c0.1-1.6,0.3-8-2.7-10c-2.9-2-6-2.8-8.2-3.4
			c-1-0.2-1.8-0.5-2.4-0.7c-0.5-0.2-1.1-0.5-1.7-0.9c-0.8-0.4-1.7-0.9-2.7-1.3c2.4-1.2,6.5-2.7,10.1-1.7c5.7,1.5,12.9,8.7,14,14
			c0.7,3.2,0.8,5,0.9,6.5c0.1,1.2,0.2,2.3,0.5,3.8c0.2,1,1.9,9.4-3.7,12.1C165,121.9,164.4,118.6,162.5,115.2L162.5,115.2
			L162.5,115.2z M151.9,108c-0.8-1.3-1.9-2.1-3.2-2.5c-0.5-0.7-1.3-1.3-2.3-1.7c-3.1-1.2-5.7,0-7.1,1.5c-1.4-0.1-4.8,0.3-6.9,5.4
			c-2.4,5.5,1.4,8.9,4.2,11.3c0.4,0.4,0.9,0.8,1.3,1.1c1.8,1.7,4.6,2.8,7.3,2.8c2,0,3.9-0.6,5.4-1.9c2.4-2.1,2.9-4.8,2.8-7
			c1-0.8,2.9-2.7,2.9-5.7c0-2.7-2.2-5.5-3.9-7.6c0,0-0.1-0.1-0.1-0.1c1.7,0.3,4.1,1,5.7,3.2c2.7,3.5,3.1,7.6,1.4,12.4
			c-1.7,5-7.4,10.9-12.4,11.3c-7.1,0.7-11-0.9-11.7-4.9c-0.6-3.4-2.6-6.1-4.3-8.5c-1.3-1.8-2.5-3.4-2.8-5c-0.7-3.7,2-7,8.3-10.2
			c2.2-1.1,4.2-1.5,5.9-1.5c1.5,0,2.6,0.3,3.4,0.5c2.1,0.7,3.1,1.7,3.3,2c0.3,0.6,0.9,1.3,1.6,2.2c1.5,1.8,3.4,4.3,3.4,6.2
			c0,1.3-0.6,2.4-1.2,3.1c-0.1-0.4-0.2-0.8-0.3-1C153.1,111.4,152.9,109.5,151.9,108L151.9,108L151.9,108z M137.6,111.7
			c-0.4,1.7,0,5,3.8,6.9c1.1,0.5,2.3,0.8,3.5,0.8c1.1,0,2.2-0.2,3.3-0.7c1.2-0.5,2.2-1.3,3-2.2c0.2,1.8,0,4.2-2,5.9
			c-2.5,2.3-7.5,1.4-9.8-0.9c-0.4-0.4-0.9-0.8-1.3-1.2c-2.7-2.3-5.4-4.7-3.7-8.8c1.1-2.6,2.5-3.5,3.6-3.9
			C137.5,108.7,137.2,110.2,137.6,111.7L137.6,111.7L137.6,111.7z M147.1,111.7c-0.4,1.1-1.5,1.9-3,2.2c-1.1,0.2-2.6,0.1-3.5-0.9
			c-2-2.3-0.7-4.8-0.1-5.7c0.7-1.1,2.7-2.4,5.2-1.5C148.2,106.8,147.8,109.5,147.1,111.7L147.1,111.7L147.1,111.7z M149.1,112.3
			c0.5-1.4,0.6-2.7,0.6-3.8c0.1,0.2,0.3,0.3,0.4,0.5c0.7,1.2,0.9,2.9,0.3,4.5c-0.5,1.4-1.6,2.5-3,3.2c-1.6,0.7-3.5,0.6-5-0.1
			c-0.6-0.3-1.1-0.6-1.5-1c0.7,0.3,1.4,0.4,2.2,0.4c0.5,0,0.9,0,1.4-0.1C146.8,115.5,148.6,114.1,149.1,112.3L149.1,112.3
			L149.1,112.3z M144.6,93.6c0.7,0.4,1.3,0.7,1.9,0.9c0.7,0.3,1.7,0.6,2.7,0.8c2.2,0.5,4.8,1.2,7.5,3c1.2,0.8,1.6,3.3,1.8,5.7
			c-2.8-2.5-6.3-2.7-7.7-2.7c-0.8-1-2.4-1.9-4.2-2.5c-2-0.7-6.2-1.4-11,1.1c-7.2,3.7-10.2,7.8-9.4,12.5c0.4,2,1.7,3.9,3.1,5.8
			c0.3,0.5,0.7,1,1,1.5c-0.9-0.9-1.9-1.7-2.6-2.6c-0.9-1.1-1.8-1.8-2.8-2.6c-1.8-1.5-3.3-2.7-3.7-5.8c-0.6-4.1,3.1-7.4,5.8-9.9
			c0.3-0.3,0.5-0.5,0.8-0.7c0.6-0.6,1.3-1.3,1.9-2c1.1-1.2,2.3-2.4,3.5-3.4c0,0,0,0,0.1,0c1.2-1,2.5-1.6,3.9-1.6c0,0,0,0,0,0
			C140,91.1,142.6,92.5,144.6,93.6L144.6,93.6L144.6,93.6z M123.9,116.4c0.8,0.6,1.5,1.3,2.2,2.1c1,1.2,2.3,2.3,3.5,3.4
			c1.8,1.6,3.6,3.3,3.8,4.5c0,0.1,0.1,0.3,0.1,0.4c1.2,3.9,4.7,5.9,10.7,5.9c1,0,2-0.1,3-0.2c5.9-0.6,12.3-7.2,14.2-12.7
			c0.1-0.4,0.2-0.7,0.3-1.1c2.6,7.6-1.6,14.4-5.8,18.3h-17.3c-2.3-1.8-4.7-2.9-8.1-4.4c-0.9-0.4-1.7-0.7-2.5-0.9
			c-3.5-1.2-5.8-2-6.5-6.7C121,120.8,122.9,117.7,123.9,116.4L123.9,116.4L123.9,116.4z M147.8,78.8c2.5-1.3,5-2.5,6.3-2
			c1.9,0.7,4.2,3,6.5,5.3c0.8,0.8,1.6,1.6,2.4,2.4c0,0,0,0,0.1,0c0.6,0.6,1.2,1.1,1.8,1.6c1.8,1.4,4.9,5.2,5.1,9.4
			c0.1,1.9-0.4,3.6-1.4,5.1c-2.1-5.9-9-12.5-15.1-14.1c-5.6-1.5-11.8,1.9-13.4,2.8c-0.9-0.2-1.9-0.4-3-0.4c-1.7,0-3.3,0.7-4.8,1.8
			c-0.3,0-0.7-0.1-1.2-0.2c0.8-2.4,3-7.9,7.4-8.4C142,81.8,145.1,80.2,147.8,78.8L147.8,78.8L147.8,78.8z M134.3,58.3
			c0.2,2.1,0.3,4.4,0,6.2c-0.3,1.8-1.1,3.8-1.9,5.6c0.4-1.7,0.8-3.4,1.1-4.8C133.9,63.6,134.2,60.8,134.3,58.3L134.3,58.3
			L134.3,58.3z M132.7,65.1c-0.4,1.7-1,4.2-1.4,6.3c0.1-3,0.3-6.7,0.7-8.4c0.3-1.7,1.1-4.4,1.7-6.6
			C133.4,59.2,133.1,63.1,132.7,65.1L132.7,65.1z M130.4,63.8c0.3-2.6,1.3-4.9,2.2-6.8c-0.6,2-1.2,4.3-1.5,5.8
			c-0.3,1.6-0.5,4.9-0.6,7.7C130.2,68.6,130,66.2,130.4,63.8z M125.2,69.2c0.8,1,2.3,3.3,3.6,5.5c-1.4-1.6-2.8-3.3-3.6-4.1
			c-0.9-1.1-3.4-3.4-5.7-5.4C121.8,66.5,124.3,68.1,125.2,69.2L125.2,69.2z M124.5,71.1c1.2,1.3,3.9,4.5,5.7,6.6
			c-2.4-1.5-5.9-3.9-7.3-5.6c-1.3-1.7-3.8-5.2-5.6-7.8C119.8,66.6,123.4,69.8,124.5,71.1L124.5,71.1z M122.3,74.4
			c-2.1-2-4.6-6.8-6-9.9c1.8,2.6,4.5,6.4,5.9,8.1c1.3,1.6,4.2,3.7,6.6,5.2C126.6,77.1,124,76,122.3,74.4L122.3,74.4L122.3,74.4z
			 M123.7,82.8c2.3-1.4,4.6-2.3,6.9-3c0.3,0.1,0.6,0.2,0.9,0.2c0.2-0.2,0.4-0.4,0.6-0.6c0.8-0.2,1.6-0.4,2.5-0.6
			c1.1-0.3,2.1-0.5,3.2-0.8c2.4-0.6,5-0.3,6.8,0.2c-1.9,0.9-3.9,1.7-6,1.9c-6.1,0.7-8.7,7.9-9.4,10.4c-2.3,0-5.1,0.5-7.4,2.2
			c-2.8,2.1-5.8,4.5-8,6.3C114,94.7,117.7,86.5,123.7,82.8L123.7,82.8L123.7,82.8z M112.3,102.9c0.3-0.2,0.7-0.6,1.1-0.9
			c0,0,0,0,0,0c2.2-1.8,6.1-4.9,9.6-7.5c2.2-1.7,5.2-1.9,7.2-1.8c-0.7,0.7-1.4,1.4-2,2.1c-0.6,0.7-1.3,1.4-1.8,1.9l-0.8,0.7
			c-2.9,2.6-7.2,6.6-6.4,11.8c0.4,3,1.7,4.6,3.1,5.9c-1.2,1.6-3.5,5.3-2.7,10.4c0.9,5.9,4.3,7.1,7.9,8.4c0.8,0.3,1.6,0.6,2.4,0.9
			c2,0.8,3.6,1.6,5.1,2.4h-17.9c-1.8-1-3.1-2-3.5-2.6c-1.9-2.5-4.3-8-3.3-12.1c0.9-3.5,0.4-8.8,0.2-12c-0.1-1-0.2-2-0.1-2.3
			C110.3,107,110.9,104.1,112.3,102.9L112.3,102.9L112.3,102.9z M93.8,89c-0.5,0.1-1,0.2-1.4,0.3c-0.5,0.1-0.9,0.2-1.2,0.2
			c-0.1,0-0.3,0-0.4,0.1c-0.2-0.2-0.3-0.3-0.5-0.5l-0.6-8.7C92,83.4,93.2,86.4,93.8,89L93.8,89L93.8,89z M88.1,78.7l0.6,8.9
			c-0.2-0.2-0.3-0.3-0.5-0.5l-1.2-9.3C87.4,78,87.8,78.4,88.1,78.7L88.1,78.7L88.1,78.7z M85.5,76.4l1.1,9c-2.1-2.2-3.9-4.3-5.5-6.2
			L80,72.8C81.8,73.7,83.6,74.9,85.5,76.4L85.5,76.4z M78.5,72l0.8,4.9c-0.3-0.4-0.6-0.8-0.9-1.2l-0.6-4.1
			C78,71.8,78.2,71.9,78.5,72L78.5,72L78.5,72z M76.3,71.1l0.3,2.3c-0.8-1.2-1.5-2.1-2-2.9C75.1,70.7,75.6,70.9,76.3,71.1L76.3,71.1
			z M73.6,72.2c0.2,0.3,0.5,0.7,0.8,1.1L73.6,73C73.6,72.7,73.6,72.4,73.6,72.2L73.6,72.2z M73.8,74.6l2.2,1.1
			c1,1.3,2.1,2.7,3.4,4.3l-4.6-1.6C74.4,77.1,74,75.8,73.8,74.6L73.8,74.6L73.8,74.6z M75.6,80.2l5.6,1.9c0.2,0.2,0.4,0.5,0.6,0.7
			l-6-2.1C75.8,80.5,75.7,80.4,75.6,80.2L75.6,80.2z M77,82.6l6.9,2.4c0.2,0.3,0.5,0.5,0.7,0.8L78,84C77.6,83.6,77.3,83.1,77,82.6
			L77,82.6z M79.6,85.9l6.8,1.8c0.7,0.7,1.4,1.4,2.1,2.1c-0.5,0.1-1,0.1-1.6,0.2c-0.6,0.1-1.3,0.1-1.9,0.2
			C83.2,89.1,81.4,87.7,79.6,85.9L79.6,85.9z M79.6,93c2.7-0.5,5.2-0.7,7.5-0.9c1.8-0.2,3.3-0.3,4.4-0.5c0.3-0.1,0.7-0.1,1.2-0.2
			c2.7-0.6,8.4-1.7,10.6-0.7c1.8,0.9,3.9,3.3,5.5,5.1c0.8,0.9,1.4,1.6,1.8,2c0.2,0.2,0.5,0.4,0.9,0.7c-0.1,0.9-0.1,1.6,0,2.3
			c-0.1,0.1-0.3,0.2-0.4,0.3c-3.8-1.9-9.1-1.2-11-0.8c-0.8-1.3-2-2.6-3.9-3.6C90.9,93.7,86,94.9,82,95.8c-1.1,0.3-2.2,0.5-3.1,0.6
			c-0.5,0.1-1,0.1-1.5,0.2c-1,0.1-2,0.3-3,0.4C75.2,95.6,77,93.5,79.6,93L79.6,93L79.6,93z M108.2,110.5c0.1,1,0.2,2.2,0.2,3.5
			c0-0.1-0.1-0.3-0.1-0.4c-0.8-2.2-3.2-5.4-6.8-6.8c0.1-1,0.2-2.7-0.4-4.5c1.9-0.3,5.8-0.7,8.7,0.5c-1.1,1.9-1.6,4.2-1.7,5.2
			C108,108.4,108.1,109.1,108.2,110.5L108.2,110.5z M101.7,137.1H76.2c-0.1-0.2-0.2-0.4-0.3-0.7c-0.8-2.5-0.3-4.9,0.1-6.1
			c0.8,0.3,1.6,0.4,2.3,0.5c0.3,0.5,0.7,1,1.1,1.4c2.8,2.9,9,4.8,13.1,4.8c0.4,0,0.7,0,1.1,0c4.3-0.4,7.1-2.5,8.1-6.1
			c0.5-1.7,0.4-3.1,0-4.3c1.3-1.4,4.3-5.1,3.2-9.6c-1.1-4.3-3.8-6.1-6.3-7.7c-0.6-0.4-1.1-0.7-1.6-1.1c1.1-0.1,2.1,0.1,3,0.4
			c0,0,0,0,0,0c0,0,0,0,0,0c3.5,1.1,5.7,4.3,6.3,5.8c0.7,2.1,0.9,4.2,1.1,7.5c0.1,0.7,0.1,1.5,0.2,2.3c0.4,4.5-1.3,7.2-4.2,11.1
			C102.9,135.9,102.3,136.6,101.7,137.1L101.7,137.1L101.7,137.1z M88.9,127.3c0.1,0,0.2,0.1,0.3,0.1c0.5,0.2,1,0.2,1.5,0.2
			c0.9,0,1.7-0.3,2.4-0.8c1-0.7,1.5-1.9,1.5-3.4c0-0.6-0.1-1.2-0.4-1.7c0.4-1.7,0-4.7-3.3-5.9c-1.2-0.4-2.5-0.5-3.7-0.3
			c0.2-0.5,0.5-1,0.9-1.4c1.1-0.9,2.9-1.2,5-0.9c3.5,0.6,3.7,6.3,3.7,7l0,0.3c0,1.9,0.1,5.2-1.2,8c-0.4,0.8-1,1.3-1.9,1.6
			c-1.7,0.5-3.8,0-5-0.7c-1-0.6-1.1-1.5-1.1-2.2C88.2,127.5,88.6,127.4,88.9,127.3L88.9,127.3L88.9,127.3z M89.1,122.4
			C89.1,122.4,89.1,122.4,89.1,122.4c0.5-0.6,1-0.9,1.6-0.9c0.2,0,0.4,0,0.6,0.1c0.8,0.3,1.3,1.1,1.3,1.9c0,0.7-0.2,1.3-0.7,1.7
			c-0.5,0.4-1.2,0.4-2.1,0.2c0,0,0,0,0,0c-0.1-0.1-0.3-0.2-0.5-0.3c-0.2-0.2-0.4-0.4-0.5-0.8C88.6,123.6,88.8,122.8,89.1,122.4
			L89.1,122.4L89.1,122.4z M90.3,118c1.2,0.4,1.7,1.1,1.9,1.8c-0.1,0-0.1-0.1-0.2-0.1c-1.6-0.6-3.3-0.1-4.5,1.3
			c-0.8,1-1.1,2.6-0.8,3.9c0,0.1,0.1,0.2,0.2,0.4c-0.4-0.1-0.8-0.3-1.2-0.5c-0.9-0.6-1.7-1.8-1.6-3.2c0.2-1.3,0.9-2.5,2-3.2
			C87.4,117.6,88.8,117.4,90.3,118L90.3,118L90.3,118z M84.9,116.6c-1.6,1.1-2.7,2.7-2.9,4.6c-0.2,2,0.7,4,2.4,5.2
			c0.4,0.3,0.8,0.5,1.2,0.7c-0.2,1.4,0.1,3.3,2.1,4.4c1.2,0.7,2.9,1.2,4.6,1.2c0.7,0,1.4-0.1,2.1-0.3c1.5-0.5,2.6-1.4,3.2-2.7
			c0.6-1.3,0.9-2.6,1.2-3.8c0.7,0.9,1.4,2.3,0.8,4.4c-0.8,2.7-2.9,4.2-6.2,4.5c-3.5,0.3-9.9-1.5-12.4-4.1c-2.5-2.5-2.6-8-0.3-11.9
			c1.3-2.3,3.2-2.9,4.5-3C84.9,116.1,84.9,116.3,84.9,116.6L84.9,116.6L84.9,116.6z M99.1,123.2c0-1,0-1.8,0-2.5l0-0.3
			c0-1.4-0.4-8.2-5.5-9c-2.8-0.5-5.2,0-6.7,1.3c-0.3,0.3-0.6,0.6-0.9,1c-2-0.1-5.2,0.6-7.2,4.1c-2,3.4-2.4,7.5-1.4,10.7
			c-0.4-0.1-0.9-0.2-1.4-0.5c0,0,0,0,0,0c0,0,0,0,0,0c-1.4-0.6-2.7-1.8-2.9-4.1c-0.3-4,2-8,4.4-10.1c1.2-1,2-2.5,2.9-4.1
			c1.3-2.4,2.7-4.9,5.1-5.4c3.4-0.6,6.9,2.5,8.8,4.2c0.4,0.4,0.8,0.7,1.1,0.9c0.7,0.5,1.4,1,2.1,1.5c2.3,1.5,4.5,3,5.4,6.5
			c0.8,3-1,5.8-2.2,7.1C100,124,99.5,123.5,99.1,123.2L99.1,123.2L99.1,123.2z M63.1,117.1c0.4-2,0.5-3.9,0.5-5.8
			c0-3.1,0-5.8,2.2-8.1c1.9-2,4.4-3.1,7.1-3.7c0,0,0,0,0,0c1.6-0.4,3.2-0.6,4.8-0.8c0.5-0.1,1.1-0.1,1.6-0.2
			c1.1-0.2,2.1-0.4,3.3-0.7c3.8-0.9,8.1-1.9,12.7,0.6c4.1,2.3,4.4,5.9,4.2,7.7c-1.4-0.3-3-0.3-4.7,0.1c-2.3-2-5.9-4.8-9.8-4.1
			c-3.4,0.6-5.1,3.7-6.6,6.4c-0.8,1.4-1.5,2.8-2.4,3.6c-2.9,2.5-5.6,7.1-5.2,11.9c0.2,2.7,1.6,4.3,3.3,5.3c-0.4,1.1-0.9,3-0.7,5.3
			c-1.5,0.1-4.4,0-7-3C63.9,128.8,61.9,122.4,63.1,117.1L63.1,117.1L63.1,117.1z M61.6,108c-0.1,1.1-0.1,2.2-0.1,3.3
			c0,0.8,0,1.6-0.1,2.4l-0.5-6.5C61.2,107.4,61.4,107.7,61.6,108L61.6,108L61.6,108z M60.7,121.5l-5-4.1c1.9,0.1,3.5,0.4,5.1,0.9
			C60.7,119.3,60.6,120.4,60.7,121.5L60.7,121.5z M53.4,117.4l6.5,5.4c-0.8,0-1.7-0.1-2.5-0.1l-6.6-5.2
			C51.7,117.4,52.6,117.4,53.4,117.4L53.4,117.4z M50.9,112.7l6.8,1.8c0.4,0.4,0.8,0.8,1.2,1.2c-1.6-0.3-3.3-0.4-5.1-0.4
			C52.9,114.5,51.9,113.6,50.9,112.7L50.9,112.7L50.9,112.7z M59.4,105.4l0.6,8.9c-0.2-0.2-0.3-0.3-0.5-0.5l-1.2-9.3
			C58.7,104.8,59.1,105.1,59.4,105.4L59.4,105.4L59.4,105.4z M56.8,103.1l1.1,9c-2.1-2.2-3.9-4.3-5.5-6.2l-1.1-6.4
			C53,100.4,54.9,101.6,56.8,103.1L56.8,103.1L56.8,103.1z M49.7,98.8l0.8,4.9c-0.3-0.4-0.6-0.8-0.9-1.2l-0.6-4.1
			C49.3,98.6,49.5,98.7,49.7,98.8L49.7,98.8L49.7,98.8z M47.6,97.9l0.3,2.3c-0.8-1.2-1.5-2.1-2-2.9C46.4,97.4,46.9,97.6,47.6,97.9
			L47.6,97.9z M44.8,98.9c0.2,0.3,0.5,0.7,0.8,1.1l-0.7-0.3C44.9,99.4,44.9,99.2,44.8,98.9L44.8,98.9z M45.1,101.4l2.2,1.1
			c1,1.3,2.1,2.7,3.4,4.3l-4.6-1.6C45.7,103.8,45.3,102.5,45.1,101.4L45.1,101.4z M46.9,106.9l5.6,1.9c0.2,0.2,0.4,0.5,0.6,0.7
			l-6-2.1C47.1,107.3,47,107.1,46.9,106.9L46.9,106.9L46.9,106.9z M49.3,110.8c-0.4-0.5-0.7-1-1-1.4l6.9,2.4
			c0.2,0.3,0.5,0.5,0.8,0.8L49.3,110.8L49.3,110.8L49.3,110.8z M48.8,117.7l6.3,4.9c-4.6,0-9,0.3-12.8,0.7l-4.3-2.6
			C40.8,119.5,44.3,118.4,48.8,117.7L48.8,117.7z M36.5,121.5l3.5,2.1c-0.6,0.1-1.2,0.1-1.7,0.2l-3.2-1.6
			C35.5,122,36,121.8,36.5,121.5L36.5,121.5L36.5,121.5z M33.7,123.2l2.1,1c-1.7,0.3-3.2,0.5-4.4,0.7
			C32,124.4,32.8,123.8,33.7,123.2L33.7,123.2z M30.7,126.9c1.3-0.3,3.1-0.6,5.4-1l-2.8,2.8C32.3,128,31.4,127.4,30.7,126.9
			L30.7,126.9z M34.6,129.4l3.9-3.8c2.7-0.4,5.8-0.7,9.2-0.9l-7.9,6.9C37.8,131,36.1,130.2,34.6,129.4L34.6,129.4L34.6,129.4z
			 M41.5,132.1l8.6-7.5c1,0,2.1-0.1,3.1-0.1l-9.1,8.1C43.2,132.4,42.3,132.3,41.5,132.1L41.5,132.1L41.5,132.1z M51.5,133
			c-2,0.1-3.9,0-5.6-0.2l9.4-8.4c1.9,0,3.8,0.1,5.8,0.2c0.2,1.3,0.6,2.6,1.1,3.8l-3.9,3.8C56.2,132.6,54,132.9,51.5,133L51.5,133
			L51.5,133z M61.7,131.2c-0.2,0.1-0.4,0.2-0.7,0.2l0.8-0.7C61.8,130.8,61.7,131,61.7,131.2L61.7,131.2L61.7,131.2z M63.7,132.8
			l0-1.2l0.6,1c0.1,0.2,0.3,0.4,0.4,0.6c2.7,3.1,5.8,3.7,7.8,3.7c0.5,0,0.9,0,1.2-0.1c0,0.1,0.1,0.2,0.1,0.3h-9.6
			C63.8,135.6,63.6,134,63.7,132.8L63.7,132.8L63.7,132.8z M105.5,137.1c0-0.3-0.1-0.6-0.1-1c1.5-2,2.7-3.9,3.5-5.9
			c0.8,2.2,1.9,4.2,2.9,5.5c0.3,0.4,0.8,0.8,1.4,1.3L105.5,137.1L105.5,137.1L105.5,137.1L105.5,137.1z"/>
		<path class="st0" d="M287.5,189.1H125.4c-0.1-0.1-0.2-0.2-0.3-0.3c-0.1,0.1-0.3,0.2-0.4,0.3H11.8c-0.6,0-1.1,0.5-1.1,1.1
			c0,0.6,0.5,1.1,1.1,1.1h54.5c-1.5,0.3-3.1,0.8-4.7,1.3c-16,5.5-20.8,17.2-21,17.7c-0.2,0.5,0,1,0.4,1.3c0.3,0.2,5,3.4,14.2,3.4
			c1.5,0,3.1-0.1,4.8-0.3c-4.7,10.9-1.3,20.8-0.8,21.2c0.2,0.2,0.5,0.3,0.8,0.3c0,0,0.1,0,0.1,0c1.4-0.2,11.1-5,18-15.2
			c1.3,3.3,3.8,7.2,6.7,9.9c-2.3,0.8-4.4,1.1-4.9,1.2c-0.9-0.3-3.1-0.9-4.2-0.5c-0.6,0.2-1.3,0.5-1.7,1.3c-0.1,0.3-0.2,0.7,0,1.3
			c0.4,1,1.4,1.3,2.3,1.3c0.4,0,0.8-0.1,1.2-0.2c0.8-0.3,2.1-1.4,2.6-1.8c0.6-0.1,2-0.3,3.8-0.8c-1.9,1.9-3.7,3.5-5.5,5
			c-1.6,0.5-4.2,1.1-4.8,1.2c-0.9-0.3-3.1-0.9-4.2-0.5c-0.6,0.2-1.3,0.5-1.7,1.2c-0.1,0.3-0.2,0.7,0,1.3c0.4,1,1.4,1.3,2.3,1.3
			c0.4,0,0.8-0.1,1.2-0.2c0.8-0.3,2.2-1.4,2.6-1.8c0.3-0.1,1-0.2,1.9-0.4c-3.4,2.7-5.9,4.3-6.5,4.7c-0.9,0.1-3.2,0.3-4.1,1
			c-0.5,0.4-1.1,1-1.1,1.8c0,0.3,0,0.8,0.5,1.3c0.4,0.5,1,0.6,1.5,0.6c0.8,0,1.6-0.4,2.2-0.8c0.7-0.6,1.5-2.1,1.8-2.7
			c0.5-0.3,2-1.3,4.1-2.8c-0.6,1.1-0.9,1.9-1,2.2c-0.6,0.7-2.1,2.5-2.2,3.6c-0.1,0.6-0.1,1.5,0.4,2c0.2,0.2,0.6,0.5,1.2,0.6
			c0,0,0.1,0,0.1,0c1.4,0,2.3-1.5,2.4-2.7c0.1-0.9-0.4-2.5-0.6-3.1c0.2-0.6,1-2.5,2.6-4.9c0.7-0.5,1.4-1.1,2.1-1.8
			c0,0,0.1,0,0.1-0.1c1.3-1.1,2.7-2.4,4.1-3.7c-0.6,1.6-0.8,2.9-0.8,3.4c-0.5,0.8-1.6,2.8-1.5,3.9c0,0.6,0.2,1.4,0.8,1.9
			c0.2,0.2,0.5,0.4,1,0.4c0.1,0,0.2,0,0.2,0c1.5-0.2,2.1-1.9,2-3.1c-0.1-0.9-0.8-2.4-1.1-3c0.1-0.8,0.6-3.6,2.3-6.3c0,0,0,0,0,0
			c0.1,0.1,0.2,0.2,0.3,0.2c2.2,1.5,4.9,1.8,7.6,1.8c1.5,0,3.1-0.1,4.5-0.2c1.4-0.1,2.7-0.2,3.8-0.2c2.5,0.1,9,0.3,12.2-3.8
			c0.1,0,0.1,0,0.2,0.1c-0.1,0.7-0.1,1.4-0.2,2.1c-0.9,0.3-2.9,1.2-4.5,2.5c-2.7,2.3-3.1,3.4-3.1,4.1c0,0.5,0.1,0.9,0.5,1.2
			c0.3,0.3,0.7,0.5,1.2,0.5h0.1c1.1,0,2.4-1,4.2-2.9c0.4-0.5,0.8-1,1.2-1.5c-0.2,1.4-0.4,2.6-0.7,3.8c-0.9,0.3-2.9,1-4.6,2.3
			c-2.8,2.1-3.2,3.3-3.3,3.9c0,0.5,0.1,0.9,0.4,1.2c0.3,0.3,0.7,0.5,1.2,0.5h0c1.1,0,2.5-0.9,4.3-2.7c0.4-0.4,0.8-0.8,1.1-1.2
			c-0.3,1.2-0.5,2-0.6,2.3c-0.4,0.5-2,2.5-2.7,4.7c-1.1,3.4-0.8,4.5-0.5,5.1c0.2,0.4,0.6,0.7,1,0.8c0.1,0,0.2,0,0.4,0
			c0.3,0,0.6-0.1,0.9-0.3c0.9-0.6,1.6-2.1,2.1-4.6c0.4-2.2,0.3-4.7,0.2-5.3c0.1-0.3,0.3-1.1,0.6-2.3c0.1,0.5,0.3,1,0.4,1.4
			c0.9,2.4,1.8,3.8,2.8,4.3c0.2,0.1,0.5,0.2,0.7,0.2c0.2,0,0.4,0,0.6-0.1c0.4-0.2,0.7-0.5,0.9-0.9c0.2-0.6,0.4-1.8-1.3-5
			c-1-1.9-2.5-3.5-3.2-4.1c0.2-1,0.4-2.1,0.6-3.3c0.1,0.4,0.3,0.8,0.4,1.2c1,2.4,2,3.7,3,4.1c0.2,0.1,0.4,0.1,0.6,0.1
			c0.2,0,0.5,0,0.7-0.1c0.4-0.2,0.7-0.5,0.8-0.9c0.2-0.6,0.3-1.8-1.5-4.9c-1.1-1.8-2.7-3.3-3.4-3.9c0.1-0.7,0.1-1.3,0.2-2
			c0.2,0,0.4,0,0.6,0c1.1,1.3,4.1,3.5,8,4.9c1,1.8,5.7,9.6,14.9,10.7c2.4,0.3,4.2,0.4,5.7,0.4c3,0,4.2-0.5,5.5-1
			c0.6-0.3,1.2-0.5,1.9-0.6c1.1-0.2,2.4,0,3.7,0.2c2.3,0.4,4.9,0.8,7.8-0.5c2.3-1.1,3.9-3.3,5.2-5.5c4.2-0.4,7.3-2.6,9.6-5.1
			c-0.5,1-0.9,2-1.1,3c-0.6,3.5,2.6,8.3,2.7,8.5c0.1,0.2,0.4,0.3,0.6,0.3c0,0,0,0,0,0c0.3,0,0.5-0.2,0.6-0.4c0.1-0.2,2-4,2.4-6.9
			c0.2-1.2,0.1-3-0.1-4.7c1,1.8,2,3.5,3.1,5c-0.8,1-2.4,3.4-2.5,7.5c-0.2,5.3,3.4,8,3.5,8.1c0.1,0.1,0.3,0.1,0.4,0.1
			c0,0,0.1,0,0.1,0c0.2,0,0.4-0.2,0.5-0.3c0.1-0.1,1.8-3.2,1.7-6.4c0-1.4-0.5-3.5-1-5.3c1.9,2.4,3.4,4,4,4.7
			c-0.5,1.2-1.6,4.4-0.8,7.9c1.1,4.4,5,6.8,5.2,6.9c0.1,0.1,0.2,0.1,0.4,0.1c0.1,0,0.2,0,0.3-0.1c0.2-0.1,0.4-0.3,0.4-0.6
			c0-0.2,0.3-5.1-0.3-7.2c-0.3-0.8-0.9-2.3-1.6-3.7c1,0.7,2.3,1.4,3.7,1.8c1,0.3,2,0.4,2.9,0.4c2.4,0,4.6-0.6,5.8-1
			c0.2-0.1,0.4-0.1,0.5-0.1c0.3,0,0.6-0.3,0.7-0.6c0.2-1.2-6.7-4.5-8.7-4.9c-3.2-0.5-6.3-0.1-7.4,0c-0.5-0.5-1.9-2-3.6-4.1
			c1.1,0.6,2.4,1.1,3.9,1.3c1.5,0.2,2.8,0.3,4,0.3c2.5,0,4.1-0.4,4.2-0.4c0.2-0.1,0.4-0.2,0.5-0.5c0.1-0.2,0-0.5-0.2-0.7
			c-0.2-0.2-3.9-4-7.6-4.8c-3.4-0.7-6.7,0.1-8,0.5c-1.2-1.7-2.4-3.7-3.5-5.7c1.1,0.7,2.5,1.5,4.1,2c1.1,0.3,2.2,0.5,3.3,0.5
			c2.2,0,4.1-0.5,4.9-0.9c0,0,0,0,0,0c0.2-0.1,0.4-0.2,0.4-0.3c0.2-0.2,0.2-0.5,0.1-0.8c-0.1-0.1-0.2-0.2-0.3-0.3
			c-0.1-0.1-0.2-0.2-0.3-0.3c-0.5-0.4-1.3-1.1-2.3-1.8c3,1,6.9,1.5,10.8,1.5c3.6,0,7.1-0.5,9.5-1.6c2.8-1.3,4.7-2.8,5.9-4.6
			c0.2,0,0.5,0.1,0.7,0.1c0.4,0.5,0.7,0.9,1.1,1.4c-0.2,0.6-0.6,2.1-0.7,3.6c-0.1,1.5,0.2,3.5,1.2,4.3c0.3,0.2,0.6,0.4,0.9,0.4
			c0.1,0,0.2,0,0.3,0c0.4-0.1,0.8-0.3,1-0.7c0.7-1.1,0.5-3.1,0.2-4.2c0,0,0-0.1,0-0.1c0.4,0.4,0.8,0.8,1.1,1.2
			c-0.2,0.6-0.5,2.1-0.6,3.6c-0.1,1.5,0.4,3.5,1.3,4.3c0.3,0.2,0.6,0.3,0.9,0.3c0.1,0,0.2,0,0.4,0c0.4-0.1,0.7-0.4,1-0.8
			c0.6-1.1,0.3-3.1,0-4.2c0-0.1-0.1-0.2-0.1-0.3c0.5,0.5,1,0.9,1.5,1.4c-0.1,0.6-0.4,2.1-0.4,3.6c0,1.5,0.6,3.5,1.6,4.2
			c0.3,0.2,0.5,0.3,0.8,0.3c0.1,0,0.3,0,0.4-0.1c0.4-0.1,0.7-0.4,0.9-0.8c0.6-1.2,0.2-3.1-0.2-4.2c0-0.1-0.1-0.2-0.2-0.4
			c0.5,0.4,0.9,0.7,1.2,1c0.2,0.6,1,2.6,2.9,4.1c1.3,1,2.6,1.6,3.6,1.6c0.1,0,0.2,0,0.4,0c0.5-0.1,0.9-0.3,1.1-0.7
			c0.2-0.4,0.3-0.8,0.2-1.2c-0.2-1-1.2-2-2.9-3c-2.3-1.4-4.1-1.5-4.7-1.5c-0.4-0.3-0.8-0.7-1.3-1.1c0.2,0.1,0.3,0.1,0.5,0.1
			c0.5,0.1,1.1,0.2,1.8,0.2c0.9,0,1.8-0.1,2.4-0.5c0.4-0.3,0.6-0.6,0.7-1c0.1-0.4-0.1-0.9-0.4-1.2c-0.8-0.9-2.9-1.2-4.4-1
			c-1.4,0.2-2.9,0.6-3.5,0.9c-0.5-0.5-1-0.9-1.5-1.4c0.2,0.1,0.3,0.1,0.5,0.2c0.6,0.2,1.4,0.3,2.2,0.3c0.7,0,1.5-0.1,2-0.4
			c0.4-0.2,0.7-0.6,0.8-1c0.1-0.4,0-0.9-0.3-1.2c-0.8-0.9-2.8-1.3-4.3-1.2c-1.4,0.1-2.9,0.5-3.5,0.7c-0.5-0.5-1-1.1-1.5-1.6
			c0.2,0.1,0.5,0.2,0.7,0.3c0.6,0.2,1.6,0.4,2.5,0.4c0.6,0,1.3-0.1,1.7-0.3c0.4-0.2,0.7-0.6,0.8-1c0.1-0.4,0-0.9-0.3-1.2
			c-0.8-1-2.8-1.5-4.3-1.4c-1.4,0-2.9,0.4-3.6,0.5c-0.2-0.2-0.4-0.5-0.5-0.7c4.6-0.3,8.8-4.1,11.8-7.8c0.7,1.3,1.6,2.7,2.6,4
			c8.1,10.5,19.3,14.6,20.8,14.6h0c0.3,0,0.7-0.2,0.9-0.4c0.4-0.5,2.7-10.8-3.2-21c0,0,0.1,0,0.1,0c12.5,0,18.2-5,18.5-5.3
			c0.4-0.3,0.5-0.9,0.2-1.3c-0.3-0.5-6.3-11.6-22.8-15.3c-3.7-0.8-7-1.1-10-1.1c0-0.3,0.1-0.6,0.1-1h44.9c0.6,0,1.1-0.5,1.1-1.1
			C288.5,189.6,288.1,189.2,287.5,189.1L287.5,189.1L287.5,189.1z M77.1,234c-0.6,0.2-1.5,0.1-1.7-0.3c0-0.1-0.1-0.2,0-0.2
			c0-0.1,0.2-0.3,0.9-0.5c0.1,0,0.2,0,0.4,0c0.4,0,1.1,0.1,1.8,0.3C77.9,233.6,77.4,233.9,77.1,234L77.1,234L77.1,234z M70.9,240.8
			c-0.6,0.2-1.5,0.1-1.7-0.3c0-0.1,0-0.2,0-0.2c0-0.1,0.2-0.3,0.9-0.5c0.1,0,0.2,0,0.4,0c0.4,0,1.1,0.1,1.8,0.3
			C71.7,240.3,71.2,240.7,70.9,240.8L70.9,240.8L70.9,240.8z M67.5,247.3c-0.5,0.4-1.4,0.7-1.7,0.3c-0.1-0.1-0.1-0.2-0.1-0.2
			c0-0.1,0.1-0.3,0.6-0.8c0.3-0.2,1.1-0.4,2.1-0.6C68.1,246.6,67.7,247.1,67.5,247.3L67.5,247.3L67.5,247.3z M72.8,249.9
			c-0.1,0-0.2,0-0.2-0.1c-0.1-0.1-0.2-0.3-0.1-1c0-0.3,0.5-1.1,1.1-1.9c0.1,0.6,0.2,1.2,0.2,1.5C73.7,249.1,73.3,249.9,72.8,249.9
			L72.8,249.9L72.8,249.9z M83.1,243.3c-0.1,0-0.2,0-0.2,0c-0.1,0-0.2-0.2-0.3-1c0-0.3,0.3-1.2,0.8-2c0.2,0.6,0.5,1.1,0.5,1.5
			C83.9,242.3,83.6,243.2,83.1,243.3L83.1,243.3L83.1,243.3z M112.1,236.6c-2,2.2-3,2.4-3.2,2.4c-0.1,0-0.2,0-0.2-0.2
			c0-0.2,0.2-1,2.6-3c0.8-0.7,1.8-1.2,2.6-1.6C113.5,235,112.8,235.9,112.1,236.6L112.1,236.6L112.1,236.6z M110.8,244.2
			c-2.1,2.1-3.1,2.3-3.3,2.3c-0.1,0-0.2,0-0.2-0.2c0-0.2,0.2-1,2.7-2.9c0.9-0.6,1.9-1.1,2.7-1.5
			C112.1,242.6,111.5,243.5,110.8,244.2L110.8,244.2L110.8,244.2z M112,251.7c-0.6,3-1.3,3.6-1.5,3.7c-0.1,0.1-0.2,0.1-0.3,0
			c-0.1-0.1-0.4-0.9,0.6-4c0.3-1,0.9-2,1.4-2.8C112.3,249.6,112.2,250.7,112,251.7L112,251.7L112,251.7z M117,244.9
			c1.5,2.8,1.3,3.7,1.1,3.9c-0.1,0-0.1,0-0.2,0c-0.2-0.1-1-0.6-2-3.5c-0.3-1-0.6-2-0.7-2.9C115.8,243.1,116.5,244,117,244.9z
			 M118.4,237.1c1.6,2.8,1.4,3.6,1.3,3.8c0,0-0.1,0-0.2,0c-0.2-0.1-1-0.6-2.2-3.4c-0.4-0.9-0.7-2-0.8-2.9
			C117.2,235.3,117.9,236.2,118.4,237.1L118.4,237.1L118.4,237.1z M202.6,247.6c2,0.3,5,2,6.6,3.1c-1.7,0.5-4.6,1.1-7.2,0.4
			c-2.5-0.7-4.4-2.4-5.4-3.5C198,247.4,200.3,247.2,202.6,247.6L202.6,247.6L202.6,247.6z M195.3,248.7c0.9,1.7,2.4,4.7,2.9,6
			c0.4,1.1,0.4,3.6,0.3,5.3c-1.1-1-2.9-2.8-3.5-5.3C194.4,252.4,194.9,250.1,195.3,248.7L195.3,248.7z M196.5,238.8
			c2.2,0.5,4.6,2.3,5.9,3.5c-1.4,0.2-3.7,0.3-6.3-0.2c-2.8-0.5-5-2-6.2-3C191.3,238.7,193.8,238.2,196.5,238.8L196.5,238.8
			L196.5,238.8z M189.9,247.8c0.1,1.8-0.7,3.8-1.1,4.8c-0.9-0.9-2.4-3-2.3-6.3c0.1-2.9,1-4.9,1.7-6
			C188.8,242.2,189.9,245.8,189.9,247.8L189.9,247.8L189.9,247.8z M220.4,195.2c0.8,3.2-1.1,6.1-2.3,7.5c-0.5-0.6-1-1.1-1.5-1.5
			c0-1,0-1.9,0-2.6l0-0.3c0-1-0.2-4.5-2-7h3.8C219.2,192.3,220,193.5,220.4,195.2L220.4,195.2z M194,206.7c-0.5-0.1-1-0.3-1.5-0.5
			c0,0,0,0,0,0c0,0,0,0,0,0c-1.4-0.7-2.9-1.9-3.1-4.3c-0.4-4.2,2.1-8.3,4.6-10.6c0,0,0.1-0.1,0.1-0.1h8.9c0,0,0,0,0,0
			c-2-0.1-5.4,0.6-7.5,4.2C193.4,199,192.9,203.3,194,206.7L194,206.7L194,206.7z M189.9,213.2C189.9,213.2,189.9,213.2,189.9,213.2
			c-0.1-0.1,0-0.2,0-0.3C189.9,212.9,189.9,213,189.9,213.2L189.9,213.2L189.9,213.2z M187.9,196.9c-0.2-1.7-0.4-3.4-1.1-5.6h4.3
			C189.8,192.8,188.6,194.8,187.9,196.9L187.9,196.9L187.9,196.9z M190.2,209c0-0.6-0.1-1.2-0.2-1.7c0.2,0.1,0.4,0.3,0.6,0.4
			C190.5,208,190.4,208.5,190.2,209L190.2,209z M211.3,191.3c2.8,1.4,3,6.4,3.1,7l0,0.3c0,2,0.1,5.4-1.3,8.4c-0.4,0.8-1.1,1.4-2,1.7
			c-1.8,0.5-3.9,0-5.2-0.8c-1.1-0.6-1.2-1.7-1.1-2.4c0.4,0,0.9-0.1,1.3-0.2c0.1,0,0.2,0.1,0.3,0.1c0.5,0.2,1.1,0.2,1.6,0.2
			c0.9,0,1.8-0.3,2.5-0.8c1-0.8,1.6-2,1.6-3.5c0-0.6-0.1-1.2-0.4-1.7c0.4-1.8,0.1-4.8-3.4-6c-1.3-0.5-2.7-0.5-3.9-0.3
			c0.2-0.6,0.5-1.1,1-1.5c0.3-0.3,0.7-0.5,1-0.6L211.3,191.3L211.3,191.3L211.3,191.3z M203.8,202.9c0,0.2,0.1,0.3,0.2,0.4
			c-0.5-0.1-0.9-0.3-1.4-0.6c-0.9-0.6-1.8-1.9-1.6-3.4c0.2-1.4,0.9-2.6,2.1-3.3c1.3-0.8,2.8-0.9,4.3-0.4c1.3,0.4,1.8,1.2,2,2
			c-0.1,0-0.2-0.1-0.3-0.1c-1.6-0.6-3.3-0.1-4.6,1.4C203.7,199.9,203.4,201.5,203.8,202.9L203.8,202.9z M209.9,201.5
			c0,0.8-0.3,1.4-0.7,1.8c-0.5,0.4-1.3,0.5-2.2,0.2c0,0,0,0,0,0c-0.1-0.1-0.3-0.2-0.5-0.3c-0.3-0.2-0.5-0.5-0.6-0.8
			c-0.2-0.8,0-1.6,0.3-2v0c0.5-0.6,1.1-0.9,1.7-0.9c0.2,0,0.4,0,0.6,0.1C209.3,199.8,209.9,200.6,209.9,201.5L209.9,201.5
			L209.9,201.5z M197.3,196.6c1.4-2.4,3.4-3,4.7-3.1c-0.1,0.3-0.1,0.6-0.1,0.9c-1.7,1.1-2.8,2.8-3,4.8c-0.2,2,0.7,4.1,2.5,5.3
			c0.4,0.3,0.9,0.5,1.3,0.7c-0.2,1.4,0.1,3.4,2.1,4.6c1.2,0.7,3,1.3,4.8,1.3c0.7,0,1.5-0.1,2.2-0.3c1.5-0.5,2.6-1.4,3.3-2.8
			c0.6-1.3,1-2.7,1.2-4.1c0.8,0.9,1.5,2.5,0.9,4.7c-0.8,2.8-3,4.4-6.5,4.7c-3.6,0.3-10.3-1.6-12.9-4.3
			C195,206.3,194.8,200.7,197.3,196.6L197.3,196.6L197.3,196.6z M167.9,209.8c0.3-3.1-0.4-6-2-8.6c0.1-1.6,0.3-8-2.6-10h6.1
			c1.6,2,2.7,4.1,3.1,6c0.7,3.2,0.8,5,0.9,6.5c0.1,1.2,0.2,2.3,0.5,3.8c0.2,1,1.9,9.4-3.7,12.1C170.3,216.6,169.7,213.2,167.9,209.8
			L167.9,209.8L167.9,209.8z M133.2,192.8c0.5-0.5,1-1,1.5-1.5h24c1.1,0.4,2.2,1,3.3,1.7c1.2,0.8,1.6,3.3,1.8,5.7
			c-2.8-2.5-6.3-2.7-7.7-2.7c-0.8-1-2.4-1.9-4.2-2.5c-2-0.7-6.2-1.4-11,1.1c-7.2,3.7-10.2,7.8-9.4,12.5c0.4,2,1.7,3.9,3.1,5.8
			c0.3,0.5,0.7,1,1,1.5c-0.9-0.9-1.9-1.7-2.6-2.6c-0.9-1.1-1.8-1.8-2.8-2.6c-1.8-1.5-3.3-2.7-3.7-5.8c-0.6-4.1,3.1-7.4,5.8-9.9
			C132.7,193.3,132.9,193,133.2,192.8L133.2,192.8L133.2,192.8z M157.3,202.6c-0.8-1.3-1.9-2.1-3.2-2.5c-0.5-0.7-1.3-1.3-2.3-1.7
			c-3.1-1.2-5.7,0-7.1,1.5c-1.4-0.1-4.8,0.3-6.9,5.4c-2.4,5.5,1.4,8.9,4.2,11.3c0.4,0.4,0.9,0.8,1.3,1.1c1.8,1.7,4.6,2.8,7.3,2.8
			c2,0,3.9-0.6,5.4-1.9c2.4-2.1,2.9-4.8,2.8-7c1-0.8,2.9-2.7,2.9-5.7c0-2.7-2.2-5.5-3.9-7.6c0,0-0.1-0.1-0.1-0.1
			c1.7,0.3,4.1,1,5.7,3.2c2.7,3.5,3.1,7.6,1.4,12.4c-1.7,5-7.4,10.9-12.4,11.3c-7.1,0.7-11-0.9-11.7-4.9c-0.6-3.4-2.6-6.1-4.3-8.5
			c-1.3-1.8-2.5-3.4-2.8-5c-0.7-3.7,2.1-7,8.3-10.2c2.2-1.1,4.2-1.5,5.9-1.5c1.5,0,2.6,0.3,3.4,0.5c2.1,0.7,3.1,1.7,3.3,2
			c0.3,0.6,0.9,1.3,1.6,2.2c1.5,1.8,3.4,4.3,3.4,6.2c0,1.3-0.6,2.4-1.2,3.1c-0.1-0.4-0.2-0.8-0.3-1
			C158.5,206.1,158.2,204.1,157.3,202.6L157.3,202.6L157.3,202.6z M142.9,206.4c-0.4,1.7,0,5,3.8,6.9c1.1,0.5,2.3,0.8,3.5,0.8
			c1.1,0,2.2-0.2,3.3-0.7c1.2-0.5,2.2-1.3,3-2.2c0.2,1.8,0,4.2-2,5.9c-2.5,2.3-7.5,1.4-9.8-0.9c-0.4-0.4-0.9-0.8-1.3-1.2
			c-2.7-2.3-5.4-4.7-3.7-8.8c1.1-2.6,2.5-3.5,3.6-3.9C142.9,203.3,142.6,204.8,142.9,206.4L142.9,206.4L142.9,206.4z M152.5,206.3
			c-0.3,1.1-1.5,1.9-3,2.2c-1.1,0.2-2.6,0.1-3.5-0.9c-2-2.3-0.7-4.8-0.1-5.7c0.7-1.1,2.7-2.4,5.2-1.5
			C153.5,201.4,153.2,204.2,152.5,206.3L152.5,206.3L152.5,206.3z M154.5,207c0.5-1.4,0.6-2.7,0.6-3.8c0.1,0.2,0.3,0.3,0.4,0.5
			c0.7,1.2,0.9,2.9,0.3,4.5c-0.5,1.4-1.6,2.5-3,3.2c-1.6,0.7-3.5,0.6-5-0.1c-0.6-0.3-1.1-0.6-1.5-1c0.7,0.3,1.4,0.4,2.2,0.4
			c0.5,0,0.9,0,1.4-0.1C152.1,210.2,153.9,208.8,154.5,207L154.5,207L154.5,207z M129.2,211c0.8,0.6,1.5,1.3,2.2,2.1
			c1,1.2,2.3,2.3,3.5,3.4c1.8,1.6,3.6,3.3,3.8,4.5c0,0.1,0.1,0.3,0.1,0.4c1.2,3.9,4.7,5.9,10.7,5.9c1,0,2-0.1,3-0.2
			c5.9-0.6,12.3-7.2,14.2-12.7c0.1-0.4,0.2-0.7,0.3-1.1c3.3,9.7-4.3,18-9.1,20.8c-6,3.5-9.4,1.5-11.7-0.6c-3.2-2.9-5.8-4.3-10.4-6.2
			c-0.9-0.4-1.7-0.7-2.5-0.9c-3.5-1.2-5.8-2-6.5-6.7C126.4,215.4,128.2,212.3,129.2,211L129.2,211L129.2,211z M174,195.3
			c-0.5-1.3-1.2-2.7-2.1-4.1h3.5C175.3,192.7,174.9,194.1,174,195.3L174,195.3z M116.9,195.3c-0.2,0.2-0.4,0.4-0.6,0.5
			c-0.4-1-0.8-1.9-1.4-2.7c-0.6-0.8-1.2-1.4-1.8-1.9h4.2C116.9,192.8,116.8,194.2,116.9,195.3L116.9,195.3L116.9,195.3z M77.4,214.4
			c-0.9-1-1.9-2.5-2.7-4c-1.5-2.9-1.8-5.7-0.7-7.9c0.7-1.3,0.9-2.2,1.1-3.3c0.2-1,0.5-2.2,1.3-4.2c0.8-2,1.9-3.1,2.9-3.7h0
			c0,1.8,0.4,3.6,0.6,4.6c-1.8,1.6-3.7,3.8-3.8,7.2c-0.2,2.9,1.3,5.3,3,7.8C78.6,211.6,77.8,212.8,77.4,214.4L77.4,214.4L77.4,214.4
			z M71.2,205c0,1,0.1,2.1,0.4,3.2l-1,1.8c-0.9,0.4-1.9,0.7-2.9,1L71.2,205L71.2,205L71.2,205z M74.7,193.5l-2.4-1
			c1-0.1,2-0.1,3-0.1C75.1,192.7,74.9,193.1,74.7,193.5L74.7,193.5L74.7,193.5z M78.2,203.2c0.2-3.5,2.6-5.4,4.7-7.1
			c0.4-0.3,0.8-0.6,1.1-0.9c0.9-0.7,1.7-1.8,2.6-2.9c0.2-0.3,0.5-0.6,0.8-1h6.7c-0.2,0.7-0.3,1.5-0.3,2.3c-0.6,0.4-1.2,0.7-1.8,0.8
			c-2.1,0.4-4.3,2.3-4.5,4.6c0,0.6,0,1.2,0,1.6c0,1,0,1.7-0.5,2.8c-1,2.4-1.6,7.8,1.9,10.1l0.6,0.4c2.4,1.6,4.2,2.8,6.6,3
			c0.6,0.8,2.3,1.8,6.3,1.7c1.3,0,2.5,0,3.7,0.1c0.5,0,1,0.1,1.5,0.1c-1.8,2.4-6.1,6.1-10.5,5.5c-4.1-0.6-9.6-2.5-12.2-8.2
			c-0.9-2-2.1-3.7-3.3-5.4C79.7,208.1,78.1,205.7,78.2,203.2L78.2,203.2L78.2,203.2z M81.4,191.3h3.3c-0.7,0.9-1.4,1.8-2,2.3
			c-0.3,0.2-0.6,0.5-0.9,0.8C81.6,193.4,81.4,192.3,81.4,191.3L81.4,191.3L81.4,191.3z M99.6,202.1c-0.1,0.1-0.2,0.2-0.3,0.3
			c-1.2,0.1-2.9,0.9-3.5,3.2c-0.4,1.5-0.1,3.1,0.8,4.3c0.5,0.7,1.2,1.2,2,1.5c-1.1-0.1-2.7-0.6-4-2.4c-0.7-1-0.6-2.2-0.4-3.1
			c0.4-1.4,1.3-2.7,2-3.1c0,0,0,0,0,0c0.9-0.5,1.3-1.2,1.7-1.8c0.5-0.9,0.9-1.4,2.3-1.3c0.6,0,1.1,0.2,1.4,0.5
			c0.2,0.2,0.3,0.5,0.4,0.8C101.3,201,100.4,201.3,99.6,202.1L99.6,202.1L99.6,202.1z M102.2,203.1c0.3,0,0.5,0.1,0.8,0.3
			c0.7,0.6,0.9,1.8,0.5,2.4c-0.4,0.6-1.3,1-2.3,0.4c-0.4-0.3-0.7-0.8-0.8-1.3c0-0.5,0.1-0.9,0.5-1.2
			C101.4,203.3,101.8,203.1,102.2,203.1L102.2,203.1L102.2,203.1z M98.3,208.6c-0.3-0.4-0.8-1.2-0.5-2.4c0.1-0.5,0.3-0.8,0.5-1
			c0.1,1.2,0.8,2.3,1.8,2.9c0.7,0.4,1.4,0.6,2.2,0.6c0.1,0,0.1,0,0.2,0c0,0,0,0.1-0.1,0.1c-0.4,0.5-1.2,0.8-2.3,0.8h0
			C99.4,209.5,98.7,209.2,98.3,208.6L98.3,208.6L98.3,208.6z M104.7,209c0.1-0.3,0.3-0.9,0.3-1.6c0.1-0.2,0.3-0.3,0.4-0.5
			c1-1.6,0.5-3.8-1-5.1c0,0-0.1,0-0.1-0.1c0-0.7-0.3-2-1.1-3c-0.7-0.8-1.7-1.2-2.9-1.3c-1.7-0.1-2.6,0.5-3.3,1.1
			c0.8-1.1,2.2-1.8,3.1-1.8c1.5-0.1,3,1,4.5,3.3c0.5,0.7,1.1,1.3,1.8,1.9c1.4,1.2,2.7,2.4,2.5,4.9c-0.3,3.4-2.7,4.8-4.7,5.3
			c-1,0.3-2.4-0.1-3.5-0.4c-0.1,0-0.3-0.1-0.4-0.1C103.3,211.5,104.3,210,104.7,209L104.7,209L104.7,209z M100,194.7
			c-1.8,0.1-3.9,1.4-5,3c-0.7,1.2-0.9,2.4-0.6,3.7c-1,0.9-1.9,2.4-2.3,3.9c-0.4,1.8-0.2,3.4,0.7,4.8c2.1,3.1,5,3.3,6.2,3.4l0.2,0
			c0.2,0,0.6,0.1,1,0.2c0.1,0,0.3,0.1,0.4,0.1c-1.1,0.6-2.5,1-3.8,1c-2,0-3.5-1-6-2.7l-0.6-0.4c-2.2-1.5-1.9-5.7-1.1-7.5
			c0.7-1.6,0.7-2.6,0.6-3.7c0-0.4,0-0.9,0-1.4c0.1-1.3,1.6-2.5,2.8-2.7c1.7-0.4,3-1.4,4.7-2.7l0.4-0.3c1.8-1.4,2.8-1.9,4.6-0.6
			c0.9,0.6,1.3,1.8,1.5,3.1C102.5,195.1,101.3,194.7,100,194.7L100,194.7L100,194.7z M96.2,191.8L96.2,191.8c0-0.2,0.1-0.4,0.2-0.5
			h0.5C96.7,191.5,96.4,191.6,96.2,191.8L96.2,191.8z M106.2,216.6c-1.2-0.1-2.5-0.1-3.9-0.1c-0.9,0-1.7,0-2.3-0.1
			c1.3-0.5,2.5-1.2,3.3-2c0,0,0,0,0,0c0.5,0,0.9,0,1.3-0.2c2.2-0.6,5.8-2.3,6.2-7.2c0.3-3.5-1.7-5.3-3.2-6.6c-0.6-0.5-1.1-1-1.4-1.4
			c-0.2-0.3-0.3-0.5-0.5-0.7c0.1-1.3,0-5.2-2.4-7h5.6c0.2,0.1,0.4,0.2,0.6,0.4c1.2,0.6,2.3,1.3,3.5,2.8c0.7,0.9,1.2,2.1,1.5,3.5
			c-0.9,1.8-1.3,3.8-1.3,4.6c0,0.4,0,1.2,0.1,2.6c0.2,2.6,0.5,6.6,0.2,9.7C111.8,216.9,109.4,216.8,106.2,216.6L106.2,216.6
			L106.2,216.6z M119.4,191.3h2.5c-1.1,0.8-2.1,1.6-3,2.4C119.1,192.9,119.2,192.1,119.4,191.3L119.4,191.3z M62.3,194.6
			c2.6-0.9,5-1.4,7.2-1.8l4.7,2c-0.7,1.8-0.9,3-1.2,3.9c-0.2,0.8-0.3,1.4-0.7,2.2c-0.9,0.4-1.8,0.8-2.7,1.1l-13.2-4.9
			C58.2,196.2,60.2,195.4,62.3,194.6L62.3,194.6L62.3,194.6z M54.9,198.1l12.8,4.8c-1.1,0.4-2.3,0.8-3.4,1.2l-12-4.3
			C53.1,199.2,54,198.6,54.9,198.1L54.9,198.1z M51,200.8l11.2,4c-3.6,1.2-7,2.1-10,2.8l-5.7-2.4C47.6,203.8,49.1,202.3,51,200.8
			L51,200.8L51,200.8z M45.5,206.4l4.3,1.8c-2.7,0.6-4.9,1.1-6.4,1.3C43.9,208.7,44.5,207.6,45.5,206.4L45.5,206.4z M44.7,211.1
			c1.4-0.3,3.2-0.6,5.3-1.1l-2,2.1C46.7,211.8,45.6,211.4,44.7,211.1z M49.7,212.4l2.8-3c0.7-0.2,1.3-0.3,2-0.5l-2.9,3.8
			C51,212.6,50.3,212.5,49.7,212.4L49.7,212.4z M53.3,212.8l3.5-4.6c4.1-1.1,8.8-2.6,13.6-4.5l-4.6,7.8
			C60.9,212.7,56.7,213,53.3,212.8L53.3,212.8z M67.8,213.2c0.3-0.1,0.5-0.2,0.8-0.2l-7.4,4.6c0.3-0.9,0.7-1.8,1.1-2.7l1.3-0.7
			C64.9,213.9,66.3,213.6,67.8,213.2L67.8,213.2z M60,222.8l6.2-3.8c-1.3,2.6-2.4,4.9-3.4,6.9l-3,2.4
			C59.7,226.7,59.7,224.8,60,222.8L60,222.8L60,222.8z M60.2,232c-0.1-0.6-0.2-1.2-0.3-2l1.6-1.3C61,230,60.6,231.1,60.2,232
			L60.2,232z M61.6,233.4c0.5-1.3,1.3-3.3,2.4-5.8l0.3,4.2C63.2,232.5,62.3,233,61.6,233.4L61.6,233.4L61.6,233.4z M65.6,230.9
			l-0.5-5.9c0.4-0.8,0.8-1.6,1.2-2.4l0.4,7.5C66.4,230.3,66,230.6,65.6,230.9L65.6,230.9z M60.3,220.9c0.1-0.4,0.2-0.9,0.3-1.3
			l7.8-4.8c-0.3,0.6-0.7,1.2-1,1.8L60.3,220.9L60.3,220.9L60.3,220.9z M68.1,229l-0.5-9c1.3-2.5,2.8-5.3,4.6-8.3
			c0.2-0.1,0.5-0.2,0.7-0.3c0.2,0.3,0.3,0.6,0.5,0.9l1,10.3C72.3,225.2,70.1,227.3,68.1,229L68.1,229L68.1,229z M75.6,221l-0.6-6.2
			c0.6,0.8,1.2,1.5,1.6,1.9L77,219C76.5,219.7,76.1,220.4,75.6,221L75.6,221L75.6,221z M102.7,231.8c-1.2,0-2.6,0.1-4,0.2
			c-3.7,0.3-7.9,0.6-10.7-1.2c-4-2.7-7.8-8.9-8.6-12.8c-0.4-2.1,0.3-4,1-5.2c0.9,1.3,1.8,2.7,2.5,4.2c2.3,5,7,8.2,13.2,9.3
			c1,1.7,3.4,4,7.4,4c0.3,0,0.7,0,1,0c3.7-0.4,5.3-1,6.8-1.7c0.8-0.3,1.5-0.6,2.5-0.9C112.1,231.5,107.1,231.9,102.7,231.8
			L102.7,231.8L102.7,231.8z M114.1,225.5c-1.6,0.4-2.6,0.8-3.5,1.2c-1.4,0.6-2.8,1.2-6.2,1.5c-2.8,0.3-4.5-0.8-5.5-1.7
			c5.3-0.5,9.9-5.3,11.1-7.7c1.1-0.1,2.2-0.3,3.1-0.8c-0.3,2.4,0.3,5.1,1.2,7.5C114.3,225.4,114.2,225.4,114.1,225.5L114.1,225.5
			L114.1,225.5z M118.8,229.1c-1.9-2.5-4.3-8-3.3-12.1c0.9-3.5,0.4-8.8,0.2-12c-0.1-1-0.2-2-0.1-2.3c0.1-1.1,0.7-4,2.1-5.2
			c0.3-0.2,0.7-0.6,1.1-0.9c0,0,0,0,0,0c1.6-1.3,4.1-3.3,6.6-5.3h6.3L131,192c-2.9,2.6-7.2,6.6-6.4,11.8c0.4,3,1.7,4.6,3.1,5.9
			c-1.2,1.6-3.5,5.3-2.7,10.4c0.9,5.9,4.3,7.1,7.9,8.4c0.8,0.3,1.6,0.6,2.4,0.9c2.4,1,4.1,1.8,5.8,2.8c-2.6,2-5.8,2.9-9.4,2.6
			C125.3,234.2,119.8,230.5,118.8,229.1L118.8,229.1L118.8,229.1z M169.2,235.8c-1.4,2.7-3.1,5.7-5.5,6.8c-2.3,1.1-4.5,0.7-6.5,0.3
			c-1.5-0.3-3-0.5-4.5-0.2c-1,0.2-1.7,0.5-2.4,0.8c-1.6,0.7-3.2,1.3-10.1,0.5c-6.1-0.8-10.1-5-12-7.7c1,0.2,2.1,0.4,3.2,0.5
			c0.5,0,1,0.1,1.5,0.1c3.8,0,7.1-1.2,9.9-3.5c0.7,0.5,1.4,1.1,2.1,1.8c2.2,2.1,4.6,3.1,7.2,3.1c2.2,0,4.5-0.7,7-2.2
			c4.5-2.6,9-7.8,10.5-13.9c2.3-0.7,4-2.1,5-3.9c2.4,6.7-1.5,12.3-2.8,13.5C170.9,232.7,170.1,234.1,169.2,235.8L169.2,235.8
			L169.2,235.8z M171.1,236.8c0.8-1.4,1.5-2.8,2.2-3.4c2.6-2.4,6.6-9.9,2.5-17.8c0.7-2.7,0.6-5.7,0-8.4c-0.3-1.4-0.4-2.3-0.4-3.5
			c-0.1-1.4-0.2-3-0.7-5.8c1.8-1.9,2.8-4.2,2.9-6.6h6.9c1,2.5,1.2,4.4,1.3,6.3c0.1,1.2,0.2,2.4,0.5,3.8c0.3,1.4,0.6,2.6,0.9,3.6
			c0.8,2.7,1.4,4.6,0.3,8.8c-0.9,3.2-2.2,4.9-3.4,6.5c-1,1.2-1.9,2.4-2.1,4C181.6,226.6,178.6,235.1,171.1,236.8L171.1,236.8
			L171.1,236.8z M182.4,229.4C182.4,229.4,182.4,229.4,182.4,229.4C182.4,229.4,182.3,229.5,182.4,229.4
			C182.3,229.5,182.4,229.4,182.4,229.4z M183.2,238.3c-0.2,1.7-1.1,3.9-1.7,5.3c-0.9-1.5-2.2-4.3-1.8-6.4c0.4-2,2-4.5,3.1-5.9
			C183,233.2,183.4,236.5,183.2,238.3L183.2,238.3L183.2,238.3z M183.6,228.7c-0.1-0.3-0.3-0.7-0.4-1c0.5-1.3,0.8-2.4,0.9-3.1
			c0-0.3,0.1-0.5,0.2-0.7c1.1,0.8,2.3,1.5,3.4,2.1c1.2,0.7,2.4,1.4,3.4,2.2C188.3,227.3,185,228.2,183.6,228.7z M189.8,232.9
			c-2.4-0.7-4.3-2.1-5.3-3c1.4-0.4,4.1-1,6.2-0.4c2.1,0.6,4.3,2.3,5.4,3.3C194.8,233.2,192.3,233.6,189.8,232.9z M214.8,228.3
			c-6,2.8-19.1,1-21.9-1.5c-1.2-1.1-2.6-1.9-4.1-2.7c-1.1-0.6-2.2-1.3-3.3-2c0.1-0.2,0.3-0.4,0.4-0.5c1.1-1.4,2.5-3.2,3.4-6.2
			c0.4,0,0.8,0,1.1-0.1c0,0.1,0.1,0.3,0.1,0.4c1.5,4.4,7.5,6.5,11.1,6.5c0.4,0,0.7,0,1-0.1c2.6-0.4,6.1-0.7,9.4-0.8
			c2.6-0.1,6.3-1.5,9.2-4.5C221.7,223.2,220,225.9,214.8,228.3L214.8,228.3L214.8,228.3z M221.1,213.7c-2.7,3.7-6.6,5.4-9.2,5.5
			c-3.4,0.1-7,0.4-9.7,0.8c-2.6,0.4-8.5-1.5-9.8-5c-0.9-2.6-0.3-5.1,0.1-6.4c0.9,0.3,1.7,0.4,2.4,0.5c0.3,0.5,0.7,1,1.1,1.5
			c2.9,3,9.3,4.9,13.6,4.9c0.4,0,0.8,0,1.1,0c4.4-0.4,7.3-2.6,8.4-6.3c0.5-1.7,0.4-3.2,0-4.4c1.3-1.4,4.5-5.3,3.3-10
			c-0.3-1.3-0.9-2.4-1.5-3.4h2.9c0.1,0.2,0.2,0.4,0.3,0.6c0.8,2.2,0.9,4.3,1.2,7.8c0.1,0.7,0.1,1.6,0.2,2.4
			C225.9,206.9,224.1,209.7,221.1,213.7L221.1,213.7z M222.6,223.7c0.9-2.5,0.9-5.4,0.5-9c2.9-4,5-7.4,4.5-12.6
			c-0.1-0.9-0.1-1.7-0.2-2.4c-0.3-3.6-0.4-5.8-1.3-8.3h8.7c0.2,0.5,0.3,1,0.4,1.4l0.3,1.1c0.2,0.8,0.6,1.7,0.9,2.6
			c1.6,4.2,3.7,10,1.3,14.2C234.1,217.3,228.2,223.9,222.6,223.7L222.6,223.7L222.6,223.7z M240.5,209.9c0.2-0.7,0.4-1.5,0.5-2.2
			l2.4,3.4C242.3,210.7,241.4,210.3,240.5,209.9L240.5,209.9z M245.5,211.7l-4.6-6.5c0-0.4-0.1-0.8-0.1-1.1c0.6,0.2,1.3,0.4,1.9,0.6
			l5.7,7.6C247.5,212.1,246.5,211.9,245.5,211.7L245.5,211.7z M236.9,216.1c0.9-1.2,1.6-2.4,2.2-3.3l-0.2,6.7
			C238.1,218.3,237.4,217.2,236.9,216.1L236.9,216.1z M240.2,221.3l0.3-9c0.4,0.1,0.7,0.3,1.1,0.4l0.2,10.4
			C241.2,222.5,240.7,221.9,240.2,221.3L240.2,221.3L240.2,221.3z M243.2,224.6l-0.2-11.4c0.4,0.1,0.7,0.2,1.1,0.3
			c2.1,2.7,3.9,5.3,5.5,7.7l0.5,9C247.9,228.7,245.5,226.9,243.2,224.6L243.2,224.6L243.2,224.6z M251.6,231.1l-0.4-7.5
			c0.5,0.8,1,1.6,1.4,2.3l0.2,5.9C252.4,231.6,252,231.3,251.6,231.1L251.6,231.1z M254.2,232.6l-0.1-4.2c1.4,2.3,2.3,4.2,3,5.5
			C256.3,233.5,255.3,233.1,254.2,232.6L254.2,232.6z M258.3,232.3c-0.4-0.9-1-1.9-1.7-3.1l1.8,1.1
			C258.3,231,258.3,231.7,258.3,232.3L258.3,232.3z M258.3,228.6l-3.3-2c-1.1-1.9-2.5-4.1-4.1-6.5l6.5,3.1
			C258,225.1,258.2,227,258.3,228.6L258.3,228.6L258.3,228.6z M257,221.3l-7.6-3.6c-0.4-0.5-0.8-1.1-1.2-1.6l8.3,3.9
			C256.7,220.5,256.8,220.9,257,221.3L257,221.3z M254.3,215.5c0.5,0.9,1,1.7,1.4,2.6l-7.9-3.7c0.3,0.1,0.6,0.1,0.9,0.2
			c1.5,0.2,2.9,0.4,4.3,0.5L254.3,215.5L254.3,215.5z M250.5,212.6l-5.4-7.3c4.9,1.3,9.7,2.3,14,3l4,4.1
			C259.7,213,255.5,213.2,250.5,212.6L250.5,212.6z M264.7,212.1l-3.3-3.5c0.7,0.1,1.4,0.2,2.1,0.3l3.1,2.7
			C266,211.8,265.3,212,264.7,212.1z M268.1,211.2l-2.2-1.9c2.2,0.2,4,0.4,5.4,0.5C270.5,210.2,269.4,210.7,268.1,211.2L268.1,211.2
			L268.1,211.2z M272.5,208.1c-1.5-0.1-3.7-0.3-6.5-0.6l4.1-2.3C271.2,206.3,271.9,207.3,272.5,208.1z M269,204.2l-5.4,3
			c-3-0.4-6.5-1-10.3-1.7l10.6-5.2C266,201.6,267.7,202.9,269,204.2L269,204.2z M262.6,199.4l-11.4,5.6c-1.2-0.3-2.3-0.5-3.5-0.8
			l12.2-6.2C260.8,198.5,261.7,198.9,262.6,199.4L262.6,199.4z M244.7,194.4c2.3,0.1,4.7,0.4,7.4,1c2.2,0.5,4.2,1.1,6.1,1.9
			l-12.6,6.3c-1.7-0.5-3.3-1-5-1.5c-0.2-0.7-0.3-1.4-0.5-2.1c0.7-1.2,1.3-2.5,1.8-4L244.7,194.4L244.7,194.4L244.7,194.4z
			 M239.1,197.3c-0.2-0.5-0.4-1.1-0.6-1.5c-0.4-0.9-0.7-1.8-0.9-2.5l-0.3-1.1c-0.1-0.3-0.2-0.6-0.2-0.8h3.4
			C240.3,193.3,239.9,195.4,239.1,197.3L239.1,197.3L239.1,197.3z"/>
	</g>
</g>
</svg>
